%TF.GenerationSoftware,KiCad,Pcbnew,9.0.8+dfsg-1*%
%TF.CreationDate,2026-07-05T22:45:28+02:00*%
%TF.ProjectId,RetroWiFiModem,52657472-6f57-4694-9669-4d6f64656d2e,0.3*%
%TF.SameCoordinates,Original*%
%TF.FileFunction,Profile,NP*%
%FSLAX46Y46*%
G04 Gerber Fmt 4.6, Leading zero omitted, Abs format (unit mm)*
G04 Created by KiCad (PCBNEW 9.0.8+dfsg-1) date 2026-07-05 22:45:28*
%MOMM*%
%LPD*%
G01*
G04 APERTURE LIST*
%TA.AperFunction,Profile*%
%ADD10C,0.150000*%
%TD*%
G04 APERTURE END LIST*
D10*
X109700000Y-75830000D02*
X162485000Y-75830000D01*
X109700000Y-81141000D02*
X109700000Y-75830000D01*
X109700000Y-112629000D02*
X111980600Y-112629000D01*
X109700000Y-141970000D02*
X109700000Y-112629000D01*
X111980600Y-81141000D02*
X109700000Y-81141000D01*
X111980600Y-87271100D02*
X111980600Y-81141000D01*
X111980600Y-106498900D02*
X116832000Y-106498900D01*
X111980600Y-112629000D02*
X111980600Y-106498900D01*
X116832000Y-87271100D02*
X111980600Y-87271100D01*
X116832000Y-106498900D02*
X116832000Y-87271100D01*
X162485000Y-75830000D02*
X162485000Y-80975000D01*
X162485000Y-136825000D02*
X162485000Y-141970000D01*
X162485000Y-136825000D02*
G75*
G02*
X169115000Y-136825000I3315000J0D01*
G01*
X162485000Y-141970000D02*
X109700000Y-141970000D01*
X169115000Y-75830000D02*
X209700000Y-75830000D01*
X169115000Y-80975000D02*
G75*
G02*
X162485000Y-80975000I-3315000J0D01*
G01*
X169115000Y-80975000D02*
X169115000Y-75830000D01*
X169115000Y-141970000D02*
X169115000Y-136825000D01*
X209700000Y-75830000D02*
X209700000Y-141970000D01*
X209700000Y-141970000D02*
X169115000Y-141970000D01*
M02*
