%TF.GenerationSoftware,KiCad,Pcbnew,9.0.8+dfsg-1*%
%TF.CreationDate,2026-07-05T22:45:28+02:00*%
%TF.ProjectId,RetroWiFiModem,52657472-6f57-4694-9669-4d6f64656d2e,0.3*%
%TF.SameCoordinates,Original*%
%TF.FileFunction,Legend,Top*%
%TF.FilePolarity,Positive*%
%FSLAX46Y46*%
G04 Gerber Fmt 4.6, Leading zero omitted, Abs format (unit mm)*
G04 Created by KiCad (PCBNEW 9.0.8+dfsg-1) date 2026-07-05 22:45:28*
%MOMM*%
%LPD*%
G01*
G04 APERTURE LIST*
%ADD10C,0.150000*%
%ADD11C,0.300000*%
%ADD12C,0.120000*%
G04 APERTURE END LIST*
D10*
X127159000Y-128476000D02*
X151159000Y-128476000D01*
X127159000Y-141476000D02*
X127159000Y-128476000D01*
X151159000Y-128476000D02*
X151159000Y-141476000D01*
X151159000Y-141476000D02*
X127159000Y-141476000D01*
X144836428Y-106501128D02*
X144836428Y-107572557D01*
X144836428Y-107572557D02*
X144764999Y-107786842D01*
X144764999Y-107786842D02*
X144622142Y-107929700D01*
X144622142Y-107929700D02*
X144407856Y-108001128D01*
X144407856Y-108001128D02*
X144264999Y-108001128D01*
X146264999Y-108001128D02*
X145550713Y-108001128D01*
X145550713Y-108001128D02*
X145550713Y-106501128D01*
X147622142Y-107858271D02*
X147550714Y-107929700D01*
X147550714Y-107929700D02*
X147336428Y-108001128D01*
X147336428Y-108001128D02*
X147193571Y-108001128D01*
X147193571Y-108001128D02*
X146979285Y-107929700D01*
X146979285Y-107929700D02*
X146836428Y-107786842D01*
X146836428Y-107786842D02*
X146764999Y-107643985D01*
X146764999Y-107643985D02*
X146693571Y-107358271D01*
X146693571Y-107358271D02*
X146693571Y-107143985D01*
X146693571Y-107143985D02*
X146764999Y-106858271D01*
X146764999Y-106858271D02*
X146836428Y-106715414D01*
X146836428Y-106715414D02*
X146979285Y-106572557D01*
X146979285Y-106572557D02*
X147193571Y-106501128D01*
X147193571Y-106501128D02*
X147336428Y-106501128D01*
X147336428Y-106501128D02*
X147550714Y-106572557D01*
X147550714Y-106572557D02*
X147622142Y-106643985D01*
X148693571Y-106501128D02*
X148693571Y-107572557D01*
X148693571Y-107572557D02*
X148622142Y-107786842D01*
X148622142Y-107786842D02*
X148479285Y-107929700D01*
X148479285Y-107929700D02*
X148264999Y-108001128D01*
X148264999Y-108001128D02*
X148122142Y-108001128D01*
X150122142Y-108001128D02*
X149407856Y-108001128D01*
X149407856Y-108001128D02*
X149407856Y-106501128D01*
X151479285Y-107858271D02*
X151407857Y-107929700D01*
X151407857Y-107929700D02*
X151193571Y-108001128D01*
X151193571Y-108001128D02*
X151050714Y-108001128D01*
X151050714Y-108001128D02*
X150836428Y-107929700D01*
X150836428Y-107929700D02*
X150693571Y-107786842D01*
X150693571Y-107786842D02*
X150622142Y-107643985D01*
X150622142Y-107643985D02*
X150550714Y-107358271D01*
X150550714Y-107358271D02*
X150550714Y-107143985D01*
X150550714Y-107143985D02*
X150622142Y-106858271D01*
X150622142Y-106858271D02*
X150693571Y-106715414D01*
X150693571Y-106715414D02*
X150836428Y-106572557D01*
X150836428Y-106572557D02*
X151050714Y-106501128D01*
X151050714Y-106501128D02*
X151193571Y-106501128D01*
X151193571Y-106501128D02*
X151407857Y-106572557D01*
X151407857Y-106572557D02*
X151479285Y-106643985D01*
X152550714Y-106501128D02*
X152550714Y-107572557D01*
X152550714Y-107572557D02*
X152479285Y-107786842D01*
X152479285Y-107786842D02*
X152336428Y-107929700D01*
X152336428Y-107929700D02*
X152122142Y-108001128D01*
X152122142Y-108001128D02*
X151979285Y-108001128D01*
X153979285Y-108001128D02*
X153264999Y-108001128D01*
X153264999Y-108001128D02*
X153264999Y-106501128D01*
X155336428Y-107858271D02*
X155265000Y-107929700D01*
X155265000Y-107929700D02*
X155050714Y-108001128D01*
X155050714Y-108001128D02*
X154907857Y-108001128D01*
X154907857Y-108001128D02*
X154693571Y-107929700D01*
X154693571Y-107929700D02*
X154550714Y-107786842D01*
X154550714Y-107786842D02*
X154479285Y-107643985D01*
X154479285Y-107643985D02*
X154407857Y-107358271D01*
X154407857Y-107358271D02*
X154407857Y-107143985D01*
X154407857Y-107143985D02*
X154479285Y-106858271D01*
X154479285Y-106858271D02*
X154550714Y-106715414D01*
X154550714Y-106715414D02*
X154693571Y-106572557D01*
X154693571Y-106572557D02*
X154907857Y-106501128D01*
X154907857Y-106501128D02*
X155050714Y-106501128D01*
X155050714Y-106501128D02*
X155265000Y-106572557D01*
X155265000Y-106572557D02*
X155336428Y-106643985D01*
X156407857Y-106501128D02*
X156407857Y-107572557D01*
X156407857Y-107572557D02*
X156336428Y-107786842D01*
X156336428Y-107786842D02*
X156193571Y-107929700D01*
X156193571Y-107929700D02*
X155979285Y-108001128D01*
X155979285Y-108001128D02*
X155836428Y-108001128D01*
X157836428Y-108001128D02*
X157122142Y-108001128D01*
X157122142Y-108001128D02*
X157122142Y-106501128D01*
X159193571Y-107858271D02*
X159122143Y-107929700D01*
X159122143Y-107929700D02*
X158907857Y-108001128D01*
X158907857Y-108001128D02*
X158765000Y-108001128D01*
X158765000Y-108001128D02*
X158550714Y-107929700D01*
X158550714Y-107929700D02*
X158407857Y-107786842D01*
X158407857Y-107786842D02*
X158336428Y-107643985D01*
X158336428Y-107643985D02*
X158265000Y-107358271D01*
X158265000Y-107358271D02*
X158265000Y-107143985D01*
X158265000Y-107143985D02*
X158336428Y-106858271D01*
X158336428Y-106858271D02*
X158407857Y-106715414D01*
X158407857Y-106715414D02*
X158550714Y-106572557D01*
X158550714Y-106572557D02*
X158765000Y-106501128D01*
X158765000Y-106501128D02*
X158907857Y-106501128D01*
X158907857Y-106501128D02*
X159122143Y-106572557D01*
X159122143Y-106572557D02*
X159193571Y-106643985D01*
D11*
X130227714Y-133137412D02*
X129727714Y-132423126D01*
X129370571Y-133137412D02*
X129370571Y-131637412D01*
X129370571Y-131637412D02*
X129942000Y-131637412D01*
X129942000Y-131637412D02*
X130084857Y-131708841D01*
X130084857Y-131708841D02*
X130156286Y-131780269D01*
X130156286Y-131780269D02*
X130227714Y-131923126D01*
X130227714Y-131923126D02*
X130227714Y-132137412D01*
X130227714Y-132137412D02*
X130156286Y-132280269D01*
X130156286Y-132280269D02*
X130084857Y-132351698D01*
X130084857Y-132351698D02*
X129942000Y-132423126D01*
X129942000Y-132423126D02*
X129370571Y-132423126D01*
X131442000Y-133065984D02*
X131299143Y-133137412D01*
X131299143Y-133137412D02*
X131013429Y-133137412D01*
X131013429Y-133137412D02*
X130870571Y-133065984D01*
X130870571Y-133065984D02*
X130799143Y-132923126D01*
X130799143Y-132923126D02*
X130799143Y-132351698D01*
X130799143Y-132351698D02*
X130870571Y-132208841D01*
X130870571Y-132208841D02*
X131013429Y-132137412D01*
X131013429Y-132137412D02*
X131299143Y-132137412D01*
X131299143Y-132137412D02*
X131442000Y-132208841D01*
X131442000Y-132208841D02*
X131513429Y-132351698D01*
X131513429Y-132351698D02*
X131513429Y-132494555D01*
X131513429Y-132494555D02*
X130799143Y-132637412D01*
X131942000Y-132137412D02*
X132513428Y-132137412D01*
X132156285Y-131637412D02*
X132156285Y-132923126D01*
X132156285Y-132923126D02*
X132227714Y-133065984D01*
X132227714Y-133065984D02*
X132370571Y-133137412D01*
X132370571Y-133137412D02*
X132513428Y-133137412D01*
X133013428Y-133137412D02*
X133013428Y-132137412D01*
X133013428Y-132423126D02*
X133084857Y-132280269D01*
X133084857Y-132280269D02*
X133156286Y-132208841D01*
X133156286Y-132208841D02*
X133299143Y-132137412D01*
X133299143Y-132137412D02*
X133442000Y-132137412D01*
X134156285Y-133137412D02*
X134013428Y-133065984D01*
X134013428Y-133065984D02*
X133941999Y-132994555D01*
X133941999Y-132994555D02*
X133870571Y-132851698D01*
X133870571Y-132851698D02*
X133870571Y-132423126D01*
X133870571Y-132423126D02*
X133941999Y-132280269D01*
X133941999Y-132280269D02*
X134013428Y-132208841D01*
X134013428Y-132208841D02*
X134156285Y-132137412D01*
X134156285Y-132137412D02*
X134370571Y-132137412D01*
X134370571Y-132137412D02*
X134513428Y-132208841D01*
X134513428Y-132208841D02*
X134584857Y-132280269D01*
X134584857Y-132280269D02*
X134656285Y-132423126D01*
X134656285Y-132423126D02*
X134656285Y-132851698D01*
X134656285Y-132851698D02*
X134584857Y-132994555D01*
X134584857Y-132994555D02*
X134513428Y-133065984D01*
X134513428Y-133065984D02*
X134370571Y-133137412D01*
X134370571Y-133137412D02*
X134156285Y-133137412D01*
X136299142Y-131637412D02*
X136656285Y-133137412D01*
X136656285Y-133137412D02*
X136941999Y-132065984D01*
X136941999Y-132065984D02*
X137227714Y-133137412D01*
X137227714Y-133137412D02*
X137584857Y-131637412D01*
X138156285Y-133137412D02*
X138156285Y-132137412D01*
X138156285Y-131637412D02*
X138084857Y-131708841D01*
X138084857Y-131708841D02*
X138156285Y-131780269D01*
X138156285Y-131780269D02*
X138227714Y-131708841D01*
X138227714Y-131708841D02*
X138156285Y-131637412D01*
X138156285Y-131637412D02*
X138156285Y-131780269D01*
X139370571Y-132351698D02*
X138870571Y-132351698D01*
X138870571Y-133137412D02*
X138870571Y-131637412D01*
X138870571Y-131637412D02*
X139584857Y-131637412D01*
X140156285Y-133137412D02*
X140156285Y-132137412D01*
X140156285Y-131637412D02*
X140084857Y-131708841D01*
X140084857Y-131708841D02*
X140156285Y-131780269D01*
X140156285Y-131780269D02*
X140227714Y-131708841D01*
X140227714Y-131708841D02*
X140156285Y-131637412D01*
X140156285Y-131637412D02*
X140156285Y-131780269D01*
X142013428Y-133137412D02*
X142013428Y-131637412D01*
X142013428Y-131637412D02*
X142513428Y-132708841D01*
X142513428Y-132708841D02*
X143013428Y-131637412D01*
X143013428Y-131637412D02*
X143013428Y-133137412D01*
X143942000Y-133137412D02*
X143799143Y-133065984D01*
X143799143Y-133065984D02*
X143727714Y-132994555D01*
X143727714Y-132994555D02*
X143656286Y-132851698D01*
X143656286Y-132851698D02*
X143656286Y-132423126D01*
X143656286Y-132423126D02*
X143727714Y-132280269D01*
X143727714Y-132280269D02*
X143799143Y-132208841D01*
X143799143Y-132208841D02*
X143942000Y-132137412D01*
X143942000Y-132137412D02*
X144156286Y-132137412D01*
X144156286Y-132137412D02*
X144299143Y-132208841D01*
X144299143Y-132208841D02*
X144370572Y-132280269D01*
X144370572Y-132280269D02*
X144442000Y-132423126D01*
X144442000Y-132423126D02*
X144442000Y-132851698D01*
X144442000Y-132851698D02*
X144370572Y-132994555D01*
X144370572Y-132994555D02*
X144299143Y-133065984D01*
X144299143Y-133065984D02*
X144156286Y-133137412D01*
X144156286Y-133137412D02*
X143942000Y-133137412D01*
X145727715Y-133137412D02*
X145727715Y-131637412D01*
X145727715Y-133065984D02*
X145584857Y-133137412D01*
X145584857Y-133137412D02*
X145299143Y-133137412D01*
X145299143Y-133137412D02*
X145156286Y-133065984D01*
X145156286Y-133065984D02*
X145084857Y-132994555D01*
X145084857Y-132994555D02*
X145013429Y-132851698D01*
X145013429Y-132851698D02*
X145013429Y-132423126D01*
X145013429Y-132423126D02*
X145084857Y-132280269D01*
X145084857Y-132280269D02*
X145156286Y-132208841D01*
X145156286Y-132208841D02*
X145299143Y-132137412D01*
X145299143Y-132137412D02*
X145584857Y-132137412D01*
X145584857Y-132137412D02*
X145727715Y-132208841D01*
X147013429Y-133065984D02*
X146870572Y-133137412D01*
X146870572Y-133137412D02*
X146584858Y-133137412D01*
X146584858Y-133137412D02*
X146442000Y-133065984D01*
X146442000Y-133065984D02*
X146370572Y-132923126D01*
X146370572Y-132923126D02*
X146370572Y-132351698D01*
X146370572Y-132351698D02*
X146442000Y-132208841D01*
X146442000Y-132208841D02*
X146584858Y-132137412D01*
X146584858Y-132137412D02*
X146870572Y-132137412D01*
X146870572Y-132137412D02*
X147013429Y-132208841D01*
X147013429Y-132208841D02*
X147084858Y-132351698D01*
X147084858Y-132351698D02*
X147084858Y-132494555D01*
X147084858Y-132494555D02*
X146370572Y-132637412D01*
X147727714Y-133137412D02*
X147727714Y-132137412D01*
X147727714Y-132280269D02*
X147799143Y-132208841D01*
X147799143Y-132208841D02*
X147942000Y-132137412D01*
X147942000Y-132137412D02*
X148156286Y-132137412D01*
X148156286Y-132137412D02*
X148299143Y-132208841D01*
X148299143Y-132208841D02*
X148370572Y-132351698D01*
X148370572Y-132351698D02*
X148370572Y-133137412D01*
X148370572Y-132351698D02*
X148442000Y-132208841D01*
X148442000Y-132208841D02*
X148584857Y-132137412D01*
X148584857Y-132137412D02*
X148799143Y-132137412D01*
X148799143Y-132137412D02*
X148942000Y-132208841D01*
X148942000Y-132208841D02*
X149013429Y-132351698D01*
X149013429Y-132351698D02*
X149013429Y-133137412D01*
X134942000Y-135552328D02*
X134942000Y-134052328D01*
X134942000Y-134052328D02*
X135513429Y-134052328D01*
X135513429Y-134052328D02*
X135656286Y-134123757D01*
X135656286Y-134123757D02*
X135727715Y-134195185D01*
X135727715Y-134195185D02*
X135799143Y-134338042D01*
X135799143Y-134338042D02*
X135799143Y-134552328D01*
X135799143Y-134552328D02*
X135727715Y-134695185D01*
X135727715Y-134695185D02*
X135656286Y-134766614D01*
X135656286Y-134766614D02*
X135513429Y-134838042D01*
X135513429Y-134838042D02*
X134942000Y-134838042D01*
X137299143Y-135409471D02*
X137227715Y-135480900D01*
X137227715Y-135480900D02*
X137013429Y-135552328D01*
X137013429Y-135552328D02*
X136870572Y-135552328D01*
X136870572Y-135552328D02*
X136656286Y-135480900D01*
X136656286Y-135480900D02*
X136513429Y-135338042D01*
X136513429Y-135338042D02*
X136442000Y-135195185D01*
X136442000Y-135195185D02*
X136370572Y-134909471D01*
X136370572Y-134909471D02*
X136370572Y-134695185D01*
X136370572Y-134695185D02*
X136442000Y-134409471D01*
X136442000Y-134409471D02*
X136513429Y-134266614D01*
X136513429Y-134266614D02*
X136656286Y-134123757D01*
X136656286Y-134123757D02*
X136870572Y-134052328D01*
X136870572Y-134052328D02*
X137013429Y-134052328D01*
X137013429Y-134052328D02*
X137227715Y-134123757D01*
X137227715Y-134123757D02*
X137299143Y-134195185D01*
X138442000Y-134766614D02*
X138656286Y-134838042D01*
X138656286Y-134838042D02*
X138727715Y-134909471D01*
X138727715Y-134909471D02*
X138799143Y-135052328D01*
X138799143Y-135052328D02*
X138799143Y-135266614D01*
X138799143Y-135266614D02*
X138727715Y-135409471D01*
X138727715Y-135409471D02*
X138656286Y-135480900D01*
X138656286Y-135480900D02*
X138513429Y-135552328D01*
X138513429Y-135552328D02*
X137942000Y-135552328D01*
X137942000Y-135552328D02*
X137942000Y-134052328D01*
X137942000Y-134052328D02*
X138442000Y-134052328D01*
X138442000Y-134052328D02*
X138584858Y-134123757D01*
X138584858Y-134123757D02*
X138656286Y-134195185D01*
X138656286Y-134195185D02*
X138727715Y-134338042D01*
X138727715Y-134338042D02*
X138727715Y-134480900D01*
X138727715Y-134480900D02*
X138656286Y-134623757D01*
X138656286Y-134623757D02*
X138584858Y-134695185D01*
X138584858Y-134695185D02*
X138442000Y-134766614D01*
X138442000Y-134766614D02*
X137942000Y-134766614D01*
X140513429Y-134195185D02*
X140584857Y-134123757D01*
X140584857Y-134123757D02*
X140727715Y-134052328D01*
X140727715Y-134052328D02*
X141084857Y-134052328D01*
X141084857Y-134052328D02*
X141227715Y-134123757D01*
X141227715Y-134123757D02*
X141299143Y-134195185D01*
X141299143Y-134195185D02*
X141370572Y-134338042D01*
X141370572Y-134338042D02*
X141370572Y-134480900D01*
X141370572Y-134480900D02*
X141299143Y-134695185D01*
X141299143Y-134695185D02*
X140442000Y-135552328D01*
X140442000Y-135552328D02*
X141370572Y-135552328D01*
X142013428Y-135409471D02*
X142084857Y-135480900D01*
X142084857Y-135480900D02*
X142013428Y-135552328D01*
X142013428Y-135552328D02*
X141942000Y-135480900D01*
X141942000Y-135480900D02*
X142013428Y-135409471D01*
X142013428Y-135409471D02*
X142013428Y-135552328D01*
X142656286Y-134195185D02*
X142727714Y-134123757D01*
X142727714Y-134123757D02*
X142870572Y-134052328D01*
X142870572Y-134052328D02*
X143227714Y-134052328D01*
X143227714Y-134052328D02*
X143370572Y-134123757D01*
X143370572Y-134123757D02*
X143442000Y-134195185D01*
X143442000Y-134195185D02*
X143513429Y-134338042D01*
X143513429Y-134338042D02*
X143513429Y-134480900D01*
X143513429Y-134480900D02*
X143442000Y-134695185D01*
X143442000Y-134695185D02*
X142584857Y-135552328D01*
X142584857Y-135552328D02*
X143513429Y-135552328D01*
X131156287Y-137538673D02*
X131870573Y-137538673D01*
X131013430Y-137967244D02*
X131513430Y-136467244D01*
X131513430Y-136467244D02*
X132013430Y-137967244D01*
X132513429Y-136967244D02*
X132513429Y-138467244D01*
X132513429Y-137038673D02*
X132656287Y-136967244D01*
X132656287Y-136967244D02*
X132942001Y-136967244D01*
X132942001Y-136967244D02*
X133084858Y-137038673D01*
X133084858Y-137038673D02*
X133156287Y-137110101D01*
X133156287Y-137110101D02*
X133227715Y-137252958D01*
X133227715Y-137252958D02*
X133227715Y-137681530D01*
X133227715Y-137681530D02*
X133156287Y-137824387D01*
X133156287Y-137824387D02*
X133084858Y-137895816D01*
X133084858Y-137895816D02*
X132942001Y-137967244D01*
X132942001Y-137967244D02*
X132656287Y-137967244D01*
X132656287Y-137967244D02*
X132513429Y-137895816D01*
X133870572Y-137967244D02*
X133870572Y-136967244D01*
X133870572Y-137252958D02*
X133942001Y-137110101D01*
X133942001Y-137110101D02*
X134013430Y-137038673D01*
X134013430Y-137038673D02*
X134156287Y-136967244D01*
X134156287Y-136967244D02*
X134299144Y-136967244D01*
X134799143Y-137967244D02*
X134799143Y-136967244D01*
X134799143Y-136467244D02*
X134727715Y-136538673D01*
X134727715Y-136538673D02*
X134799143Y-136610101D01*
X134799143Y-136610101D02*
X134870572Y-136538673D01*
X134870572Y-136538673D02*
X134799143Y-136467244D01*
X134799143Y-136467244D02*
X134799143Y-136610101D01*
X135727715Y-137967244D02*
X135584858Y-137895816D01*
X135584858Y-137895816D02*
X135513429Y-137752958D01*
X135513429Y-137752958D02*
X135513429Y-136467244D01*
X138227715Y-137967244D02*
X137370572Y-137967244D01*
X137799143Y-137967244D02*
X137799143Y-136467244D01*
X137799143Y-136467244D02*
X137656286Y-136681530D01*
X137656286Y-136681530D02*
X137513429Y-136824387D01*
X137513429Y-136824387D02*
X137370572Y-136895816D01*
X138727714Y-136467244D02*
X139727714Y-136467244D01*
X139727714Y-136467244D02*
X139084857Y-137967244D01*
X140370571Y-137895816D02*
X140370571Y-137967244D01*
X140370571Y-137967244D02*
X140299142Y-138110101D01*
X140299142Y-138110101D02*
X140227714Y-138181530D01*
X142084857Y-136610101D02*
X142156285Y-136538673D01*
X142156285Y-136538673D02*
X142299143Y-136467244D01*
X142299143Y-136467244D02*
X142656285Y-136467244D01*
X142656285Y-136467244D02*
X142799143Y-136538673D01*
X142799143Y-136538673D02*
X142870571Y-136610101D01*
X142870571Y-136610101D02*
X142942000Y-136752958D01*
X142942000Y-136752958D02*
X142942000Y-136895816D01*
X142942000Y-136895816D02*
X142870571Y-137110101D01*
X142870571Y-137110101D02*
X142013428Y-137967244D01*
X142013428Y-137967244D02*
X142942000Y-137967244D01*
X143870571Y-136467244D02*
X144013428Y-136467244D01*
X144013428Y-136467244D02*
X144156285Y-136538673D01*
X144156285Y-136538673D02*
X144227714Y-136610101D01*
X144227714Y-136610101D02*
X144299142Y-136752958D01*
X144299142Y-136752958D02*
X144370571Y-137038673D01*
X144370571Y-137038673D02*
X144370571Y-137395816D01*
X144370571Y-137395816D02*
X144299142Y-137681530D01*
X144299142Y-137681530D02*
X144227714Y-137824387D01*
X144227714Y-137824387D02*
X144156285Y-137895816D01*
X144156285Y-137895816D02*
X144013428Y-137967244D01*
X144013428Y-137967244D02*
X143870571Y-137967244D01*
X143870571Y-137967244D02*
X143727714Y-137895816D01*
X143727714Y-137895816D02*
X143656285Y-137824387D01*
X143656285Y-137824387D02*
X143584856Y-137681530D01*
X143584856Y-137681530D02*
X143513428Y-137395816D01*
X143513428Y-137395816D02*
X143513428Y-137038673D01*
X143513428Y-137038673D02*
X143584856Y-136752958D01*
X143584856Y-136752958D02*
X143656285Y-136610101D01*
X143656285Y-136610101D02*
X143727714Y-136538673D01*
X143727714Y-136538673D02*
X143870571Y-136467244D01*
X144941999Y-136610101D02*
X145013427Y-136538673D01*
X145013427Y-136538673D02*
X145156285Y-136467244D01*
X145156285Y-136467244D02*
X145513427Y-136467244D01*
X145513427Y-136467244D02*
X145656285Y-136538673D01*
X145656285Y-136538673D02*
X145727713Y-136610101D01*
X145727713Y-136610101D02*
X145799142Y-136752958D01*
X145799142Y-136752958D02*
X145799142Y-136895816D01*
X145799142Y-136895816D02*
X145727713Y-137110101D01*
X145727713Y-137110101D02*
X144870570Y-137967244D01*
X144870570Y-137967244D02*
X145799142Y-137967244D01*
X147084856Y-136967244D02*
X147084856Y-137967244D01*
X146727713Y-136395816D02*
X146370570Y-137467244D01*
X146370570Y-137467244D02*
X147299141Y-137467244D01*
X209466328Y-87036000D02*
X207966328Y-87036000D01*
X207966328Y-87036000D02*
X209037757Y-86536000D01*
X209037757Y-86536000D02*
X207966328Y-86036000D01*
X207966328Y-86036000D02*
X209466328Y-86036000D01*
X209466328Y-84464571D02*
X208752042Y-84964571D01*
X209466328Y-85321714D02*
X207966328Y-85321714D01*
X207966328Y-85321714D02*
X207966328Y-84750285D01*
X207966328Y-84750285D02*
X208037757Y-84607428D01*
X208037757Y-84607428D02*
X208109185Y-84535999D01*
X208109185Y-84535999D02*
X208252042Y-84464571D01*
X208252042Y-84464571D02*
X208466328Y-84464571D01*
X208466328Y-84464571D02*
X208609185Y-84535999D01*
X208609185Y-84535999D02*
X208680614Y-84607428D01*
X208680614Y-84607428D02*
X208752042Y-84750285D01*
X208752042Y-84750285D02*
X208752042Y-85321714D01*
X207966328Y-93568570D02*
X207966328Y-92711428D01*
X209466328Y-93139999D02*
X207966328Y-93139999D01*
X209466328Y-91354285D02*
X208752042Y-91854285D01*
X209466328Y-92211428D02*
X207966328Y-92211428D01*
X207966328Y-92211428D02*
X207966328Y-91639999D01*
X207966328Y-91639999D02*
X208037757Y-91497142D01*
X208037757Y-91497142D02*
X208109185Y-91425713D01*
X208109185Y-91425713D02*
X208252042Y-91354285D01*
X208252042Y-91354285D02*
X208466328Y-91354285D01*
X208466328Y-91354285D02*
X208609185Y-91425713D01*
X208609185Y-91425713D02*
X208680614Y-91497142D01*
X208680614Y-91497142D02*
X208752042Y-91639999D01*
X208752042Y-91639999D02*
X208752042Y-92211428D01*
X209394900Y-100172570D02*
X209466328Y-99958285D01*
X209466328Y-99958285D02*
X209466328Y-99601142D01*
X209466328Y-99601142D02*
X209394900Y-99458285D01*
X209394900Y-99458285D02*
X209323471Y-99386856D01*
X209323471Y-99386856D02*
X209180614Y-99315427D01*
X209180614Y-99315427D02*
X209037757Y-99315427D01*
X209037757Y-99315427D02*
X208894900Y-99386856D01*
X208894900Y-99386856D02*
X208823471Y-99458285D01*
X208823471Y-99458285D02*
X208752042Y-99601142D01*
X208752042Y-99601142D02*
X208680614Y-99886856D01*
X208680614Y-99886856D02*
X208609185Y-100029713D01*
X208609185Y-100029713D02*
X208537757Y-100101142D01*
X208537757Y-100101142D02*
X208394900Y-100172570D01*
X208394900Y-100172570D02*
X208252042Y-100172570D01*
X208252042Y-100172570D02*
X208109185Y-100101142D01*
X208109185Y-100101142D02*
X208037757Y-100029713D01*
X208037757Y-100029713D02*
X207966328Y-99886856D01*
X207966328Y-99886856D02*
X207966328Y-99529713D01*
X207966328Y-99529713D02*
X208037757Y-99315427D01*
X209466328Y-98672571D02*
X207966328Y-98672571D01*
X207966328Y-98672571D02*
X207966328Y-98315428D01*
X207966328Y-98315428D02*
X208037757Y-98101142D01*
X208037757Y-98101142D02*
X208180614Y-97958285D01*
X208180614Y-97958285D02*
X208323471Y-97886856D01*
X208323471Y-97886856D02*
X208609185Y-97815428D01*
X208609185Y-97815428D02*
X208823471Y-97815428D01*
X208823471Y-97815428D02*
X209109185Y-97886856D01*
X209109185Y-97886856D02*
X209252042Y-97958285D01*
X209252042Y-97958285D02*
X209394900Y-98101142D01*
X209394900Y-98101142D02*
X209466328Y-98315428D01*
X209466328Y-98315428D02*
X209466328Y-98672571D01*
X209466328Y-105883714D02*
X208752042Y-106383714D01*
X209466328Y-106740857D02*
X207966328Y-106740857D01*
X207966328Y-106740857D02*
X207966328Y-106169428D01*
X207966328Y-106169428D02*
X208037757Y-106026571D01*
X208037757Y-106026571D02*
X208109185Y-105955142D01*
X208109185Y-105955142D02*
X208252042Y-105883714D01*
X208252042Y-105883714D02*
X208466328Y-105883714D01*
X208466328Y-105883714D02*
X208609185Y-105955142D01*
X208609185Y-105955142D02*
X208680614Y-106026571D01*
X208680614Y-106026571D02*
X208752042Y-106169428D01*
X208752042Y-106169428D02*
X208752042Y-106740857D01*
X209466328Y-105240857D02*
X207966328Y-105240857D01*
X207966328Y-105240857D02*
X207966328Y-104883714D01*
X207966328Y-104883714D02*
X208037757Y-104669428D01*
X208037757Y-104669428D02*
X208180614Y-104526571D01*
X208180614Y-104526571D02*
X208323471Y-104455142D01*
X208323471Y-104455142D02*
X208609185Y-104383714D01*
X208609185Y-104383714D02*
X208823471Y-104383714D01*
X208823471Y-104383714D02*
X209109185Y-104455142D01*
X209109185Y-104455142D02*
X209252042Y-104526571D01*
X209252042Y-104526571D02*
X209394900Y-104669428D01*
X209394900Y-104669428D02*
X209466328Y-104883714D01*
X209466328Y-104883714D02*
X209466328Y-105240857D01*
X209466328Y-112094857D02*
X208752042Y-112594857D01*
X209466328Y-112952000D02*
X207966328Y-112952000D01*
X207966328Y-112952000D02*
X207966328Y-112380571D01*
X207966328Y-112380571D02*
X208037757Y-112237714D01*
X208037757Y-112237714D02*
X208109185Y-112166285D01*
X208109185Y-112166285D02*
X208252042Y-112094857D01*
X208252042Y-112094857D02*
X208466328Y-112094857D01*
X208466328Y-112094857D02*
X208609185Y-112166285D01*
X208609185Y-112166285D02*
X208680614Y-112237714D01*
X208680614Y-112237714D02*
X208752042Y-112380571D01*
X208752042Y-112380571D02*
X208752042Y-112952000D01*
X209466328Y-111452000D02*
X207966328Y-111452000D01*
X209323471Y-119091714D02*
X209394900Y-119163142D01*
X209394900Y-119163142D02*
X209466328Y-119377428D01*
X209466328Y-119377428D02*
X209466328Y-119520285D01*
X209466328Y-119520285D02*
X209394900Y-119734571D01*
X209394900Y-119734571D02*
X209252042Y-119877428D01*
X209252042Y-119877428D02*
X209109185Y-119948857D01*
X209109185Y-119948857D02*
X208823471Y-120020285D01*
X208823471Y-120020285D02*
X208609185Y-120020285D01*
X208609185Y-120020285D02*
X208323471Y-119948857D01*
X208323471Y-119948857D02*
X208180614Y-119877428D01*
X208180614Y-119877428D02*
X208037757Y-119734571D01*
X208037757Y-119734571D02*
X207966328Y-119520285D01*
X207966328Y-119520285D02*
X207966328Y-119377428D01*
X207966328Y-119377428D02*
X208037757Y-119163142D01*
X208037757Y-119163142D02*
X208109185Y-119091714D01*
X209466328Y-118448857D02*
X207966328Y-118448857D01*
X207966328Y-118448857D02*
X207966328Y-118091714D01*
X207966328Y-118091714D02*
X208037757Y-117877428D01*
X208037757Y-117877428D02*
X208180614Y-117734571D01*
X208180614Y-117734571D02*
X208323471Y-117663142D01*
X208323471Y-117663142D02*
X208609185Y-117591714D01*
X208609185Y-117591714D02*
X208823471Y-117591714D01*
X208823471Y-117591714D02*
X209109185Y-117663142D01*
X209109185Y-117663142D02*
X209252042Y-117734571D01*
X209252042Y-117734571D02*
X209394900Y-117877428D01*
X209394900Y-117877428D02*
X209466328Y-118091714D01*
X209466328Y-118091714D02*
X209466328Y-118448857D01*
X209323471Y-125659999D02*
X209394900Y-125731427D01*
X209394900Y-125731427D02*
X209466328Y-125945713D01*
X209466328Y-125945713D02*
X209466328Y-126088570D01*
X209466328Y-126088570D02*
X209394900Y-126302856D01*
X209394900Y-126302856D02*
X209252042Y-126445713D01*
X209252042Y-126445713D02*
X209109185Y-126517142D01*
X209109185Y-126517142D02*
X208823471Y-126588570D01*
X208823471Y-126588570D02*
X208609185Y-126588570D01*
X208609185Y-126588570D02*
X208323471Y-126517142D01*
X208323471Y-126517142D02*
X208180614Y-126445713D01*
X208180614Y-126445713D02*
X208037757Y-126302856D01*
X208037757Y-126302856D02*
X207966328Y-126088570D01*
X207966328Y-126088570D02*
X207966328Y-125945713D01*
X207966328Y-125945713D02*
X208037757Y-125731427D01*
X208037757Y-125731427D02*
X208109185Y-125659999D01*
X209394900Y-125088570D02*
X209466328Y-124874285D01*
X209466328Y-124874285D02*
X209466328Y-124517142D01*
X209466328Y-124517142D02*
X209394900Y-124374285D01*
X209394900Y-124374285D02*
X209323471Y-124302856D01*
X209323471Y-124302856D02*
X209180614Y-124231427D01*
X209180614Y-124231427D02*
X209037757Y-124231427D01*
X209037757Y-124231427D02*
X208894900Y-124302856D01*
X208894900Y-124302856D02*
X208823471Y-124374285D01*
X208823471Y-124374285D02*
X208752042Y-124517142D01*
X208752042Y-124517142D02*
X208680614Y-124802856D01*
X208680614Y-124802856D02*
X208609185Y-124945713D01*
X208609185Y-124945713D02*
X208537757Y-125017142D01*
X208537757Y-125017142D02*
X208394900Y-125088570D01*
X208394900Y-125088570D02*
X208252042Y-125088570D01*
X208252042Y-125088570D02*
X208109185Y-125017142D01*
X208109185Y-125017142D02*
X208037757Y-124945713D01*
X208037757Y-124945713D02*
X207966328Y-124802856D01*
X207966328Y-124802856D02*
X207966328Y-124445713D01*
X207966328Y-124445713D02*
X208037757Y-124231427D01*
X209466328Y-132263999D02*
X208752042Y-132763999D01*
X209466328Y-133121142D02*
X207966328Y-133121142D01*
X207966328Y-133121142D02*
X207966328Y-132549713D01*
X207966328Y-132549713D02*
X208037757Y-132406856D01*
X208037757Y-132406856D02*
X208109185Y-132335427D01*
X208109185Y-132335427D02*
X208252042Y-132263999D01*
X208252042Y-132263999D02*
X208466328Y-132263999D01*
X208466328Y-132263999D02*
X208609185Y-132335427D01*
X208609185Y-132335427D02*
X208680614Y-132406856D01*
X208680614Y-132406856D02*
X208752042Y-132549713D01*
X208752042Y-132549713D02*
X208752042Y-133121142D01*
X209394900Y-131692570D02*
X209466328Y-131478285D01*
X209466328Y-131478285D02*
X209466328Y-131121142D01*
X209466328Y-131121142D02*
X209394900Y-130978285D01*
X209394900Y-130978285D02*
X209323471Y-130906856D01*
X209323471Y-130906856D02*
X209180614Y-130835427D01*
X209180614Y-130835427D02*
X209037757Y-130835427D01*
X209037757Y-130835427D02*
X208894900Y-130906856D01*
X208894900Y-130906856D02*
X208823471Y-130978285D01*
X208823471Y-130978285D02*
X208752042Y-131121142D01*
X208752042Y-131121142D02*
X208680614Y-131406856D01*
X208680614Y-131406856D02*
X208609185Y-131549713D01*
X208609185Y-131549713D02*
X208537757Y-131621142D01*
X208537757Y-131621142D02*
X208394900Y-131692570D01*
X208394900Y-131692570D02*
X208252042Y-131692570D01*
X208252042Y-131692570D02*
X208109185Y-131621142D01*
X208109185Y-131621142D02*
X208037757Y-131549713D01*
X208037757Y-131549713D02*
X207966328Y-131406856D01*
X207966328Y-131406856D02*
X207966328Y-131049713D01*
X207966328Y-131049713D02*
X208037757Y-130835427D01*
D10*
X127468333Y-79099580D02*
X127420714Y-79147200D01*
X127420714Y-79147200D02*
X127277857Y-79194819D01*
X127277857Y-79194819D02*
X127182619Y-79194819D01*
X127182619Y-79194819D02*
X127039762Y-79147200D01*
X127039762Y-79147200D02*
X126944524Y-79051961D01*
X126944524Y-79051961D02*
X126896905Y-78956723D01*
X126896905Y-78956723D02*
X126849286Y-78766247D01*
X126849286Y-78766247D02*
X126849286Y-78623390D01*
X126849286Y-78623390D02*
X126896905Y-78432914D01*
X126896905Y-78432914D02*
X126944524Y-78337676D01*
X126944524Y-78337676D02*
X127039762Y-78242438D01*
X127039762Y-78242438D02*
X127182619Y-78194819D01*
X127182619Y-78194819D02*
X127277857Y-78194819D01*
X127277857Y-78194819D02*
X127420714Y-78242438D01*
X127420714Y-78242438D02*
X127468333Y-78290057D01*
X128420714Y-79194819D02*
X127849286Y-79194819D01*
X128135000Y-79194819D02*
X128135000Y-78194819D01*
X128135000Y-78194819D02*
X128039762Y-78337676D01*
X128039762Y-78337676D02*
X127944524Y-78432914D01*
X127944524Y-78432914D02*
X127849286Y-78480533D01*
X130643333Y-80369580D02*
X130595714Y-80417200D01*
X130595714Y-80417200D02*
X130452857Y-80464819D01*
X130452857Y-80464819D02*
X130357619Y-80464819D01*
X130357619Y-80464819D02*
X130214762Y-80417200D01*
X130214762Y-80417200D02*
X130119524Y-80321961D01*
X130119524Y-80321961D02*
X130071905Y-80226723D01*
X130071905Y-80226723D02*
X130024286Y-80036247D01*
X130024286Y-80036247D02*
X130024286Y-79893390D01*
X130024286Y-79893390D02*
X130071905Y-79702914D01*
X130071905Y-79702914D02*
X130119524Y-79607676D01*
X130119524Y-79607676D02*
X130214762Y-79512438D01*
X130214762Y-79512438D02*
X130357619Y-79464819D01*
X130357619Y-79464819D02*
X130452857Y-79464819D01*
X130452857Y-79464819D02*
X130595714Y-79512438D01*
X130595714Y-79512438D02*
X130643333Y-79560057D01*
X131024286Y-79560057D02*
X131071905Y-79512438D01*
X131071905Y-79512438D02*
X131167143Y-79464819D01*
X131167143Y-79464819D02*
X131405238Y-79464819D01*
X131405238Y-79464819D02*
X131500476Y-79512438D01*
X131500476Y-79512438D02*
X131548095Y-79560057D01*
X131548095Y-79560057D02*
X131595714Y-79655295D01*
X131595714Y-79655295D02*
X131595714Y-79750533D01*
X131595714Y-79750533D02*
X131548095Y-79893390D01*
X131548095Y-79893390D02*
X130976667Y-80464819D01*
X130976667Y-80464819D02*
X131595714Y-80464819D01*
X141438333Y-77829580D02*
X141390714Y-77877200D01*
X141390714Y-77877200D02*
X141247857Y-77924819D01*
X141247857Y-77924819D02*
X141152619Y-77924819D01*
X141152619Y-77924819D02*
X141009762Y-77877200D01*
X141009762Y-77877200D02*
X140914524Y-77781961D01*
X140914524Y-77781961D02*
X140866905Y-77686723D01*
X140866905Y-77686723D02*
X140819286Y-77496247D01*
X140819286Y-77496247D02*
X140819286Y-77353390D01*
X140819286Y-77353390D02*
X140866905Y-77162914D01*
X140866905Y-77162914D02*
X140914524Y-77067676D01*
X140914524Y-77067676D02*
X141009762Y-76972438D01*
X141009762Y-76972438D02*
X141152619Y-76924819D01*
X141152619Y-76924819D02*
X141247857Y-76924819D01*
X141247857Y-76924819D02*
X141390714Y-76972438D01*
X141390714Y-76972438D02*
X141438333Y-77020057D01*
X141771667Y-76924819D02*
X142390714Y-76924819D01*
X142390714Y-76924819D02*
X142057381Y-77305771D01*
X142057381Y-77305771D02*
X142200238Y-77305771D01*
X142200238Y-77305771D02*
X142295476Y-77353390D01*
X142295476Y-77353390D02*
X142343095Y-77401009D01*
X142343095Y-77401009D02*
X142390714Y-77496247D01*
X142390714Y-77496247D02*
X142390714Y-77734342D01*
X142390714Y-77734342D02*
X142343095Y-77829580D01*
X142343095Y-77829580D02*
X142295476Y-77877200D01*
X142295476Y-77877200D02*
X142200238Y-77924819D01*
X142200238Y-77924819D02*
X141914524Y-77924819D01*
X141914524Y-77924819D02*
X141819286Y-77877200D01*
X141819286Y-77877200D02*
X141771667Y-77829580D01*
X149693333Y-79099580D02*
X149645714Y-79147200D01*
X149645714Y-79147200D02*
X149502857Y-79194819D01*
X149502857Y-79194819D02*
X149407619Y-79194819D01*
X149407619Y-79194819D02*
X149264762Y-79147200D01*
X149264762Y-79147200D02*
X149169524Y-79051961D01*
X149169524Y-79051961D02*
X149121905Y-78956723D01*
X149121905Y-78956723D02*
X149074286Y-78766247D01*
X149074286Y-78766247D02*
X149074286Y-78623390D01*
X149074286Y-78623390D02*
X149121905Y-78432914D01*
X149121905Y-78432914D02*
X149169524Y-78337676D01*
X149169524Y-78337676D02*
X149264762Y-78242438D01*
X149264762Y-78242438D02*
X149407619Y-78194819D01*
X149407619Y-78194819D02*
X149502857Y-78194819D01*
X149502857Y-78194819D02*
X149645714Y-78242438D01*
X149645714Y-78242438D02*
X149693333Y-78290057D01*
X150550476Y-78528152D02*
X150550476Y-79194819D01*
X150312381Y-78147200D02*
X150074286Y-78861485D01*
X150074286Y-78861485D02*
X150693333Y-78861485D01*
X205859580Y-95626666D02*
X205907200Y-95674285D01*
X205907200Y-95674285D02*
X205954819Y-95817142D01*
X205954819Y-95817142D02*
X205954819Y-95912380D01*
X205954819Y-95912380D02*
X205907200Y-96055237D01*
X205907200Y-96055237D02*
X205811961Y-96150475D01*
X205811961Y-96150475D02*
X205716723Y-96198094D01*
X205716723Y-96198094D02*
X205526247Y-96245713D01*
X205526247Y-96245713D02*
X205383390Y-96245713D01*
X205383390Y-96245713D02*
X205192914Y-96198094D01*
X205192914Y-96198094D02*
X205097676Y-96150475D01*
X205097676Y-96150475D02*
X205002438Y-96055237D01*
X205002438Y-96055237D02*
X204954819Y-95912380D01*
X204954819Y-95912380D02*
X204954819Y-95817142D01*
X204954819Y-95817142D02*
X205002438Y-95674285D01*
X205002438Y-95674285D02*
X205050057Y-95626666D01*
X204954819Y-94721904D02*
X204954819Y-95198094D01*
X204954819Y-95198094D02*
X205431009Y-95245713D01*
X205431009Y-95245713D02*
X205383390Y-95198094D01*
X205383390Y-95198094D02*
X205335771Y-95102856D01*
X205335771Y-95102856D02*
X205335771Y-94864761D01*
X205335771Y-94864761D02*
X205383390Y-94769523D01*
X205383390Y-94769523D02*
X205431009Y-94721904D01*
X205431009Y-94721904D02*
X205526247Y-94674285D01*
X205526247Y-94674285D02*
X205764342Y-94674285D01*
X205764342Y-94674285D02*
X205859580Y-94721904D01*
X205859580Y-94721904D02*
X205907200Y-94769523D01*
X205907200Y-94769523D02*
X205954819Y-94864761D01*
X205954819Y-94864761D02*
X205954819Y-95102856D01*
X205954819Y-95102856D02*
X205907200Y-95198094D01*
X205907200Y-95198094D02*
X205859580Y-95245713D01*
X158303333Y-95069580D02*
X158255714Y-95117200D01*
X158255714Y-95117200D02*
X158112857Y-95164819D01*
X158112857Y-95164819D02*
X158017619Y-95164819D01*
X158017619Y-95164819D02*
X157874762Y-95117200D01*
X157874762Y-95117200D02*
X157779524Y-95021961D01*
X157779524Y-95021961D02*
X157731905Y-94926723D01*
X157731905Y-94926723D02*
X157684286Y-94736247D01*
X157684286Y-94736247D02*
X157684286Y-94593390D01*
X157684286Y-94593390D02*
X157731905Y-94402914D01*
X157731905Y-94402914D02*
X157779524Y-94307676D01*
X157779524Y-94307676D02*
X157874762Y-94212438D01*
X157874762Y-94212438D02*
X158017619Y-94164819D01*
X158017619Y-94164819D02*
X158112857Y-94164819D01*
X158112857Y-94164819D02*
X158255714Y-94212438D01*
X158255714Y-94212438D02*
X158303333Y-94260057D01*
X158636667Y-94164819D02*
X159303333Y-94164819D01*
X159303333Y-94164819D02*
X158874762Y-95164819D01*
X203134819Y-133392094D02*
X202134819Y-133392094D01*
X202134819Y-133392094D02*
X202134819Y-133153999D01*
X202134819Y-133153999D02*
X202182438Y-133011142D01*
X202182438Y-133011142D02*
X202277676Y-132915904D01*
X202277676Y-132915904D02*
X202372914Y-132868285D01*
X202372914Y-132868285D02*
X202563390Y-132820666D01*
X202563390Y-132820666D02*
X202706247Y-132820666D01*
X202706247Y-132820666D02*
X202896723Y-132868285D01*
X202896723Y-132868285D02*
X202991961Y-132915904D01*
X202991961Y-132915904D02*
X203087200Y-133011142D01*
X203087200Y-133011142D02*
X203134819Y-133153999D01*
X203134819Y-133153999D02*
X203134819Y-133392094D01*
X202563390Y-132249237D02*
X202515771Y-132344475D01*
X202515771Y-132344475D02*
X202468152Y-132392094D01*
X202468152Y-132392094D02*
X202372914Y-132439713D01*
X202372914Y-132439713D02*
X202325295Y-132439713D01*
X202325295Y-132439713D02*
X202230057Y-132392094D01*
X202230057Y-132392094D02*
X202182438Y-132344475D01*
X202182438Y-132344475D02*
X202134819Y-132249237D01*
X202134819Y-132249237D02*
X202134819Y-132058761D01*
X202134819Y-132058761D02*
X202182438Y-131963523D01*
X202182438Y-131963523D02*
X202230057Y-131915904D01*
X202230057Y-131915904D02*
X202325295Y-131868285D01*
X202325295Y-131868285D02*
X202372914Y-131868285D01*
X202372914Y-131868285D02*
X202468152Y-131915904D01*
X202468152Y-131915904D02*
X202515771Y-131963523D01*
X202515771Y-131963523D02*
X202563390Y-132058761D01*
X202563390Y-132058761D02*
X202563390Y-132249237D01*
X202563390Y-132249237D02*
X202611009Y-132344475D01*
X202611009Y-132344475D02*
X202658628Y-132392094D01*
X202658628Y-132392094D02*
X202753866Y-132439713D01*
X202753866Y-132439713D02*
X202944342Y-132439713D01*
X202944342Y-132439713D02*
X203039580Y-132392094D01*
X203039580Y-132392094D02*
X203087200Y-132344475D01*
X203087200Y-132344475D02*
X203134819Y-132249237D01*
X203134819Y-132249237D02*
X203134819Y-132058761D01*
X203134819Y-132058761D02*
X203087200Y-131963523D01*
X203087200Y-131963523D02*
X203039580Y-131915904D01*
X203039580Y-131915904D02*
X202944342Y-131868285D01*
X202944342Y-131868285D02*
X202753866Y-131868285D01*
X202753866Y-131868285D02*
X202658628Y-131915904D01*
X202658628Y-131915904D02*
X202611009Y-131963523D01*
X202611009Y-131963523D02*
X202563390Y-132058761D01*
X204454819Y-129315904D02*
X203454819Y-129315904D01*
X204454819Y-128744476D02*
X203883390Y-129173047D01*
X203454819Y-128744476D02*
X204026247Y-129315904D01*
X203134819Y-126788094D02*
X202134819Y-126788094D01*
X202134819Y-126788094D02*
X202134819Y-126549999D01*
X202134819Y-126549999D02*
X202182438Y-126407142D01*
X202182438Y-126407142D02*
X202277676Y-126311904D01*
X202277676Y-126311904D02*
X202372914Y-126264285D01*
X202372914Y-126264285D02*
X202563390Y-126216666D01*
X202563390Y-126216666D02*
X202706247Y-126216666D01*
X202706247Y-126216666D02*
X202896723Y-126264285D01*
X202896723Y-126264285D02*
X202991961Y-126311904D01*
X202991961Y-126311904D02*
X203087200Y-126407142D01*
X203087200Y-126407142D02*
X203134819Y-126549999D01*
X203134819Y-126549999D02*
X203134819Y-126788094D01*
X202134819Y-125883332D02*
X202134819Y-125216666D01*
X202134819Y-125216666D02*
X203134819Y-125645237D01*
X204454819Y-122711904D02*
X203454819Y-122711904D01*
X204454819Y-122140476D02*
X203883390Y-122569047D01*
X203454819Y-122140476D02*
X204026247Y-122711904D01*
X203134819Y-120184094D02*
X202134819Y-120184094D01*
X202134819Y-120184094D02*
X202134819Y-119945999D01*
X202134819Y-119945999D02*
X202182438Y-119803142D01*
X202182438Y-119803142D02*
X202277676Y-119707904D01*
X202277676Y-119707904D02*
X202372914Y-119660285D01*
X202372914Y-119660285D02*
X202563390Y-119612666D01*
X202563390Y-119612666D02*
X202706247Y-119612666D01*
X202706247Y-119612666D02*
X202896723Y-119660285D01*
X202896723Y-119660285D02*
X202991961Y-119707904D01*
X202991961Y-119707904D02*
X203087200Y-119803142D01*
X203087200Y-119803142D02*
X203134819Y-119945999D01*
X203134819Y-119945999D02*
X203134819Y-120184094D01*
X202134819Y-118755523D02*
X202134819Y-118945999D01*
X202134819Y-118945999D02*
X202182438Y-119041237D01*
X202182438Y-119041237D02*
X202230057Y-119088856D01*
X202230057Y-119088856D02*
X202372914Y-119184094D01*
X202372914Y-119184094D02*
X202563390Y-119231713D01*
X202563390Y-119231713D02*
X202944342Y-119231713D01*
X202944342Y-119231713D02*
X203039580Y-119184094D01*
X203039580Y-119184094D02*
X203087200Y-119136475D01*
X203087200Y-119136475D02*
X203134819Y-119041237D01*
X203134819Y-119041237D02*
X203134819Y-118850761D01*
X203134819Y-118850761D02*
X203087200Y-118755523D01*
X203087200Y-118755523D02*
X203039580Y-118707904D01*
X203039580Y-118707904D02*
X202944342Y-118660285D01*
X202944342Y-118660285D02*
X202706247Y-118660285D01*
X202706247Y-118660285D02*
X202611009Y-118707904D01*
X202611009Y-118707904D02*
X202563390Y-118755523D01*
X202563390Y-118755523D02*
X202515771Y-118850761D01*
X202515771Y-118850761D02*
X202515771Y-119041237D01*
X202515771Y-119041237D02*
X202563390Y-119136475D01*
X202563390Y-119136475D02*
X202611009Y-119184094D01*
X202611009Y-119184094D02*
X202706247Y-119231713D01*
X204454819Y-116107904D02*
X203454819Y-116107904D01*
X204454819Y-115536476D02*
X203883390Y-115965047D01*
X203454819Y-115536476D02*
X204026247Y-116107904D01*
X203134819Y-113580094D02*
X202134819Y-113580094D01*
X202134819Y-113580094D02*
X202134819Y-113341999D01*
X202134819Y-113341999D02*
X202182438Y-113199142D01*
X202182438Y-113199142D02*
X202277676Y-113103904D01*
X202277676Y-113103904D02*
X202372914Y-113056285D01*
X202372914Y-113056285D02*
X202563390Y-113008666D01*
X202563390Y-113008666D02*
X202706247Y-113008666D01*
X202706247Y-113008666D02*
X202896723Y-113056285D01*
X202896723Y-113056285D02*
X202991961Y-113103904D01*
X202991961Y-113103904D02*
X203087200Y-113199142D01*
X203087200Y-113199142D02*
X203134819Y-113341999D01*
X203134819Y-113341999D02*
X203134819Y-113580094D01*
X202134819Y-112103904D02*
X202134819Y-112580094D01*
X202134819Y-112580094D02*
X202611009Y-112627713D01*
X202611009Y-112627713D02*
X202563390Y-112580094D01*
X202563390Y-112580094D02*
X202515771Y-112484856D01*
X202515771Y-112484856D02*
X202515771Y-112246761D01*
X202515771Y-112246761D02*
X202563390Y-112151523D01*
X202563390Y-112151523D02*
X202611009Y-112103904D01*
X202611009Y-112103904D02*
X202706247Y-112056285D01*
X202706247Y-112056285D02*
X202944342Y-112056285D01*
X202944342Y-112056285D02*
X203039580Y-112103904D01*
X203039580Y-112103904D02*
X203087200Y-112151523D01*
X203087200Y-112151523D02*
X203134819Y-112246761D01*
X203134819Y-112246761D02*
X203134819Y-112484856D01*
X203134819Y-112484856D02*
X203087200Y-112580094D01*
X203087200Y-112580094D02*
X203039580Y-112627713D01*
X204454819Y-109503904D02*
X203454819Y-109503904D01*
X204454819Y-108932476D02*
X203883390Y-109361047D01*
X203454819Y-108932476D02*
X204026247Y-109503904D01*
X203134819Y-106976094D02*
X202134819Y-106976094D01*
X202134819Y-106976094D02*
X202134819Y-106737999D01*
X202134819Y-106737999D02*
X202182438Y-106595142D01*
X202182438Y-106595142D02*
X202277676Y-106499904D01*
X202277676Y-106499904D02*
X202372914Y-106452285D01*
X202372914Y-106452285D02*
X202563390Y-106404666D01*
X202563390Y-106404666D02*
X202706247Y-106404666D01*
X202706247Y-106404666D02*
X202896723Y-106452285D01*
X202896723Y-106452285D02*
X202991961Y-106499904D01*
X202991961Y-106499904D02*
X203087200Y-106595142D01*
X203087200Y-106595142D02*
X203134819Y-106737999D01*
X203134819Y-106737999D02*
X203134819Y-106976094D01*
X202468152Y-105547523D02*
X203134819Y-105547523D01*
X202087200Y-105785618D02*
X202801485Y-106023713D01*
X202801485Y-106023713D02*
X202801485Y-105404666D01*
X204454819Y-102899904D02*
X203454819Y-102899904D01*
X204454819Y-102328476D02*
X203883390Y-102757047D01*
X203454819Y-102328476D02*
X204026247Y-102899904D01*
X203134819Y-100372094D02*
X202134819Y-100372094D01*
X202134819Y-100372094D02*
X202134819Y-100133999D01*
X202134819Y-100133999D02*
X202182438Y-99991142D01*
X202182438Y-99991142D02*
X202277676Y-99895904D01*
X202277676Y-99895904D02*
X202372914Y-99848285D01*
X202372914Y-99848285D02*
X202563390Y-99800666D01*
X202563390Y-99800666D02*
X202706247Y-99800666D01*
X202706247Y-99800666D02*
X202896723Y-99848285D01*
X202896723Y-99848285D02*
X202991961Y-99895904D01*
X202991961Y-99895904D02*
X203087200Y-99991142D01*
X203087200Y-99991142D02*
X203134819Y-100133999D01*
X203134819Y-100133999D02*
X203134819Y-100372094D01*
X202134819Y-99467332D02*
X202134819Y-98848285D01*
X202134819Y-98848285D02*
X202515771Y-99181618D01*
X202515771Y-99181618D02*
X202515771Y-99038761D01*
X202515771Y-99038761D02*
X202563390Y-98943523D01*
X202563390Y-98943523D02*
X202611009Y-98895904D01*
X202611009Y-98895904D02*
X202706247Y-98848285D01*
X202706247Y-98848285D02*
X202944342Y-98848285D01*
X202944342Y-98848285D02*
X203039580Y-98895904D01*
X203039580Y-98895904D02*
X203087200Y-98943523D01*
X203087200Y-98943523D02*
X203134819Y-99038761D01*
X203134819Y-99038761D02*
X203134819Y-99324475D01*
X203134819Y-99324475D02*
X203087200Y-99419713D01*
X203087200Y-99419713D02*
X203039580Y-99467332D01*
X204454819Y-96295904D02*
X203454819Y-96295904D01*
X204454819Y-95724476D02*
X203883390Y-96153047D01*
X203454819Y-95724476D02*
X204026247Y-96295904D01*
X203134819Y-93768094D02*
X202134819Y-93768094D01*
X202134819Y-93768094D02*
X202134819Y-93529999D01*
X202134819Y-93529999D02*
X202182438Y-93387142D01*
X202182438Y-93387142D02*
X202277676Y-93291904D01*
X202277676Y-93291904D02*
X202372914Y-93244285D01*
X202372914Y-93244285D02*
X202563390Y-93196666D01*
X202563390Y-93196666D02*
X202706247Y-93196666D01*
X202706247Y-93196666D02*
X202896723Y-93244285D01*
X202896723Y-93244285D02*
X202991961Y-93291904D01*
X202991961Y-93291904D02*
X203087200Y-93387142D01*
X203087200Y-93387142D02*
X203134819Y-93529999D01*
X203134819Y-93529999D02*
X203134819Y-93768094D01*
X202230057Y-92815713D02*
X202182438Y-92768094D01*
X202182438Y-92768094D02*
X202134819Y-92672856D01*
X202134819Y-92672856D02*
X202134819Y-92434761D01*
X202134819Y-92434761D02*
X202182438Y-92339523D01*
X202182438Y-92339523D02*
X202230057Y-92291904D01*
X202230057Y-92291904D02*
X202325295Y-92244285D01*
X202325295Y-92244285D02*
X202420533Y-92244285D01*
X202420533Y-92244285D02*
X202563390Y-92291904D01*
X202563390Y-92291904D02*
X203134819Y-92863332D01*
X203134819Y-92863332D02*
X203134819Y-92244285D01*
X204454819Y-89691904D02*
X203454819Y-89691904D01*
X204454819Y-89120476D02*
X203883390Y-89549047D01*
X203454819Y-89120476D02*
X204026247Y-89691904D01*
X203134819Y-87164094D02*
X202134819Y-87164094D01*
X202134819Y-87164094D02*
X202134819Y-86925999D01*
X202134819Y-86925999D02*
X202182438Y-86783142D01*
X202182438Y-86783142D02*
X202277676Y-86687904D01*
X202277676Y-86687904D02*
X202372914Y-86640285D01*
X202372914Y-86640285D02*
X202563390Y-86592666D01*
X202563390Y-86592666D02*
X202706247Y-86592666D01*
X202706247Y-86592666D02*
X202896723Y-86640285D01*
X202896723Y-86640285D02*
X202991961Y-86687904D01*
X202991961Y-86687904D02*
X203087200Y-86783142D01*
X203087200Y-86783142D02*
X203134819Y-86925999D01*
X203134819Y-86925999D02*
X203134819Y-87164094D01*
X203134819Y-85640285D02*
X203134819Y-86211713D01*
X203134819Y-85925999D02*
X202134819Y-85925999D01*
X202134819Y-85925999D02*
X202277676Y-86021237D01*
X202277676Y-86021237D02*
X202372914Y-86116475D01*
X202372914Y-86116475D02*
X202420533Y-86211713D01*
X204454819Y-83087904D02*
X203454819Y-83087904D01*
X204454819Y-82516476D02*
X203883390Y-82945047D01*
X203454819Y-82516476D02*
X204026247Y-83087904D01*
X120546905Y-100784819D02*
X120546905Y-99784819D01*
X120546905Y-99784819D02*
X120927857Y-99784819D01*
X120927857Y-99784819D02*
X121023095Y-99832438D01*
X121023095Y-99832438D02*
X121070714Y-99880057D01*
X121070714Y-99880057D02*
X121118333Y-99975295D01*
X121118333Y-99975295D02*
X121118333Y-100118152D01*
X121118333Y-100118152D02*
X121070714Y-100213390D01*
X121070714Y-100213390D02*
X121023095Y-100261009D01*
X121023095Y-100261009D02*
X120927857Y-100308628D01*
X120927857Y-100308628D02*
X120546905Y-100308628D01*
X122070714Y-100784819D02*
X121499286Y-100784819D01*
X121785000Y-100784819D02*
X121785000Y-99784819D01*
X121785000Y-99784819D02*
X121689762Y-99927676D01*
X121689762Y-99927676D02*
X121594524Y-100022914D01*
X121594524Y-100022914D02*
X121499286Y-100070533D01*
X155284580Y-81964666D02*
X155332200Y-82012285D01*
X155332200Y-82012285D02*
X155379819Y-82155142D01*
X155379819Y-82155142D02*
X155379819Y-82250380D01*
X155379819Y-82250380D02*
X155332200Y-82393237D01*
X155332200Y-82393237D02*
X155236961Y-82488475D01*
X155236961Y-82488475D02*
X155141723Y-82536094D01*
X155141723Y-82536094D02*
X154951247Y-82583713D01*
X154951247Y-82583713D02*
X154808390Y-82583713D01*
X154808390Y-82583713D02*
X154617914Y-82536094D01*
X154617914Y-82536094D02*
X154522676Y-82488475D01*
X154522676Y-82488475D02*
X154427438Y-82393237D01*
X154427438Y-82393237D02*
X154379819Y-82250380D01*
X154379819Y-82250380D02*
X154379819Y-82155142D01*
X154379819Y-82155142D02*
X154427438Y-82012285D01*
X154427438Y-82012285D02*
X154475057Y-81964666D01*
X154379819Y-81107523D02*
X154379819Y-81297999D01*
X154379819Y-81297999D02*
X154427438Y-81393237D01*
X154427438Y-81393237D02*
X154475057Y-81440856D01*
X154475057Y-81440856D02*
X154617914Y-81536094D01*
X154617914Y-81536094D02*
X154808390Y-81583713D01*
X154808390Y-81583713D02*
X155189342Y-81583713D01*
X155189342Y-81583713D02*
X155284580Y-81536094D01*
X155284580Y-81536094D02*
X155332200Y-81488475D01*
X155332200Y-81488475D02*
X155379819Y-81393237D01*
X155379819Y-81393237D02*
X155379819Y-81202761D01*
X155379819Y-81202761D02*
X155332200Y-81107523D01*
X155332200Y-81107523D02*
X155284580Y-81059904D01*
X155284580Y-81059904D02*
X155189342Y-81012285D01*
X155189342Y-81012285D02*
X154951247Y-81012285D01*
X154951247Y-81012285D02*
X154856009Y-81059904D01*
X154856009Y-81059904D02*
X154808390Y-81107523D01*
X154808390Y-81107523D02*
X154760771Y-81202761D01*
X154760771Y-81202761D02*
X154760771Y-81393237D01*
X154760771Y-81393237D02*
X154808390Y-81488475D01*
X154808390Y-81488475D02*
X154856009Y-81536094D01*
X154856009Y-81536094D02*
X154951247Y-81583713D01*
X207833333Y-79109580D02*
X207785714Y-79157200D01*
X207785714Y-79157200D02*
X207642857Y-79204819D01*
X207642857Y-79204819D02*
X207547619Y-79204819D01*
X207547619Y-79204819D02*
X207404762Y-79157200D01*
X207404762Y-79157200D02*
X207309524Y-79061961D01*
X207309524Y-79061961D02*
X207261905Y-78966723D01*
X207261905Y-78966723D02*
X207214286Y-78776247D01*
X207214286Y-78776247D02*
X207214286Y-78633390D01*
X207214286Y-78633390D02*
X207261905Y-78442914D01*
X207261905Y-78442914D02*
X207309524Y-78347676D01*
X207309524Y-78347676D02*
X207404762Y-78252438D01*
X207404762Y-78252438D02*
X207547619Y-78204819D01*
X207547619Y-78204819D02*
X207642857Y-78204819D01*
X207642857Y-78204819D02*
X207785714Y-78252438D01*
X207785714Y-78252438D02*
X207833333Y-78300057D01*
X208404762Y-78633390D02*
X208309524Y-78585771D01*
X208309524Y-78585771D02*
X208261905Y-78538152D01*
X208261905Y-78538152D02*
X208214286Y-78442914D01*
X208214286Y-78442914D02*
X208214286Y-78395295D01*
X208214286Y-78395295D02*
X208261905Y-78300057D01*
X208261905Y-78300057D02*
X208309524Y-78252438D01*
X208309524Y-78252438D02*
X208404762Y-78204819D01*
X208404762Y-78204819D02*
X208595238Y-78204819D01*
X208595238Y-78204819D02*
X208690476Y-78252438D01*
X208690476Y-78252438D02*
X208738095Y-78300057D01*
X208738095Y-78300057D02*
X208785714Y-78395295D01*
X208785714Y-78395295D02*
X208785714Y-78442914D01*
X208785714Y-78442914D02*
X208738095Y-78538152D01*
X208738095Y-78538152D02*
X208690476Y-78585771D01*
X208690476Y-78585771D02*
X208595238Y-78633390D01*
X208595238Y-78633390D02*
X208404762Y-78633390D01*
X208404762Y-78633390D02*
X208309524Y-78681009D01*
X208309524Y-78681009D02*
X208261905Y-78728628D01*
X208261905Y-78728628D02*
X208214286Y-78823866D01*
X208214286Y-78823866D02*
X208214286Y-79014342D01*
X208214286Y-79014342D02*
X208261905Y-79109580D01*
X208261905Y-79109580D02*
X208309524Y-79157200D01*
X208309524Y-79157200D02*
X208404762Y-79204819D01*
X208404762Y-79204819D02*
X208595238Y-79204819D01*
X208595238Y-79204819D02*
X208690476Y-79157200D01*
X208690476Y-79157200D02*
X208738095Y-79109580D01*
X208738095Y-79109580D02*
X208785714Y-79014342D01*
X208785714Y-79014342D02*
X208785714Y-78823866D01*
X208785714Y-78823866D02*
X208738095Y-78728628D01*
X208738095Y-78728628D02*
X208690476Y-78681009D01*
X208690476Y-78681009D02*
X208595238Y-78633390D01*
X156210095Y-87783819D02*
X156210095Y-88593342D01*
X156210095Y-88593342D02*
X156257714Y-88688580D01*
X156257714Y-88688580D02*
X156305333Y-88736200D01*
X156305333Y-88736200D02*
X156400571Y-88783819D01*
X156400571Y-88783819D02*
X156591047Y-88783819D01*
X156591047Y-88783819D02*
X156686285Y-88736200D01*
X156686285Y-88736200D02*
X156733904Y-88688580D01*
X156733904Y-88688580D02*
X156781523Y-88593342D01*
X156781523Y-88593342D02*
X156781523Y-87783819D01*
X157686285Y-88117152D02*
X157686285Y-88783819D01*
X157448190Y-87736200D02*
X157210095Y-88450485D01*
X157210095Y-88450485D02*
X157829142Y-88450485D01*
X112650714Y-116892080D02*
X112603095Y-116939700D01*
X112603095Y-116939700D02*
X112460238Y-116987319D01*
X112460238Y-116987319D02*
X112365000Y-116987319D01*
X112365000Y-116987319D02*
X112222143Y-116939700D01*
X112222143Y-116939700D02*
X112126905Y-116844461D01*
X112126905Y-116844461D02*
X112079286Y-116749223D01*
X112079286Y-116749223D02*
X112031667Y-116558747D01*
X112031667Y-116558747D02*
X112031667Y-116415890D01*
X112031667Y-116415890D02*
X112079286Y-116225414D01*
X112079286Y-116225414D02*
X112126905Y-116130176D01*
X112126905Y-116130176D02*
X112222143Y-116034938D01*
X112222143Y-116034938D02*
X112365000Y-115987319D01*
X112365000Y-115987319D02*
X112460238Y-115987319D01*
X112460238Y-115987319D02*
X112603095Y-116034938D01*
X112603095Y-116034938D02*
X112650714Y-116082557D01*
X113269762Y-115987319D02*
X113460238Y-115987319D01*
X113460238Y-115987319D02*
X113555476Y-116034938D01*
X113555476Y-116034938D02*
X113650714Y-116130176D01*
X113650714Y-116130176D02*
X113698333Y-116320652D01*
X113698333Y-116320652D02*
X113698333Y-116653985D01*
X113698333Y-116653985D02*
X113650714Y-116844461D01*
X113650714Y-116844461D02*
X113555476Y-116939700D01*
X113555476Y-116939700D02*
X113460238Y-116987319D01*
X113460238Y-116987319D02*
X113269762Y-116987319D01*
X113269762Y-116987319D02*
X113174524Y-116939700D01*
X113174524Y-116939700D02*
X113079286Y-116844461D01*
X113079286Y-116844461D02*
X113031667Y-116653985D01*
X113031667Y-116653985D02*
X113031667Y-116320652D01*
X113031667Y-116320652D02*
X113079286Y-116130176D01*
X113079286Y-116130176D02*
X113174524Y-116034938D01*
X113174524Y-116034938D02*
X113269762Y-115987319D01*
X114126905Y-116987319D02*
X114126905Y-115987319D01*
X114126905Y-115987319D02*
X114698333Y-116987319D01*
X114698333Y-116987319D02*
X114698333Y-115987319D01*
X115698333Y-116987319D02*
X115126905Y-116987319D01*
X115412619Y-116987319D02*
X115412619Y-115987319D01*
X115412619Y-115987319D02*
X115317381Y-116130176D01*
X115317381Y-116130176D02*
X115222143Y-116225414D01*
X115222143Y-116225414D02*
X115126905Y-116273033D01*
X199238095Y-81604819D02*
X199238095Y-82414342D01*
X199238095Y-82414342D02*
X199285714Y-82509580D01*
X199285714Y-82509580D02*
X199333333Y-82557200D01*
X199333333Y-82557200D02*
X199428571Y-82604819D01*
X199428571Y-82604819D02*
X199619047Y-82604819D01*
X199619047Y-82604819D02*
X199714285Y-82557200D01*
X199714285Y-82557200D02*
X199761904Y-82509580D01*
X199761904Y-82509580D02*
X199809523Y-82414342D01*
X199809523Y-82414342D02*
X199809523Y-81604819D01*
X200238095Y-81700057D02*
X200285714Y-81652438D01*
X200285714Y-81652438D02*
X200380952Y-81604819D01*
X200380952Y-81604819D02*
X200619047Y-81604819D01*
X200619047Y-81604819D02*
X200714285Y-81652438D01*
X200714285Y-81652438D02*
X200761904Y-81700057D01*
X200761904Y-81700057D02*
X200809523Y-81795295D01*
X200809523Y-81795295D02*
X200809523Y-81890533D01*
X200809523Y-81890533D02*
X200761904Y-82033390D01*
X200761904Y-82033390D02*
X200190476Y-82604819D01*
X200190476Y-82604819D02*
X200809523Y-82604819D01*
X199238095Y-71674819D02*
X199238095Y-72484342D01*
X199238095Y-72484342D02*
X199285714Y-72579580D01*
X199285714Y-72579580D02*
X199333333Y-72627200D01*
X199333333Y-72627200D02*
X199428571Y-72674819D01*
X199428571Y-72674819D02*
X199619047Y-72674819D01*
X199619047Y-72674819D02*
X199714285Y-72627200D01*
X199714285Y-72627200D02*
X199761904Y-72579580D01*
X199761904Y-72579580D02*
X199809523Y-72484342D01*
X199809523Y-72484342D02*
X199809523Y-71674819D01*
X200190476Y-71674819D02*
X200809523Y-71674819D01*
X200809523Y-71674819D02*
X200476190Y-72055771D01*
X200476190Y-72055771D02*
X200619047Y-72055771D01*
X200619047Y-72055771D02*
X200714285Y-72103390D01*
X200714285Y-72103390D02*
X200761904Y-72151009D01*
X200761904Y-72151009D02*
X200809523Y-72246247D01*
X200809523Y-72246247D02*
X200809523Y-72484342D01*
X200809523Y-72484342D02*
X200761904Y-72579580D01*
X200761904Y-72579580D02*
X200714285Y-72627200D01*
X200714285Y-72627200D02*
X200619047Y-72674819D01*
X200619047Y-72674819D02*
X200333333Y-72674819D01*
X200333333Y-72674819D02*
X200238095Y-72627200D01*
X200238095Y-72627200D02*
X200190476Y-72579580D01*
X196683333Y-105864819D02*
X196350000Y-105388628D01*
X196111905Y-105864819D02*
X196111905Y-104864819D01*
X196111905Y-104864819D02*
X196492857Y-104864819D01*
X196492857Y-104864819D02*
X196588095Y-104912438D01*
X196588095Y-104912438D02*
X196635714Y-104960057D01*
X196635714Y-104960057D02*
X196683333Y-105055295D01*
X196683333Y-105055295D02*
X196683333Y-105198152D01*
X196683333Y-105198152D02*
X196635714Y-105293390D01*
X196635714Y-105293390D02*
X196588095Y-105341009D01*
X196588095Y-105341009D02*
X196492857Y-105388628D01*
X196492857Y-105388628D02*
X196111905Y-105388628D01*
X197635714Y-105864819D02*
X197064286Y-105864819D01*
X197350000Y-105864819D02*
X197350000Y-104864819D01*
X197350000Y-104864819D02*
X197254762Y-105007676D01*
X197254762Y-105007676D02*
X197159524Y-105102914D01*
X197159524Y-105102914D02*
X197064286Y-105150533D01*
X140716095Y-78558819D02*
X140716095Y-79368342D01*
X140716095Y-79368342D02*
X140763714Y-79463580D01*
X140763714Y-79463580D02*
X140811333Y-79511200D01*
X140811333Y-79511200D02*
X140906571Y-79558819D01*
X140906571Y-79558819D02*
X141097047Y-79558819D01*
X141097047Y-79558819D02*
X141192285Y-79511200D01*
X141192285Y-79511200D02*
X141239904Y-79463580D01*
X141239904Y-79463580D02*
X141287523Y-79368342D01*
X141287523Y-79368342D02*
X141287523Y-78558819D01*
X142287523Y-79558819D02*
X141716095Y-79558819D01*
X142001809Y-79558819D02*
X142001809Y-78558819D01*
X142001809Y-78558819D02*
X141906571Y-78701676D01*
X141906571Y-78701676D02*
X141811333Y-78796914D01*
X141811333Y-78796914D02*
X141716095Y-78844533D01*
X183064819Y-84316666D02*
X182588628Y-84649999D01*
X183064819Y-84888094D02*
X182064819Y-84888094D01*
X182064819Y-84888094D02*
X182064819Y-84507142D01*
X182064819Y-84507142D02*
X182112438Y-84411904D01*
X182112438Y-84411904D02*
X182160057Y-84364285D01*
X182160057Y-84364285D02*
X182255295Y-84316666D01*
X182255295Y-84316666D02*
X182398152Y-84316666D01*
X182398152Y-84316666D02*
X182493390Y-84364285D01*
X182493390Y-84364285D02*
X182541009Y-84411904D01*
X182541009Y-84411904D02*
X182588628Y-84507142D01*
X182588628Y-84507142D02*
X182588628Y-84888094D01*
X183064819Y-83840475D02*
X183064819Y-83649999D01*
X183064819Y-83649999D02*
X183017200Y-83554761D01*
X183017200Y-83554761D02*
X182969580Y-83507142D01*
X182969580Y-83507142D02*
X182826723Y-83411904D01*
X182826723Y-83411904D02*
X182636247Y-83364285D01*
X182636247Y-83364285D02*
X182255295Y-83364285D01*
X182255295Y-83364285D02*
X182160057Y-83411904D01*
X182160057Y-83411904D02*
X182112438Y-83459523D01*
X182112438Y-83459523D02*
X182064819Y-83554761D01*
X182064819Y-83554761D02*
X182064819Y-83745237D01*
X182064819Y-83745237D02*
X182112438Y-83840475D01*
X182112438Y-83840475D02*
X182160057Y-83888094D01*
X182160057Y-83888094D02*
X182255295Y-83935713D01*
X182255295Y-83935713D02*
X182493390Y-83935713D01*
X182493390Y-83935713D02*
X182588628Y-83888094D01*
X182588628Y-83888094D02*
X182636247Y-83840475D01*
X182636247Y-83840475D02*
X182683866Y-83745237D01*
X182683866Y-83745237D02*
X182683866Y-83554761D01*
X182683866Y-83554761D02*
X182636247Y-83459523D01*
X182636247Y-83459523D02*
X182588628Y-83411904D01*
X182588628Y-83411904D02*
X182493390Y-83364285D01*
X159052380Y-114309726D02*
X159052380Y-115337821D01*
X159052380Y-115337821D02*
X159112857Y-115458773D01*
X159112857Y-115458773D02*
X159173333Y-115519250D01*
X159173333Y-115519250D02*
X159294285Y-115579726D01*
X159294285Y-115579726D02*
X159536190Y-115579726D01*
X159536190Y-115579726D02*
X159657142Y-115519250D01*
X159657142Y-115519250D02*
X159717619Y-115458773D01*
X159717619Y-115458773D02*
X159778095Y-115337821D01*
X159778095Y-115337821D02*
X159778095Y-114309726D01*
X160987618Y-114309726D02*
X160382856Y-114309726D01*
X160382856Y-114309726D02*
X160322380Y-114914488D01*
X160322380Y-114914488D02*
X160382856Y-114854011D01*
X160382856Y-114854011D02*
X160503809Y-114793535D01*
X160503809Y-114793535D02*
X160806190Y-114793535D01*
X160806190Y-114793535D02*
X160927142Y-114854011D01*
X160927142Y-114854011D02*
X160987618Y-114914488D01*
X160987618Y-114914488D02*
X161048095Y-115035440D01*
X161048095Y-115035440D02*
X161048095Y-115337821D01*
X161048095Y-115337821D02*
X160987618Y-115458773D01*
X160987618Y-115458773D02*
X160927142Y-115519250D01*
X160927142Y-115519250D02*
X160806190Y-115579726D01*
X160806190Y-115579726D02*
X160503809Y-115579726D01*
X160503809Y-115579726D02*
X160382856Y-115519250D01*
X160382856Y-115519250D02*
X160322380Y-115458773D01*
%TO.C,C1*%
X126258000Y-83649000D02*
X126258000Y-80649000D01*
X128758000Y-80649000D02*
X128758000Y-83649000D01*
%TO.C,C2*%
X129814000Y-84959000D02*
X129814000Y-81959000D01*
X132314000Y-81959000D02*
X132314000Y-84959000D01*
%TO.C,C3*%
X143260000Y-76855000D02*
X146260000Y-76855000D01*
X146260000Y-79355000D02*
X143260000Y-79355000D01*
%TO.C,C4*%
X148610000Y-83689000D02*
X148610000Y-80689000D01*
X151110000Y-80689000D02*
X151110000Y-83689000D01*
%TO.C,C5*%
X204250000Y-100750000D02*
X204250000Y-97750000D01*
X206750000Y-97750000D02*
X206750000Y-100750000D01*
%TO.C,C7*%
X156970000Y-95960000D02*
X159970000Y-95960000D01*
X159970000Y-98460000D02*
X156970000Y-98460000D01*
%TO.C,D8*%
X204426000Y-130545000D02*
X204626000Y-130545000D01*
X207020000Y-130545000D02*
X206840000Y-130545000D01*
X204646000Y-133079000D02*
G75*
G02*
X204626748Y-131031111I1060000J1034000D01*
G01*
X204746000Y-133795000D02*
G75*
G02*
X204399274Y-130557780I960000J1740000D01*
G01*
X206840000Y-130994000D02*
G75*
G02*
X206839067Y-133097005I-1134000J-1051000D01*
G01*
X207026000Y-130545000D02*
G75*
G02*
X206709643Y-133772744I-1320000J-1500000D01*
G01*
%TO.C,D7*%
X204426000Y-123941000D02*
X204626000Y-123941000D01*
X207020000Y-123941000D02*
X206840000Y-123941000D01*
X204646000Y-126475000D02*
G75*
G02*
X204626748Y-124427111I1060000J1034000D01*
G01*
X204746000Y-127191000D02*
G75*
G02*
X204399274Y-123953780I960000J1740000D01*
G01*
X206840000Y-124390000D02*
G75*
G02*
X206839067Y-126493005I-1134000J-1051000D01*
G01*
X207026000Y-123941000D02*
G75*
G02*
X206709643Y-127168744I-1320000J-1500000D01*
G01*
%TO.C,D6*%
X204426000Y-117337000D02*
X204626000Y-117337000D01*
X207020000Y-117337000D02*
X206840000Y-117337000D01*
X204646000Y-119871000D02*
G75*
G02*
X204626748Y-117823111I1060000J1034000D01*
G01*
X204746000Y-120587000D02*
G75*
G02*
X204399274Y-117349780I960000J1740000D01*
G01*
X206840000Y-117786000D02*
G75*
G02*
X206839067Y-119889005I-1134000J-1051000D01*
G01*
X207026000Y-117337000D02*
G75*
G02*
X206709643Y-120564744I-1320000J-1500000D01*
G01*
%TO.C,D5*%
X204426000Y-110733000D02*
X204626000Y-110733000D01*
X207020000Y-110733000D02*
X206840000Y-110733000D01*
X204646000Y-113267000D02*
G75*
G02*
X204626748Y-111219111I1060000J1034000D01*
G01*
X204746000Y-113983000D02*
G75*
G02*
X204399274Y-110745780I960000J1740000D01*
G01*
X206840000Y-111182000D02*
G75*
G02*
X206839067Y-113285005I-1134000J-1051000D01*
G01*
X207026000Y-110733000D02*
G75*
G02*
X206709643Y-113960744I-1320000J-1500000D01*
G01*
%TO.C,D4*%
X204426000Y-104129000D02*
X204626000Y-104129000D01*
X207020000Y-104129000D02*
X206840000Y-104129000D01*
X204646000Y-106663000D02*
G75*
G02*
X204626748Y-104615111I1060000J1034000D01*
G01*
X204746000Y-107379000D02*
G75*
G02*
X204399274Y-104141780I960000J1740000D01*
G01*
X206840000Y-104578000D02*
G75*
G02*
X206839067Y-106681005I-1134000J-1051000D01*
G01*
X207026000Y-104129000D02*
G75*
G02*
X206709643Y-107356744I-1320000J-1500000D01*
G01*
%TO.C,D3*%
X204426000Y-97525000D02*
X204626000Y-97525000D01*
X207020000Y-97525000D02*
X206840000Y-97525000D01*
X204646000Y-100059000D02*
G75*
G02*
X204626748Y-98011111I1060000J1034000D01*
G01*
X204746000Y-100775000D02*
G75*
G02*
X204399274Y-97537780I960000J1740000D01*
G01*
X206840000Y-97974000D02*
G75*
G02*
X206839067Y-100077005I-1134000J-1051000D01*
G01*
X207026000Y-97525000D02*
G75*
G02*
X206709643Y-100752744I-1320000J-1500000D01*
G01*
%TO.C,D2*%
X204426000Y-90921000D02*
X204626000Y-90921000D01*
X207020000Y-90921000D02*
X206840000Y-90921000D01*
X204646000Y-93455000D02*
G75*
G02*
X204626748Y-91407111I1060000J1034000D01*
G01*
X204746000Y-94171000D02*
G75*
G02*
X204399274Y-90933780I960000J1740000D01*
G01*
X206840000Y-91370000D02*
G75*
G02*
X206839067Y-93473005I-1134000J-1051000D01*
G01*
X207026000Y-90921000D02*
G75*
G02*
X206709643Y-94148744I-1320000J-1500000D01*
G01*
%TO.C,D1*%
X204426000Y-84317000D02*
X204626000Y-84317000D01*
X207020000Y-84317000D02*
X206840000Y-84317000D01*
X204646000Y-86851000D02*
G75*
G02*
X204626748Y-84803111I1060000J1034000D01*
G01*
X204746000Y-87567000D02*
G75*
G02*
X204399274Y-84329780I960000J1740000D01*
G01*
X206840000Y-84766000D02*
G75*
G02*
X206839067Y-86869005I-1134000J-1051000D01*
G01*
X207026000Y-84317000D02*
G75*
G02*
X206709643Y-87544744I-1320000J-1500000D01*
G01*
%TO.C,P1*%
X123085000Y-86725000D02*
X123635000Y-87285000D01*
X123085000Y-86725000D02*
X132185000Y-86725000D01*
X123085000Y-107045000D02*
X123085000Y-86725000D01*
X123085000Y-107045000D02*
X123635000Y-106505000D01*
X123085000Y-107045000D02*
X132185000Y-107045000D01*
X123635000Y-87285000D02*
X131635000Y-87285000D01*
X123635000Y-106505000D02*
X123635000Y-87285000D01*
X123635000Y-106505000D02*
X131635000Y-106505000D01*
X131635000Y-94635000D02*
X131635000Y-87285000D01*
X131635000Y-94635000D02*
X132185000Y-94635000D01*
X131635000Y-99135000D02*
X132185000Y-99135000D01*
X131635000Y-106505000D02*
X131635000Y-99135000D01*
X132185000Y-86725000D02*
X131635000Y-87285000D01*
X132185000Y-107045000D02*
X131635000Y-106505000D01*
X132185000Y-107045000D02*
X132185000Y-86725000D01*
D12*
%TO.C,C6*%
X152115000Y-79868000D02*
X152115000Y-83708000D01*
X152115000Y-83708000D02*
X153955000Y-83708000D01*
X153955000Y-79868000D02*
X152115000Y-79868000D01*
X153955000Y-83708000D02*
X153955000Y-79868000D01*
D10*
%TO.C,C8*%
X204250000Y-80250000D02*
X204250000Y-77250000D01*
X206750000Y-77250000D02*
X206750000Y-80250000D01*
%TO.C,U4*%
X157812000Y-94029000D02*
X161212000Y-94029000D01*
X157327121Y-91335873D02*
G75*
G02*
X159512000Y-89929001I2184879J-993127D01*
G01*
X157812000Y-94029000D02*
G75*
G02*
X157324305Y-93325990I1700000J1700000D01*
G01*
X159512000Y-89929000D02*
G75*
G02*
X161696879Y-91335873I0J-2400000D01*
G01*
X161699695Y-93325990D02*
G75*
G02*
X161212000Y-94029000I-2187695J996990D01*
G01*
D12*
%TO.C,CON1*%
X109765000Y-117632500D02*
X120565000Y-117632500D01*
X114665000Y-126832500D02*
X109765000Y-126832500D01*
X119715000Y-117432500D02*
X120765000Y-117432500D01*
X120565000Y-117632500D02*
X120565000Y-120232500D01*
X120565000Y-124132500D02*
X120565000Y-126832500D01*
X120565000Y-126832500D02*
X118665000Y-126832500D01*
X120765000Y-118482500D02*
X120765000Y-117432500D01*
%TO.C,U2*%
X196140000Y-82990000D02*
X196140000Y-83225000D01*
X196140000Y-83225000D02*
X194325000Y-83225000D01*
X196140000Y-96010000D02*
X196140000Y-95775000D01*
X200000000Y-82990000D02*
X196140000Y-82990000D01*
X200000000Y-82990000D02*
X203860000Y-82990000D01*
X200000000Y-96010000D02*
X196140000Y-96010000D01*
X200000000Y-96010000D02*
X203860000Y-96010000D01*
X203860000Y-82990000D02*
X203860000Y-83225000D01*
X203860000Y-96010000D02*
X203860000Y-95775000D01*
%TO.C,U3*%
X200000000Y-73065000D02*
X196550000Y-73065000D01*
X200000000Y-73065000D02*
X201950000Y-73065000D01*
X200000000Y-81935000D02*
X198050000Y-81935000D01*
X200000000Y-81935000D02*
X201950000Y-81935000D01*
%TO.C,R1*%
X194663500Y-107255000D02*
X194663500Y-127695000D01*
X194663500Y-127695000D02*
X199163500Y-127695000D01*
X195913500Y-107255000D02*
X194663500Y-107255000D01*
X199163500Y-107255000D02*
X197913500Y-107255000D01*
X199163500Y-127695000D02*
X199163500Y-107255000D01*
X197913500Y-107255000D02*
G75*
G02*
X195913500Y-107255000I-1000000J0D01*
G01*
D10*
%TO.C,U1*%
X137603000Y-80029000D02*
X137603000Y-80279000D01*
X137603000Y-80029000D02*
X145353000Y-80029000D01*
X137603000Y-80279000D02*
X135778000Y-80279000D01*
X137603000Y-98279000D02*
X137603000Y-97934000D01*
X137603000Y-98279000D02*
X145353000Y-98279000D01*
X145353000Y-80029000D02*
X145353000Y-80374000D01*
X145353000Y-98279000D02*
X145353000Y-97934000D01*
D12*
%TO.C,R9*%
X183580000Y-82240000D02*
X183580000Y-86080000D01*
X183580000Y-86080000D02*
X185420000Y-86080000D01*
X185420000Y-82240000D02*
X183580000Y-82240000D01*
X185420000Y-86080000D02*
X185420000Y-82240000D01*
D11*
%TO.C,U5*%
X142490000Y-100400000D02*
G75*
G02*
X141990000Y-100400000I-250000J0D01*
G01*
X141990000Y-100400000D02*
G75*
G02*
X142490000Y-100400000I250000J0D01*
G01*
%TD*%
M02*
