%TF.GenerationSoftware,KiCad,Pcbnew,9.0.8+dfsg-1*%
%TF.CreationDate,2026-07-05T22:45:28+02:00*%
%TF.ProjectId,RetroWiFiModem,52657472-6f57-4694-9669-4d6f64656d2e,0.3*%
%TF.SameCoordinates,Original*%
%TF.FileFunction,AssemblyDrawing,Top*%
%FSLAX46Y46*%
G04 Gerber Fmt 4.6, Leading zero omitted, Abs format (unit mm)*
G04 Created by KiCad (PCBNEW 9.0.8+dfsg-1) date 2026-07-05 22:45:28*
%MOMM*%
%LPD*%
G01*
G04 APERTURE LIST*
%ADD10C,0.150000*%
%ADD11C,0.120000*%
%ADD12C,0.100000*%
G04 APERTURE END LIST*
D10*
X125462819Y-83696619D02*
X125462819Y-84268047D01*
X125462819Y-83982333D02*
X124462819Y-83982333D01*
X124462819Y-83982333D02*
X124605676Y-84077571D01*
X124605676Y-84077571D02*
X124700914Y-84172809D01*
X124700914Y-84172809D02*
X124748533Y-84268047D01*
X124462819Y-83077571D02*
X124462819Y-82982333D01*
X124462819Y-82982333D02*
X124510438Y-82887095D01*
X124510438Y-82887095D02*
X124558057Y-82839476D01*
X124558057Y-82839476D02*
X124653295Y-82791857D01*
X124653295Y-82791857D02*
X124843771Y-82744238D01*
X124843771Y-82744238D02*
X125081866Y-82744238D01*
X125081866Y-82744238D02*
X125272342Y-82791857D01*
X125272342Y-82791857D02*
X125367580Y-82839476D01*
X125367580Y-82839476D02*
X125415200Y-82887095D01*
X125415200Y-82887095D02*
X125462819Y-82982333D01*
X125462819Y-82982333D02*
X125462819Y-83077571D01*
X125462819Y-83077571D02*
X125415200Y-83172809D01*
X125415200Y-83172809D02*
X125367580Y-83220428D01*
X125367580Y-83220428D02*
X125272342Y-83268047D01*
X125272342Y-83268047D02*
X125081866Y-83315666D01*
X125081866Y-83315666D02*
X124843771Y-83315666D01*
X124843771Y-83315666D02*
X124653295Y-83268047D01*
X124653295Y-83268047D02*
X124558057Y-83220428D01*
X124558057Y-83220428D02*
X124510438Y-83172809D01*
X124510438Y-83172809D02*
X124462819Y-83077571D01*
X124462819Y-82125190D02*
X124462819Y-82029952D01*
X124462819Y-82029952D02*
X124510438Y-81934714D01*
X124510438Y-81934714D02*
X124558057Y-81887095D01*
X124558057Y-81887095D02*
X124653295Y-81839476D01*
X124653295Y-81839476D02*
X124843771Y-81791857D01*
X124843771Y-81791857D02*
X125081866Y-81791857D01*
X125081866Y-81791857D02*
X125272342Y-81839476D01*
X125272342Y-81839476D02*
X125367580Y-81887095D01*
X125367580Y-81887095D02*
X125415200Y-81934714D01*
X125415200Y-81934714D02*
X125462819Y-82029952D01*
X125462819Y-82029952D02*
X125462819Y-82125190D01*
X125462819Y-82125190D02*
X125415200Y-82220428D01*
X125415200Y-82220428D02*
X125367580Y-82268047D01*
X125367580Y-82268047D02*
X125272342Y-82315666D01*
X125272342Y-82315666D02*
X125081866Y-82363285D01*
X125081866Y-82363285D02*
X124843771Y-82363285D01*
X124843771Y-82363285D02*
X124653295Y-82315666D01*
X124653295Y-82315666D02*
X124558057Y-82268047D01*
X124558057Y-82268047D02*
X124510438Y-82220428D01*
X124510438Y-82220428D02*
X124462819Y-82125190D01*
X124796152Y-81363285D02*
X125462819Y-81363285D01*
X124891390Y-81363285D02*
X124843771Y-81315666D01*
X124843771Y-81315666D02*
X124796152Y-81220428D01*
X124796152Y-81220428D02*
X124796152Y-81077571D01*
X124796152Y-81077571D02*
X124843771Y-80982333D01*
X124843771Y-80982333D02*
X124939009Y-80934714D01*
X124939009Y-80934714D02*
X125462819Y-80934714D01*
X124939009Y-80125190D02*
X124939009Y-80458523D01*
X125462819Y-80458523D02*
X124462819Y-80458523D01*
X124462819Y-80458523D02*
X124462819Y-79982333D01*
X134018819Y-85006619D02*
X134018819Y-85578047D01*
X134018819Y-85292333D02*
X133018819Y-85292333D01*
X133018819Y-85292333D02*
X133161676Y-85387571D01*
X133161676Y-85387571D02*
X133256914Y-85482809D01*
X133256914Y-85482809D02*
X133304533Y-85578047D01*
X133018819Y-84387571D02*
X133018819Y-84292333D01*
X133018819Y-84292333D02*
X133066438Y-84197095D01*
X133066438Y-84197095D02*
X133114057Y-84149476D01*
X133114057Y-84149476D02*
X133209295Y-84101857D01*
X133209295Y-84101857D02*
X133399771Y-84054238D01*
X133399771Y-84054238D02*
X133637866Y-84054238D01*
X133637866Y-84054238D02*
X133828342Y-84101857D01*
X133828342Y-84101857D02*
X133923580Y-84149476D01*
X133923580Y-84149476D02*
X133971200Y-84197095D01*
X133971200Y-84197095D02*
X134018819Y-84292333D01*
X134018819Y-84292333D02*
X134018819Y-84387571D01*
X134018819Y-84387571D02*
X133971200Y-84482809D01*
X133971200Y-84482809D02*
X133923580Y-84530428D01*
X133923580Y-84530428D02*
X133828342Y-84578047D01*
X133828342Y-84578047D02*
X133637866Y-84625666D01*
X133637866Y-84625666D02*
X133399771Y-84625666D01*
X133399771Y-84625666D02*
X133209295Y-84578047D01*
X133209295Y-84578047D02*
X133114057Y-84530428D01*
X133114057Y-84530428D02*
X133066438Y-84482809D01*
X133066438Y-84482809D02*
X133018819Y-84387571D01*
X133018819Y-83435190D02*
X133018819Y-83339952D01*
X133018819Y-83339952D02*
X133066438Y-83244714D01*
X133066438Y-83244714D02*
X133114057Y-83197095D01*
X133114057Y-83197095D02*
X133209295Y-83149476D01*
X133209295Y-83149476D02*
X133399771Y-83101857D01*
X133399771Y-83101857D02*
X133637866Y-83101857D01*
X133637866Y-83101857D02*
X133828342Y-83149476D01*
X133828342Y-83149476D02*
X133923580Y-83197095D01*
X133923580Y-83197095D02*
X133971200Y-83244714D01*
X133971200Y-83244714D02*
X134018819Y-83339952D01*
X134018819Y-83339952D02*
X134018819Y-83435190D01*
X134018819Y-83435190D02*
X133971200Y-83530428D01*
X133971200Y-83530428D02*
X133923580Y-83578047D01*
X133923580Y-83578047D02*
X133828342Y-83625666D01*
X133828342Y-83625666D02*
X133637866Y-83673285D01*
X133637866Y-83673285D02*
X133399771Y-83673285D01*
X133399771Y-83673285D02*
X133209295Y-83625666D01*
X133209295Y-83625666D02*
X133114057Y-83578047D01*
X133114057Y-83578047D02*
X133066438Y-83530428D01*
X133066438Y-83530428D02*
X133018819Y-83435190D01*
X133352152Y-82673285D02*
X134018819Y-82673285D01*
X133447390Y-82673285D02*
X133399771Y-82625666D01*
X133399771Y-82625666D02*
X133352152Y-82530428D01*
X133352152Y-82530428D02*
X133352152Y-82387571D01*
X133352152Y-82387571D02*
X133399771Y-82292333D01*
X133399771Y-82292333D02*
X133495009Y-82244714D01*
X133495009Y-82244714D02*
X134018819Y-82244714D01*
X133495009Y-81435190D02*
X133495009Y-81768523D01*
X134018819Y-81768523D02*
X133018819Y-81768523D01*
X133018819Y-81768523D02*
X133018819Y-81292333D01*
X143212380Y-81059819D02*
X142640952Y-81059819D01*
X142926666Y-81059819D02*
X142926666Y-80059819D01*
X142926666Y-80059819D02*
X142831428Y-80202676D01*
X142831428Y-80202676D02*
X142736190Y-80297914D01*
X142736190Y-80297914D02*
X142640952Y-80345533D01*
X143831428Y-80059819D02*
X143926666Y-80059819D01*
X143926666Y-80059819D02*
X144021904Y-80107438D01*
X144021904Y-80107438D02*
X144069523Y-80155057D01*
X144069523Y-80155057D02*
X144117142Y-80250295D01*
X144117142Y-80250295D02*
X144164761Y-80440771D01*
X144164761Y-80440771D02*
X144164761Y-80678866D01*
X144164761Y-80678866D02*
X144117142Y-80869342D01*
X144117142Y-80869342D02*
X144069523Y-80964580D01*
X144069523Y-80964580D02*
X144021904Y-81012200D01*
X144021904Y-81012200D02*
X143926666Y-81059819D01*
X143926666Y-81059819D02*
X143831428Y-81059819D01*
X143831428Y-81059819D02*
X143736190Y-81012200D01*
X143736190Y-81012200D02*
X143688571Y-80964580D01*
X143688571Y-80964580D02*
X143640952Y-80869342D01*
X143640952Y-80869342D02*
X143593333Y-80678866D01*
X143593333Y-80678866D02*
X143593333Y-80440771D01*
X143593333Y-80440771D02*
X143640952Y-80250295D01*
X143640952Y-80250295D02*
X143688571Y-80155057D01*
X143688571Y-80155057D02*
X143736190Y-80107438D01*
X143736190Y-80107438D02*
X143831428Y-80059819D01*
X144783809Y-80059819D02*
X144879047Y-80059819D01*
X144879047Y-80059819D02*
X144974285Y-80107438D01*
X144974285Y-80107438D02*
X145021904Y-80155057D01*
X145021904Y-80155057D02*
X145069523Y-80250295D01*
X145069523Y-80250295D02*
X145117142Y-80440771D01*
X145117142Y-80440771D02*
X145117142Y-80678866D01*
X145117142Y-80678866D02*
X145069523Y-80869342D01*
X145069523Y-80869342D02*
X145021904Y-80964580D01*
X145021904Y-80964580D02*
X144974285Y-81012200D01*
X144974285Y-81012200D02*
X144879047Y-81059819D01*
X144879047Y-81059819D02*
X144783809Y-81059819D01*
X144783809Y-81059819D02*
X144688571Y-81012200D01*
X144688571Y-81012200D02*
X144640952Y-80964580D01*
X144640952Y-80964580D02*
X144593333Y-80869342D01*
X144593333Y-80869342D02*
X144545714Y-80678866D01*
X144545714Y-80678866D02*
X144545714Y-80440771D01*
X144545714Y-80440771D02*
X144593333Y-80250295D01*
X144593333Y-80250295D02*
X144640952Y-80155057D01*
X144640952Y-80155057D02*
X144688571Y-80107438D01*
X144688571Y-80107438D02*
X144783809Y-80059819D01*
X145545714Y-80393152D02*
X145545714Y-81059819D01*
X145545714Y-80488390D02*
X145593333Y-80440771D01*
X145593333Y-80440771D02*
X145688571Y-80393152D01*
X145688571Y-80393152D02*
X145831428Y-80393152D01*
X145831428Y-80393152D02*
X145926666Y-80440771D01*
X145926666Y-80440771D02*
X145974285Y-80536009D01*
X145974285Y-80536009D02*
X145974285Y-81059819D01*
X146783809Y-80536009D02*
X146450476Y-80536009D01*
X146450476Y-81059819D02*
X146450476Y-80059819D01*
X146450476Y-80059819D02*
X146926666Y-80059819D01*
X152814819Y-83736619D02*
X152814819Y-84308047D01*
X152814819Y-84022333D02*
X151814819Y-84022333D01*
X151814819Y-84022333D02*
X151957676Y-84117571D01*
X151957676Y-84117571D02*
X152052914Y-84212809D01*
X152052914Y-84212809D02*
X152100533Y-84308047D01*
X151814819Y-83117571D02*
X151814819Y-83022333D01*
X151814819Y-83022333D02*
X151862438Y-82927095D01*
X151862438Y-82927095D02*
X151910057Y-82879476D01*
X151910057Y-82879476D02*
X152005295Y-82831857D01*
X152005295Y-82831857D02*
X152195771Y-82784238D01*
X152195771Y-82784238D02*
X152433866Y-82784238D01*
X152433866Y-82784238D02*
X152624342Y-82831857D01*
X152624342Y-82831857D02*
X152719580Y-82879476D01*
X152719580Y-82879476D02*
X152767200Y-82927095D01*
X152767200Y-82927095D02*
X152814819Y-83022333D01*
X152814819Y-83022333D02*
X152814819Y-83117571D01*
X152814819Y-83117571D02*
X152767200Y-83212809D01*
X152767200Y-83212809D02*
X152719580Y-83260428D01*
X152719580Y-83260428D02*
X152624342Y-83308047D01*
X152624342Y-83308047D02*
X152433866Y-83355666D01*
X152433866Y-83355666D02*
X152195771Y-83355666D01*
X152195771Y-83355666D02*
X152005295Y-83308047D01*
X152005295Y-83308047D02*
X151910057Y-83260428D01*
X151910057Y-83260428D02*
X151862438Y-83212809D01*
X151862438Y-83212809D02*
X151814819Y-83117571D01*
X151814819Y-82165190D02*
X151814819Y-82069952D01*
X151814819Y-82069952D02*
X151862438Y-81974714D01*
X151862438Y-81974714D02*
X151910057Y-81927095D01*
X151910057Y-81927095D02*
X152005295Y-81879476D01*
X152005295Y-81879476D02*
X152195771Y-81831857D01*
X152195771Y-81831857D02*
X152433866Y-81831857D01*
X152433866Y-81831857D02*
X152624342Y-81879476D01*
X152624342Y-81879476D02*
X152719580Y-81927095D01*
X152719580Y-81927095D02*
X152767200Y-81974714D01*
X152767200Y-81974714D02*
X152814819Y-82069952D01*
X152814819Y-82069952D02*
X152814819Y-82165190D01*
X152814819Y-82165190D02*
X152767200Y-82260428D01*
X152767200Y-82260428D02*
X152719580Y-82308047D01*
X152719580Y-82308047D02*
X152624342Y-82355666D01*
X152624342Y-82355666D02*
X152433866Y-82403285D01*
X152433866Y-82403285D02*
X152195771Y-82403285D01*
X152195771Y-82403285D02*
X152005295Y-82355666D01*
X152005295Y-82355666D02*
X151910057Y-82308047D01*
X151910057Y-82308047D02*
X151862438Y-82260428D01*
X151862438Y-82260428D02*
X151814819Y-82165190D01*
X152148152Y-81403285D02*
X152814819Y-81403285D01*
X152243390Y-81403285D02*
X152195771Y-81355666D01*
X152195771Y-81355666D02*
X152148152Y-81260428D01*
X152148152Y-81260428D02*
X152148152Y-81117571D01*
X152148152Y-81117571D02*
X152195771Y-81022333D01*
X152195771Y-81022333D02*
X152291009Y-80974714D01*
X152291009Y-80974714D02*
X152814819Y-80974714D01*
X152291009Y-80165190D02*
X152291009Y-80498523D01*
X152814819Y-80498523D02*
X151814819Y-80498523D01*
X151814819Y-80498523D02*
X151814819Y-80022333D01*
X203454819Y-100797619D02*
X203454819Y-101369047D01*
X203454819Y-101083333D02*
X202454819Y-101083333D01*
X202454819Y-101083333D02*
X202597676Y-101178571D01*
X202597676Y-101178571D02*
X202692914Y-101273809D01*
X202692914Y-101273809D02*
X202740533Y-101369047D01*
X202454819Y-100178571D02*
X202454819Y-100083333D01*
X202454819Y-100083333D02*
X202502438Y-99988095D01*
X202502438Y-99988095D02*
X202550057Y-99940476D01*
X202550057Y-99940476D02*
X202645295Y-99892857D01*
X202645295Y-99892857D02*
X202835771Y-99845238D01*
X202835771Y-99845238D02*
X203073866Y-99845238D01*
X203073866Y-99845238D02*
X203264342Y-99892857D01*
X203264342Y-99892857D02*
X203359580Y-99940476D01*
X203359580Y-99940476D02*
X203407200Y-99988095D01*
X203407200Y-99988095D02*
X203454819Y-100083333D01*
X203454819Y-100083333D02*
X203454819Y-100178571D01*
X203454819Y-100178571D02*
X203407200Y-100273809D01*
X203407200Y-100273809D02*
X203359580Y-100321428D01*
X203359580Y-100321428D02*
X203264342Y-100369047D01*
X203264342Y-100369047D02*
X203073866Y-100416666D01*
X203073866Y-100416666D02*
X202835771Y-100416666D01*
X202835771Y-100416666D02*
X202645295Y-100369047D01*
X202645295Y-100369047D02*
X202550057Y-100321428D01*
X202550057Y-100321428D02*
X202502438Y-100273809D01*
X202502438Y-100273809D02*
X202454819Y-100178571D01*
X202454819Y-99226190D02*
X202454819Y-99130952D01*
X202454819Y-99130952D02*
X202502438Y-99035714D01*
X202502438Y-99035714D02*
X202550057Y-98988095D01*
X202550057Y-98988095D02*
X202645295Y-98940476D01*
X202645295Y-98940476D02*
X202835771Y-98892857D01*
X202835771Y-98892857D02*
X203073866Y-98892857D01*
X203073866Y-98892857D02*
X203264342Y-98940476D01*
X203264342Y-98940476D02*
X203359580Y-98988095D01*
X203359580Y-98988095D02*
X203407200Y-99035714D01*
X203407200Y-99035714D02*
X203454819Y-99130952D01*
X203454819Y-99130952D02*
X203454819Y-99226190D01*
X203454819Y-99226190D02*
X203407200Y-99321428D01*
X203407200Y-99321428D02*
X203359580Y-99369047D01*
X203359580Y-99369047D02*
X203264342Y-99416666D01*
X203264342Y-99416666D02*
X203073866Y-99464285D01*
X203073866Y-99464285D02*
X202835771Y-99464285D01*
X202835771Y-99464285D02*
X202645295Y-99416666D01*
X202645295Y-99416666D02*
X202550057Y-99369047D01*
X202550057Y-99369047D02*
X202502438Y-99321428D01*
X202502438Y-99321428D02*
X202454819Y-99226190D01*
X202788152Y-98464285D02*
X203454819Y-98464285D01*
X202883390Y-98464285D02*
X202835771Y-98416666D01*
X202835771Y-98416666D02*
X202788152Y-98321428D01*
X202788152Y-98321428D02*
X202788152Y-98178571D01*
X202788152Y-98178571D02*
X202835771Y-98083333D01*
X202835771Y-98083333D02*
X202931009Y-98035714D01*
X202931009Y-98035714D02*
X203454819Y-98035714D01*
X202931009Y-97226190D02*
X202931009Y-97559523D01*
X203454819Y-97559523D02*
X202454819Y-97559523D01*
X202454819Y-97559523D02*
X202454819Y-97083333D01*
X157874761Y-100164819D02*
X157303333Y-100164819D01*
X157589047Y-100164819D02*
X157589047Y-99164819D01*
X157589047Y-99164819D02*
X157493809Y-99307676D01*
X157493809Y-99307676D02*
X157398571Y-99402914D01*
X157398571Y-99402914D02*
X157303333Y-99450533D01*
X158731904Y-99498152D02*
X158731904Y-100164819D01*
X158303333Y-99498152D02*
X158303333Y-100021961D01*
X158303333Y-100021961D02*
X158350952Y-100117200D01*
X158350952Y-100117200D02*
X158446190Y-100164819D01*
X158446190Y-100164819D02*
X158589047Y-100164819D01*
X158589047Y-100164819D02*
X158684285Y-100117200D01*
X158684285Y-100117200D02*
X158731904Y-100069580D01*
X159541428Y-99641009D02*
X159208095Y-99641009D01*
X159208095Y-100164819D02*
X159208095Y-99164819D01*
X159208095Y-99164819D02*
X159684285Y-99164819D01*
X208094819Y-135639237D02*
X208094819Y-135067809D01*
X209094819Y-135353523D02*
X208094819Y-135353523D01*
X209094819Y-134258285D02*
X209094819Y-134734475D01*
X209094819Y-134734475D02*
X208094819Y-134734475D01*
X209094819Y-133924951D02*
X208094819Y-133924951D01*
X208094819Y-133924951D02*
X208094819Y-133543999D01*
X208094819Y-133543999D02*
X208142438Y-133448761D01*
X208142438Y-133448761D02*
X208190057Y-133401142D01*
X208190057Y-133401142D02*
X208285295Y-133353523D01*
X208285295Y-133353523D02*
X208428152Y-133353523D01*
X208428152Y-133353523D02*
X208523390Y-133401142D01*
X208523390Y-133401142D02*
X208571009Y-133448761D01*
X208571009Y-133448761D02*
X208618628Y-133543999D01*
X208618628Y-133543999D02*
X208618628Y-133924951D01*
X209094819Y-132353523D02*
X208618628Y-132686856D01*
X209094819Y-132924951D02*
X208094819Y-132924951D01*
X208094819Y-132924951D02*
X208094819Y-132543999D01*
X208094819Y-132543999D02*
X208142438Y-132448761D01*
X208142438Y-132448761D02*
X208190057Y-132401142D01*
X208190057Y-132401142D02*
X208285295Y-132353523D01*
X208285295Y-132353523D02*
X208428152Y-132353523D01*
X208428152Y-132353523D02*
X208523390Y-132401142D01*
X208523390Y-132401142D02*
X208571009Y-132448761D01*
X208571009Y-132448761D02*
X208618628Y-132543999D01*
X208618628Y-132543999D02*
X208618628Y-132924951D01*
X208094819Y-131448761D02*
X208094819Y-131924951D01*
X208094819Y-131924951D02*
X208571009Y-131972570D01*
X208571009Y-131972570D02*
X208523390Y-131924951D01*
X208523390Y-131924951D02*
X208475771Y-131829713D01*
X208475771Y-131829713D02*
X208475771Y-131591618D01*
X208475771Y-131591618D02*
X208523390Y-131496380D01*
X208523390Y-131496380D02*
X208571009Y-131448761D01*
X208571009Y-131448761D02*
X208666247Y-131401142D01*
X208666247Y-131401142D02*
X208904342Y-131401142D01*
X208904342Y-131401142D02*
X208999580Y-131448761D01*
X208999580Y-131448761D02*
X209047200Y-131496380D01*
X209047200Y-131496380D02*
X209094819Y-131591618D01*
X209094819Y-131591618D02*
X209094819Y-131829713D01*
X209094819Y-131829713D02*
X209047200Y-131924951D01*
X209047200Y-131924951D02*
X208999580Y-131972570D01*
X208094819Y-130543999D02*
X208094819Y-130734475D01*
X208094819Y-130734475D02*
X208142438Y-130829713D01*
X208142438Y-130829713D02*
X208190057Y-130877332D01*
X208190057Y-130877332D02*
X208332914Y-130972570D01*
X208332914Y-130972570D02*
X208523390Y-131020189D01*
X208523390Y-131020189D02*
X208904342Y-131020189D01*
X208904342Y-131020189D02*
X208999580Y-130972570D01*
X208999580Y-130972570D02*
X209047200Y-130924951D01*
X209047200Y-130924951D02*
X209094819Y-130829713D01*
X209094819Y-130829713D02*
X209094819Y-130639237D01*
X209094819Y-130639237D02*
X209047200Y-130543999D01*
X209047200Y-130543999D02*
X208999580Y-130496380D01*
X208999580Y-130496380D02*
X208904342Y-130448761D01*
X208904342Y-130448761D02*
X208666247Y-130448761D01*
X208666247Y-130448761D02*
X208571009Y-130496380D01*
X208571009Y-130496380D02*
X208523390Y-130543999D01*
X208523390Y-130543999D02*
X208475771Y-130639237D01*
X208475771Y-130639237D02*
X208475771Y-130829713D01*
X208475771Y-130829713D02*
X208523390Y-130924951D01*
X208523390Y-130924951D02*
X208571009Y-130972570D01*
X208571009Y-130972570D02*
X208666247Y-131020189D01*
X208094819Y-129829713D02*
X208094819Y-129734475D01*
X208094819Y-129734475D02*
X208142438Y-129639237D01*
X208142438Y-129639237D02*
X208190057Y-129591618D01*
X208190057Y-129591618D02*
X208285295Y-129543999D01*
X208285295Y-129543999D02*
X208475771Y-129496380D01*
X208475771Y-129496380D02*
X208713866Y-129496380D01*
X208713866Y-129496380D02*
X208904342Y-129543999D01*
X208904342Y-129543999D02*
X208999580Y-129591618D01*
X208999580Y-129591618D02*
X209047200Y-129639237D01*
X209047200Y-129639237D02*
X209094819Y-129734475D01*
X209094819Y-129734475D02*
X209094819Y-129829713D01*
X209094819Y-129829713D02*
X209047200Y-129924951D01*
X209047200Y-129924951D02*
X208999580Y-129972570D01*
X208999580Y-129972570D02*
X208904342Y-130020189D01*
X208904342Y-130020189D02*
X208713866Y-130067808D01*
X208713866Y-130067808D02*
X208475771Y-130067808D01*
X208475771Y-130067808D02*
X208285295Y-130020189D01*
X208285295Y-130020189D02*
X208190057Y-129972570D01*
X208190057Y-129972570D02*
X208142438Y-129924951D01*
X208142438Y-129924951D02*
X208094819Y-129829713D01*
X208094819Y-128877332D02*
X208094819Y-128782094D01*
X208094819Y-128782094D02*
X208142438Y-128686856D01*
X208142438Y-128686856D02*
X208190057Y-128639237D01*
X208190057Y-128639237D02*
X208285295Y-128591618D01*
X208285295Y-128591618D02*
X208475771Y-128543999D01*
X208475771Y-128543999D02*
X208713866Y-128543999D01*
X208713866Y-128543999D02*
X208904342Y-128591618D01*
X208904342Y-128591618D02*
X208999580Y-128639237D01*
X208999580Y-128639237D02*
X209047200Y-128686856D01*
X209047200Y-128686856D02*
X209094819Y-128782094D01*
X209094819Y-128782094D02*
X209094819Y-128877332D01*
X209094819Y-128877332D02*
X209047200Y-128972570D01*
X209047200Y-128972570D02*
X208999580Y-129020189D01*
X208999580Y-129020189D02*
X208904342Y-129067808D01*
X208904342Y-129067808D02*
X208713866Y-129115427D01*
X208713866Y-129115427D02*
X208475771Y-129115427D01*
X208475771Y-129115427D02*
X208285295Y-129067808D01*
X208285295Y-129067808D02*
X208190057Y-129020189D01*
X208190057Y-129020189D02*
X208142438Y-128972570D01*
X208142438Y-128972570D02*
X208094819Y-128877332D01*
X208094819Y-129035237D02*
X208094819Y-128463809D01*
X209094819Y-128749523D02*
X208094819Y-128749523D01*
X209094819Y-127654285D02*
X209094819Y-128130475D01*
X209094819Y-128130475D02*
X208094819Y-128130475D01*
X209094819Y-127320951D02*
X208094819Y-127320951D01*
X208094819Y-127320951D02*
X208094819Y-126939999D01*
X208094819Y-126939999D02*
X208142438Y-126844761D01*
X208142438Y-126844761D02*
X208190057Y-126797142D01*
X208190057Y-126797142D02*
X208285295Y-126749523D01*
X208285295Y-126749523D02*
X208428152Y-126749523D01*
X208428152Y-126749523D02*
X208523390Y-126797142D01*
X208523390Y-126797142D02*
X208571009Y-126844761D01*
X208571009Y-126844761D02*
X208618628Y-126939999D01*
X208618628Y-126939999D02*
X208618628Y-127320951D01*
X209094819Y-125749523D02*
X208618628Y-126082856D01*
X209094819Y-126320951D02*
X208094819Y-126320951D01*
X208094819Y-126320951D02*
X208094819Y-125939999D01*
X208094819Y-125939999D02*
X208142438Y-125844761D01*
X208142438Y-125844761D02*
X208190057Y-125797142D01*
X208190057Y-125797142D02*
X208285295Y-125749523D01*
X208285295Y-125749523D02*
X208428152Y-125749523D01*
X208428152Y-125749523D02*
X208523390Y-125797142D01*
X208523390Y-125797142D02*
X208571009Y-125844761D01*
X208571009Y-125844761D02*
X208618628Y-125939999D01*
X208618628Y-125939999D02*
X208618628Y-126320951D01*
X208094819Y-124844761D02*
X208094819Y-125320951D01*
X208094819Y-125320951D02*
X208571009Y-125368570D01*
X208571009Y-125368570D02*
X208523390Y-125320951D01*
X208523390Y-125320951D02*
X208475771Y-125225713D01*
X208475771Y-125225713D02*
X208475771Y-124987618D01*
X208475771Y-124987618D02*
X208523390Y-124892380D01*
X208523390Y-124892380D02*
X208571009Y-124844761D01*
X208571009Y-124844761D02*
X208666247Y-124797142D01*
X208666247Y-124797142D02*
X208904342Y-124797142D01*
X208904342Y-124797142D02*
X208999580Y-124844761D01*
X208999580Y-124844761D02*
X209047200Y-124892380D01*
X209047200Y-124892380D02*
X209094819Y-124987618D01*
X209094819Y-124987618D02*
X209094819Y-125225713D01*
X209094819Y-125225713D02*
X209047200Y-125320951D01*
X209047200Y-125320951D02*
X208999580Y-125368570D01*
X208094819Y-123939999D02*
X208094819Y-124130475D01*
X208094819Y-124130475D02*
X208142438Y-124225713D01*
X208142438Y-124225713D02*
X208190057Y-124273332D01*
X208190057Y-124273332D02*
X208332914Y-124368570D01*
X208332914Y-124368570D02*
X208523390Y-124416189D01*
X208523390Y-124416189D02*
X208904342Y-124416189D01*
X208904342Y-124416189D02*
X208999580Y-124368570D01*
X208999580Y-124368570D02*
X209047200Y-124320951D01*
X209047200Y-124320951D02*
X209094819Y-124225713D01*
X209094819Y-124225713D02*
X209094819Y-124035237D01*
X209094819Y-124035237D02*
X209047200Y-123939999D01*
X209047200Y-123939999D02*
X208999580Y-123892380D01*
X208999580Y-123892380D02*
X208904342Y-123844761D01*
X208904342Y-123844761D02*
X208666247Y-123844761D01*
X208666247Y-123844761D02*
X208571009Y-123892380D01*
X208571009Y-123892380D02*
X208523390Y-123939999D01*
X208523390Y-123939999D02*
X208475771Y-124035237D01*
X208475771Y-124035237D02*
X208475771Y-124225713D01*
X208475771Y-124225713D02*
X208523390Y-124320951D01*
X208523390Y-124320951D02*
X208571009Y-124368570D01*
X208571009Y-124368570D02*
X208666247Y-124416189D01*
X208094819Y-123225713D02*
X208094819Y-123130475D01*
X208094819Y-123130475D02*
X208142438Y-123035237D01*
X208142438Y-123035237D02*
X208190057Y-122987618D01*
X208190057Y-122987618D02*
X208285295Y-122939999D01*
X208285295Y-122939999D02*
X208475771Y-122892380D01*
X208475771Y-122892380D02*
X208713866Y-122892380D01*
X208713866Y-122892380D02*
X208904342Y-122939999D01*
X208904342Y-122939999D02*
X208999580Y-122987618D01*
X208999580Y-122987618D02*
X209047200Y-123035237D01*
X209047200Y-123035237D02*
X209094819Y-123130475D01*
X209094819Y-123130475D02*
X209094819Y-123225713D01*
X209094819Y-123225713D02*
X209047200Y-123320951D01*
X209047200Y-123320951D02*
X208999580Y-123368570D01*
X208999580Y-123368570D02*
X208904342Y-123416189D01*
X208904342Y-123416189D02*
X208713866Y-123463808D01*
X208713866Y-123463808D02*
X208475771Y-123463808D01*
X208475771Y-123463808D02*
X208285295Y-123416189D01*
X208285295Y-123416189D02*
X208190057Y-123368570D01*
X208190057Y-123368570D02*
X208142438Y-123320951D01*
X208142438Y-123320951D02*
X208094819Y-123225713D01*
X208094819Y-122273332D02*
X208094819Y-122178094D01*
X208094819Y-122178094D02*
X208142438Y-122082856D01*
X208142438Y-122082856D02*
X208190057Y-122035237D01*
X208190057Y-122035237D02*
X208285295Y-121987618D01*
X208285295Y-121987618D02*
X208475771Y-121939999D01*
X208475771Y-121939999D02*
X208713866Y-121939999D01*
X208713866Y-121939999D02*
X208904342Y-121987618D01*
X208904342Y-121987618D02*
X208999580Y-122035237D01*
X208999580Y-122035237D02*
X209047200Y-122082856D01*
X209047200Y-122082856D02*
X209094819Y-122178094D01*
X209094819Y-122178094D02*
X209094819Y-122273332D01*
X209094819Y-122273332D02*
X209047200Y-122368570D01*
X209047200Y-122368570D02*
X208999580Y-122416189D01*
X208999580Y-122416189D02*
X208904342Y-122463808D01*
X208904342Y-122463808D02*
X208713866Y-122511427D01*
X208713866Y-122511427D02*
X208475771Y-122511427D01*
X208475771Y-122511427D02*
X208285295Y-122463808D01*
X208285295Y-122463808D02*
X208190057Y-122416189D01*
X208190057Y-122416189D02*
X208142438Y-122368570D01*
X208142438Y-122368570D02*
X208094819Y-122273332D01*
X208094819Y-122431237D02*
X208094819Y-121859809D01*
X209094819Y-122145523D02*
X208094819Y-122145523D01*
X209094819Y-121050285D02*
X209094819Y-121526475D01*
X209094819Y-121526475D02*
X208094819Y-121526475D01*
X209094819Y-120716951D02*
X208094819Y-120716951D01*
X208094819Y-120716951D02*
X208094819Y-120335999D01*
X208094819Y-120335999D02*
X208142438Y-120240761D01*
X208142438Y-120240761D02*
X208190057Y-120193142D01*
X208190057Y-120193142D02*
X208285295Y-120145523D01*
X208285295Y-120145523D02*
X208428152Y-120145523D01*
X208428152Y-120145523D02*
X208523390Y-120193142D01*
X208523390Y-120193142D02*
X208571009Y-120240761D01*
X208571009Y-120240761D02*
X208618628Y-120335999D01*
X208618628Y-120335999D02*
X208618628Y-120716951D01*
X209094819Y-119145523D02*
X208618628Y-119478856D01*
X209094819Y-119716951D02*
X208094819Y-119716951D01*
X208094819Y-119716951D02*
X208094819Y-119335999D01*
X208094819Y-119335999D02*
X208142438Y-119240761D01*
X208142438Y-119240761D02*
X208190057Y-119193142D01*
X208190057Y-119193142D02*
X208285295Y-119145523D01*
X208285295Y-119145523D02*
X208428152Y-119145523D01*
X208428152Y-119145523D02*
X208523390Y-119193142D01*
X208523390Y-119193142D02*
X208571009Y-119240761D01*
X208571009Y-119240761D02*
X208618628Y-119335999D01*
X208618628Y-119335999D02*
X208618628Y-119716951D01*
X208094819Y-118240761D02*
X208094819Y-118716951D01*
X208094819Y-118716951D02*
X208571009Y-118764570D01*
X208571009Y-118764570D02*
X208523390Y-118716951D01*
X208523390Y-118716951D02*
X208475771Y-118621713D01*
X208475771Y-118621713D02*
X208475771Y-118383618D01*
X208475771Y-118383618D02*
X208523390Y-118288380D01*
X208523390Y-118288380D02*
X208571009Y-118240761D01*
X208571009Y-118240761D02*
X208666247Y-118193142D01*
X208666247Y-118193142D02*
X208904342Y-118193142D01*
X208904342Y-118193142D02*
X208999580Y-118240761D01*
X208999580Y-118240761D02*
X209047200Y-118288380D01*
X209047200Y-118288380D02*
X209094819Y-118383618D01*
X209094819Y-118383618D02*
X209094819Y-118621713D01*
X209094819Y-118621713D02*
X209047200Y-118716951D01*
X209047200Y-118716951D02*
X208999580Y-118764570D01*
X208094819Y-117335999D02*
X208094819Y-117526475D01*
X208094819Y-117526475D02*
X208142438Y-117621713D01*
X208142438Y-117621713D02*
X208190057Y-117669332D01*
X208190057Y-117669332D02*
X208332914Y-117764570D01*
X208332914Y-117764570D02*
X208523390Y-117812189D01*
X208523390Y-117812189D02*
X208904342Y-117812189D01*
X208904342Y-117812189D02*
X208999580Y-117764570D01*
X208999580Y-117764570D02*
X209047200Y-117716951D01*
X209047200Y-117716951D02*
X209094819Y-117621713D01*
X209094819Y-117621713D02*
X209094819Y-117431237D01*
X209094819Y-117431237D02*
X209047200Y-117335999D01*
X209047200Y-117335999D02*
X208999580Y-117288380D01*
X208999580Y-117288380D02*
X208904342Y-117240761D01*
X208904342Y-117240761D02*
X208666247Y-117240761D01*
X208666247Y-117240761D02*
X208571009Y-117288380D01*
X208571009Y-117288380D02*
X208523390Y-117335999D01*
X208523390Y-117335999D02*
X208475771Y-117431237D01*
X208475771Y-117431237D02*
X208475771Y-117621713D01*
X208475771Y-117621713D02*
X208523390Y-117716951D01*
X208523390Y-117716951D02*
X208571009Y-117764570D01*
X208571009Y-117764570D02*
X208666247Y-117812189D01*
X208094819Y-116621713D02*
X208094819Y-116526475D01*
X208094819Y-116526475D02*
X208142438Y-116431237D01*
X208142438Y-116431237D02*
X208190057Y-116383618D01*
X208190057Y-116383618D02*
X208285295Y-116335999D01*
X208285295Y-116335999D02*
X208475771Y-116288380D01*
X208475771Y-116288380D02*
X208713866Y-116288380D01*
X208713866Y-116288380D02*
X208904342Y-116335999D01*
X208904342Y-116335999D02*
X208999580Y-116383618D01*
X208999580Y-116383618D02*
X209047200Y-116431237D01*
X209047200Y-116431237D02*
X209094819Y-116526475D01*
X209094819Y-116526475D02*
X209094819Y-116621713D01*
X209094819Y-116621713D02*
X209047200Y-116716951D01*
X209047200Y-116716951D02*
X208999580Y-116764570D01*
X208999580Y-116764570D02*
X208904342Y-116812189D01*
X208904342Y-116812189D02*
X208713866Y-116859808D01*
X208713866Y-116859808D02*
X208475771Y-116859808D01*
X208475771Y-116859808D02*
X208285295Y-116812189D01*
X208285295Y-116812189D02*
X208190057Y-116764570D01*
X208190057Y-116764570D02*
X208142438Y-116716951D01*
X208142438Y-116716951D02*
X208094819Y-116621713D01*
X208094819Y-115669332D02*
X208094819Y-115574094D01*
X208094819Y-115574094D02*
X208142438Y-115478856D01*
X208142438Y-115478856D02*
X208190057Y-115431237D01*
X208190057Y-115431237D02*
X208285295Y-115383618D01*
X208285295Y-115383618D02*
X208475771Y-115335999D01*
X208475771Y-115335999D02*
X208713866Y-115335999D01*
X208713866Y-115335999D02*
X208904342Y-115383618D01*
X208904342Y-115383618D02*
X208999580Y-115431237D01*
X208999580Y-115431237D02*
X209047200Y-115478856D01*
X209047200Y-115478856D02*
X209094819Y-115574094D01*
X209094819Y-115574094D02*
X209094819Y-115669332D01*
X209094819Y-115669332D02*
X209047200Y-115764570D01*
X209047200Y-115764570D02*
X208999580Y-115812189D01*
X208999580Y-115812189D02*
X208904342Y-115859808D01*
X208904342Y-115859808D02*
X208713866Y-115907427D01*
X208713866Y-115907427D02*
X208475771Y-115907427D01*
X208475771Y-115907427D02*
X208285295Y-115859808D01*
X208285295Y-115859808D02*
X208190057Y-115812189D01*
X208190057Y-115812189D02*
X208142438Y-115764570D01*
X208142438Y-115764570D02*
X208094819Y-115669332D01*
X208094819Y-115827237D02*
X208094819Y-115255809D01*
X209094819Y-115541523D02*
X208094819Y-115541523D01*
X209094819Y-114446285D02*
X209094819Y-114922475D01*
X209094819Y-114922475D02*
X208094819Y-114922475D01*
X209094819Y-114112951D02*
X208094819Y-114112951D01*
X208094819Y-114112951D02*
X208094819Y-113731999D01*
X208094819Y-113731999D02*
X208142438Y-113636761D01*
X208142438Y-113636761D02*
X208190057Y-113589142D01*
X208190057Y-113589142D02*
X208285295Y-113541523D01*
X208285295Y-113541523D02*
X208428152Y-113541523D01*
X208428152Y-113541523D02*
X208523390Y-113589142D01*
X208523390Y-113589142D02*
X208571009Y-113636761D01*
X208571009Y-113636761D02*
X208618628Y-113731999D01*
X208618628Y-113731999D02*
X208618628Y-114112951D01*
X209094819Y-112541523D02*
X208618628Y-112874856D01*
X209094819Y-113112951D02*
X208094819Y-113112951D01*
X208094819Y-113112951D02*
X208094819Y-112731999D01*
X208094819Y-112731999D02*
X208142438Y-112636761D01*
X208142438Y-112636761D02*
X208190057Y-112589142D01*
X208190057Y-112589142D02*
X208285295Y-112541523D01*
X208285295Y-112541523D02*
X208428152Y-112541523D01*
X208428152Y-112541523D02*
X208523390Y-112589142D01*
X208523390Y-112589142D02*
X208571009Y-112636761D01*
X208571009Y-112636761D02*
X208618628Y-112731999D01*
X208618628Y-112731999D02*
X208618628Y-113112951D01*
X208094819Y-111636761D02*
X208094819Y-112112951D01*
X208094819Y-112112951D02*
X208571009Y-112160570D01*
X208571009Y-112160570D02*
X208523390Y-112112951D01*
X208523390Y-112112951D02*
X208475771Y-112017713D01*
X208475771Y-112017713D02*
X208475771Y-111779618D01*
X208475771Y-111779618D02*
X208523390Y-111684380D01*
X208523390Y-111684380D02*
X208571009Y-111636761D01*
X208571009Y-111636761D02*
X208666247Y-111589142D01*
X208666247Y-111589142D02*
X208904342Y-111589142D01*
X208904342Y-111589142D02*
X208999580Y-111636761D01*
X208999580Y-111636761D02*
X209047200Y-111684380D01*
X209047200Y-111684380D02*
X209094819Y-111779618D01*
X209094819Y-111779618D02*
X209094819Y-112017713D01*
X209094819Y-112017713D02*
X209047200Y-112112951D01*
X209047200Y-112112951D02*
X208999580Y-112160570D01*
X208094819Y-110731999D02*
X208094819Y-110922475D01*
X208094819Y-110922475D02*
X208142438Y-111017713D01*
X208142438Y-111017713D02*
X208190057Y-111065332D01*
X208190057Y-111065332D02*
X208332914Y-111160570D01*
X208332914Y-111160570D02*
X208523390Y-111208189D01*
X208523390Y-111208189D02*
X208904342Y-111208189D01*
X208904342Y-111208189D02*
X208999580Y-111160570D01*
X208999580Y-111160570D02*
X209047200Y-111112951D01*
X209047200Y-111112951D02*
X209094819Y-111017713D01*
X209094819Y-111017713D02*
X209094819Y-110827237D01*
X209094819Y-110827237D02*
X209047200Y-110731999D01*
X209047200Y-110731999D02*
X208999580Y-110684380D01*
X208999580Y-110684380D02*
X208904342Y-110636761D01*
X208904342Y-110636761D02*
X208666247Y-110636761D01*
X208666247Y-110636761D02*
X208571009Y-110684380D01*
X208571009Y-110684380D02*
X208523390Y-110731999D01*
X208523390Y-110731999D02*
X208475771Y-110827237D01*
X208475771Y-110827237D02*
X208475771Y-111017713D01*
X208475771Y-111017713D02*
X208523390Y-111112951D01*
X208523390Y-111112951D02*
X208571009Y-111160570D01*
X208571009Y-111160570D02*
X208666247Y-111208189D01*
X208094819Y-110017713D02*
X208094819Y-109922475D01*
X208094819Y-109922475D02*
X208142438Y-109827237D01*
X208142438Y-109827237D02*
X208190057Y-109779618D01*
X208190057Y-109779618D02*
X208285295Y-109731999D01*
X208285295Y-109731999D02*
X208475771Y-109684380D01*
X208475771Y-109684380D02*
X208713866Y-109684380D01*
X208713866Y-109684380D02*
X208904342Y-109731999D01*
X208904342Y-109731999D02*
X208999580Y-109779618D01*
X208999580Y-109779618D02*
X209047200Y-109827237D01*
X209047200Y-109827237D02*
X209094819Y-109922475D01*
X209094819Y-109922475D02*
X209094819Y-110017713D01*
X209094819Y-110017713D02*
X209047200Y-110112951D01*
X209047200Y-110112951D02*
X208999580Y-110160570D01*
X208999580Y-110160570D02*
X208904342Y-110208189D01*
X208904342Y-110208189D02*
X208713866Y-110255808D01*
X208713866Y-110255808D02*
X208475771Y-110255808D01*
X208475771Y-110255808D02*
X208285295Y-110208189D01*
X208285295Y-110208189D02*
X208190057Y-110160570D01*
X208190057Y-110160570D02*
X208142438Y-110112951D01*
X208142438Y-110112951D02*
X208094819Y-110017713D01*
X208094819Y-109065332D02*
X208094819Y-108970094D01*
X208094819Y-108970094D02*
X208142438Y-108874856D01*
X208142438Y-108874856D02*
X208190057Y-108827237D01*
X208190057Y-108827237D02*
X208285295Y-108779618D01*
X208285295Y-108779618D02*
X208475771Y-108731999D01*
X208475771Y-108731999D02*
X208713866Y-108731999D01*
X208713866Y-108731999D02*
X208904342Y-108779618D01*
X208904342Y-108779618D02*
X208999580Y-108827237D01*
X208999580Y-108827237D02*
X209047200Y-108874856D01*
X209047200Y-108874856D02*
X209094819Y-108970094D01*
X209094819Y-108970094D02*
X209094819Y-109065332D01*
X209094819Y-109065332D02*
X209047200Y-109160570D01*
X209047200Y-109160570D02*
X208999580Y-109208189D01*
X208999580Y-109208189D02*
X208904342Y-109255808D01*
X208904342Y-109255808D02*
X208713866Y-109303427D01*
X208713866Y-109303427D02*
X208475771Y-109303427D01*
X208475771Y-109303427D02*
X208285295Y-109255808D01*
X208285295Y-109255808D02*
X208190057Y-109208189D01*
X208190057Y-109208189D02*
X208142438Y-109160570D01*
X208142438Y-109160570D02*
X208094819Y-109065332D01*
X208094819Y-109223237D02*
X208094819Y-108651809D01*
X209094819Y-108937523D02*
X208094819Y-108937523D01*
X209094819Y-107842285D02*
X209094819Y-108318475D01*
X209094819Y-108318475D02*
X208094819Y-108318475D01*
X209094819Y-107508951D02*
X208094819Y-107508951D01*
X208094819Y-107508951D02*
X208094819Y-107127999D01*
X208094819Y-107127999D02*
X208142438Y-107032761D01*
X208142438Y-107032761D02*
X208190057Y-106985142D01*
X208190057Y-106985142D02*
X208285295Y-106937523D01*
X208285295Y-106937523D02*
X208428152Y-106937523D01*
X208428152Y-106937523D02*
X208523390Y-106985142D01*
X208523390Y-106985142D02*
X208571009Y-107032761D01*
X208571009Y-107032761D02*
X208618628Y-107127999D01*
X208618628Y-107127999D02*
X208618628Y-107508951D01*
X209094819Y-105937523D02*
X208618628Y-106270856D01*
X209094819Y-106508951D02*
X208094819Y-106508951D01*
X208094819Y-106508951D02*
X208094819Y-106127999D01*
X208094819Y-106127999D02*
X208142438Y-106032761D01*
X208142438Y-106032761D02*
X208190057Y-105985142D01*
X208190057Y-105985142D02*
X208285295Y-105937523D01*
X208285295Y-105937523D02*
X208428152Y-105937523D01*
X208428152Y-105937523D02*
X208523390Y-105985142D01*
X208523390Y-105985142D02*
X208571009Y-106032761D01*
X208571009Y-106032761D02*
X208618628Y-106127999D01*
X208618628Y-106127999D02*
X208618628Y-106508951D01*
X208094819Y-105032761D02*
X208094819Y-105508951D01*
X208094819Y-105508951D02*
X208571009Y-105556570D01*
X208571009Y-105556570D02*
X208523390Y-105508951D01*
X208523390Y-105508951D02*
X208475771Y-105413713D01*
X208475771Y-105413713D02*
X208475771Y-105175618D01*
X208475771Y-105175618D02*
X208523390Y-105080380D01*
X208523390Y-105080380D02*
X208571009Y-105032761D01*
X208571009Y-105032761D02*
X208666247Y-104985142D01*
X208666247Y-104985142D02*
X208904342Y-104985142D01*
X208904342Y-104985142D02*
X208999580Y-105032761D01*
X208999580Y-105032761D02*
X209047200Y-105080380D01*
X209047200Y-105080380D02*
X209094819Y-105175618D01*
X209094819Y-105175618D02*
X209094819Y-105413713D01*
X209094819Y-105413713D02*
X209047200Y-105508951D01*
X209047200Y-105508951D02*
X208999580Y-105556570D01*
X208094819Y-104127999D02*
X208094819Y-104318475D01*
X208094819Y-104318475D02*
X208142438Y-104413713D01*
X208142438Y-104413713D02*
X208190057Y-104461332D01*
X208190057Y-104461332D02*
X208332914Y-104556570D01*
X208332914Y-104556570D02*
X208523390Y-104604189D01*
X208523390Y-104604189D02*
X208904342Y-104604189D01*
X208904342Y-104604189D02*
X208999580Y-104556570D01*
X208999580Y-104556570D02*
X209047200Y-104508951D01*
X209047200Y-104508951D02*
X209094819Y-104413713D01*
X209094819Y-104413713D02*
X209094819Y-104223237D01*
X209094819Y-104223237D02*
X209047200Y-104127999D01*
X209047200Y-104127999D02*
X208999580Y-104080380D01*
X208999580Y-104080380D02*
X208904342Y-104032761D01*
X208904342Y-104032761D02*
X208666247Y-104032761D01*
X208666247Y-104032761D02*
X208571009Y-104080380D01*
X208571009Y-104080380D02*
X208523390Y-104127999D01*
X208523390Y-104127999D02*
X208475771Y-104223237D01*
X208475771Y-104223237D02*
X208475771Y-104413713D01*
X208475771Y-104413713D02*
X208523390Y-104508951D01*
X208523390Y-104508951D02*
X208571009Y-104556570D01*
X208571009Y-104556570D02*
X208666247Y-104604189D01*
X208094819Y-103413713D02*
X208094819Y-103318475D01*
X208094819Y-103318475D02*
X208142438Y-103223237D01*
X208142438Y-103223237D02*
X208190057Y-103175618D01*
X208190057Y-103175618D02*
X208285295Y-103127999D01*
X208285295Y-103127999D02*
X208475771Y-103080380D01*
X208475771Y-103080380D02*
X208713866Y-103080380D01*
X208713866Y-103080380D02*
X208904342Y-103127999D01*
X208904342Y-103127999D02*
X208999580Y-103175618D01*
X208999580Y-103175618D02*
X209047200Y-103223237D01*
X209047200Y-103223237D02*
X209094819Y-103318475D01*
X209094819Y-103318475D02*
X209094819Y-103413713D01*
X209094819Y-103413713D02*
X209047200Y-103508951D01*
X209047200Y-103508951D02*
X208999580Y-103556570D01*
X208999580Y-103556570D02*
X208904342Y-103604189D01*
X208904342Y-103604189D02*
X208713866Y-103651808D01*
X208713866Y-103651808D02*
X208475771Y-103651808D01*
X208475771Y-103651808D02*
X208285295Y-103604189D01*
X208285295Y-103604189D02*
X208190057Y-103556570D01*
X208190057Y-103556570D02*
X208142438Y-103508951D01*
X208142438Y-103508951D02*
X208094819Y-103413713D01*
X208094819Y-102461332D02*
X208094819Y-102366094D01*
X208094819Y-102366094D02*
X208142438Y-102270856D01*
X208142438Y-102270856D02*
X208190057Y-102223237D01*
X208190057Y-102223237D02*
X208285295Y-102175618D01*
X208285295Y-102175618D02*
X208475771Y-102127999D01*
X208475771Y-102127999D02*
X208713866Y-102127999D01*
X208713866Y-102127999D02*
X208904342Y-102175618D01*
X208904342Y-102175618D02*
X208999580Y-102223237D01*
X208999580Y-102223237D02*
X209047200Y-102270856D01*
X209047200Y-102270856D02*
X209094819Y-102366094D01*
X209094819Y-102366094D02*
X209094819Y-102461332D01*
X209094819Y-102461332D02*
X209047200Y-102556570D01*
X209047200Y-102556570D02*
X208999580Y-102604189D01*
X208999580Y-102604189D02*
X208904342Y-102651808D01*
X208904342Y-102651808D02*
X208713866Y-102699427D01*
X208713866Y-102699427D02*
X208475771Y-102699427D01*
X208475771Y-102699427D02*
X208285295Y-102651808D01*
X208285295Y-102651808D02*
X208190057Y-102604189D01*
X208190057Y-102604189D02*
X208142438Y-102556570D01*
X208142438Y-102556570D02*
X208094819Y-102461332D01*
X208094819Y-102619237D02*
X208094819Y-102047809D01*
X209094819Y-102333523D02*
X208094819Y-102333523D01*
X209094819Y-101238285D02*
X209094819Y-101714475D01*
X209094819Y-101714475D02*
X208094819Y-101714475D01*
X209094819Y-100904951D02*
X208094819Y-100904951D01*
X208094819Y-100904951D02*
X208094819Y-100523999D01*
X208094819Y-100523999D02*
X208142438Y-100428761D01*
X208142438Y-100428761D02*
X208190057Y-100381142D01*
X208190057Y-100381142D02*
X208285295Y-100333523D01*
X208285295Y-100333523D02*
X208428152Y-100333523D01*
X208428152Y-100333523D02*
X208523390Y-100381142D01*
X208523390Y-100381142D02*
X208571009Y-100428761D01*
X208571009Y-100428761D02*
X208618628Y-100523999D01*
X208618628Y-100523999D02*
X208618628Y-100904951D01*
X209094819Y-99333523D02*
X208618628Y-99666856D01*
X209094819Y-99904951D02*
X208094819Y-99904951D01*
X208094819Y-99904951D02*
X208094819Y-99523999D01*
X208094819Y-99523999D02*
X208142438Y-99428761D01*
X208142438Y-99428761D02*
X208190057Y-99381142D01*
X208190057Y-99381142D02*
X208285295Y-99333523D01*
X208285295Y-99333523D02*
X208428152Y-99333523D01*
X208428152Y-99333523D02*
X208523390Y-99381142D01*
X208523390Y-99381142D02*
X208571009Y-99428761D01*
X208571009Y-99428761D02*
X208618628Y-99523999D01*
X208618628Y-99523999D02*
X208618628Y-99904951D01*
X208094819Y-98428761D02*
X208094819Y-98904951D01*
X208094819Y-98904951D02*
X208571009Y-98952570D01*
X208571009Y-98952570D02*
X208523390Y-98904951D01*
X208523390Y-98904951D02*
X208475771Y-98809713D01*
X208475771Y-98809713D02*
X208475771Y-98571618D01*
X208475771Y-98571618D02*
X208523390Y-98476380D01*
X208523390Y-98476380D02*
X208571009Y-98428761D01*
X208571009Y-98428761D02*
X208666247Y-98381142D01*
X208666247Y-98381142D02*
X208904342Y-98381142D01*
X208904342Y-98381142D02*
X208999580Y-98428761D01*
X208999580Y-98428761D02*
X209047200Y-98476380D01*
X209047200Y-98476380D02*
X209094819Y-98571618D01*
X209094819Y-98571618D02*
X209094819Y-98809713D01*
X209094819Y-98809713D02*
X209047200Y-98904951D01*
X209047200Y-98904951D02*
X208999580Y-98952570D01*
X208094819Y-97523999D02*
X208094819Y-97714475D01*
X208094819Y-97714475D02*
X208142438Y-97809713D01*
X208142438Y-97809713D02*
X208190057Y-97857332D01*
X208190057Y-97857332D02*
X208332914Y-97952570D01*
X208332914Y-97952570D02*
X208523390Y-98000189D01*
X208523390Y-98000189D02*
X208904342Y-98000189D01*
X208904342Y-98000189D02*
X208999580Y-97952570D01*
X208999580Y-97952570D02*
X209047200Y-97904951D01*
X209047200Y-97904951D02*
X209094819Y-97809713D01*
X209094819Y-97809713D02*
X209094819Y-97619237D01*
X209094819Y-97619237D02*
X209047200Y-97523999D01*
X209047200Y-97523999D02*
X208999580Y-97476380D01*
X208999580Y-97476380D02*
X208904342Y-97428761D01*
X208904342Y-97428761D02*
X208666247Y-97428761D01*
X208666247Y-97428761D02*
X208571009Y-97476380D01*
X208571009Y-97476380D02*
X208523390Y-97523999D01*
X208523390Y-97523999D02*
X208475771Y-97619237D01*
X208475771Y-97619237D02*
X208475771Y-97809713D01*
X208475771Y-97809713D02*
X208523390Y-97904951D01*
X208523390Y-97904951D02*
X208571009Y-97952570D01*
X208571009Y-97952570D02*
X208666247Y-98000189D01*
X208094819Y-96809713D02*
X208094819Y-96714475D01*
X208094819Y-96714475D02*
X208142438Y-96619237D01*
X208142438Y-96619237D02*
X208190057Y-96571618D01*
X208190057Y-96571618D02*
X208285295Y-96523999D01*
X208285295Y-96523999D02*
X208475771Y-96476380D01*
X208475771Y-96476380D02*
X208713866Y-96476380D01*
X208713866Y-96476380D02*
X208904342Y-96523999D01*
X208904342Y-96523999D02*
X208999580Y-96571618D01*
X208999580Y-96571618D02*
X209047200Y-96619237D01*
X209047200Y-96619237D02*
X209094819Y-96714475D01*
X209094819Y-96714475D02*
X209094819Y-96809713D01*
X209094819Y-96809713D02*
X209047200Y-96904951D01*
X209047200Y-96904951D02*
X208999580Y-96952570D01*
X208999580Y-96952570D02*
X208904342Y-97000189D01*
X208904342Y-97000189D02*
X208713866Y-97047808D01*
X208713866Y-97047808D02*
X208475771Y-97047808D01*
X208475771Y-97047808D02*
X208285295Y-97000189D01*
X208285295Y-97000189D02*
X208190057Y-96952570D01*
X208190057Y-96952570D02*
X208142438Y-96904951D01*
X208142438Y-96904951D02*
X208094819Y-96809713D01*
X208094819Y-95857332D02*
X208094819Y-95762094D01*
X208094819Y-95762094D02*
X208142438Y-95666856D01*
X208142438Y-95666856D02*
X208190057Y-95619237D01*
X208190057Y-95619237D02*
X208285295Y-95571618D01*
X208285295Y-95571618D02*
X208475771Y-95523999D01*
X208475771Y-95523999D02*
X208713866Y-95523999D01*
X208713866Y-95523999D02*
X208904342Y-95571618D01*
X208904342Y-95571618D02*
X208999580Y-95619237D01*
X208999580Y-95619237D02*
X209047200Y-95666856D01*
X209047200Y-95666856D02*
X209094819Y-95762094D01*
X209094819Y-95762094D02*
X209094819Y-95857332D01*
X209094819Y-95857332D02*
X209047200Y-95952570D01*
X209047200Y-95952570D02*
X208999580Y-96000189D01*
X208999580Y-96000189D02*
X208904342Y-96047808D01*
X208904342Y-96047808D02*
X208713866Y-96095427D01*
X208713866Y-96095427D02*
X208475771Y-96095427D01*
X208475771Y-96095427D02*
X208285295Y-96047808D01*
X208285295Y-96047808D02*
X208190057Y-96000189D01*
X208190057Y-96000189D02*
X208142438Y-95952570D01*
X208142438Y-95952570D02*
X208094819Y-95857332D01*
X208094819Y-96015237D02*
X208094819Y-95443809D01*
X209094819Y-95729523D02*
X208094819Y-95729523D01*
X209094819Y-94634285D02*
X209094819Y-95110475D01*
X209094819Y-95110475D02*
X208094819Y-95110475D01*
X209094819Y-94300951D02*
X208094819Y-94300951D01*
X208094819Y-94300951D02*
X208094819Y-93919999D01*
X208094819Y-93919999D02*
X208142438Y-93824761D01*
X208142438Y-93824761D02*
X208190057Y-93777142D01*
X208190057Y-93777142D02*
X208285295Y-93729523D01*
X208285295Y-93729523D02*
X208428152Y-93729523D01*
X208428152Y-93729523D02*
X208523390Y-93777142D01*
X208523390Y-93777142D02*
X208571009Y-93824761D01*
X208571009Y-93824761D02*
X208618628Y-93919999D01*
X208618628Y-93919999D02*
X208618628Y-94300951D01*
X209094819Y-92729523D02*
X208618628Y-93062856D01*
X209094819Y-93300951D02*
X208094819Y-93300951D01*
X208094819Y-93300951D02*
X208094819Y-92919999D01*
X208094819Y-92919999D02*
X208142438Y-92824761D01*
X208142438Y-92824761D02*
X208190057Y-92777142D01*
X208190057Y-92777142D02*
X208285295Y-92729523D01*
X208285295Y-92729523D02*
X208428152Y-92729523D01*
X208428152Y-92729523D02*
X208523390Y-92777142D01*
X208523390Y-92777142D02*
X208571009Y-92824761D01*
X208571009Y-92824761D02*
X208618628Y-92919999D01*
X208618628Y-92919999D02*
X208618628Y-93300951D01*
X208094819Y-91824761D02*
X208094819Y-92300951D01*
X208094819Y-92300951D02*
X208571009Y-92348570D01*
X208571009Y-92348570D02*
X208523390Y-92300951D01*
X208523390Y-92300951D02*
X208475771Y-92205713D01*
X208475771Y-92205713D02*
X208475771Y-91967618D01*
X208475771Y-91967618D02*
X208523390Y-91872380D01*
X208523390Y-91872380D02*
X208571009Y-91824761D01*
X208571009Y-91824761D02*
X208666247Y-91777142D01*
X208666247Y-91777142D02*
X208904342Y-91777142D01*
X208904342Y-91777142D02*
X208999580Y-91824761D01*
X208999580Y-91824761D02*
X209047200Y-91872380D01*
X209047200Y-91872380D02*
X209094819Y-91967618D01*
X209094819Y-91967618D02*
X209094819Y-92205713D01*
X209094819Y-92205713D02*
X209047200Y-92300951D01*
X209047200Y-92300951D02*
X208999580Y-92348570D01*
X208094819Y-90919999D02*
X208094819Y-91110475D01*
X208094819Y-91110475D02*
X208142438Y-91205713D01*
X208142438Y-91205713D02*
X208190057Y-91253332D01*
X208190057Y-91253332D02*
X208332914Y-91348570D01*
X208332914Y-91348570D02*
X208523390Y-91396189D01*
X208523390Y-91396189D02*
X208904342Y-91396189D01*
X208904342Y-91396189D02*
X208999580Y-91348570D01*
X208999580Y-91348570D02*
X209047200Y-91300951D01*
X209047200Y-91300951D02*
X209094819Y-91205713D01*
X209094819Y-91205713D02*
X209094819Y-91015237D01*
X209094819Y-91015237D02*
X209047200Y-90919999D01*
X209047200Y-90919999D02*
X208999580Y-90872380D01*
X208999580Y-90872380D02*
X208904342Y-90824761D01*
X208904342Y-90824761D02*
X208666247Y-90824761D01*
X208666247Y-90824761D02*
X208571009Y-90872380D01*
X208571009Y-90872380D02*
X208523390Y-90919999D01*
X208523390Y-90919999D02*
X208475771Y-91015237D01*
X208475771Y-91015237D02*
X208475771Y-91205713D01*
X208475771Y-91205713D02*
X208523390Y-91300951D01*
X208523390Y-91300951D02*
X208571009Y-91348570D01*
X208571009Y-91348570D02*
X208666247Y-91396189D01*
X208094819Y-90205713D02*
X208094819Y-90110475D01*
X208094819Y-90110475D02*
X208142438Y-90015237D01*
X208142438Y-90015237D02*
X208190057Y-89967618D01*
X208190057Y-89967618D02*
X208285295Y-89919999D01*
X208285295Y-89919999D02*
X208475771Y-89872380D01*
X208475771Y-89872380D02*
X208713866Y-89872380D01*
X208713866Y-89872380D02*
X208904342Y-89919999D01*
X208904342Y-89919999D02*
X208999580Y-89967618D01*
X208999580Y-89967618D02*
X209047200Y-90015237D01*
X209047200Y-90015237D02*
X209094819Y-90110475D01*
X209094819Y-90110475D02*
X209094819Y-90205713D01*
X209094819Y-90205713D02*
X209047200Y-90300951D01*
X209047200Y-90300951D02*
X208999580Y-90348570D01*
X208999580Y-90348570D02*
X208904342Y-90396189D01*
X208904342Y-90396189D02*
X208713866Y-90443808D01*
X208713866Y-90443808D02*
X208475771Y-90443808D01*
X208475771Y-90443808D02*
X208285295Y-90396189D01*
X208285295Y-90396189D02*
X208190057Y-90348570D01*
X208190057Y-90348570D02*
X208142438Y-90300951D01*
X208142438Y-90300951D02*
X208094819Y-90205713D01*
X208094819Y-89253332D02*
X208094819Y-89158094D01*
X208094819Y-89158094D02*
X208142438Y-89062856D01*
X208142438Y-89062856D02*
X208190057Y-89015237D01*
X208190057Y-89015237D02*
X208285295Y-88967618D01*
X208285295Y-88967618D02*
X208475771Y-88919999D01*
X208475771Y-88919999D02*
X208713866Y-88919999D01*
X208713866Y-88919999D02*
X208904342Y-88967618D01*
X208904342Y-88967618D02*
X208999580Y-89015237D01*
X208999580Y-89015237D02*
X209047200Y-89062856D01*
X209047200Y-89062856D02*
X209094819Y-89158094D01*
X209094819Y-89158094D02*
X209094819Y-89253332D01*
X209094819Y-89253332D02*
X209047200Y-89348570D01*
X209047200Y-89348570D02*
X208999580Y-89396189D01*
X208999580Y-89396189D02*
X208904342Y-89443808D01*
X208904342Y-89443808D02*
X208713866Y-89491427D01*
X208713866Y-89491427D02*
X208475771Y-89491427D01*
X208475771Y-89491427D02*
X208285295Y-89443808D01*
X208285295Y-89443808D02*
X208190057Y-89396189D01*
X208190057Y-89396189D02*
X208142438Y-89348570D01*
X208142438Y-89348570D02*
X208094819Y-89253332D01*
X208094819Y-89411237D02*
X208094819Y-88839809D01*
X209094819Y-89125523D02*
X208094819Y-89125523D01*
X209094819Y-88030285D02*
X209094819Y-88506475D01*
X209094819Y-88506475D02*
X208094819Y-88506475D01*
X209094819Y-87696951D02*
X208094819Y-87696951D01*
X208094819Y-87696951D02*
X208094819Y-87315999D01*
X208094819Y-87315999D02*
X208142438Y-87220761D01*
X208142438Y-87220761D02*
X208190057Y-87173142D01*
X208190057Y-87173142D02*
X208285295Y-87125523D01*
X208285295Y-87125523D02*
X208428152Y-87125523D01*
X208428152Y-87125523D02*
X208523390Y-87173142D01*
X208523390Y-87173142D02*
X208571009Y-87220761D01*
X208571009Y-87220761D02*
X208618628Y-87315999D01*
X208618628Y-87315999D02*
X208618628Y-87696951D01*
X209094819Y-86125523D02*
X208618628Y-86458856D01*
X209094819Y-86696951D02*
X208094819Y-86696951D01*
X208094819Y-86696951D02*
X208094819Y-86315999D01*
X208094819Y-86315999D02*
X208142438Y-86220761D01*
X208142438Y-86220761D02*
X208190057Y-86173142D01*
X208190057Y-86173142D02*
X208285295Y-86125523D01*
X208285295Y-86125523D02*
X208428152Y-86125523D01*
X208428152Y-86125523D02*
X208523390Y-86173142D01*
X208523390Y-86173142D02*
X208571009Y-86220761D01*
X208571009Y-86220761D02*
X208618628Y-86315999D01*
X208618628Y-86315999D02*
X208618628Y-86696951D01*
X208094819Y-85220761D02*
X208094819Y-85696951D01*
X208094819Y-85696951D02*
X208571009Y-85744570D01*
X208571009Y-85744570D02*
X208523390Y-85696951D01*
X208523390Y-85696951D02*
X208475771Y-85601713D01*
X208475771Y-85601713D02*
X208475771Y-85363618D01*
X208475771Y-85363618D02*
X208523390Y-85268380D01*
X208523390Y-85268380D02*
X208571009Y-85220761D01*
X208571009Y-85220761D02*
X208666247Y-85173142D01*
X208666247Y-85173142D02*
X208904342Y-85173142D01*
X208904342Y-85173142D02*
X208999580Y-85220761D01*
X208999580Y-85220761D02*
X209047200Y-85268380D01*
X209047200Y-85268380D02*
X209094819Y-85363618D01*
X209094819Y-85363618D02*
X209094819Y-85601713D01*
X209094819Y-85601713D02*
X209047200Y-85696951D01*
X209047200Y-85696951D02*
X208999580Y-85744570D01*
X208094819Y-84315999D02*
X208094819Y-84506475D01*
X208094819Y-84506475D02*
X208142438Y-84601713D01*
X208142438Y-84601713D02*
X208190057Y-84649332D01*
X208190057Y-84649332D02*
X208332914Y-84744570D01*
X208332914Y-84744570D02*
X208523390Y-84792189D01*
X208523390Y-84792189D02*
X208904342Y-84792189D01*
X208904342Y-84792189D02*
X208999580Y-84744570D01*
X208999580Y-84744570D02*
X209047200Y-84696951D01*
X209047200Y-84696951D02*
X209094819Y-84601713D01*
X209094819Y-84601713D02*
X209094819Y-84411237D01*
X209094819Y-84411237D02*
X209047200Y-84315999D01*
X209047200Y-84315999D02*
X208999580Y-84268380D01*
X208999580Y-84268380D02*
X208904342Y-84220761D01*
X208904342Y-84220761D02*
X208666247Y-84220761D01*
X208666247Y-84220761D02*
X208571009Y-84268380D01*
X208571009Y-84268380D02*
X208523390Y-84315999D01*
X208523390Y-84315999D02*
X208475771Y-84411237D01*
X208475771Y-84411237D02*
X208475771Y-84601713D01*
X208475771Y-84601713D02*
X208523390Y-84696951D01*
X208523390Y-84696951D02*
X208571009Y-84744570D01*
X208571009Y-84744570D02*
X208666247Y-84792189D01*
X208094819Y-83601713D02*
X208094819Y-83506475D01*
X208094819Y-83506475D02*
X208142438Y-83411237D01*
X208142438Y-83411237D02*
X208190057Y-83363618D01*
X208190057Y-83363618D02*
X208285295Y-83315999D01*
X208285295Y-83315999D02*
X208475771Y-83268380D01*
X208475771Y-83268380D02*
X208713866Y-83268380D01*
X208713866Y-83268380D02*
X208904342Y-83315999D01*
X208904342Y-83315999D02*
X208999580Y-83363618D01*
X208999580Y-83363618D02*
X209047200Y-83411237D01*
X209047200Y-83411237D02*
X209094819Y-83506475D01*
X209094819Y-83506475D02*
X209094819Y-83601713D01*
X209094819Y-83601713D02*
X209047200Y-83696951D01*
X209047200Y-83696951D02*
X208999580Y-83744570D01*
X208999580Y-83744570D02*
X208904342Y-83792189D01*
X208904342Y-83792189D02*
X208713866Y-83839808D01*
X208713866Y-83839808D02*
X208475771Y-83839808D01*
X208475771Y-83839808D02*
X208285295Y-83792189D01*
X208285295Y-83792189D02*
X208190057Y-83744570D01*
X208190057Y-83744570D02*
X208142438Y-83696951D01*
X208142438Y-83696951D02*
X208094819Y-83601713D01*
X208094819Y-82649332D02*
X208094819Y-82554094D01*
X208094819Y-82554094D02*
X208142438Y-82458856D01*
X208142438Y-82458856D02*
X208190057Y-82411237D01*
X208190057Y-82411237D02*
X208285295Y-82363618D01*
X208285295Y-82363618D02*
X208475771Y-82315999D01*
X208475771Y-82315999D02*
X208713866Y-82315999D01*
X208713866Y-82315999D02*
X208904342Y-82363618D01*
X208904342Y-82363618D02*
X208999580Y-82411237D01*
X208999580Y-82411237D02*
X209047200Y-82458856D01*
X209047200Y-82458856D02*
X209094819Y-82554094D01*
X209094819Y-82554094D02*
X209094819Y-82649332D01*
X209094819Y-82649332D02*
X209047200Y-82744570D01*
X209047200Y-82744570D02*
X208999580Y-82792189D01*
X208999580Y-82792189D02*
X208904342Y-82839808D01*
X208904342Y-82839808D02*
X208713866Y-82887427D01*
X208713866Y-82887427D02*
X208475771Y-82887427D01*
X208475771Y-82887427D02*
X208285295Y-82839808D01*
X208285295Y-82839808D02*
X208190057Y-82792189D01*
X208190057Y-82792189D02*
X208142438Y-82744570D01*
X208142438Y-82744570D02*
X208094819Y-82649332D01*
X122049580Y-100043809D02*
X122097200Y-100091428D01*
X122097200Y-100091428D02*
X122144819Y-100234285D01*
X122144819Y-100234285D02*
X122144819Y-100329523D01*
X122144819Y-100329523D02*
X122097200Y-100472380D01*
X122097200Y-100472380D02*
X122001961Y-100567618D01*
X122001961Y-100567618D02*
X121906723Y-100615237D01*
X121906723Y-100615237D02*
X121716247Y-100662856D01*
X121716247Y-100662856D02*
X121573390Y-100662856D01*
X121573390Y-100662856D02*
X121382914Y-100615237D01*
X121382914Y-100615237D02*
X121287676Y-100567618D01*
X121287676Y-100567618D02*
X121192438Y-100472380D01*
X121192438Y-100472380D02*
X121144819Y-100329523D01*
X121144819Y-100329523D02*
X121144819Y-100234285D01*
X121144819Y-100234285D02*
X121192438Y-100091428D01*
X121192438Y-100091428D02*
X121240057Y-100043809D01*
X121144819Y-99424761D02*
X121144819Y-99234285D01*
X121144819Y-99234285D02*
X121192438Y-99139047D01*
X121192438Y-99139047D02*
X121287676Y-99043809D01*
X121287676Y-99043809D02*
X121478152Y-98996190D01*
X121478152Y-98996190D02*
X121811485Y-98996190D01*
X121811485Y-98996190D02*
X122001961Y-99043809D01*
X122001961Y-99043809D02*
X122097200Y-99139047D01*
X122097200Y-99139047D02*
X122144819Y-99234285D01*
X122144819Y-99234285D02*
X122144819Y-99424761D01*
X122144819Y-99424761D02*
X122097200Y-99519999D01*
X122097200Y-99519999D02*
X122001961Y-99615237D01*
X122001961Y-99615237D02*
X121811485Y-99662856D01*
X121811485Y-99662856D02*
X121478152Y-99662856D01*
X121478152Y-99662856D02*
X121287676Y-99615237D01*
X121287676Y-99615237D02*
X121192438Y-99519999D01*
X121192438Y-99519999D02*
X121144819Y-99424761D01*
X122144819Y-98567618D02*
X121144819Y-98567618D01*
X121144819Y-98567618D02*
X122144819Y-97996190D01*
X122144819Y-97996190D02*
X121144819Y-97996190D01*
X122144819Y-97519999D02*
X121144819Y-97519999D01*
X121144819Y-97519999D02*
X122144819Y-96948571D01*
X122144819Y-96948571D02*
X121144819Y-96948571D01*
X122240057Y-96710476D02*
X122240057Y-95948571D01*
X121144819Y-95519999D02*
X121144819Y-95424761D01*
X121144819Y-95424761D02*
X121192438Y-95329523D01*
X121192438Y-95329523D02*
X121240057Y-95281904D01*
X121240057Y-95281904D02*
X121335295Y-95234285D01*
X121335295Y-95234285D02*
X121525771Y-95186666D01*
X121525771Y-95186666D02*
X121763866Y-95186666D01*
X121763866Y-95186666D02*
X121954342Y-95234285D01*
X121954342Y-95234285D02*
X122049580Y-95281904D01*
X122049580Y-95281904D02*
X122097200Y-95329523D01*
X122097200Y-95329523D02*
X122144819Y-95424761D01*
X122144819Y-95424761D02*
X122144819Y-95519999D01*
X122144819Y-95519999D02*
X122097200Y-95615237D01*
X122097200Y-95615237D02*
X122049580Y-95662856D01*
X122049580Y-95662856D02*
X121954342Y-95710475D01*
X121954342Y-95710475D02*
X121763866Y-95758094D01*
X121763866Y-95758094D02*
X121525771Y-95758094D01*
X121525771Y-95758094D02*
X121335295Y-95710475D01*
X121335295Y-95710475D02*
X121240057Y-95662856D01*
X121240057Y-95662856D02*
X121192438Y-95615237D01*
X121192438Y-95615237D02*
X121144819Y-95519999D01*
X121240057Y-94805713D02*
X121192438Y-94758094D01*
X121192438Y-94758094D02*
X121144819Y-94662856D01*
X121144819Y-94662856D02*
X121144819Y-94424761D01*
X121144819Y-94424761D02*
X121192438Y-94329523D01*
X121192438Y-94329523D02*
X121240057Y-94281904D01*
X121240057Y-94281904D02*
X121335295Y-94234285D01*
X121335295Y-94234285D02*
X121430533Y-94234285D01*
X121430533Y-94234285D02*
X121573390Y-94281904D01*
X121573390Y-94281904D02*
X122144819Y-94853332D01*
X122144819Y-94853332D02*
X122144819Y-94234285D01*
X121144819Y-93900951D02*
X122144819Y-93234285D01*
X121144819Y-93234285D02*
X122144819Y-93900951D01*
X121144819Y-92662856D02*
X121144819Y-92567618D01*
X121144819Y-92567618D02*
X121192438Y-92472380D01*
X121192438Y-92472380D02*
X121240057Y-92424761D01*
X121240057Y-92424761D02*
X121335295Y-92377142D01*
X121335295Y-92377142D02*
X121525771Y-92329523D01*
X121525771Y-92329523D02*
X121763866Y-92329523D01*
X121763866Y-92329523D02*
X121954342Y-92377142D01*
X121954342Y-92377142D02*
X122049580Y-92424761D01*
X122049580Y-92424761D02*
X122097200Y-92472380D01*
X122097200Y-92472380D02*
X122144819Y-92567618D01*
X122144819Y-92567618D02*
X122144819Y-92662856D01*
X122144819Y-92662856D02*
X122097200Y-92758094D01*
X122097200Y-92758094D02*
X122049580Y-92805713D01*
X122049580Y-92805713D02*
X121954342Y-92853332D01*
X121954342Y-92853332D02*
X121763866Y-92900951D01*
X121763866Y-92900951D02*
X121525771Y-92900951D01*
X121525771Y-92900951D02*
X121335295Y-92853332D01*
X121335295Y-92853332D02*
X121240057Y-92805713D01*
X121240057Y-92805713D02*
X121192438Y-92758094D01*
X121192438Y-92758094D02*
X121144819Y-92662856D01*
X121144819Y-91424761D02*
X121144819Y-91900951D01*
X121144819Y-91900951D02*
X121621009Y-91948570D01*
X121621009Y-91948570D02*
X121573390Y-91900951D01*
X121573390Y-91900951D02*
X121525771Y-91805713D01*
X121525771Y-91805713D02*
X121525771Y-91567618D01*
X121525771Y-91567618D02*
X121573390Y-91472380D01*
X121573390Y-91472380D02*
X121621009Y-91424761D01*
X121621009Y-91424761D02*
X121716247Y-91377142D01*
X121716247Y-91377142D02*
X121954342Y-91377142D01*
X121954342Y-91377142D02*
X122049580Y-91424761D01*
X122049580Y-91424761D02*
X122097200Y-91472380D01*
X122097200Y-91472380D02*
X122144819Y-91567618D01*
X122144819Y-91567618D02*
X122144819Y-91805713D01*
X122144819Y-91805713D02*
X122097200Y-91900951D01*
X122097200Y-91900951D02*
X122049580Y-91948570D01*
X151489819Y-83335619D02*
X151489819Y-83907047D01*
X151489819Y-83621333D02*
X150489819Y-83621333D01*
X150489819Y-83621333D02*
X150632676Y-83716571D01*
X150632676Y-83716571D02*
X150727914Y-83811809D01*
X150727914Y-83811809D02*
X150775533Y-83907047D01*
X150489819Y-82716571D02*
X150489819Y-82621333D01*
X150489819Y-82621333D02*
X150537438Y-82526095D01*
X150537438Y-82526095D02*
X150585057Y-82478476D01*
X150585057Y-82478476D02*
X150680295Y-82430857D01*
X150680295Y-82430857D02*
X150870771Y-82383238D01*
X150870771Y-82383238D02*
X151108866Y-82383238D01*
X151108866Y-82383238D02*
X151299342Y-82430857D01*
X151299342Y-82430857D02*
X151394580Y-82478476D01*
X151394580Y-82478476D02*
X151442200Y-82526095D01*
X151442200Y-82526095D02*
X151489819Y-82621333D01*
X151489819Y-82621333D02*
X151489819Y-82716571D01*
X151489819Y-82716571D02*
X151442200Y-82811809D01*
X151442200Y-82811809D02*
X151394580Y-82859428D01*
X151394580Y-82859428D02*
X151299342Y-82907047D01*
X151299342Y-82907047D02*
X151108866Y-82954666D01*
X151108866Y-82954666D02*
X150870771Y-82954666D01*
X150870771Y-82954666D02*
X150680295Y-82907047D01*
X150680295Y-82907047D02*
X150585057Y-82859428D01*
X150585057Y-82859428D02*
X150537438Y-82811809D01*
X150537438Y-82811809D02*
X150489819Y-82716571D01*
X150489819Y-81764190D02*
X150489819Y-81668952D01*
X150489819Y-81668952D02*
X150537438Y-81573714D01*
X150537438Y-81573714D02*
X150585057Y-81526095D01*
X150585057Y-81526095D02*
X150680295Y-81478476D01*
X150680295Y-81478476D02*
X150870771Y-81430857D01*
X150870771Y-81430857D02*
X151108866Y-81430857D01*
X151108866Y-81430857D02*
X151299342Y-81478476D01*
X151299342Y-81478476D02*
X151394580Y-81526095D01*
X151394580Y-81526095D02*
X151442200Y-81573714D01*
X151442200Y-81573714D02*
X151489819Y-81668952D01*
X151489819Y-81668952D02*
X151489819Y-81764190D01*
X151489819Y-81764190D02*
X151442200Y-81859428D01*
X151442200Y-81859428D02*
X151394580Y-81907047D01*
X151394580Y-81907047D02*
X151299342Y-81954666D01*
X151299342Y-81954666D02*
X151108866Y-82002285D01*
X151108866Y-82002285D02*
X150870771Y-82002285D01*
X150870771Y-82002285D02*
X150680295Y-81954666D01*
X150680295Y-81954666D02*
X150585057Y-81907047D01*
X150585057Y-81907047D02*
X150537438Y-81859428D01*
X150537438Y-81859428D02*
X150489819Y-81764190D01*
X150823152Y-81002285D02*
X151489819Y-81002285D01*
X150918390Y-81002285D02*
X150870771Y-80954666D01*
X150870771Y-80954666D02*
X150823152Y-80859428D01*
X150823152Y-80859428D02*
X150823152Y-80716571D01*
X150823152Y-80716571D02*
X150870771Y-80621333D01*
X150870771Y-80621333D02*
X150966009Y-80573714D01*
X150966009Y-80573714D02*
X151489819Y-80573714D01*
X150966009Y-79764190D02*
X150966009Y-80097523D01*
X151489819Y-80097523D02*
X150489819Y-80097523D01*
X150489819Y-80097523D02*
X150489819Y-79621333D01*
D11*
X153336140Y-81954666D02*
X153383760Y-82002285D01*
X153383760Y-82002285D02*
X153431379Y-82145142D01*
X153431379Y-82145142D02*
X153431379Y-82240380D01*
X153431379Y-82240380D02*
X153383760Y-82383237D01*
X153383760Y-82383237D02*
X153288521Y-82478475D01*
X153288521Y-82478475D02*
X153193283Y-82526094D01*
X153193283Y-82526094D02*
X153002807Y-82573713D01*
X153002807Y-82573713D02*
X152859950Y-82573713D01*
X152859950Y-82573713D02*
X152669474Y-82526094D01*
X152669474Y-82526094D02*
X152574236Y-82478475D01*
X152574236Y-82478475D02*
X152478998Y-82383237D01*
X152478998Y-82383237D02*
X152431379Y-82240380D01*
X152431379Y-82240380D02*
X152431379Y-82145142D01*
X152431379Y-82145142D02*
X152478998Y-82002285D01*
X152478998Y-82002285D02*
X152526617Y-81954666D01*
X152431379Y-81097523D02*
X152431379Y-81287999D01*
X152431379Y-81287999D02*
X152478998Y-81383237D01*
X152478998Y-81383237D02*
X152526617Y-81430856D01*
X152526617Y-81430856D02*
X152669474Y-81526094D01*
X152669474Y-81526094D02*
X152859950Y-81573713D01*
X152859950Y-81573713D02*
X153240902Y-81573713D01*
X153240902Y-81573713D02*
X153336140Y-81526094D01*
X153336140Y-81526094D02*
X153383760Y-81478475D01*
X153383760Y-81478475D02*
X153431379Y-81383237D01*
X153431379Y-81383237D02*
X153431379Y-81192761D01*
X153431379Y-81192761D02*
X153383760Y-81097523D01*
X153383760Y-81097523D02*
X153336140Y-81049904D01*
X153336140Y-81049904D02*
X153240902Y-81002285D01*
X153240902Y-81002285D02*
X153002807Y-81002285D01*
X153002807Y-81002285D02*
X152907569Y-81049904D01*
X152907569Y-81049904D02*
X152859950Y-81097523D01*
X152859950Y-81097523D02*
X152812331Y-81192761D01*
X152812331Y-81192761D02*
X152812331Y-81383237D01*
X152812331Y-81383237D02*
X152859950Y-81478475D01*
X152859950Y-81478475D02*
X152907569Y-81526094D01*
X152907569Y-81526094D02*
X153002807Y-81573713D01*
D10*
X203454819Y-80297619D02*
X203454819Y-80869047D01*
X203454819Y-80583333D02*
X202454819Y-80583333D01*
X202454819Y-80583333D02*
X202597676Y-80678571D01*
X202597676Y-80678571D02*
X202692914Y-80773809D01*
X202692914Y-80773809D02*
X202740533Y-80869047D01*
X202454819Y-79678571D02*
X202454819Y-79583333D01*
X202454819Y-79583333D02*
X202502438Y-79488095D01*
X202502438Y-79488095D02*
X202550057Y-79440476D01*
X202550057Y-79440476D02*
X202645295Y-79392857D01*
X202645295Y-79392857D02*
X202835771Y-79345238D01*
X202835771Y-79345238D02*
X203073866Y-79345238D01*
X203073866Y-79345238D02*
X203264342Y-79392857D01*
X203264342Y-79392857D02*
X203359580Y-79440476D01*
X203359580Y-79440476D02*
X203407200Y-79488095D01*
X203407200Y-79488095D02*
X203454819Y-79583333D01*
X203454819Y-79583333D02*
X203454819Y-79678571D01*
X203454819Y-79678571D02*
X203407200Y-79773809D01*
X203407200Y-79773809D02*
X203359580Y-79821428D01*
X203359580Y-79821428D02*
X203264342Y-79869047D01*
X203264342Y-79869047D02*
X203073866Y-79916666D01*
X203073866Y-79916666D02*
X202835771Y-79916666D01*
X202835771Y-79916666D02*
X202645295Y-79869047D01*
X202645295Y-79869047D02*
X202550057Y-79821428D01*
X202550057Y-79821428D02*
X202502438Y-79773809D01*
X202502438Y-79773809D02*
X202454819Y-79678571D01*
X202454819Y-78726190D02*
X202454819Y-78630952D01*
X202454819Y-78630952D02*
X202502438Y-78535714D01*
X202502438Y-78535714D02*
X202550057Y-78488095D01*
X202550057Y-78488095D02*
X202645295Y-78440476D01*
X202645295Y-78440476D02*
X202835771Y-78392857D01*
X202835771Y-78392857D02*
X203073866Y-78392857D01*
X203073866Y-78392857D02*
X203264342Y-78440476D01*
X203264342Y-78440476D02*
X203359580Y-78488095D01*
X203359580Y-78488095D02*
X203407200Y-78535714D01*
X203407200Y-78535714D02*
X203454819Y-78630952D01*
X203454819Y-78630952D02*
X203454819Y-78726190D01*
X203454819Y-78726190D02*
X203407200Y-78821428D01*
X203407200Y-78821428D02*
X203359580Y-78869047D01*
X203359580Y-78869047D02*
X203264342Y-78916666D01*
X203264342Y-78916666D02*
X203073866Y-78964285D01*
X203073866Y-78964285D02*
X202835771Y-78964285D01*
X202835771Y-78964285D02*
X202645295Y-78916666D01*
X202645295Y-78916666D02*
X202550057Y-78869047D01*
X202550057Y-78869047D02*
X202502438Y-78821428D01*
X202502438Y-78821428D02*
X202454819Y-78726190D01*
X202788152Y-77964285D02*
X203454819Y-77964285D01*
X202883390Y-77964285D02*
X202835771Y-77916666D01*
X202835771Y-77916666D02*
X202788152Y-77821428D01*
X202788152Y-77821428D02*
X202788152Y-77678571D01*
X202788152Y-77678571D02*
X202835771Y-77583333D01*
X202835771Y-77583333D02*
X202931009Y-77535714D01*
X202931009Y-77535714D02*
X203454819Y-77535714D01*
X202931009Y-76726190D02*
X202931009Y-77059523D01*
X203454819Y-77059523D02*
X202454819Y-77059523D01*
X202454819Y-77059523D02*
X202454819Y-76583333D01*
X154560571Y-90323819D02*
X154084381Y-90323819D01*
X154084381Y-90323819D02*
X154084381Y-89323819D01*
X155322476Y-89657152D02*
X155322476Y-90323819D01*
X155084381Y-89276200D02*
X154846286Y-89990485D01*
X154846286Y-89990485D02*
X155465333Y-89990485D01*
X155893905Y-90323819D02*
X156084381Y-90323819D01*
X156084381Y-90323819D02*
X156179619Y-90276200D01*
X156179619Y-90276200D02*
X156227238Y-90228580D01*
X156227238Y-90228580D02*
X156322476Y-90085723D01*
X156322476Y-90085723D02*
X156370095Y-89895247D01*
X156370095Y-89895247D02*
X156370095Y-89514295D01*
X156370095Y-89514295D02*
X156322476Y-89419057D01*
X156322476Y-89419057D02*
X156274857Y-89371438D01*
X156274857Y-89371438D02*
X156179619Y-89323819D01*
X156179619Y-89323819D02*
X155989143Y-89323819D01*
X155989143Y-89323819D02*
X155893905Y-89371438D01*
X155893905Y-89371438D02*
X155846286Y-89419057D01*
X155846286Y-89419057D02*
X155798667Y-89514295D01*
X155798667Y-89514295D02*
X155798667Y-89752390D01*
X155798667Y-89752390D02*
X155846286Y-89847628D01*
X155846286Y-89847628D02*
X155893905Y-89895247D01*
X155893905Y-89895247D02*
X155989143Y-89942866D01*
X155989143Y-89942866D02*
X156179619Y-89942866D01*
X156179619Y-89942866D02*
X156274857Y-89895247D01*
X156274857Y-89895247D02*
X156322476Y-89847628D01*
X156322476Y-89847628D02*
X156370095Y-89752390D01*
X156703429Y-89323819D02*
X157322476Y-89323819D01*
X157322476Y-89323819D02*
X156989143Y-89704771D01*
X156989143Y-89704771D02*
X157132000Y-89704771D01*
X157132000Y-89704771D02*
X157227238Y-89752390D01*
X157227238Y-89752390D02*
X157274857Y-89800009D01*
X157274857Y-89800009D02*
X157322476Y-89895247D01*
X157322476Y-89895247D02*
X157322476Y-90133342D01*
X157322476Y-90133342D02*
X157274857Y-90228580D01*
X157274857Y-90228580D02*
X157227238Y-90276200D01*
X157227238Y-90276200D02*
X157132000Y-90323819D01*
X157132000Y-90323819D02*
X156846286Y-90323819D01*
X156846286Y-90323819D02*
X156751048Y-90276200D01*
X156751048Y-90276200D02*
X156703429Y-90228580D01*
X158274857Y-90323819D02*
X157703429Y-90323819D01*
X157989143Y-90323819D02*
X157989143Y-89323819D01*
X157989143Y-89323819D02*
X157893905Y-89466676D01*
X157893905Y-89466676D02*
X157798667Y-89561914D01*
X157798667Y-89561914D02*
X157703429Y-89609533D01*
X159274857Y-90228580D02*
X159227238Y-90276200D01*
X159227238Y-90276200D02*
X159084381Y-90323819D01*
X159084381Y-90323819D02*
X158989143Y-90323819D01*
X158989143Y-90323819D02*
X158846286Y-90276200D01*
X158846286Y-90276200D02*
X158751048Y-90180961D01*
X158751048Y-90180961D02*
X158703429Y-90085723D01*
X158703429Y-90085723D02*
X158655810Y-89895247D01*
X158655810Y-89895247D02*
X158655810Y-89752390D01*
X158655810Y-89752390D02*
X158703429Y-89561914D01*
X158703429Y-89561914D02*
X158751048Y-89466676D01*
X158751048Y-89466676D02*
X158846286Y-89371438D01*
X158846286Y-89371438D02*
X158989143Y-89323819D01*
X158989143Y-89323819D02*
X159084381Y-89323819D01*
X159084381Y-89323819D02*
X159227238Y-89371438D01*
X159227238Y-89371438D02*
X159274857Y-89419057D01*
X159608191Y-89323819D02*
X160274857Y-89323819D01*
X160274857Y-89323819D02*
X159608191Y-90323819D01*
X159608191Y-90323819D02*
X160274857Y-90323819D01*
X160560572Y-89323819D02*
X161179619Y-89323819D01*
X161179619Y-89323819D02*
X160846286Y-89704771D01*
X160846286Y-89704771D02*
X160989143Y-89704771D01*
X160989143Y-89704771D02*
X161084381Y-89752390D01*
X161084381Y-89752390D02*
X161132000Y-89800009D01*
X161132000Y-89800009D02*
X161179619Y-89895247D01*
X161179619Y-89895247D02*
X161179619Y-90133342D01*
X161179619Y-90133342D02*
X161132000Y-90228580D01*
X161132000Y-90228580D02*
X161084381Y-90276200D01*
X161084381Y-90276200D02*
X160989143Y-90323819D01*
X160989143Y-90323819D02*
X160703429Y-90323819D01*
X160703429Y-90323819D02*
X160608191Y-90276200D01*
X160608191Y-90276200D02*
X160560572Y-90228580D01*
X161512953Y-89323819D02*
X162132000Y-89323819D01*
X162132000Y-89323819D02*
X161798667Y-89704771D01*
X161798667Y-89704771D02*
X161941524Y-89704771D01*
X161941524Y-89704771D02*
X162036762Y-89752390D01*
X162036762Y-89752390D02*
X162084381Y-89800009D01*
X162084381Y-89800009D02*
X162132000Y-89895247D01*
X162132000Y-89895247D02*
X162132000Y-90133342D01*
X162132000Y-90133342D02*
X162084381Y-90228580D01*
X162084381Y-90228580D02*
X162036762Y-90276200D01*
X162036762Y-90276200D02*
X161941524Y-90323819D01*
X161941524Y-90323819D02*
X161655810Y-90323819D01*
X161655810Y-90323819D02*
X161560572Y-90276200D01*
X161560572Y-90276200D02*
X161512953Y-90228580D01*
X162560572Y-89942866D02*
X163322477Y-89942866D01*
X163751048Y-90038104D02*
X164227238Y-90038104D01*
X163655810Y-90323819D02*
X163989143Y-89323819D01*
X163989143Y-89323819D02*
X164322476Y-90323819D01*
X164655810Y-90323819D02*
X164655810Y-89323819D01*
X164655810Y-89323819D02*
X165036762Y-89323819D01*
X165036762Y-89323819D02*
X165132000Y-89371438D01*
X165132000Y-89371438D02*
X165179619Y-89419057D01*
X165179619Y-89419057D02*
X165227238Y-89514295D01*
X165227238Y-89514295D02*
X165227238Y-89657152D01*
X165227238Y-89657152D02*
X165179619Y-89752390D01*
X165179619Y-89752390D02*
X165132000Y-89800009D01*
X165132000Y-89800009D02*
X165036762Y-89847628D01*
X165036762Y-89847628D02*
X164655810Y-89847628D01*
X115450714Y-119642080D02*
X115403095Y-119689700D01*
X115403095Y-119689700D02*
X115260238Y-119737319D01*
X115260238Y-119737319D02*
X115165000Y-119737319D01*
X115165000Y-119737319D02*
X115022143Y-119689700D01*
X115022143Y-119689700D02*
X114926905Y-119594461D01*
X114926905Y-119594461D02*
X114879286Y-119499223D01*
X114879286Y-119499223D02*
X114831667Y-119308747D01*
X114831667Y-119308747D02*
X114831667Y-119165890D01*
X114831667Y-119165890D02*
X114879286Y-118975414D01*
X114879286Y-118975414D02*
X114926905Y-118880176D01*
X114926905Y-118880176D02*
X115022143Y-118784938D01*
X115022143Y-118784938D02*
X115165000Y-118737319D01*
X115165000Y-118737319D02*
X115260238Y-118737319D01*
X115260238Y-118737319D02*
X115403095Y-118784938D01*
X115403095Y-118784938D02*
X115450714Y-118832557D01*
X116069762Y-118737319D02*
X116260238Y-118737319D01*
X116260238Y-118737319D02*
X116355476Y-118784938D01*
X116355476Y-118784938D02*
X116450714Y-118880176D01*
X116450714Y-118880176D02*
X116498333Y-119070652D01*
X116498333Y-119070652D02*
X116498333Y-119403985D01*
X116498333Y-119403985D02*
X116450714Y-119594461D01*
X116450714Y-119594461D02*
X116355476Y-119689700D01*
X116355476Y-119689700D02*
X116260238Y-119737319D01*
X116260238Y-119737319D02*
X116069762Y-119737319D01*
X116069762Y-119737319D02*
X115974524Y-119689700D01*
X115974524Y-119689700D02*
X115879286Y-119594461D01*
X115879286Y-119594461D02*
X115831667Y-119403985D01*
X115831667Y-119403985D02*
X115831667Y-119070652D01*
X115831667Y-119070652D02*
X115879286Y-118880176D01*
X115879286Y-118880176D02*
X115974524Y-118784938D01*
X115974524Y-118784938D02*
X116069762Y-118737319D01*
X116926905Y-119737319D02*
X116926905Y-118737319D01*
X116926905Y-118737319D02*
X117498333Y-119737319D01*
X117498333Y-119737319D02*
X117498333Y-118737319D01*
X118498333Y-119737319D02*
X117926905Y-119737319D01*
X118212619Y-119737319D02*
X118212619Y-118737319D01*
X118212619Y-118737319D02*
X118117381Y-118880176D01*
X118117381Y-118880176D02*
X118022143Y-118975414D01*
X118022143Y-118975414D02*
X117926905Y-119023033D01*
X196357143Y-96304819D02*
X197023809Y-96304819D01*
X197023809Y-96304819D02*
X196595238Y-97304819D01*
X197833333Y-96638152D02*
X197833333Y-97304819D01*
X197595238Y-96257200D02*
X197357143Y-96971485D01*
X197357143Y-96971485D02*
X197976190Y-96971485D01*
X198357143Y-97304819D02*
X198357143Y-96304819D01*
X198357143Y-96781009D02*
X198928571Y-96781009D01*
X198928571Y-97304819D02*
X198928571Y-96304819D01*
X199976190Y-97209580D02*
X199928571Y-97257200D01*
X199928571Y-97257200D02*
X199785714Y-97304819D01*
X199785714Y-97304819D02*
X199690476Y-97304819D01*
X199690476Y-97304819D02*
X199547619Y-97257200D01*
X199547619Y-97257200D02*
X199452381Y-97161961D01*
X199452381Y-97161961D02*
X199404762Y-97066723D01*
X199404762Y-97066723D02*
X199357143Y-96876247D01*
X199357143Y-96876247D02*
X199357143Y-96733390D01*
X199357143Y-96733390D02*
X199404762Y-96542914D01*
X199404762Y-96542914D02*
X199452381Y-96447676D01*
X199452381Y-96447676D02*
X199547619Y-96352438D01*
X199547619Y-96352438D02*
X199690476Y-96304819D01*
X199690476Y-96304819D02*
X199785714Y-96304819D01*
X199785714Y-96304819D02*
X199928571Y-96352438D01*
X199928571Y-96352438D02*
X199976190Y-96400057D01*
X200261905Y-96304819D02*
X200833333Y-96304819D01*
X200547619Y-97304819D02*
X200547619Y-96304819D01*
X201119048Y-96400057D02*
X201166667Y-96352438D01*
X201166667Y-96352438D02*
X201261905Y-96304819D01*
X201261905Y-96304819D02*
X201500000Y-96304819D01*
X201500000Y-96304819D02*
X201595238Y-96352438D01*
X201595238Y-96352438D02*
X201642857Y-96400057D01*
X201642857Y-96400057D02*
X201690476Y-96495295D01*
X201690476Y-96495295D02*
X201690476Y-96590533D01*
X201690476Y-96590533D02*
X201642857Y-96733390D01*
X201642857Y-96733390D02*
X201071429Y-97304819D01*
X201071429Y-97304819D02*
X201690476Y-97304819D01*
X202547619Y-96638152D02*
X202547619Y-97304819D01*
X202309524Y-96257200D02*
X202071429Y-96971485D01*
X202071429Y-96971485D02*
X202690476Y-96971485D01*
X203547619Y-96304819D02*
X203071429Y-96304819D01*
X203071429Y-96304819D02*
X203023810Y-96781009D01*
X203023810Y-96781009D02*
X203071429Y-96733390D01*
X203071429Y-96733390D02*
X203166667Y-96685771D01*
X203166667Y-96685771D02*
X203404762Y-96685771D01*
X203404762Y-96685771D02*
X203500000Y-96733390D01*
X203500000Y-96733390D02*
X203547619Y-96781009D01*
X203547619Y-96781009D02*
X203595238Y-96876247D01*
X203595238Y-96876247D02*
X203595238Y-97114342D01*
X203595238Y-97114342D02*
X203547619Y-97209580D01*
X203547619Y-97209580D02*
X203500000Y-97257200D01*
X203500000Y-97257200D02*
X203404762Y-97304819D01*
X203404762Y-97304819D02*
X203166667Y-97304819D01*
X203166667Y-97304819D02*
X203071429Y-97257200D01*
X203071429Y-97257200D02*
X203023810Y-97209580D01*
X199238095Y-88954819D02*
X199238095Y-89764342D01*
X199238095Y-89764342D02*
X199285714Y-89859580D01*
X199285714Y-89859580D02*
X199333333Y-89907200D01*
X199333333Y-89907200D02*
X199428571Y-89954819D01*
X199428571Y-89954819D02*
X199619047Y-89954819D01*
X199619047Y-89954819D02*
X199714285Y-89907200D01*
X199714285Y-89907200D02*
X199761904Y-89859580D01*
X199761904Y-89859580D02*
X199809523Y-89764342D01*
X199809523Y-89764342D02*
X199809523Y-88954819D01*
X200238095Y-89050057D02*
X200285714Y-89002438D01*
X200285714Y-89002438D02*
X200380952Y-88954819D01*
X200380952Y-88954819D02*
X200619047Y-88954819D01*
X200619047Y-88954819D02*
X200714285Y-89002438D01*
X200714285Y-89002438D02*
X200761904Y-89050057D01*
X200761904Y-89050057D02*
X200809523Y-89145295D01*
X200809523Y-89145295D02*
X200809523Y-89240533D01*
X200809523Y-89240533D02*
X200761904Y-89383390D01*
X200761904Y-89383390D02*
X200190476Y-89954819D01*
X200190476Y-89954819D02*
X200809523Y-89954819D01*
X197214286Y-82234819D02*
X197880952Y-82234819D01*
X197880952Y-82234819D02*
X197452381Y-83234819D01*
X198690476Y-82568152D02*
X198690476Y-83234819D01*
X198452381Y-82187200D02*
X198214286Y-82901485D01*
X198214286Y-82901485D02*
X198833333Y-82901485D01*
X199214286Y-83234819D02*
X199214286Y-82234819D01*
X199214286Y-82711009D02*
X199785714Y-82711009D01*
X199785714Y-83234819D02*
X199785714Y-82234819D01*
X200833333Y-83139580D02*
X200785714Y-83187200D01*
X200785714Y-83187200D02*
X200642857Y-83234819D01*
X200642857Y-83234819D02*
X200547619Y-83234819D01*
X200547619Y-83234819D02*
X200404762Y-83187200D01*
X200404762Y-83187200D02*
X200309524Y-83091961D01*
X200309524Y-83091961D02*
X200261905Y-82996723D01*
X200261905Y-82996723D02*
X200214286Y-82806247D01*
X200214286Y-82806247D02*
X200214286Y-82663390D01*
X200214286Y-82663390D02*
X200261905Y-82472914D01*
X200261905Y-82472914D02*
X200309524Y-82377676D01*
X200309524Y-82377676D02*
X200404762Y-82282438D01*
X200404762Y-82282438D02*
X200547619Y-82234819D01*
X200547619Y-82234819D02*
X200642857Y-82234819D01*
X200642857Y-82234819D02*
X200785714Y-82282438D01*
X200785714Y-82282438D02*
X200833333Y-82330057D01*
X201166667Y-82234819D02*
X201785714Y-82234819D01*
X201785714Y-82234819D02*
X201452381Y-82615771D01*
X201452381Y-82615771D02*
X201595238Y-82615771D01*
X201595238Y-82615771D02*
X201690476Y-82663390D01*
X201690476Y-82663390D02*
X201738095Y-82711009D01*
X201738095Y-82711009D02*
X201785714Y-82806247D01*
X201785714Y-82806247D02*
X201785714Y-83044342D01*
X201785714Y-83044342D02*
X201738095Y-83139580D01*
X201738095Y-83139580D02*
X201690476Y-83187200D01*
X201690476Y-83187200D02*
X201595238Y-83234819D01*
X201595238Y-83234819D02*
X201309524Y-83234819D01*
X201309524Y-83234819D02*
X201214286Y-83187200D01*
X201214286Y-83187200D02*
X201166667Y-83139580D01*
X202166667Y-82330057D02*
X202214286Y-82282438D01*
X202214286Y-82282438D02*
X202309524Y-82234819D01*
X202309524Y-82234819D02*
X202547619Y-82234819D01*
X202547619Y-82234819D02*
X202642857Y-82282438D01*
X202642857Y-82282438D02*
X202690476Y-82330057D01*
X202690476Y-82330057D02*
X202738095Y-82425295D01*
X202738095Y-82425295D02*
X202738095Y-82520533D01*
X202738095Y-82520533D02*
X202690476Y-82663390D01*
X202690476Y-82663390D02*
X202119048Y-83234819D01*
X202119048Y-83234819D02*
X202738095Y-83234819D01*
X199253333Y-76965566D02*
X199253333Y-77758900D01*
X199253333Y-77758900D02*
X199300000Y-77852233D01*
X199300000Y-77852233D02*
X199346666Y-77898900D01*
X199346666Y-77898900D02*
X199440000Y-77945566D01*
X199440000Y-77945566D02*
X199626666Y-77945566D01*
X199626666Y-77945566D02*
X199720000Y-77898900D01*
X199720000Y-77898900D02*
X199766666Y-77852233D01*
X199766666Y-77852233D02*
X199813333Y-77758900D01*
X199813333Y-77758900D02*
X199813333Y-76965566D01*
X200186667Y-76965566D02*
X200793333Y-76965566D01*
X200793333Y-76965566D02*
X200466667Y-77338900D01*
X200466667Y-77338900D02*
X200606667Y-77338900D01*
X200606667Y-77338900D02*
X200700000Y-77385566D01*
X200700000Y-77385566D02*
X200746667Y-77432233D01*
X200746667Y-77432233D02*
X200793333Y-77525566D01*
X200793333Y-77525566D02*
X200793333Y-77758900D01*
X200793333Y-77758900D02*
X200746667Y-77852233D01*
X200746667Y-77852233D02*
X200700000Y-77898900D01*
X200700000Y-77898900D02*
X200606667Y-77945566D01*
X200606667Y-77945566D02*
X200326667Y-77945566D01*
X200326667Y-77945566D02*
X200233333Y-77898900D01*
X200233333Y-77898900D02*
X200186667Y-77852233D01*
X195635714Y-103594819D02*
X195159524Y-103594819D01*
X195159524Y-103594819D02*
X195111905Y-104071009D01*
X195111905Y-104071009D02*
X195159524Y-104023390D01*
X195159524Y-104023390D02*
X195254762Y-103975771D01*
X195254762Y-103975771D02*
X195492857Y-103975771D01*
X195492857Y-103975771D02*
X195588095Y-104023390D01*
X195588095Y-104023390D02*
X195635714Y-104071009D01*
X195635714Y-104071009D02*
X195683333Y-104166247D01*
X195683333Y-104166247D02*
X195683333Y-104404342D01*
X195683333Y-104404342D02*
X195635714Y-104499580D01*
X195635714Y-104499580D02*
X195588095Y-104547200D01*
X195588095Y-104547200D02*
X195492857Y-104594819D01*
X195492857Y-104594819D02*
X195254762Y-104594819D01*
X195254762Y-104594819D02*
X195159524Y-104547200D01*
X195159524Y-104547200D02*
X195111905Y-104499580D01*
X196540476Y-103594819D02*
X196350000Y-103594819D01*
X196350000Y-103594819D02*
X196254762Y-103642438D01*
X196254762Y-103642438D02*
X196207143Y-103690057D01*
X196207143Y-103690057D02*
X196111905Y-103832914D01*
X196111905Y-103832914D02*
X196064286Y-104023390D01*
X196064286Y-104023390D02*
X196064286Y-104404342D01*
X196064286Y-104404342D02*
X196111905Y-104499580D01*
X196111905Y-104499580D02*
X196159524Y-104547200D01*
X196159524Y-104547200D02*
X196254762Y-104594819D01*
X196254762Y-104594819D02*
X196445238Y-104594819D01*
X196445238Y-104594819D02*
X196540476Y-104547200D01*
X196540476Y-104547200D02*
X196588095Y-104499580D01*
X196588095Y-104499580D02*
X196635714Y-104404342D01*
X196635714Y-104404342D02*
X196635714Y-104166247D01*
X196635714Y-104166247D02*
X196588095Y-104071009D01*
X196588095Y-104071009D02*
X196540476Y-104023390D01*
X196540476Y-104023390D02*
X196445238Y-103975771D01*
X196445238Y-103975771D02*
X196254762Y-103975771D01*
X196254762Y-103975771D02*
X196159524Y-104023390D01*
X196159524Y-104023390D02*
X196111905Y-104071009D01*
X196111905Y-104071009D02*
X196064286Y-104166247D01*
X197254762Y-103594819D02*
X197350000Y-103594819D01*
X197350000Y-103594819D02*
X197445238Y-103642438D01*
X197445238Y-103642438D02*
X197492857Y-103690057D01*
X197492857Y-103690057D02*
X197540476Y-103785295D01*
X197540476Y-103785295D02*
X197588095Y-103975771D01*
X197588095Y-103975771D02*
X197588095Y-104213866D01*
X197588095Y-104213866D02*
X197540476Y-104404342D01*
X197540476Y-104404342D02*
X197492857Y-104499580D01*
X197492857Y-104499580D02*
X197445238Y-104547200D01*
X197445238Y-104547200D02*
X197350000Y-104594819D01*
X197350000Y-104594819D02*
X197254762Y-104594819D01*
X197254762Y-104594819D02*
X197159524Y-104547200D01*
X197159524Y-104547200D02*
X197111905Y-104499580D01*
X197111905Y-104499580D02*
X197064286Y-104404342D01*
X197064286Y-104404342D02*
X197016667Y-104213866D01*
X197016667Y-104213866D02*
X197016667Y-103975771D01*
X197016667Y-103975771D02*
X197064286Y-103785295D01*
X197064286Y-103785295D02*
X197111905Y-103690057D01*
X197111905Y-103690057D02*
X197159524Y-103642438D01*
X197159524Y-103642438D02*
X197254762Y-103594819D01*
X198588095Y-104594819D02*
X198254762Y-104118628D01*
X198016667Y-104594819D02*
X198016667Y-103594819D01*
X198016667Y-103594819D02*
X198397619Y-103594819D01*
X198397619Y-103594819D02*
X198492857Y-103642438D01*
X198492857Y-103642438D02*
X198540476Y-103690057D01*
X198540476Y-103690057D02*
X198588095Y-103785295D01*
X198588095Y-103785295D02*
X198588095Y-103928152D01*
X198588095Y-103928152D02*
X198540476Y-104023390D01*
X198540476Y-104023390D02*
X198492857Y-104071009D01*
X198492857Y-104071009D02*
X198397619Y-104118628D01*
X198397619Y-104118628D02*
X198016667Y-104118628D01*
X196746833Y-117929819D02*
X196413500Y-117453628D01*
X196175405Y-117929819D02*
X196175405Y-116929819D01*
X196175405Y-116929819D02*
X196556357Y-116929819D01*
X196556357Y-116929819D02*
X196651595Y-116977438D01*
X196651595Y-116977438D02*
X196699214Y-117025057D01*
X196699214Y-117025057D02*
X196746833Y-117120295D01*
X196746833Y-117120295D02*
X196746833Y-117263152D01*
X196746833Y-117263152D02*
X196699214Y-117358390D01*
X196699214Y-117358390D02*
X196651595Y-117406009D01*
X196651595Y-117406009D02*
X196556357Y-117453628D01*
X196556357Y-117453628D02*
X196175405Y-117453628D01*
X197699214Y-117929819D02*
X197127786Y-117929819D01*
X197413500Y-117929819D02*
X197413500Y-116929819D01*
X197413500Y-116929819D02*
X197318262Y-117072676D01*
X197318262Y-117072676D02*
X197223024Y-117167914D01*
X197223024Y-117167914D02*
X197127786Y-117215533D01*
X136549429Y-99658819D02*
X136549429Y-98658819D01*
X136549429Y-98658819D02*
X136882762Y-99373104D01*
X136882762Y-99373104D02*
X137216095Y-98658819D01*
X137216095Y-98658819D02*
X137216095Y-99658819D01*
X137644667Y-99373104D02*
X138120857Y-99373104D01*
X137549429Y-99658819D02*
X137882762Y-98658819D01*
X137882762Y-98658819D02*
X138216095Y-99658819D01*
X138454191Y-98658819D02*
X139120857Y-99658819D01*
X139120857Y-98658819D02*
X138454191Y-99658819D01*
X139406572Y-98658819D02*
X140025619Y-98658819D01*
X140025619Y-98658819D02*
X139692286Y-99039771D01*
X139692286Y-99039771D02*
X139835143Y-99039771D01*
X139835143Y-99039771D02*
X139930381Y-99087390D01*
X139930381Y-99087390D02*
X139978000Y-99135009D01*
X139978000Y-99135009D02*
X140025619Y-99230247D01*
X140025619Y-99230247D02*
X140025619Y-99468342D01*
X140025619Y-99468342D02*
X139978000Y-99563580D01*
X139978000Y-99563580D02*
X139930381Y-99611200D01*
X139930381Y-99611200D02*
X139835143Y-99658819D01*
X139835143Y-99658819D02*
X139549429Y-99658819D01*
X139549429Y-99658819D02*
X139454191Y-99611200D01*
X139454191Y-99611200D02*
X139406572Y-99563580D01*
X140406572Y-98754057D02*
X140454191Y-98706438D01*
X140454191Y-98706438D02*
X140549429Y-98658819D01*
X140549429Y-98658819D02*
X140787524Y-98658819D01*
X140787524Y-98658819D02*
X140882762Y-98706438D01*
X140882762Y-98706438D02*
X140930381Y-98754057D01*
X140930381Y-98754057D02*
X140978000Y-98849295D01*
X140978000Y-98849295D02*
X140978000Y-98944533D01*
X140978000Y-98944533D02*
X140930381Y-99087390D01*
X140930381Y-99087390D02*
X140358953Y-99658819D01*
X140358953Y-99658819D02*
X140978000Y-99658819D01*
X141311334Y-98658819D02*
X141930381Y-98658819D01*
X141930381Y-98658819D02*
X141597048Y-99039771D01*
X141597048Y-99039771D02*
X141739905Y-99039771D01*
X141739905Y-99039771D02*
X141835143Y-99087390D01*
X141835143Y-99087390D02*
X141882762Y-99135009D01*
X141882762Y-99135009D02*
X141930381Y-99230247D01*
X141930381Y-99230247D02*
X141930381Y-99468342D01*
X141930381Y-99468342D02*
X141882762Y-99563580D01*
X141882762Y-99563580D02*
X141835143Y-99611200D01*
X141835143Y-99611200D02*
X141739905Y-99658819D01*
X141739905Y-99658819D02*
X141454191Y-99658819D01*
X141454191Y-99658819D02*
X141358953Y-99611200D01*
X141358953Y-99611200D02*
X141311334Y-99563580D01*
X142263715Y-98658819D02*
X142930381Y-98658819D01*
X142930381Y-98658819D02*
X142501810Y-99658819D01*
X143882762Y-99563580D02*
X143835143Y-99611200D01*
X143835143Y-99611200D02*
X143692286Y-99658819D01*
X143692286Y-99658819D02*
X143597048Y-99658819D01*
X143597048Y-99658819D02*
X143454191Y-99611200D01*
X143454191Y-99611200D02*
X143358953Y-99515961D01*
X143358953Y-99515961D02*
X143311334Y-99420723D01*
X143311334Y-99420723D02*
X143263715Y-99230247D01*
X143263715Y-99230247D02*
X143263715Y-99087390D01*
X143263715Y-99087390D02*
X143311334Y-98896914D01*
X143311334Y-98896914D02*
X143358953Y-98801676D01*
X143358953Y-98801676D02*
X143454191Y-98706438D01*
X143454191Y-98706438D02*
X143597048Y-98658819D01*
X143597048Y-98658819D02*
X143692286Y-98658819D01*
X143692286Y-98658819D02*
X143835143Y-98706438D01*
X143835143Y-98706438D02*
X143882762Y-98754057D01*
X144263715Y-99373104D02*
X144739905Y-99373104D01*
X144168477Y-99658819D02*
X144501810Y-98658819D01*
X144501810Y-98658819D02*
X144835143Y-99658819D01*
X145168477Y-99658819D02*
X145168477Y-98658819D01*
X145644667Y-99277866D02*
X146406572Y-99277866D01*
X146025619Y-99658819D02*
X146025619Y-98896914D01*
X186954819Y-84850476D02*
X186954819Y-85421904D01*
X186954819Y-85136190D02*
X185954819Y-85136190D01*
X185954819Y-85136190D02*
X186097676Y-85231428D01*
X186097676Y-85231428D02*
X186192914Y-85326666D01*
X186192914Y-85326666D02*
X186240533Y-85421904D01*
X185954819Y-84231428D02*
X185954819Y-84136190D01*
X185954819Y-84136190D02*
X186002438Y-84040952D01*
X186002438Y-84040952D02*
X186050057Y-83993333D01*
X186050057Y-83993333D02*
X186145295Y-83945714D01*
X186145295Y-83945714D02*
X186335771Y-83898095D01*
X186335771Y-83898095D02*
X186573866Y-83898095D01*
X186573866Y-83898095D02*
X186764342Y-83945714D01*
X186764342Y-83945714D02*
X186859580Y-83993333D01*
X186859580Y-83993333D02*
X186907200Y-84040952D01*
X186907200Y-84040952D02*
X186954819Y-84136190D01*
X186954819Y-84136190D02*
X186954819Y-84231428D01*
X186954819Y-84231428D02*
X186907200Y-84326666D01*
X186907200Y-84326666D02*
X186859580Y-84374285D01*
X186859580Y-84374285D02*
X186764342Y-84421904D01*
X186764342Y-84421904D02*
X186573866Y-84469523D01*
X186573866Y-84469523D02*
X186335771Y-84469523D01*
X186335771Y-84469523D02*
X186145295Y-84421904D01*
X186145295Y-84421904D02*
X186050057Y-84374285D01*
X186050057Y-84374285D02*
X186002438Y-84326666D01*
X186002438Y-84326666D02*
X185954819Y-84231428D01*
X186954819Y-83469523D02*
X185954819Y-83469523D01*
X186954819Y-82898095D02*
X186383390Y-83326666D01*
X185954819Y-82898095D02*
X186526247Y-83469523D01*
D11*
X185016379Y-84326666D02*
X184540188Y-84659999D01*
X185016379Y-84898094D02*
X184016379Y-84898094D01*
X184016379Y-84898094D02*
X184016379Y-84517142D01*
X184016379Y-84517142D02*
X184063998Y-84421904D01*
X184063998Y-84421904D02*
X184111617Y-84374285D01*
X184111617Y-84374285D02*
X184206855Y-84326666D01*
X184206855Y-84326666D02*
X184349712Y-84326666D01*
X184349712Y-84326666D02*
X184444950Y-84374285D01*
X184444950Y-84374285D02*
X184492569Y-84421904D01*
X184492569Y-84421904D02*
X184540188Y-84517142D01*
X184540188Y-84517142D02*
X184540188Y-84898094D01*
X185016379Y-83850475D02*
X185016379Y-83659999D01*
X185016379Y-83659999D02*
X184968760Y-83564761D01*
X184968760Y-83564761D02*
X184921140Y-83517142D01*
X184921140Y-83517142D02*
X184778283Y-83421904D01*
X184778283Y-83421904D02*
X184587807Y-83374285D01*
X184587807Y-83374285D02*
X184206855Y-83374285D01*
X184206855Y-83374285D02*
X184111617Y-83421904D01*
X184111617Y-83421904D02*
X184063998Y-83469523D01*
X184063998Y-83469523D02*
X184016379Y-83564761D01*
X184016379Y-83564761D02*
X184016379Y-83755237D01*
X184016379Y-83755237D02*
X184063998Y-83850475D01*
X184063998Y-83850475D02*
X184111617Y-83898094D01*
X184111617Y-83898094D02*
X184206855Y-83945713D01*
X184206855Y-83945713D02*
X184444950Y-83945713D01*
X184444950Y-83945713D02*
X184540188Y-83898094D01*
X184540188Y-83898094D02*
X184587807Y-83850475D01*
X184587807Y-83850475D02*
X184635426Y-83755237D01*
X184635426Y-83755237D02*
X184635426Y-83564761D01*
X184635426Y-83564761D02*
X184587807Y-83469523D01*
X184587807Y-83469523D02*
X184540188Y-83421904D01*
X184540188Y-83421904D02*
X184444950Y-83374285D01*
D10*
X158988095Y-86224819D02*
X158988095Y-85224819D01*
X158988095Y-85701009D02*
X159559523Y-85701009D01*
X159559523Y-86224819D02*
X159559523Y-85224819D01*
X159988095Y-85320057D02*
X160035714Y-85272438D01*
X160035714Y-85272438D02*
X160130952Y-85224819D01*
X160130952Y-85224819D02*
X160369047Y-85224819D01*
X160369047Y-85224819D02*
X160464285Y-85272438D01*
X160464285Y-85272438D02*
X160511904Y-85320057D01*
X160511904Y-85320057D02*
X160559523Y-85415295D01*
X160559523Y-85415295D02*
X160559523Y-85510533D01*
X160559523Y-85510533D02*
X160511904Y-85653390D01*
X160511904Y-85653390D02*
X159940476Y-86224819D01*
X159940476Y-86224819D02*
X160559523Y-86224819D01*
X188988095Y-86224819D02*
X188988095Y-85224819D01*
X188988095Y-85701009D02*
X189559523Y-85701009D01*
X189559523Y-86224819D02*
X189559523Y-85224819D01*
X189940476Y-85224819D02*
X190559523Y-85224819D01*
X190559523Y-85224819D02*
X190226190Y-85605771D01*
X190226190Y-85605771D02*
X190369047Y-85605771D01*
X190369047Y-85605771D02*
X190464285Y-85653390D01*
X190464285Y-85653390D02*
X190511904Y-85701009D01*
X190511904Y-85701009D02*
X190559523Y-85796247D01*
X190559523Y-85796247D02*
X190559523Y-86034342D01*
X190559523Y-86034342D02*
X190511904Y-86129580D01*
X190511904Y-86129580D02*
X190464285Y-86177200D01*
X190464285Y-86177200D02*
X190369047Y-86224819D01*
X190369047Y-86224819D02*
X190083333Y-86224819D01*
X190083333Y-86224819D02*
X189988095Y-86177200D01*
X189988095Y-86177200D02*
X189940476Y-86129580D01*
X118988095Y-132474819D02*
X118988095Y-131474819D01*
X118988095Y-131951009D02*
X119559523Y-131951009D01*
X119559523Y-132474819D02*
X119559523Y-131474819D01*
X120464285Y-131808152D02*
X120464285Y-132474819D01*
X120226190Y-131427200D02*
X119988095Y-132141485D01*
X119988095Y-132141485D02*
X120607142Y-132141485D01*
X158988095Y-132474819D02*
X158988095Y-131474819D01*
X158988095Y-131951009D02*
X159559523Y-131951009D01*
X159559523Y-132474819D02*
X159559523Y-131474819D01*
X160511904Y-131474819D02*
X160035714Y-131474819D01*
X160035714Y-131474819D02*
X159988095Y-131951009D01*
X159988095Y-131951009D02*
X160035714Y-131903390D01*
X160035714Y-131903390D02*
X160130952Y-131855771D01*
X160130952Y-131855771D02*
X160369047Y-131855771D01*
X160369047Y-131855771D02*
X160464285Y-131903390D01*
X160464285Y-131903390D02*
X160511904Y-131951009D01*
X160511904Y-131951009D02*
X160559523Y-132046247D01*
X160559523Y-132046247D02*
X160559523Y-132284342D01*
X160559523Y-132284342D02*
X160511904Y-132379580D01*
X160511904Y-132379580D02*
X160464285Y-132427200D01*
X160464285Y-132427200D02*
X160369047Y-132474819D01*
X160369047Y-132474819D02*
X160130952Y-132474819D01*
X160130952Y-132474819D02*
X160035714Y-132427200D01*
X160035714Y-132427200D02*
X159988095Y-132379580D01*
X118988095Y-86224819D02*
X118988095Y-85224819D01*
X118988095Y-85701009D02*
X119559523Y-85701009D01*
X119559523Y-86224819D02*
X119559523Y-85224819D01*
X120559523Y-86224819D02*
X119988095Y-86224819D01*
X120273809Y-86224819D02*
X120273809Y-85224819D01*
X120273809Y-85224819D02*
X120178571Y-85367676D01*
X120178571Y-85367676D02*
X120083333Y-85462914D01*
X120083333Y-85462914D02*
X119988095Y-85510533D01*
X188988095Y-132474819D02*
X188988095Y-131474819D01*
X188988095Y-131951009D02*
X189559523Y-131951009D01*
X189559523Y-132474819D02*
X189559523Y-131474819D01*
X190464285Y-131474819D02*
X190273809Y-131474819D01*
X190273809Y-131474819D02*
X190178571Y-131522438D01*
X190178571Y-131522438D02*
X190130952Y-131570057D01*
X190130952Y-131570057D02*
X190035714Y-131712914D01*
X190035714Y-131712914D02*
X189988095Y-131903390D01*
X189988095Y-131903390D02*
X189988095Y-132284342D01*
X189988095Y-132284342D02*
X190035714Y-132379580D01*
X190035714Y-132379580D02*
X190083333Y-132427200D01*
X190083333Y-132427200D02*
X190178571Y-132474819D01*
X190178571Y-132474819D02*
X190369047Y-132474819D01*
X190369047Y-132474819D02*
X190464285Y-132427200D01*
X190464285Y-132427200D02*
X190511904Y-132379580D01*
X190511904Y-132379580D02*
X190559523Y-132284342D01*
X190559523Y-132284342D02*
X190559523Y-132046247D01*
X190559523Y-132046247D02*
X190511904Y-131951009D01*
X190511904Y-131951009D02*
X190464285Y-131903390D01*
X190464285Y-131903390D02*
X190369047Y-131855771D01*
X190369047Y-131855771D02*
X190178571Y-131855771D01*
X190178571Y-131855771D02*
X190083333Y-131903390D01*
X190083333Y-131903390D02*
X190035714Y-131951009D01*
X190035714Y-131951009D02*
X189988095Y-132046247D01*
X147682856Y-114914488D02*
X148106190Y-114914488D01*
X148287618Y-115579726D02*
X147682856Y-115579726D01*
X147682856Y-115579726D02*
X147682856Y-114309726D01*
X147682856Y-114309726D02*
X148287618Y-114309726D01*
X148771428Y-115519250D02*
X148952857Y-115579726D01*
X148952857Y-115579726D02*
X149255238Y-115579726D01*
X149255238Y-115579726D02*
X149376190Y-115519250D01*
X149376190Y-115519250D02*
X149436666Y-115458773D01*
X149436666Y-115458773D02*
X149497143Y-115337821D01*
X149497143Y-115337821D02*
X149497143Y-115216869D01*
X149497143Y-115216869D02*
X149436666Y-115095916D01*
X149436666Y-115095916D02*
X149376190Y-115035440D01*
X149376190Y-115035440D02*
X149255238Y-114974964D01*
X149255238Y-114974964D02*
X149013333Y-114914488D01*
X149013333Y-114914488D02*
X148892381Y-114854011D01*
X148892381Y-114854011D02*
X148831904Y-114793535D01*
X148831904Y-114793535D02*
X148771428Y-114672583D01*
X148771428Y-114672583D02*
X148771428Y-114551630D01*
X148771428Y-114551630D02*
X148831904Y-114430678D01*
X148831904Y-114430678D02*
X148892381Y-114370202D01*
X148892381Y-114370202D02*
X149013333Y-114309726D01*
X149013333Y-114309726D02*
X149315714Y-114309726D01*
X149315714Y-114309726D02*
X149497143Y-114370202D01*
X150041428Y-115579726D02*
X150041428Y-114309726D01*
X150041428Y-114309726D02*
X150525238Y-114309726D01*
X150525238Y-114309726D02*
X150646190Y-114370202D01*
X150646190Y-114370202D02*
X150706667Y-114430678D01*
X150706667Y-114430678D02*
X150767143Y-114551630D01*
X150767143Y-114551630D02*
X150767143Y-114733059D01*
X150767143Y-114733059D02*
X150706667Y-114854011D01*
X150706667Y-114854011D02*
X150646190Y-114914488D01*
X150646190Y-114914488D02*
X150525238Y-114974964D01*
X150525238Y-114974964D02*
X150041428Y-114974964D01*
X151190476Y-114309726D02*
X151976667Y-114309726D01*
X151976667Y-114309726D02*
X151553333Y-114793535D01*
X151553333Y-114793535D02*
X151734762Y-114793535D01*
X151734762Y-114793535D02*
X151855714Y-114854011D01*
X151855714Y-114854011D02*
X151916190Y-114914488D01*
X151916190Y-114914488D02*
X151976667Y-115035440D01*
X151976667Y-115035440D02*
X151976667Y-115337821D01*
X151976667Y-115337821D02*
X151916190Y-115458773D01*
X151916190Y-115458773D02*
X151855714Y-115519250D01*
X151855714Y-115519250D02*
X151734762Y-115579726D01*
X151734762Y-115579726D02*
X151371905Y-115579726D01*
X151371905Y-115579726D02*
X151250952Y-115519250D01*
X151250952Y-115519250D02*
X151190476Y-115458773D01*
X152460476Y-114430678D02*
X152520952Y-114370202D01*
X152520952Y-114370202D02*
X152641905Y-114309726D01*
X152641905Y-114309726D02*
X152944286Y-114309726D01*
X152944286Y-114309726D02*
X153065238Y-114370202D01*
X153065238Y-114370202D02*
X153125714Y-114430678D01*
X153125714Y-114430678D02*
X153186191Y-114551630D01*
X153186191Y-114551630D02*
X153186191Y-114672583D01*
X153186191Y-114672583D02*
X153125714Y-114854011D01*
X153125714Y-114854011D02*
X152400000Y-115579726D01*
X152400000Y-115579726D02*
X153186191Y-115579726D01*
X153730476Y-115095916D02*
X154698096Y-115095916D01*
X155181905Y-114309726D02*
X155484286Y-115579726D01*
X155484286Y-115579726D02*
X155726191Y-114672583D01*
X155726191Y-114672583D02*
X155968096Y-115579726D01*
X155968096Y-115579726D02*
X156270477Y-114309726D01*
X157480001Y-115579726D02*
X157056667Y-114974964D01*
X156754286Y-115579726D02*
X156754286Y-114309726D01*
X156754286Y-114309726D02*
X157238096Y-114309726D01*
X157238096Y-114309726D02*
X157359048Y-114370202D01*
X157359048Y-114370202D02*
X157419525Y-114430678D01*
X157419525Y-114430678D02*
X157480001Y-114551630D01*
X157480001Y-114551630D02*
X157480001Y-114733059D01*
X157480001Y-114733059D02*
X157419525Y-114854011D01*
X157419525Y-114854011D02*
X157359048Y-114914488D01*
X157359048Y-114914488D02*
X157238096Y-114974964D01*
X157238096Y-114974964D02*
X156754286Y-114974964D01*
X158266191Y-114309726D02*
X158508096Y-114309726D01*
X158508096Y-114309726D02*
X158629048Y-114370202D01*
X158629048Y-114370202D02*
X158750001Y-114491154D01*
X158750001Y-114491154D02*
X158810477Y-114733059D01*
X158810477Y-114733059D02*
X158810477Y-115156392D01*
X158810477Y-115156392D02*
X158750001Y-115398297D01*
X158750001Y-115398297D02*
X158629048Y-115519250D01*
X158629048Y-115519250D02*
X158508096Y-115579726D01*
X158508096Y-115579726D02*
X158266191Y-115579726D01*
X158266191Y-115579726D02*
X158145239Y-115519250D01*
X158145239Y-115519250D02*
X158024286Y-115398297D01*
X158024286Y-115398297D02*
X157963810Y-115156392D01*
X157963810Y-115156392D02*
X157963810Y-114733059D01*
X157963810Y-114733059D02*
X158024286Y-114491154D01*
X158024286Y-114491154D02*
X158145239Y-114370202D01*
X158145239Y-114370202D02*
X158266191Y-114309726D01*
X159596667Y-114309726D02*
X159838572Y-114309726D01*
X159838572Y-114309726D02*
X159959524Y-114370202D01*
X159959524Y-114370202D02*
X160080477Y-114491154D01*
X160080477Y-114491154D02*
X160140953Y-114733059D01*
X160140953Y-114733059D02*
X160140953Y-115156392D01*
X160140953Y-115156392D02*
X160080477Y-115398297D01*
X160080477Y-115398297D02*
X159959524Y-115519250D01*
X159959524Y-115519250D02*
X159838572Y-115579726D01*
X159838572Y-115579726D02*
X159596667Y-115579726D01*
X159596667Y-115579726D02*
X159475715Y-115519250D01*
X159475715Y-115519250D02*
X159354762Y-115398297D01*
X159354762Y-115398297D02*
X159294286Y-115156392D01*
X159294286Y-115156392D02*
X159294286Y-114733059D01*
X159294286Y-114733059D02*
X159354762Y-114491154D01*
X159354762Y-114491154D02*
X159475715Y-114370202D01*
X159475715Y-114370202D02*
X159596667Y-114309726D01*
X160685238Y-115579726D02*
X160685238Y-114309726D01*
X160685238Y-114309726D02*
X161108572Y-115216869D01*
X161108572Y-115216869D02*
X161531905Y-114309726D01*
X161531905Y-114309726D02*
X161531905Y-115579726D01*
X162136667Y-115095916D02*
X163104287Y-115095916D01*
X163709048Y-115579726D02*
X163709048Y-114309726D01*
X163709048Y-114309726D02*
X164011429Y-114309726D01*
X164011429Y-114309726D02*
X164192858Y-114370202D01*
X164192858Y-114370202D02*
X164313810Y-114491154D01*
X164313810Y-114491154D02*
X164374287Y-114612107D01*
X164374287Y-114612107D02*
X164434763Y-114854011D01*
X164434763Y-114854011D02*
X164434763Y-115035440D01*
X164434763Y-115035440D02*
X164374287Y-115277345D01*
X164374287Y-115277345D02*
X164313810Y-115398297D01*
X164313810Y-115398297D02*
X164192858Y-115519250D01*
X164192858Y-115519250D02*
X164011429Y-115579726D01*
X164011429Y-115579726D02*
X163709048Y-115579726D01*
X164918572Y-115216869D02*
X165523334Y-115216869D01*
X164797620Y-115579726D02*
X165220953Y-114309726D01*
X165220953Y-114309726D02*
X165644287Y-115579726D01*
X165765239Y-115700678D02*
X166732858Y-115700678D01*
X167035238Y-115579726D02*
X167035238Y-114309726D01*
X167035238Y-114309726D02*
X167337619Y-114309726D01*
X167337619Y-114309726D02*
X167519048Y-114370202D01*
X167519048Y-114370202D02*
X167640000Y-114491154D01*
X167640000Y-114491154D02*
X167700477Y-114612107D01*
X167700477Y-114612107D02*
X167760953Y-114854011D01*
X167760953Y-114854011D02*
X167760953Y-115035440D01*
X167760953Y-115035440D02*
X167700477Y-115277345D01*
X167700477Y-115277345D02*
X167640000Y-115398297D01*
X167640000Y-115398297D02*
X167519048Y-115519250D01*
X167519048Y-115519250D02*
X167337619Y-115579726D01*
X167337619Y-115579726D02*
X167035238Y-115579726D01*
X168789048Y-115519250D02*
X168668096Y-115579726D01*
X168668096Y-115579726D02*
X168426191Y-115579726D01*
X168426191Y-115579726D02*
X168305238Y-115519250D01*
X168305238Y-115519250D02*
X168244762Y-115398297D01*
X168244762Y-115398297D02*
X168244762Y-114914488D01*
X168244762Y-114914488D02*
X168305238Y-114793535D01*
X168305238Y-114793535D02*
X168426191Y-114733059D01*
X168426191Y-114733059D02*
X168668096Y-114733059D01*
X168668096Y-114733059D02*
X168789048Y-114793535D01*
X168789048Y-114793535D02*
X168849524Y-114914488D01*
X168849524Y-114914488D02*
X168849524Y-115035440D01*
X168849524Y-115035440D02*
X168244762Y-115156392D01*
X169272857Y-114733059D02*
X169575238Y-115579726D01*
X169575238Y-115579726D02*
X169877619Y-114733059D01*
X170361428Y-115579726D02*
X170361428Y-114309726D01*
X171087143Y-115579726D02*
X170542857Y-114854011D01*
X171087143Y-114309726D02*
X170361428Y-115035440D01*
X171631428Y-115579726D02*
X171631428Y-114733059D01*
X171631428Y-114309726D02*
X171570952Y-114370202D01*
X171570952Y-114370202D02*
X171631428Y-114430678D01*
X171631428Y-114430678D02*
X171691905Y-114370202D01*
X171691905Y-114370202D02*
X171631428Y-114309726D01*
X171631428Y-114309726D02*
X171631428Y-114430678D01*
X172054762Y-114733059D02*
X172538571Y-114733059D01*
X172236190Y-114309726D02*
X172236190Y-115398297D01*
X172236190Y-115398297D02*
X172296667Y-115519250D01*
X172296667Y-115519250D02*
X172417619Y-115579726D01*
X172417619Y-115579726D02*
X172538571Y-115579726D01*
D12*
%TO.C,C6*%
X152235000Y-79988000D02*
X152235000Y-83588000D01*
X152235000Y-83588000D02*
X153835000Y-83588000D01*
X153035000Y-77978000D02*
X153035000Y-79988000D01*
X153035000Y-85598000D02*
X153035000Y-83588000D01*
X153835000Y-79988000D02*
X152235000Y-79988000D01*
X153835000Y-83588000D02*
X153835000Y-79988000D01*
%TO.C,CON1*%
X105965000Y-117732500D02*
X105965000Y-126732500D01*
X105965000Y-126732500D02*
X120465000Y-126732500D01*
X109465000Y-117732500D02*
X109465000Y-126732500D01*
X119661787Y-117727075D02*
X120465000Y-118482500D01*
X119665000Y-117732500D02*
X105965000Y-117732500D01*
X120465000Y-126732500D02*
X120465000Y-118482500D01*
%TO.C,U2*%
X196250000Y-84100000D02*
X197250000Y-83100000D01*
X196250000Y-95900000D02*
X196250000Y-84100000D01*
X197250000Y-83100000D02*
X203750000Y-83100000D01*
X203750000Y-83100000D02*
X203750000Y-95900000D01*
X203750000Y-95900000D02*
X196250000Y-95900000D01*
%TO.C,U3*%
X198050000Y-74150000D02*
X199025000Y-73175000D01*
X198050000Y-81825000D02*
X198050000Y-74150000D01*
X199025000Y-73175000D02*
X201950000Y-73175000D01*
X201950000Y-73175000D02*
X201950000Y-81825000D01*
X201950000Y-81825000D02*
X198050000Y-81825000D01*
%TO.C,R1*%
X193738500Y-108315000D02*
X194738500Y-107315000D01*
X193738500Y-127635000D02*
X193738500Y-108315000D01*
X194738500Y-107315000D02*
X200088500Y-107315000D01*
X200088500Y-107315000D02*
X200088500Y-127635000D01*
X200088500Y-127635000D02*
X193738500Y-127635000D01*
D10*
%TO.C,U1*%
X137728000Y-81204000D02*
X138728000Y-80204000D01*
X137728000Y-98104000D02*
X137728000Y-81204000D01*
X138728000Y-80204000D02*
X145228000Y-80204000D01*
X145228000Y-80204000D02*
X145228000Y-98104000D01*
X145228000Y-98104000D02*
X137728000Y-98104000D01*
D12*
%TO.C,R9*%
X183700000Y-82360000D02*
X183700000Y-85960000D01*
X183700000Y-85960000D02*
X185300000Y-85960000D01*
X184500000Y-80350000D02*
X184500000Y-82360000D01*
X184500000Y-87970000D02*
X184500000Y-85960000D01*
X185300000Y-82360000D02*
X183700000Y-82360000D01*
X185300000Y-85960000D02*
X185300000Y-82360000D01*
%TO.C,U5*%
X133770000Y-100750000D02*
X186270000Y-100750000D01*
X133770000Y-129250000D02*
X133770000Y-100750000D01*
X140270000Y-100750000D02*
X140270000Y-129250000D01*
X141270000Y-106000000D02*
X166770000Y-106000000D01*
X141270000Y-124000000D02*
X141270000Y-106000000D01*
X166770000Y-106000000D02*
X166770000Y-124000000D01*
X166770000Y-124000000D02*
X141270000Y-124000000D01*
X181770000Y-110400000D02*
X187270000Y-110400000D01*
X181770000Y-119600000D02*
X181770000Y-110400000D01*
X186270000Y-100750000D02*
X186270000Y-129250000D01*
X186270000Y-129250000D02*
X133770000Y-129250000D01*
X187270000Y-110400000D02*
X187270000Y-119600000D01*
X187270000Y-119600000D02*
X181770000Y-119600000D01*
%TD*%
M02*
