%TF.GenerationSoftware,KiCad,Pcbnew,9.0.8+dfsg-1*%
%TF.CreationDate,2026-07-05T22:45:28+02:00*%
%TF.ProjectId,RetroWiFiModem,52657472-6f57-4694-9669-4d6f64656d2e,0.3*%
%TF.SameCoordinates,Original*%
%TF.FileFunction,Other,User*%
%FSLAX46Y46*%
G04 Gerber Fmt 4.6, Leading zero omitted, Abs format (unit mm)*
G04 Created by KiCad (PCBNEW 9.0.8+dfsg-1) date 2026-07-05 22:45:28*
%MOMM*%
%LPD*%
G01*
G04 APERTURE LIST*
%ADD10C,0.050000*%
%ADD11C,0.120000*%
G04 APERTURE END LIST*
D10*
%TO.C,C1*%
X126008000Y-79999000D02*
X129008000Y-79999000D01*
X126008000Y-84299000D02*
X126008000Y-79999000D01*
X129008000Y-79999000D02*
X129008000Y-84299000D01*
X129008000Y-84299000D02*
X126008000Y-84299000D01*
%TO.C,C2*%
X129564000Y-81309000D02*
X132564000Y-81309000D01*
X129564000Y-85609000D02*
X129564000Y-81309000D01*
X132564000Y-81309000D02*
X132564000Y-85609000D01*
X132564000Y-85609000D02*
X129564000Y-85609000D01*
%TO.C,C3*%
X142610000Y-76605000D02*
X146910000Y-76605000D01*
X142610000Y-79605000D02*
X142610000Y-76605000D01*
X146910000Y-76605000D02*
X146910000Y-79605000D01*
X146910000Y-79605000D02*
X142610000Y-79605000D01*
%TO.C,C4*%
X148360000Y-80039000D02*
X151360000Y-80039000D01*
X148360000Y-84339000D02*
X148360000Y-80039000D01*
X151360000Y-80039000D02*
X151360000Y-84339000D01*
X151360000Y-84339000D02*
X148360000Y-84339000D01*
%TO.C,C5*%
X204000000Y-97100000D02*
X207000000Y-97100000D01*
X204000000Y-101400000D02*
X204000000Y-97100000D01*
X207000000Y-97100000D02*
X207000000Y-101400000D01*
X207000000Y-101400000D02*
X204000000Y-101400000D01*
%TO.C,C7*%
X156320000Y-95710000D02*
X160620000Y-95710000D01*
X156320000Y-98710000D02*
X156320000Y-95710000D01*
X160620000Y-95710000D02*
X160620000Y-98710000D01*
X160620000Y-98710000D02*
X156320000Y-98710000D01*
%TO.C,D8*%
X203440000Y-129544000D02*
X203440000Y-134544000D01*
X203440000Y-134544000D02*
X207940000Y-134544000D01*
X207940000Y-129544000D02*
X203440000Y-129544000D01*
X207940000Y-134544000D02*
X207940000Y-129544000D01*
%TO.C,D7*%
X203440000Y-122940000D02*
X203440000Y-127940000D01*
X203440000Y-127940000D02*
X207940000Y-127940000D01*
X207940000Y-122940000D02*
X203440000Y-122940000D01*
X207940000Y-127940000D02*
X207940000Y-122940000D01*
%TO.C,D6*%
X203440000Y-116336000D02*
X203440000Y-121336000D01*
X203440000Y-121336000D02*
X207940000Y-121336000D01*
X207940000Y-116336000D02*
X203440000Y-116336000D01*
X207940000Y-121336000D02*
X207940000Y-116336000D01*
%TO.C,D5*%
X203440000Y-109732000D02*
X203440000Y-114732000D01*
X203440000Y-114732000D02*
X207940000Y-114732000D01*
X207940000Y-109732000D02*
X203440000Y-109732000D01*
X207940000Y-114732000D02*
X207940000Y-109732000D01*
%TO.C,D4*%
X203440000Y-103128000D02*
X203440000Y-108128000D01*
X203440000Y-108128000D02*
X207940000Y-108128000D01*
X207940000Y-103128000D02*
X203440000Y-103128000D01*
X207940000Y-108128000D02*
X207940000Y-103128000D01*
%TO.C,D3*%
X203440000Y-96524000D02*
X203440000Y-101524000D01*
X203440000Y-101524000D02*
X207940000Y-101524000D01*
X207940000Y-96524000D02*
X203440000Y-96524000D01*
X207940000Y-101524000D02*
X207940000Y-96524000D01*
%TO.C,D2*%
X203440000Y-89920000D02*
X203440000Y-94920000D01*
X203440000Y-94920000D02*
X207940000Y-94920000D01*
X207940000Y-89920000D02*
X203440000Y-89920000D01*
X207940000Y-94920000D02*
X207940000Y-89920000D01*
%TO.C,D1*%
X203440000Y-83316000D02*
X203440000Y-88316000D01*
X203440000Y-88316000D02*
X207940000Y-88316000D01*
X207940000Y-83316000D02*
X203440000Y-83316000D01*
X207940000Y-88316000D02*
X207940000Y-83316000D01*
%TO.C,P1*%
X122855000Y-86465000D02*
X132455000Y-86465000D01*
X122855000Y-107315000D02*
X122855000Y-86465000D01*
X132455000Y-86465000D02*
X132455000Y-107315000D01*
X132455000Y-107315000D02*
X122855000Y-107315000D01*
D11*
%TO.C,C6*%
X151985000Y-77028000D02*
X154085000Y-77028000D01*
X151985000Y-86548000D02*
X151985000Y-77028000D01*
X154085000Y-77028000D02*
X154085000Y-86548000D01*
X154085000Y-86548000D02*
X151985000Y-86548000D01*
D10*
%TO.C,C8*%
X204000000Y-76600000D02*
X207000000Y-76600000D01*
X204000000Y-80900000D02*
X204000000Y-76600000D01*
X207000000Y-76600000D02*
X207000000Y-80900000D01*
X207000000Y-80900000D02*
X204000000Y-80900000D01*
%TO.C,U4*%
X155972000Y-89679000D02*
X163072000Y-89679000D01*
X155972000Y-94279000D02*
X155972000Y-89679000D01*
X155972000Y-94279000D02*
X163072000Y-94279000D01*
X163072000Y-94279000D02*
X163072000Y-89679000D01*
%TO.C,CON1*%
X105665000Y-126982500D02*
X105665000Y-117482500D01*
X114665000Y-126982500D02*
X105665000Y-126982500D01*
X114665000Y-128982500D02*
X114665000Y-126982500D01*
X118665000Y-126982500D02*
X118665000Y-128982500D01*
X118665000Y-128982500D02*
X114665000Y-128982500D01*
X120665000Y-117482500D02*
X105665000Y-117482500D01*
X120665000Y-117732500D02*
X120665000Y-117482500D01*
X120665000Y-117732500D02*
X120665000Y-120232500D01*
X120665000Y-120232500D02*
X121665000Y-120232500D01*
X120665000Y-124232500D02*
X120665000Y-126982500D01*
X120665000Y-126982500D02*
X118665000Y-126982500D01*
X121665000Y-120232500D02*
X121665000Y-124232500D01*
X121665000Y-124232500D02*
X120665000Y-124232500D01*
%TO.C,U2*%
X194070000Y-82850000D02*
X194070000Y-96150000D01*
X194070000Y-96150000D02*
X205930000Y-96150000D01*
X205930000Y-82850000D02*
X194070000Y-82850000D01*
X205930000Y-96150000D02*
X205930000Y-82850000D01*
%TO.C,U3*%
X196300000Y-72920000D02*
X196300000Y-82080000D01*
X196300000Y-82080000D02*
X203700000Y-82080000D01*
X203700000Y-72920000D02*
X196300000Y-72920000D01*
X203700000Y-82080000D02*
X203700000Y-72920000D01*
%TO.C,R1*%
X191653500Y-107035000D02*
X191653500Y-127885000D01*
X191653500Y-127885000D02*
X202203500Y-127885000D01*
X202203500Y-107035000D02*
X191653500Y-107035000D01*
X202203500Y-127885000D02*
X202203500Y-107035000D01*
%TO.C,U1*%
X135528000Y-79854000D02*
X135528000Y-98454000D01*
X135528000Y-79854000D02*
X147428000Y-79854000D01*
X135528000Y-98454000D02*
X147428000Y-98454000D01*
X147428000Y-79854000D02*
X147428000Y-98454000D01*
D11*
%TO.C,R9*%
X183450000Y-79400000D02*
X185550000Y-79400000D01*
X183450000Y-88920000D02*
X183450000Y-79400000D01*
X185550000Y-79400000D02*
X185550000Y-88920000D01*
X185550000Y-88920000D02*
X183450000Y-88920000D01*
D10*
%TO.C,H2*%
X161150000Y-85770000D02*
G75*
G02*
X157750000Y-85770000I-1700000J0D01*
G01*
X157750000Y-85770000D02*
G75*
G02*
X161150000Y-85770000I1700000J0D01*
G01*
%TO.C,H3*%
X191150000Y-85770000D02*
G75*
G02*
X187750000Y-85770000I-1700000J0D01*
G01*
X187750000Y-85770000D02*
G75*
G02*
X191150000Y-85770000I1700000J0D01*
G01*
%TO.C,H4*%
X121150000Y-132020000D02*
G75*
G02*
X117750000Y-132020000I-1700000J0D01*
G01*
X117750000Y-132020000D02*
G75*
G02*
X121150000Y-132020000I1700000J0D01*
G01*
%TO.C,H5*%
X161150000Y-132020000D02*
G75*
G02*
X157750000Y-132020000I-1700000J0D01*
G01*
X157750000Y-132020000D02*
G75*
G02*
X161150000Y-132020000I1700000J0D01*
G01*
%TO.C,H1*%
X121150000Y-85770000D02*
G75*
G02*
X117750000Y-85770000I-1700000J0D01*
G01*
X117750000Y-85770000D02*
G75*
G02*
X121150000Y-85770000I1700000J0D01*
G01*
%TO.C,H6*%
X191150000Y-132020000D02*
G75*
G02*
X187750000Y-132020000I-1700000J0D01*
G01*
X187750000Y-132020000D02*
G75*
G02*
X191150000Y-132020000I1700000J0D01*
G01*
%TD*%
M02*
