%TF.GenerationSoftware,KiCad,Pcbnew,9.0.8+dfsg-1*%
%TF.CreationDate,2026-07-05T22:45:28+02:00*%
%TF.ProjectId,RetroWiFiModem,52657472-6f57-4694-9669-4d6f64656d2e,0.3*%
%TF.SameCoordinates,Original*%
%TF.FileFunction,Legend,Bot*%
%TF.FilePolarity,Positive*%
%FSLAX46Y46*%
G04 Gerber Fmt 4.6, Leading zero omitted, Abs format (unit mm)*
G04 Created by KiCad (PCBNEW 9.0.8+dfsg-1) date 2026-07-05 22:45:28*
%MOMM*%
%LPD*%
G01*
G04 APERTURE LIST*
%ADD10C,0.300000*%
G04 APERTURE END LIST*
D10*
X115264285Y-116089757D02*
X115407143Y-116018328D01*
X115407143Y-116018328D02*
X115621428Y-116018328D01*
X115621428Y-116018328D02*
X115835714Y-116089757D01*
X115835714Y-116089757D02*
X115978571Y-116232614D01*
X115978571Y-116232614D02*
X116050000Y-116375471D01*
X116050000Y-116375471D02*
X116121428Y-116661185D01*
X116121428Y-116661185D02*
X116121428Y-116875471D01*
X116121428Y-116875471D02*
X116050000Y-117161185D01*
X116050000Y-117161185D02*
X115978571Y-117304042D01*
X115978571Y-117304042D02*
X115835714Y-117446900D01*
X115835714Y-117446900D02*
X115621428Y-117518328D01*
X115621428Y-117518328D02*
X115478571Y-117518328D01*
X115478571Y-117518328D02*
X115264285Y-117446900D01*
X115264285Y-117446900D02*
X115192857Y-117375471D01*
X115192857Y-117375471D02*
X115192857Y-116875471D01*
X115192857Y-116875471D02*
X115478571Y-116875471D01*
X114550000Y-116518328D02*
X114550000Y-117518328D01*
X114550000Y-116661185D02*
X114478571Y-116589757D01*
X114478571Y-116589757D02*
X114335714Y-116518328D01*
X114335714Y-116518328D02*
X114121428Y-116518328D01*
X114121428Y-116518328D02*
X113978571Y-116589757D01*
X113978571Y-116589757D02*
X113907143Y-116732614D01*
X113907143Y-116732614D02*
X113907143Y-117518328D01*
X112550000Y-117518328D02*
X112550000Y-116018328D01*
X112550000Y-117446900D02*
X112692857Y-117518328D01*
X112692857Y-117518328D02*
X112978571Y-117518328D01*
X112978571Y-117518328D02*
X113121428Y-117446900D01*
X113121428Y-117446900D02*
X113192857Y-117375471D01*
X113192857Y-117375471D02*
X113264285Y-117232614D01*
X113264285Y-117232614D02*
X113264285Y-116804042D01*
X113264285Y-116804042D02*
X113192857Y-116661185D01*
X113192857Y-116661185D02*
X113121428Y-116589757D01*
X113121428Y-116589757D02*
X112978571Y-116518328D01*
X112978571Y-116518328D02*
X112692857Y-116518328D01*
X112692857Y-116518328D02*
X112550000Y-116589757D01*
X122578571Y-116946900D02*
X121435714Y-116946900D01*
X122007142Y-117518328D02*
X122007142Y-116375471D01*
X120007142Y-116018328D02*
X120721428Y-116018328D01*
X120721428Y-116018328D02*
X120792856Y-116732614D01*
X120792856Y-116732614D02*
X120721428Y-116661185D01*
X120721428Y-116661185D02*
X120578571Y-116589757D01*
X120578571Y-116589757D02*
X120221428Y-116589757D01*
X120221428Y-116589757D02*
X120078571Y-116661185D01*
X120078571Y-116661185D02*
X120007142Y-116732614D01*
X120007142Y-116732614D02*
X119935713Y-116875471D01*
X119935713Y-116875471D02*
X119935713Y-117232614D01*
X119935713Y-117232614D02*
X120007142Y-117375471D01*
X120007142Y-117375471D02*
X120078571Y-117446900D01*
X120078571Y-117446900D02*
X120221428Y-117518328D01*
X120221428Y-117518328D02*
X120578571Y-117518328D01*
X120578571Y-117518328D02*
X120721428Y-117446900D01*
X120721428Y-117446900D02*
X120792856Y-117375471D01*
X119507142Y-116018328D02*
X119007142Y-117518328D01*
X119007142Y-117518328D02*
X118507142Y-116018328D01*
X148156285Y-133137412D02*
X148656285Y-132423126D01*
X149013428Y-133137412D02*
X149013428Y-131637412D01*
X149013428Y-131637412D02*
X148441999Y-131637412D01*
X148441999Y-131637412D02*
X148299142Y-131708841D01*
X148299142Y-131708841D02*
X148227713Y-131780269D01*
X148227713Y-131780269D02*
X148156285Y-131923126D01*
X148156285Y-131923126D02*
X148156285Y-132137412D01*
X148156285Y-132137412D02*
X148227713Y-132280269D01*
X148227713Y-132280269D02*
X148299142Y-132351698D01*
X148299142Y-132351698D02*
X148441999Y-132423126D01*
X148441999Y-132423126D02*
X149013428Y-132423126D01*
X146941999Y-133065984D02*
X147084856Y-133137412D01*
X147084856Y-133137412D02*
X147370571Y-133137412D01*
X147370571Y-133137412D02*
X147513428Y-133065984D01*
X147513428Y-133065984D02*
X147584856Y-132923126D01*
X147584856Y-132923126D02*
X147584856Y-132351698D01*
X147584856Y-132351698D02*
X147513428Y-132208841D01*
X147513428Y-132208841D02*
X147370571Y-132137412D01*
X147370571Y-132137412D02*
X147084856Y-132137412D01*
X147084856Y-132137412D02*
X146941999Y-132208841D01*
X146941999Y-132208841D02*
X146870571Y-132351698D01*
X146870571Y-132351698D02*
X146870571Y-132494555D01*
X146870571Y-132494555D02*
X147584856Y-132637412D01*
X146441999Y-132137412D02*
X145870571Y-132137412D01*
X146227714Y-131637412D02*
X146227714Y-132923126D01*
X146227714Y-132923126D02*
X146156285Y-133065984D01*
X146156285Y-133065984D02*
X146013428Y-133137412D01*
X146013428Y-133137412D02*
X145870571Y-133137412D01*
X145370571Y-133137412D02*
X145370571Y-132137412D01*
X145370571Y-132423126D02*
X145299142Y-132280269D01*
X145299142Y-132280269D02*
X145227714Y-132208841D01*
X145227714Y-132208841D02*
X145084856Y-132137412D01*
X145084856Y-132137412D02*
X144941999Y-132137412D01*
X144227714Y-133137412D02*
X144370571Y-133065984D01*
X144370571Y-133065984D02*
X144442000Y-132994555D01*
X144442000Y-132994555D02*
X144513428Y-132851698D01*
X144513428Y-132851698D02*
X144513428Y-132423126D01*
X144513428Y-132423126D02*
X144442000Y-132280269D01*
X144442000Y-132280269D02*
X144370571Y-132208841D01*
X144370571Y-132208841D02*
X144227714Y-132137412D01*
X144227714Y-132137412D02*
X144013428Y-132137412D01*
X144013428Y-132137412D02*
X143870571Y-132208841D01*
X143870571Y-132208841D02*
X143799143Y-132280269D01*
X143799143Y-132280269D02*
X143727714Y-132423126D01*
X143727714Y-132423126D02*
X143727714Y-132851698D01*
X143727714Y-132851698D02*
X143799143Y-132994555D01*
X143799143Y-132994555D02*
X143870571Y-133065984D01*
X143870571Y-133065984D02*
X144013428Y-133137412D01*
X144013428Y-133137412D02*
X144227714Y-133137412D01*
X142084857Y-131637412D02*
X141727714Y-133137412D01*
X141727714Y-133137412D02*
X141442000Y-132065984D01*
X141442000Y-132065984D02*
X141156285Y-133137412D01*
X141156285Y-133137412D02*
X140799143Y-131637412D01*
X140227714Y-133137412D02*
X140227714Y-132137412D01*
X140227714Y-131637412D02*
X140299142Y-131708841D01*
X140299142Y-131708841D02*
X140227714Y-131780269D01*
X140227714Y-131780269D02*
X140156285Y-131708841D01*
X140156285Y-131708841D02*
X140227714Y-131637412D01*
X140227714Y-131637412D02*
X140227714Y-131780269D01*
X139013428Y-132351698D02*
X139513428Y-132351698D01*
X139513428Y-133137412D02*
X139513428Y-131637412D01*
X139513428Y-131637412D02*
X138799142Y-131637412D01*
X138227714Y-133137412D02*
X138227714Y-132137412D01*
X138227714Y-131637412D02*
X138299142Y-131708841D01*
X138299142Y-131708841D02*
X138227714Y-131780269D01*
X138227714Y-131780269D02*
X138156285Y-131708841D01*
X138156285Y-131708841D02*
X138227714Y-131637412D01*
X138227714Y-131637412D02*
X138227714Y-131780269D01*
X136370571Y-133137412D02*
X136370571Y-131637412D01*
X136370571Y-131637412D02*
X135870571Y-132708841D01*
X135870571Y-132708841D02*
X135370571Y-131637412D01*
X135370571Y-131637412D02*
X135370571Y-133137412D01*
X134441999Y-133137412D02*
X134584856Y-133065984D01*
X134584856Y-133065984D02*
X134656285Y-132994555D01*
X134656285Y-132994555D02*
X134727713Y-132851698D01*
X134727713Y-132851698D02*
X134727713Y-132423126D01*
X134727713Y-132423126D02*
X134656285Y-132280269D01*
X134656285Y-132280269D02*
X134584856Y-132208841D01*
X134584856Y-132208841D02*
X134441999Y-132137412D01*
X134441999Y-132137412D02*
X134227713Y-132137412D01*
X134227713Y-132137412D02*
X134084856Y-132208841D01*
X134084856Y-132208841D02*
X134013428Y-132280269D01*
X134013428Y-132280269D02*
X133941999Y-132423126D01*
X133941999Y-132423126D02*
X133941999Y-132851698D01*
X133941999Y-132851698D02*
X134013428Y-132994555D01*
X134013428Y-132994555D02*
X134084856Y-133065984D01*
X134084856Y-133065984D02*
X134227713Y-133137412D01*
X134227713Y-133137412D02*
X134441999Y-133137412D01*
X132656285Y-133137412D02*
X132656285Y-131637412D01*
X132656285Y-133065984D02*
X132799142Y-133137412D01*
X132799142Y-133137412D02*
X133084856Y-133137412D01*
X133084856Y-133137412D02*
X133227713Y-133065984D01*
X133227713Y-133065984D02*
X133299142Y-132994555D01*
X133299142Y-132994555D02*
X133370570Y-132851698D01*
X133370570Y-132851698D02*
X133370570Y-132423126D01*
X133370570Y-132423126D02*
X133299142Y-132280269D01*
X133299142Y-132280269D02*
X133227713Y-132208841D01*
X133227713Y-132208841D02*
X133084856Y-132137412D01*
X133084856Y-132137412D02*
X132799142Y-132137412D01*
X132799142Y-132137412D02*
X132656285Y-132208841D01*
X131370570Y-133065984D02*
X131513427Y-133137412D01*
X131513427Y-133137412D02*
X131799142Y-133137412D01*
X131799142Y-133137412D02*
X131941999Y-133065984D01*
X131941999Y-133065984D02*
X132013427Y-132923126D01*
X132013427Y-132923126D02*
X132013427Y-132351698D01*
X132013427Y-132351698D02*
X131941999Y-132208841D01*
X131941999Y-132208841D02*
X131799142Y-132137412D01*
X131799142Y-132137412D02*
X131513427Y-132137412D01*
X131513427Y-132137412D02*
X131370570Y-132208841D01*
X131370570Y-132208841D02*
X131299142Y-132351698D01*
X131299142Y-132351698D02*
X131299142Y-132494555D01*
X131299142Y-132494555D02*
X132013427Y-132637412D01*
X130656285Y-133137412D02*
X130656285Y-132137412D01*
X130656285Y-132280269D02*
X130584856Y-132208841D01*
X130584856Y-132208841D02*
X130441999Y-132137412D01*
X130441999Y-132137412D02*
X130227713Y-132137412D01*
X130227713Y-132137412D02*
X130084856Y-132208841D01*
X130084856Y-132208841D02*
X130013428Y-132351698D01*
X130013428Y-132351698D02*
X130013428Y-133137412D01*
X130013428Y-132351698D02*
X129941999Y-132208841D01*
X129941999Y-132208841D02*
X129799142Y-132137412D01*
X129799142Y-132137412D02*
X129584856Y-132137412D01*
X129584856Y-132137412D02*
X129441999Y-132208841D01*
X129441999Y-132208841D02*
X129370570Y-132351698D01*
X129370570Y-132351698D02*
X129370570Y-133137412D01*
X143441999Y-135552328D02*
X143441999Y-134052328D01*
X143441999Y-134052328D02*
X142870570Y-134052328D01*
X142870570Y-134052328D02*
X142727713Y-134123757D01*
X142727713Y-134123757D02*
X142656284Y-134195185D01*
X142656284Y-134195185D02*
X142584856Y-134338042D01*
X142584856Y-134338042D02*
X142584856Y-134552328D01*
X142584856Y-134552328D02*
X142656284Y-134695185D01*
X142656284Y-134695185D02*
X142727713Y-134766614D01*
X142727713Y-134766614D02*
X142870570Y-134838042D01*
X142870570Y-134838042D02*
X143441999Y-134838042D01*
X141084856Y-135409471D02*
X141156284Y-135480900D01*
X141156284Y-135480900D02*
X141370570Y-135552328D01*
X141370570Y-135552328D02*
X141513427Y-135552328D01*
X141513427Y-135552328D02*
X141727713Y-135480900D01*
X141727713Y-135480900D02*
X141870570Y-135338042D01*
X141870570Y-135338042D02*
X141941999Y-135195185D01*
X141941999Y-135195185D02*
X142013427Y-134909471D01*
X142013427Y-134909471D02*
X142013427Y-134695185D01*
X142013427Y-134695185D02*
X141941999Y-134409471D01*
X141941999Y-134409471D02*
X141870570Y-134266614D01*
X141870570Y-134266614D02*
X141727713Y-134123757D01*
X141727713Y-134123757D02*
X141513427Y-134052328D01*
X141513427Y-134052328D02*
X141370570Y-134052328D01*
X141370570Y-134052328D02*
X141156284Y-134123757D01*
X141156284Y-134123757D02*
X141084856Y-134195185D01*
X139941999Y-134766614D02*
X139727713Y-134838042D01*
X139727713Y-134838042D02*
X139656284Y-134909471D01*
X139656284Y-134909471D02*
X139584856Y-135052328D01*
X139584856Y-135052328D02*
X139584856Y-135266614D01*
X139584856Y-135266614D02*
X139656284Y-135409471D01*
X139656284Y-135409471D02*
X139727713Y-135480900D01*
X139727713Y-135480900D02*
X139870570Y-135552328D01*
X139870570Y-135552328D02*
X140441999Y-135552328D01*
X140441999Y-135552328D02*
X140441999Y-134052328D01*
X140441999Y-134052328D02*
X139941999Y-134052328D01*
X139941999Y-134052328D02*
X139799142Y-134123757D01*
X139799142Y-134123757D02*
X139727713Y-134195185D01*
X139727713Y-134195185D02*
X139656284Y-134338042D01*
X139656284Y-134338042D02*
X139656284Y-134480900D01*
X139656284Y-134480900D02*
X139727713Y-134623757D01*
X139727713Y-134623757D02*
X139799142Y-134695185D01*
X139799142Y-134695185D02*
X139941999Y-134766614D01*
X139941999Y-134766614D02*
X140441999Y-134766614D01*
X137870570Y-134195185D02*
X137799142Y-134123757D01*
X137799142Y-134123757D02*
X137656285Y-134052328D01*
X137656285Y-134052328D02*
X137299142Y-134052328D01*
X137299142Y-134052328D02*
X137156285Y-134123757D01*
X137156285Y-134123757D02*
X137084856Y-134195185D01*
X137084856Y-134195185D02*
X137013427Y-134338042D01*
X137013427Y-134338042D02*
X137013427Y-134480900D01*
X137013427Y-134480900D02*
X137084856Y-134695185D01*
X137084856Y-134695185D02*
X137941999Y-135552328D01*
X137941999Y-135552328D02*
X137013427Y-135552328D01*
X136370571Y-135409471D02*
X136299142Y-135480900D01*
X136299142Y-135480900D02*
X136370571Y-135552328D01*
X136370571Y-135552328D02*
X136441999Y-135480900D01*
X136441999Y-135480900D02*
X136370571Y-135409471D01*
X136370571Y-135409471D02*
X136370571Y-135552328D01*
X135727713Y-134195185D02*
X135656285Y-134123757D01*
X135656285Y-134123757D02*
X135513428Y-134052328D01*
X135513428Y-134052328D02*
X135156285Y-134052328D01*
X135156285Y-134052328D02*
X135013428Y-134123757D01*
X135013428Y-134123757D02*
X134941999Y-134195185D01*
X134941999Y-134195185D02*
X134870570Y-134338042D01*
X134870570Y-134338042D02*
X134870570Y-134480900D01*
X134870570Y-134480900D02*
X134941999Y-134695185D01*
X134941999Y-134695185D02*
X135799142Y-135552328D01*
X135799142Y-135552328D02*
X134870570Y-135552328D01*
X147227712Y-137538673D02*
X146513427Y-137538673D01*
X147370569Y-137967244D02*
X146870569Y-136467244D01*
X146870569Y-136467244D02*
X146370569Y-137967244D01*
X145870570Y-136967244D02*
X145870570Y-138467244D01*
X145870570Y-137038673D02*
X145727713Y-136967244D01*
X145727713Y-136967244D02*
X145441998Y-136967244D01*
X145441998Y-136967244D02*
X145299141Y-137038673D01*
X145299141Y-137038673D02*
X145227713Y-137110101D01*
X145227713Y-137110101D02*
X145156284Y-137252958D01*
X145156284Y-137252958D02*
X145156284Y-137681530D01*
X145156284Y-137681530D02*
X145227713Y-137824387D01*
X145227713Y-137824387D02*
X145299141Y-137895816D01*
X145299141Y-137895816D02*
X145441998Y-137967244D01*
X145441998Y-137967244D02*
X145727713Y-137967244D01*
X145727713Y-137967244D02*
X145870570Y-137895816D01*
X144513427Y-137967244D02*
X144513427Y-136967244D01*
X144513427Y-137252958D02*
X144441998Y-137110101D01*
X144441998Y-137110101D02*
X144370570Y-137038673D01*
X144370570Y-137038673D02*
X144227712Y-136967244D01*
X144227712Y-136967244D02*
X144084855Y-136967244D01*
X143584856Y-137967244D02*
X143584856Y-136967244D01*
X143584856Y-136467244D02*
X143656284Y-136538673D01*
X143656284Y-136538673D02*
X143584856Y-136610101D01*
X143584856Y-136610101D02*
X143513427Y-136538673D01*
X143513427Y-136538673D02*
X143584856Y-136467244D01*
X143584856Y-136467244D02*
X143584856Y-136610101D01*
X142656284Y-137967244D02*
X142799141Y-137895816D01*
X142799141Y-137895816D02*
X142870570Y-137752958D01*
X142870570Y-137752958D02*
X142870570Y-136467244D01*
X140156284Y-137967244D02*
X141013427Y-137967244D01*
X140584856Y-137967244D02*
X140584856Y-136467244D01*
X140584856Y-136467244D02*
X140727713Y-136681530D01*
X140727713Y-136681530D02*
X140870570Y-136824387D01*
X140870570Y-136824387D02*
X141013427Y-136895816D01*
X139656285Y-136467244D02*
X138656285Y-136467244D01*
X138656285Y-136467244D02*
X139299142Y-137967244D01*
X138013428Y-137895816D02*
X138013428Y-137967244D01*
X138013428Y-137967244D02*
X138084857Y-138110101D01*
X138084857Y-138110101D02*
X138156285Y-138181530D01*
X136299142Y-136610101D02*
X136227714Y-136538673D01*
X136227714Y-136538673D02*
X136084857Y-136467244D01*
X136084857Y-136467244D02*
X135727714Y-136467244D01*
X135727714Y-136467244D02*
X135584857Y-136538673D01*
X135584857Y-136538673D02*
X135513428Y-136610101D01*
X135513428Y-136610101D02*
X135441999Y-136752958D01*
X135441999Y-136752958D02*
X135441999Y-136895816D01*
X135441999Y-136895816D02*
X135513428Y-137110101D01*
X135513428Y-137110101D02*
X136370571Y-137967244D01*
X136370571Y-137967244D02*
X135441999Y-137967244D01*
X134513428Y-136467244D02*
X134370571Y-136467244D01*
X134370571Y-136467244D02*
X134227714Y-136538673D01*
X134227714Y-136538673D02*
X134156286Y-136610101D01*
X134156286Y-136610101D02*
X134084857Y-136752958D01*
X134084857Y-136752958D02*
X134013428Y-137038673D01*
X134013428Y-137038673D02*
X134013428Y-137395816D01*
X134013428Y-137395816D02*
X134084857Y-137681530D01*
X134084857Y-137681530D02*
X134156286Y-137824387D01*
X134156286Y-137824387D02*
X134227714Y-137895816D01*
X134227714Y-137895816D02*
X134370571Y-137967244D01*
X134370571Y-137967244D02*
X134513428Y-137967244D01*
X134513428Y-137967244D02*
X134656286Y-137895816D01*
X134656286Y-137895816D02*
X134727714Y-137824387D01*
X134727714Y-137824387D02*
X134799143Y-137681530D01*
X134799143Y-137681530D02*
X134870571Y-137395816D01*
X134870571Y-137395816D02*
X134870571Y-137038673D01*
X134870571Y-137038673D02*
X134799143Y-136752958D01*
X134799143Y-136752958D02*
X134727714Y-136610101D01*
X134727714Y-136610101D02*
X134656286Y-136538673D01*
X134656286Y-136538673D02*
X134513428Y-136467244D01*
X133442000Y-136610101D02*
X133370572Y-136538673D01*
X133370572Y-136538673D02*
X133227715Y-136467244D01*
X133227715Y-136467244D02*
X132870572Y-136467244D01*
X132870572Y-136467244D02*
X132727715Y-136538673D01*
X132727715Y-136538673D02*
X132656286Y-136610101D01*
X132656286Y-136610101D02*
X132584857Y-136752958D01*
X132584857Y-136752958D02*
X132584857Y-136895816D01*
X132584857Y-136895816D02*
X132656286Y-137110101D01*
X132656286Y-137110101D02*
X133513429Y-137967244D01*
X133513429Y-137967244D02*
X132584857Y-137967244D01*
X131299144Y-136967244D02*
X131299144Y-137967244D01*
X131656286Y-136395816D02*
X132013429Y-137467244D01*
X132013429Y-137467244D02*
X131084858Y-137467244D01*
M02*
