M48
; DRILL file {KiCad 9.0.8+dfsg-1} date 2026-07-05T22:33:21+0200
; FORMAT={-:-/ absolute / metric / decimal}
; #@! TF.CreationDate,2026-07-05T22:33:21+02:00
; #@! TF.GenerationSoftware,Kicad,Pcbnew,9.0.8+dfsg-1
; #@! TF.FileFunction,MixedPlating,1,2
FMAT,2
METRIC
; #@! TA.AperFunction,Plated,PTH,ViaDrill
T1C0.400
; #@! TA.AperFunction,Plated,PTH,ComponentDrill
T2C0.800
; #@! TA.AperFunction,Plated,PTH,ComponentDrill
T3C1.000
; #@! TA.AperFunction,NonPlated,NPTH,ComponentDrill
T4C3.200
%
G90
G05
T1
X124.714Y-87.249
X131.826Y-85.979
X132.461Y-88.519
X132.461Y-101.981
X133.477Y-89.789
X133.477Y-96.901
X134.112Y-91.059
X134.112Y-100.711
X135.001Y-92.329
X135.001Y-103.632
X135.7Y-96.14
X135.7Y-121.3
X143.51Y-83.312
X143.51Y-97.409
X144.2Y-127.0
X144.272Y-82.169
X144.6Y-91.06
X144.78Y-102.0
X145.3Y-128.2
X148.2Y-87.25
X149.0Y-89.79
X149.0Y-92.33
X149.0Y-93.6
X149.0Y-94.87
X151.13Y-122.0
X152.4Y-110.5
X152.4Y-121.3
X153.67Y-103.4
X154.432Y-87.376
X155.575Y-83.185
X156.21Y-114.935
X158.75Y-110.5
X162.9Y-127.9
X163.195Y-111.125
X168.8Y-112.9
X168.8Y-121.3
X168.91Y-130.18
X169.7Y-128.91
X170.8Y-122.0
X173.355Y-111.125
X173.99Y-114.94
X173.99Y-131.44
X174.3Y-136.53
X174.63Y-112.39
X175.4Y-135.25
X176.5Y-133.99
X180.34Y-123.83
X182.245Y-128.905
X182.245Y-130.175
X183.515Y-131.445
X184.15Y-132.715
X184.785Y-133.985
X193.04Y-137.795
X194.945Y-136.525
X195.58Y-135.89
T2
X127.508Y-80.899
X127.508Y-83.399
X131.064Y-82.209
X131.064Y-84.709
X143.51Y-78.105
X146.01Y-78.105
X149.86Y-80.939
X149.86Y-83.439
X153.035Y-77.978
X153.035Y-85.598
X156.972Y-92.329
X157.22Y-96.6
X159.512Y-92.329
X159.72Y-96.6
X162.052Y-92.329
X171.45Y-112.395
X171.45Y-120.015
X185.6Y-121.1
X185.6Y-123.6
X186.055Y-111.76
X186.055Y-114.26
X193.103Y-108.585
X193.103Y-111.125
X193.103Y-113.665
X193.103Y-116.205
X193.103Y-118.745
X193.103Y-121.285
X193.103Y-123.825
X193.103Y-126.365
X200.724Y-108.585
X200.724Y-111.125
X200.724Y-113.665
X200.724Y-116.205
X200.724Y-118.745
X200.724Y-121.285
X200.724Y-123.825
X200.724Y-126.365
T3
X126.365Y-91.805
X126.365Y-94.345
X126.365Y-96.885
X126.365Y-99.425
X126.365Y-101.965
X128.905Y-91.805
X128.905Y-94.345
X128.905Y-96.885
X128.905Y-99.425
X128.905Y-101.965
X142.24Y-99.06
X142.24Y-124.46
X144.78Y-99.06
X144.78Y-124.46
X147.32Y-99.06
X147.32Y-124.46
X149.86Y-99.06
X149.86Y-124.46
X152.4Y-99.06
X152.4Y-124.46
X154.94Y-99.06
X154.94Y-124.46
X157.48Y-99.06
X157.48Y-124.46
X160.02Y-99.06
X160.02Y-124.46
X162.56Y-99.06
X162.56Y-124.46
X165.1Y-99.06
X165.1Y-124.46
X167.64Y-99.06
X167.64Y-124.46
X170.18Y-99.06
X170.18Y-124.46
X172.72Y-99.06
X172.72Y-124.46
X175.26Y-99.06
X175.26Y-124.46
X177.8Y-99.06
X177.8Y-124.46
X205.74Y-84.516
X205.74Y-87.056
X205.74Y-91.12
X205.74Y-93.66
X205.74Y-97.724
X205.74Y-100.264
X205.74Y-104.328
X205.74Y-106.868
X205.74Y-110.932
X205.74Y-113.472
X205.74Y-117.536
X205.74Y-120.076
X205.74Y-124.14
X205.74Y-126.68
X205.74Y-130.744
X205.74Y-133.284
T4
X119.45Y-85.77
X119.45Y-132.02
X159.45Y-85.77
X159.45Y-132.02
X189.45Y-85.77
X189.45Y-132.02
T3
X113.665Y-121.232G85X113.665Y-123.232
G05
X115.665Y-126.932G85X117.665Y-126.932
G05
X119.665Y-121.232G85X119.665Y-123.232
G05
M30
