%TF.GenerationSoftware,KiCad,Pcbnew,9.0.8+dfsg-1*%
%TF.CreationDate,2026-07-05T22:45:28+02:00*%
%TF.ProjectId,RetroWiFiModem,52657472-6f57-4694-9669-4d6f64656d2e,0.3*%
%TF.SameCoordinates,Original*%
%TF.FileFunction,Copper,L2,Bot*%
%TF.FilePolarity,Positive*%
%FSLAX46Y46*%
G04 Gerber Fmt 4.6, Leading zero omitted, Abs format (unit mm)*
G04 Created by KiCad (PCBNEW 9.0.8+dfsg-1) date 2026-07-05 22:45:28*
%MOMM*%
%LPD*%
G01*
G04 APERTURE LIST*
G04 Aperture macros list*
%AMRoundRect*
0 Rectangle with rounded corners*
0 $1 Rounding radius*
0 $2 $3 $4 $5 $6 $7 $8 $9 X,Y pos of 4 corners*
0 Add a 4 corners polygon primitive as box body*
4,1,4,$2,$3,$4,$5,$6,$7,$8,$9,$2,$3,0*
0 Add four circle primitives for the rounded corners*
1,1,$1+$1,$2,$3*
1,1,$1+$1,$4,$5*
1,1,$1+$1,$6,$7*
1,1,$1+$1,$8,$9*
0 Add four rect primitives between the rounded corners*
20,1,$1+$1,$2,$3,$4,$5,0*
20,1,$1+$1,$4,$5,$6,$7,0*
20,1,$1+$1,$6,$7,$8,$9,0*
20,1,$1+$1,$8,$9,$2,$3,0*%
G04 Aperture macros list end*
%TA.AperFunction,ComponentPad*%
%ADD10R,1.300000X1.300000*%
%TD*%
%TA.AperFunction,ComponentPad*%
%ADD11C,1.300000*%
%TD*%
%TA.AperFunction,ComponentPad*%
%ADD12R,2.000000X2.000000*%
%TD*%
%TA.AperFunction,ComponentPad*%
%ADD13C,2.000000*%
%TD*%
%TA.AperFunction,ComponentPad*%
%ADD14R,1.727200X1.727200*%
%TD*%
%TA.AperFunction,ComponentPad*%
%ADD15O,1.727200X1.727200*%
%TD*%
%TA.AperFunction,ComponentPad*%
%ADD16C,1.397000*%
%TD*%
%TA.AperFunction,ComponentPad*%
%ADD17C,1.524000*%
%TD*%
%TA.AperFunction,ComponentPad*%
%ADD18R,3.500000X3.500000*%
%TD*%
%TA.AperFunction,ComponentPad*%
%ADD19RoundRect,0.750000X-0.750000X-1.000000X0.750000X-1.000000X0.750000X1.000000X-0.750000X1.000000X0*%
%TD*%
%TA.AperFunction,ComponentPad*%
%ADD20RoundRect,0.875000X-0.875000X-0.875000X0.875000X-0.875000X0.875000X0.875000X-0.875000X0.875000X0*%
%TD*%
%TA.AperFunction,ComponentPad*%
%ADD21R,2.400000X1.600000*%
%TD*%
%TA.AperFunction,ComponentPad*%
%ADD22O,2.400000X1.600000*%
%TD*%
%TA.AperFunction,ComponentPad*%
%ADD23R,1.800000X1.800000*%
%TD*%
%TA.AperFunction,ComponentPad*%
%ADD24C,1.800000*%
%TD*%
%TA.AperFunction,ViaPad*%
%ADD25C,0.600000*%
%TD*%
%TA.AperFunction,Conductor*%
%ADD26C,0.254000*%
%TD*%
%TA.AperFunction,Conductor*%
%ADD27C,0.508000*%
%TD*%
G04 APERTURE END LIST*
D10*
%TO.P,C1,1*%
%TO.N,Net-(C1-Pad1)*%
X127508000Y-80899000D03*
D11*
%TO.P,C1,2*%
%TO.N,Net-(C1-Pad2)*%
X127508000Y-83399000D03*
%TD*%
D10*
%TO.P,C2,1*%
%TO.N,Net-(C2-Pad1)*%
X131064000Y-84709000D03*
D11*
%TO.P,C2,2*%
%TO.N,GND*%
X131064000Y-82209000D03*
%TD*%
D10*
%TO.P,C3,1*%
%TO.N,+3V3*%
X143510000Y-78105000D03*
D11*
%TO.P,C3,2*%
%TO.N,Net-(C3-Pad2)*%
X146010000Y-78105000D03*
%TD*%
D10*
%TO.P,C4,1*%
%TO.N,+3V3*%
X149860000Y-83439000D03*
D11*
%TO.P,C4,2*%
%TO.N,GND*%
X149860000Y-80939000D03*
%TD*%
D10*
%TO.P,C5,1*%
%TO.N,+5V*%
X205500000Y-98000000D03*
D11*
%TO.P,C5,2*%
%TO.N,GND*%
X205500000Y-100500000D03*
%TD*%
D10*
%TO.P,C7,1*%
%TO.N,+3V3*%
X157220000Y-97210000D03*
D11*
%TO.P,C7,2*%
%TO.N,GND*%
X159720000Y-97210000D03*
%TD*%
D12*
%TO.P,D8,1,K*%
%TO.N,Net-(D8-Pad1)*%
X205740000Y-130744000D03*
D13*
%TO.P,D8,2,A*%
%TO.N,+5V*%
X205740000Y-133284000D03*
%TD*%
D12*
%TO.P,D7,1,K*%
%TO.N,Net-(D7-Pad1)*%
X205740000Y-124140000D03*
D13*
%TO.P,D7,2,A*%
%TO.N,+5V*%
X205740000Y-126680000D03*
%TD*%
D12*
%TO.P,D6,1,K*%
%TO.N,Net-(D6-Pad1)*%
X205740000Y-117536000D03*
D13*
%TO.P,D6,2,A*%
%TO.N,+5V*%
X205740000Y-120076000D03*
%TD*%
D12*
%TO.P,D5,1,K*%
%TO.N,Net-(D5-Pad1)*%
X205740000Y-110932000D03*
D13*
%TO.P,D5,2,A*%
%TO.N,+5V*%
X205740000Y-113472000D03*
%TD*%
D12*
%TO.P,D4,1,K*%
%TO.N,Net-(D4-Pad1)*%
X205740000Y-104328000D03*
D13*
%TO.P,D4,2,A*%
%TO.N,+5V*%
X205740000Y-106868000D03*
%TD*%
D12*
%TO.P,D3,1,K*%
%TO.N,Net-(D3-Pad1)*%
X205740000Y-97724000D03*
D13*
%TO.P,D3,2,A*%
%TO.N,+5V*%
X205740000Y-100264000D03*
%TD*%
D12*
%TO.P,D2,1,K*%
%TO.N,Net-(D2-Pad1)*%
X205740000Y-91120000D03*
D13*
%TO.P,D2,2,A*%
%TO.N,+5V*%
X205740000Y-93660000D03*
%TD*%
D12*
%TO.P,D1,1,K*%
%TO.N,Net-(D1-Pad1)*%
X205740000Y-84516000D03*
D13*
%TO.P,D1,2,A*%
%TO.N,+5V*%
X205740000Y-87056000D03*
%TD*%
D14*
%TO.P,P1,1,P1*%
%TO.N,Net-(P1-Pad1)*%
X128905000Y-101965000D03*
D15*
%TO.P,P1,2,P2*%
%TO.N,Net-(P1-Pad2)*%
X126365000Y-101965000D03*
%TO.P,P1,3,P3*%
%TO.N,Net-(P1-Pad3)*%
X128905000Y-99425000D03*
%TO.P,P1,4,P4*%
%TO.N,Net-(P1-Pad4)*%
X126365000Y-99425000D03*
%TO.P,P1,5,P5*%
%TO.N,Net-(P1-Pad5)*%
X128905000Y-96885000D03*
%TO.P,P1,6,P6*%
%TO.N,Net-(P1-Pad6)*%
X126365000Y-96885000D03*
%TO.P,P1,7,P7*%
%TO.N,Net-(P1-Pad7)*%
X128905000Y-94345000D03*
%TO.P,P1,8,P8*%
%TO.N,Net-(P1-Pad8)*%
X126365000Y-94345000D03*
%TO.P,P1,9,P9*%
%TO.N,GND*%
X128905000Y-91805000D03*
%TO.P,P1,10,P10*%
%TO.N,unconnected-(P1-Pad10)*%
X126365000Y-91805000D03*
%TD*%
D16*
%TO.P,C6,1*%
%TO.N,Net-(C6-Pad1)*%
X153035000Y-77978000D03*
%TO.P,C6,2*%
%TO.N,Net-(C6-Pad2)*%
X153035000Y-85598000D03*
%TD*%
D10*
%TO.P,C8,1*%
%TO.N,+3V3*%
X205500000Y-77500000D03*
D11*
%TO.P,C8,2*%
%TO.N,GND*%
X205500000Y-80000000D03*
%TD*%
D17*
%TO.P,U4,1,VO*%
%TO.N,+3V3*%
X156972000Y-92329000D03*
%TO.P,U4,2,GND*%
%TO.N,GND*%
X159512000Y-92329000D03*
%TO.P,U4,3,VI*%
%TO.N,+5V*%
X162052000Y-92329000D03*
%TD*%
D18*
%TO.P,CON1,1*%
%TO.N,+5V*%
X119665000Y-122232500D03*
D19*
%TO.P,CON1,2*%
%TO.N,GND*%
X113665000Y-122232500D03*
D20*
%TO.P,CON1,3*%
%TO.N,unconnected-(CON1-Pad3)*%
X116665000Y-126932500D03*
%TD*%
D21*
%TO.P,R1,1,R1.1*%
%TO.N,Net-(R1-Pad1)*%
X193103500Y-108585000D03*
D22*
%TO.P,R1,2,R1.1*%
%TO.N,Net-(R1-Pad2)*%
X193103500Y-111125000D03*
%TO.P,R1,3,R1.1*%
%TO.N,Net-(R1-Pad3)*%
X193103500Y-113665000D03*
%TO.P,R1,4,R1.1*%
%TO.N,Net-(R1-Pad4)*%
X193103500Y-116205000D03*
%TO.P,R1,5,R1.1*%
%TO.N,Net-(R1-Pad5)*%
X193103500Y-118745000D03*
%TO.P,R1,6,R1.1*%
%TO.N,Net-(R1-Pad6)*%
X193103500Y-121285000D03*
%TO.P,R1,7,R1.1*%
%TO.N,Net-(R1-Pad7)*%
X193103500Y-123825000D03*
%TO.P,R1,8,R1.1*%
%TO.N,Net-(R1-Pad8)*%
X193103500Y-126365000D03*
%TO.P,R1,9,R1.2*%
%TO.N,Net-(D8-Pad1)*%
X200723500Y-126365000D03*
%TO.P,R1,10,R1.2*%
%TO.N,Net-(D7-Pad1)*%
X200723500Y-123825000D03*
%TO.P,R1,11,R1.2*%
%TO.N,Net-(D6-Pad1)*%
X200723500Y-121285000D03*
%TO.P,R1,12,R1.2*%
%TO.N,Net-(D5-Pad1)*%
X200723500Y-118745000D03*
%TO.P,R1,13,R1.2*%
%TO.N,Net-(D4-Pad1)*%
X200723500Y-116205000D03*
%TO.P,R1,14,R1.2*%
%TO.N,Net-(D3-Pad1)*%
X200723500Y-113665000D03*
%TO.P,R1,15,R1.2*%
%TO.N,Net-(D2-Pad1)*%
X200723500Y-111125000D03*
%TO.P,R1,16,R1.2*%
%TO.N,Net-(D1-Pad1)*%
X200723500Y-108585000D03*
%TD*%
D16*
%TO.P,R9,1*%
%TO.N,+3V3*%
X184500000Y-87970000D03*
%TO.P,R9,2*%
%TO.N,Net-(R9-Pad2)*%
X184500000Y-80350000D03*
%TD*%
D23*
%TO.P,U5,1,3V3*%
%TO.N,N/C*%
X142240000Y-102300000D03*
D24*
%TO.P,U5,2,GND*%
%TO.N,GND*%
X144780000Y-102300000D03*
%TO.P,U5,3,D15*%
%TO.N,Net-(U1-Pad23)*%
X147320000Y-102300000D03*
%TO.P,U5,4,D2*%
%TO.N,N/C*%
X149860000Y-102300000D03*
%TO.P,U5,5,D4*%
%TO.N,Net-(U1-Pad19)*%
X152400000Y-102300000D03*
%TO.P,U5,6,D16*%
%TO.N,N/C*%
X154940000Y-102300000D03*
%TO.P,U5,7,D17*%
X157480000Y-102300000D03*
%TO.P,U5,8,D5*%
%TO.N,Net-(U1-Pad22)*%
X160020000Y-102300000D03*
%TO.P,U5,9,D18*%
%TO.N,N/C*%
X162559999Y-102300000D03*
%TO.P,U5,10,D19*%
X165099999Y-102300000D03*
%TO.P,U5,11,D21*%
X167639999Y-102300000D03*
%TO.P,U5,12,RX0*%
%TO.N,Net-(U1-Pad21)*%
X170180000Y-102300000D03*
%TO.P,U5,13,TX0*%
%TO.N,Net-(U3-Pad1)*%
X172720000Y-102300000D03*
%TO.P,U5,14,D22*%
%TO.N,N/C*%
X175260000Y-102300000D03*
%TO.P,U5,15,D23*%
X177800000Y-102300000D03*
%TO.P,U5,16,VIN*%
%TO.N,+5V*%
X142240000Y-127700000D03*
%TO.P,U5,17,GND*%
%TO.N,GND*%
X144780000Y-127700000D03*
%TO.P,U5,18,D13*%
%TO.N,Net-(U1-Pad20)*%
X147320000Y-127700000D03*
%TO.P,U5,19,D12*%
%TO.N,Net-(U1-Pad17)*%
X149860000Y-127700000D03*
%TO.P,U5,20,D14*%
%TO.N,Net-(R9-Pad2)*%
X152400000Y-127700000D03*
%TO.P,U5,21,D27*%
%TO.N,N/C*%
X154940000Y-127700000D03*
%TO.P,U5,22,D26*%
X157480000Y-127700000D03*
%TO.P,U5,23,D25*%
X160020000Y-127700000D03*
%TO.P,U5,24,D33*%
X162559999Y-127700000D03*
%TO.P,U5,25,D32*%
X165099999Y-127700000D03*
%TO.P,U5,26,D35*%
X167639999Y-127700000D03*
%TO.P,U5,27,D34*%
%TO.N,Net-(U1-Pad18)*%
X170180000Y-127700000D03*
%TO.P,U5,28,VN*%
%TO.N,N/C*%
X172720000Y-127700000D03*
%TO.P,U5,29,VP*%
X175260000Y-127700000D03*
%TO.P,U5,30,EN*%
X177800000Y-127700000D03*
%TD*%
D25*
%TO.N,GND*%
X144780000Y-102000000D03*
X145300000Y-128199999D03*
X205500000Y-100500000D03*
X144780000Y-105000000D03*
X144780000Y-105000000D03*
X145300000Y-128199999D03*
X145300000Y-128199999D03*
%TO.N,+3V3*%
X155575000Y-83185000D03*
X202475000Y-73690000D03*
X163195000Y-111125000D03*
X143510000Y-97409000D03*
X143510000Y-83312000D03*
%TO.N,+5V*%
X204650000Y-83785000D03*
X180340000Y-123830000D03*
X195350000Y-83785000D03*
%TO.N,Net-(P1-Pad1)*%
X132461000Y-88519000D03*
X132461000Y-101981000D03*
%TO.N,Net-(P1-Pad2)*%
X135001000Y-92329000D03*
X135001000Y-103632000D03*
%TO.N,Net-(P1-Pad3)*%
X131826000Y-85979000D03*
%TO.N,Net-(P1-Pad4)*%
X134112000Y-91059000D03*
X134112000Y-100711000D03*
%TO.N,Net-(P1-Pad5)*%
X133477000Y-96901000D03*
X133477000Y-89789000D03*
%TO.N,Net-(P1-Pad6)*%
X124714000Y-87249000D03*
%TO.N,Net-(R9-Pad2)*%
X168800000Y-112900000D03*
X152400000Y-127700000D03*
X168800000Y-112900000D03*
X134300000Y-121300000D03*
X184500000Y-80350000D03*
X188000000Y-88000000D03*
X134300000Y-96140000D03*
X152400000Y-121300000D03*
%TO.N,Net-(U1-Pad17)*%
X149860000Y-124460000D03*
X195350000Y-90135000D03*
X149000000Y-94870000D03*
%TO.N,Net-(U1-Pad18)*%
X151130000Y-122000000D03*
X170800000Y-122000000D03*
X169700000Y-128910000D03*
X149000000Y-93600000D03*
X195350000Y-86325000D03*
%TO.N,Net-(U3-Pad1)*%
X197525000Y-73690000D03*
X174630000Y-112390000D03*
%TO.N,Net-(C3-Pad2)*%
X144272000Y-82169000D03*
%TO.N,Net-(U1-Pad19)*%
X149000000Y-92330000D03*
X195350000Y-85055000D03*
X152400000Y-110500000D03*
X162900000Y-127900000D03*
X158750000Y-110500000D03*
%TO.N,Net-(U1-Pad20)*%
X149000000Y-91060000D03*
X144200000Y-130000000D03*
X174300000Y-136530000D03*
X195350000Y-93945000D03*
%TO.N,Net-(U1-Pad21)*%
X149000000Y-89790000D03*
X168910000Y-130180000D03*
X153670000Y-103400000D03*
X195350000Y-87595000D03*
%TO.N,Net-(U1-Pad22)*%
X149000000Y-88520000D03*
X176500000Y-133990000D03*
X195350000Y-91405000D03*
X150800000Y-88520000D03*
%TO.N,Net-(U1-Pad23)*%
X147320000Y-120300000D03*
X149000000Y-87250000D03*
X175400000Y-135250000D03*
X195350000Y-92675000D03*
X153670000Y-120300000D03*
%TO.N,Net-(U1-Pad24)*%
X197525000Y-76230000D03*
X149000000Y-85980000D03*
X173990000Y-114940000D03*
X195350000Y-88865000D03*
X173990000Y-131440000D03*
%TD*%
D26*
%TO.N,GND*%
X145300000Y-126120000D02*
X145300000Y-128199999D01*
X204650000Y-85055000D02*
X205500000Y-85055000D01*
X144780000Y-125600000D02*
X145300000Y-126120000D01*
X144780000Y-102300000D02*
X144780000Y-105000000D01*
X144780000Y-127700000D02*
X144780000Y-125600000D01*
X144780000Y-127700000D02*
X144780000Y-125600000D01*
X145300000Y-126120000D02*
X145300000Y-128199999D01*
X144780000Y-124460000D02*
X144780000Y-125600000D01*
X205500000Y-85055000D02*
X205500000Y-100500000D01*
X144780000Y-125600000D02*
X145300000Y-126120000D01*
X144780000Y-102300000D02*
X144780000Y-105000000D01*
X144780000Y-99060000D02*
X144780000Y-102000000D01*
X145300000Y-126120000D02*
X145300000Y-128199999D01*
X144780000Y-125600000D02*
X145300000Y-126120000D01*
D27*
%TO.N,+3V3*%
X143510000Y-83312000D02*
X143510000Y-78105000D01*
X202475000Y-77500000D02*
X205500000Y-77500000D01*
D26*
X156970000Y-92330000D02*
X156972000Y-92329000D01*
X156970000Y-94500000D02*
X163830000Y-94500000D01*
D27*
X155575000Y-88900000D02*
X155575000Y-83185000D01*
X143510000Y-83312000D02*
X143510000Y-97409000D01*
D26*
X156970000Y-92330000D02*
X156970000Y-94500000D01*
X156970000Y-92330000D02*
X156972000Y-92329000D01*
D27*
X202475000Y-73690000D02*
X202475000Y-77500000D01*
D26*
X202475000Y-94500000D02*
X163830000Y-94500000D01*
D27*
X156972000Y-92329000D02*
X156972000Y-90297000D01*
D26*
X163830000Y-110500000D02*
X163190000Y-111120000D01*
X156970000Y-92330000D02*
X156970000Y-94500000D01*
X163830000Y-94500000D02*
X163830000Y-110500000D01*
X184500000Y-94500000D02*
X163830000Y-94500000D01*
X202475000Y-77500000D02*
X202475000Y-94500000D01*
X184500000Y-87970000D02*
X184500000Y-94500000D01*
D27*
X156970000Y-96400000D02*
X157220000Y-96650000D01*
X156972000Y-90297000D02*
X155575000Y-88900000D01*
X156970000Y-92330000D02*
X156970000Y-96400000D01*
X157220000Y-96650000D02*
X157220000Y-97210000D01*
%TO.N,+5V*%
X180340000Y-123830000D02*
X195350000Y-83785000D01*
X162050000Y-83785000D02*
X195350000Y-83785000D01*
X162050000Y-92330000D02*
X162050000Y-83785000D01*
X162050000Y-92330000D02*
X162050000Y-83785000D01*
X166116000Y-92329000D02*
X167640000Y-90805000D01*
X162052000Y-92329000D02*
X166116000Y-92329000D01*
D26*
%TO.N,Net-(D1-Pad1)*%
X200723500Y-89532500D02*
X205740000Y-84516000D01*
X200723500Y-108585000D02*
X200723500Y-89532500D01*
%TO.N,Net-(D2-Pad1)*%
X202565000Y-110490000D02*
X202565000Y-105410000D01*
X203200000Y-93660000D02*
X205740000Y-91120000D01*
X203200000Y-104775000D02*
X203200000Y-93660000D01*
X201930000Y-111125000D02*
X202565000Y-110490000D01*
X200723500Y-111125000D02*
X201930000Y-111125000D01*
X202565000Y-105410000D02*
X203200000Y-104775000D01*
%TO.N,Net-(D3-Pad1)*%
X202565000Y-113030000D02*
X202565000Y-111752934D01*
X203835000Y-99629000D02*
X205740000Y-97724000D01*
X200723500Y-113665000D02*
X201930000Y-113665000D01*
X203835000Y-105402934D02*
X203835000Y-99629000D01*
X203200000Y-111117934D02*
X203200000Y-106037934D01*
X201930000Y-113665000D02*
X202565000Y-113030000D01*
X203200000Y-106037934D02*
X203835000Y-105402934D01*
X202565000Y-111752934D02*
X203200000Y-111117934D01*
%TO.N,Net-(D4-Pad1)*%
X203835000Y-111125000D02*
X203200000Y-111760000D01*
X202565000Y-116205000D02*
X203200000Y-115570000D01*
X200723500Y-116205000D02*
X202565000Y-116205000D01*
X205552000Y-104328000D02*
X203835000Y-106045000D01*
X203200000Y-111760000D02*
X203200000Y-115570000D01*
X203835000Y-106045000D02*
X203835000Y-111125000D01*
X205740000Y-104328000D02*
X205552000Y-104328000D01*
%TO.N,Net-(D5-Pad1)*%
X205298000Y-110932000D02*
X205740000Y-110932000D01*
X203835000Y-116205000D02*
X203835000Y-112395000D01*
X201295000Y-118745000D02*
X203835000Y-116205000D01*
X200723500Y-118745000D02*
X201295000Y-118745000D01*
X203835000Y-112395000D02*
X205298000Y-110932000D01*
%TO.N,Net-(D6-Pad1)*%
X203774000Y-117536000D02*
X205740000Y-117536000D01*
X200723500Y-121285000D02*
X201930000Y-121285000D01*
X201930000Y-121285000D02*
X203200000Y-120015000D01*
X203200000Y-120015000D02*
X203200000Y-118110000D01*
X203200000Y-118110000D02*
X203774000Y-117536000D01*
%TO.N,Net-(D7-Pad1)*%
X200723500Y-123825000D02*
X205425000Y-123825000D01*
X205425000Y-123825000D02*
X205740000Y-124140000D01*
%TO.N,Net-(D8-Pad1)*%
X200660000Y-126492000D02*
X200660000Y-129540000D01*
X200723500Y-126365000D02*
X200723500Y-126428500D01*
X200660000Y-129540000D02*
X201864000Y-130744000D01*
X200723500Y-126428500D02*
X200660000Y-126492000D01*
X201864000Y-130744000D02*
X205740000Y-130744000D01*
%TO.N,Net-(P1-Pad1)*%
X132461000Y-101981000D02*
X132461000Y-88519000D01*
%TO.N,Net-(P1-Pad2)*%
X135001000Y-92329000D02*
X135001000Y-103632000D01*
%TO.N,Net-(P1-Pad3)*%
X131826000Y-85979000D02*
X131826000Y-97917000D01*
X131826000Y-97917000D02*
X130318000Y-99425000D01*
X130318000Y-99425000D02*
X128905000Y-99425000D01*
%TO.N,Net-(P1-Pad4)*%
X134112000Y-100711000D02*
X134112000Y-91059000D01*
%TO.N,Net-(P1-Pad5)*%
X133477000Y-89789000D02*
X133477000Y-96901000D01*
%TO.N,Net-(P1-Pad6)*%
X124714000Y-87249000D02*
X124714000Y-95234000D01*
X124714000Y-95234000D02*
X126365000Y-96885000D01*
%TO.N,Net-(R9-Pad2)*%
X168800000Y-121300000D02*
X168800000Y-112900000D01*
X184500000Y-88000000D02*
X188000000Y-88000000D01*
X134300000Y-96140000D02*
X134300000Y-121300000D01*
X184500000Y-80350000D02*
X184500000Y-88000000D01*
X152400000Y-121300000D02*
X168800000Y-121300000D01*
X152400000Y-121300000D02*
X152400000Y-127700000D01*
X134300000Y-121300000D02*
X134300000Y-80350000D01*
X134300000Y-80350000D02*
X184500000Y-80350000D01*
%TO.N,Net-(U1-Pad17)*%
X148590000Y-123190000D02*
X149860000Y-124460000D01*
X148590000Y-95260000D02*
X148590000Y-123190000D01*
X149000000Y-94870000D02*
X148590000Y-95260000D01*
X149000000Y-94870000D02*
X195350000Y-94870000D01*
X195350000Y-94870000D02*
X195350000Y-90135000D01*
%TO.N,Net-(U1-Pad18)*%
X170800000Y-125840000D02*
X170180000Y-127700000D01*
X149000000Y-93600000D02*
X195350000Y-93600000D01*
X151130000Y-95730000D02*
X151130000Y-122000000D01*
X195350000Y-93600000D02*
X195350000Y-86325000D01*
X169700000Y-128180000D02*
X169700000Y-128910000D01*
X170180000Y-127700000D02*
X169700000Y-128180000D01*
X149000000Y-93600000D02*
X151130000Y-95730000D01*
X170800000Y-122000000D02*
X170800000Y-125840000D01*
%TO.N,Net-(U3-Pad1)*%
X172720000Y-80000000D02*
X197525000Y-80000000D01*
X197525000Y-80000000D02*
X197525000Y-73690000D01*
X174630000Y-112390000D02*
X174630000Y-103000000D01*
X172720000Y-102300000D02*
X172720000Y-80000000D01*
X174630000Y-103000000D02*
X172720000Y-102300000D01*
%TO.N,Net-(C3-Pad2)*%
X144272000Y-79843000D02*
X144272000Y-82169000D01*
X146010000Y-78105000D02*
X144272000Y-79843000D01*
%TO.N,Net-(U1-Pad19)*%
X195350000Y-92330000D02*
X195350000Y-85055000D01*
X149000000Y-92330000D02*
X195350000Y-92330000D01*
X149000000Y-92330000D02*
X152400000Y-95730000D01*
X152400000Y-95730000D02*
X152400000Y-102300000D01*
X152400000Y-102300000D02*
X152400000Y-110500000D01*
X158750000Y-110500000D02*
X158750000Y-127900000D01*
X158750000Y-127900000D02*
X162900000Y-127900000D01*
%TO.N,Net-(U1-Pad20)*%
X143510000Y-98490000D02*
X143510000Y-134660000D01*
X149000000Y-91060000D02*
X195350000Y-91060000D01*
X174300000Y-133020000D02*
X174300000Y-136530000D01*
X144200000Y-130000000D02*
X143510000Y-130690000D01*
X195350000Y-91060000D02*
X195350000Y-93945000D01*
X144400000Y-97600000D02*
X143510000Y-98490000D01*
X144400000Y-91260000D02*
X144400000Y-97600000D01*
X162160000Y-133020000D02*
X174300000Y-133020000D01*
X143510000Y-134660000D02*
X162160000Y-134660000D01*
X144600000Y-91060000D02*
X144400000Y-91260000D01*
X148200000Y-91060000D02*
X144600000Y-91060000D01*
X149000000Y-91060000D02*
X148200000Y-91060000D01*
X162160000Y-134660000D02*
X162160000Y-133020000D01*
%TO.N,Net-(U1-Pad21)*%
X153110000Y-89790000D02*
X153670000Y-90350000D01*
X170180000Y-123900000D02*
X168910000Y-125170000D01*
X149000000Y-89790000D02*
X153110000Y-89790000D01*
X195350000Y-89790000D02*
X195350000Y-87595000D01*
X153670000Y-90350000D02*
X153670000Y-103400000D01*
X170180000Y-102300000D02*
X170180000Y-123900000D01*
X168910000Y-125170000D02*
X168910000Y-130180000D01*
X149000000Y-89790000D02*
X195350000Y-89790000D01*
%TO.N,Net-(U1-Pad22)*%
X163830000Y-132100000D02*
X176500000Y-132100000D01*
X195350000Y-88520000D02*
X195350000Y-91405000D01*
X163830000Y-121500000D02*
X163830000Y-132100000D01*
X149000000Y-88520000D02*
X150800000Y-88520000D01*
X149000000Y-88520000D02*
X195350000Y-88520000D01*
X176500000Y-132100000D02*
X176500000Y-133990000D01*
X160020000Y-121500000D02*
X163830000Y-121500000D01*
X160020000Y-102300000D02*
X160020000Y-121500000D01*
%TO.N,Net-(U1-Pad23)*%
X161700000Y-132000000D02*
X161700000Y-132560000D01*
X153670000Y-120300000D02*
X153670000Y-132000000D01*
X153670000Y-132000000D02*
X161700000Y-132000000D01*
X147550000Y-87900000D02*
X147550000Y-98550000D01*
X161700000Y-132560000D02*
X175400000Y-132560000D01*
X147320000Y-98780000D02*
X147320000Y-102300000D01*
X149000000Y-87250000D02*
X147550000Y-87900000D01*
X147550000Y-98550000D02*
X147320000Y-98780000D01*
X175400000Y-132560000D02*
X175400000Y-135250000D01*
X195350000Y-87250000D02*
X195350000Y-92675000D01*
X147320000Y-102300000D02*
X147320000Y-120300000D01*
X149000000Y-87250000D02*
X195350000Y-87250000D01*
%TO.N,Net-(U1-Pad24)*%
X155750000Y-93500000D02*
X156210000Y-93960000D01*
X197525000Y-88865000D02*
X197525000Y-76230000D01*
X149000000Y-85980000D02*
X154430000Y-85980000D01*
X195350000Y-88865000D02*
X197525000Y-88865000D01*
X195350000Y-85980000D02*
X195350000Y-88865000D01*
X155750000Y-90220000D02*
X155750000Y-93500000D01*
X149000000Y-85980000D02*
X195350000Y-85980000D01*
X154430000Y-88900000D02*
X155750000Y-90220000D01*
X154430000Y-87380000D02*
X154430000Y-88900000D01*
X173990000Y-114940000D02*
X173990000Y-131440000D01*
X154430000Y-85980000D02*
X154430000Y-87380000D01*
X173990000Y-102300000D02*
X173990000Y-114940000D01*
X156210000Y-93960000D02*
X156210000Y-102300000D01*
X156210000Y-102300000D02*
X173990000Y-102300000D01*
%TD*%
%TA.AperFunction,Conductor*%
%TO.N,GND*%
G36*
X162351621Y-75925502D02*
G01*
X162398114Y-75979158D01*
X162409500Y-76031500D01*
X162409500Y-79588500D01*
X162389498Y-79656621D01*
X162335842Y-79703114D01*
X162283500Y-79714500D01*
X145603424Y-79714500D01*
X145535303Y-79694498D01*
X145488810Y-79640842D01*
X145478706Y-79570568D01*
X145508200Y-79505988D01*
X145514328Y-79499405D01*
X145673296Y-79340436D01*
X145727888Y-79285843D01*
X145790198Y-79251820D01*
X145836691Y-79250491D01*
X145918824Y-79263500D01*
X145918826Y-79263500D01*
X146101173Y-79263500D01*
X146101176Y-79263500D01*
X146281283Y-79234974D01*
X146454710Y-79178624D01*
X146617186Y-79095838D01*
X146764712Y-78988654D01*
X146893654Y-78859712D01*
X147000838Y-78712186D01*
X147083624Y-78549710D01*
X147139974Y-78376283D01*
X147168500Y-78196176D01*
X147168500Y-78013824D01*
X147147781Y-77883007D01*
X151828000Y-77883007D01*
X151828000Y-78072993D01*
X151857493Y-78259201D01*
X151857722Y-78260644D01*
X151901768Y-78396207D01*
X151916429Y-78441327D01*
X152002681Y-78610606D01*
X152114352Y-78764308D01*
X152114354Y-78764310D01*
X152114356Y-78764313D01*
X152248686Y-78898643D01*
X152248689Y-78898645D01*
X152248692Y-78898648D01*
X152402394Y-79010319D01*
X152571673Y-79096571D01*
X152752360Y-79155279D01*
X152940007Y-79185000D01*
X152940010Y-79185000D01*
X153129990Y-79185000D01*
X153129993Y-79185000D01*
X153317640Y-79155279D01*
X153498327Y-79096571D01*
X153667606Y-79010319D01*
X153821308Y-78898648D01*
X153955648Y-78764308D01*
X154067319Y-78610606D01*
X154153571Y-78441327D01*
X154212279Y-78260640D01*
X154242000Y-78072993D01*
X154242000Y-77883007D01*
X154212279Y-77695360D01*
X154153571Y-77514673D01*
X154067319Y-77345394D01*
X153955648Y-77191692D01*
X153955645Y-77191689D01*
X153955643Y-77191686D01*
X153821313Y-77057356D01*
X153821310Y-77057354D01*
X153821308Y-77057352D01*
X153667606Y-76945681D01*
X153498327Y-76859429D01*
X153498324Y-76859428D01*
X153498322Y-76859427D01*
X153317644Y-76800722D01*
X153317642Y-76800721D01*
X153317640Y-76800721D01*
X153129993Y-76771000D01*
X152940007Y-76771000D01*
X152752360Y-76800721D01*
X152752358Y-76800721D01*
X152752355Y-76800722D01*
X152571677Y-76859427D01*
X152571671Y-76859430D01*
X152402390Y-76945683D01*
X152248689Y-77057354D01*
X152248686Y-77057356D01*
X152114356Y-77191686D01*
X152114354Y-77191689D01*
X152002683Y-77345390D01*
X151916430Y-77514671D01*
X151916427Y-77514677D01*
X151857722Y-77695355D01*
X151857721Y-77695358D01*
X151857721Y-77695360D01*
X151828000Y-77883007D01*
X147147781Y-77883007D01*
X147139974Y-77833717D01*
X147083624Y-77660290D01*
X147000838Y-77497814D01*
X146893654Y-77350288D01*
X146893651Y-77350285D01*
X146893649Y-77350282D01*
X146764717Y-77221350D01*
X146764714Y-77221348D01*
X146764712Y-77221346D01*
X146617186Y-77114162D01*
X146454710Y-77031376D01*
X146454709Y-77031375D01*
X146454706Y-77031374D01*
X146281288Y-76975027D01*
X146281284Y-76975026D01*
X146281283Y-76975026D01*
X146101176Y-76946500D01*
X145918824Y-76946500D01*
X145738717Y-76975026D01*
X145738711Y-76975027D01*
X145565293Y-77031374D01*
X145402810Y-77114164D01*
X145255285Y-77221348D01*
X145255282Y-77221350D01*
X145126350Y-77350282D01*
X145126348Y-77350285D01*
X145019164Y-77497810D01*
X144936375Y-77660291D01*
X144914333Y-77728131D01*
X144874259Y-77786736D01*
X144808862Y-77814373D01*
X144738906Y-77802266D01*
X144686600Y-77754260D01*
X144668500Y-77689194D01*
X144668500Y-77406367D01*
X144668499Y-77406350D01*
X144661990Y-77345803D01*
X144661988Y-77345795D01*
X144615571Y-77221350D01*
X144610889Y-77208796D01*
X144610888Y-77208794D01*
X144610887Y-77208792D01*
X144523261Y-77091738D01*
X144406207Y-77004112D01*
X144406202Y-77004110D01*
X144269204Y-76953011D01*
X144269196Y-76953009D01*
X144208649Y-76946500D01*
X144208638Y-76946500D01*
X142811362Y-76946500D01*
X142811350Y-76946500D01*
X142750803Y-76953009D01*
X142750795Y-76953011D01*
X142613797Y-77004110D01*
X142613792Y-77004112D01*
X142496738Y-77091738D01*
X142409112Y-77208792D01*
X142409110Y-77208797D01*
X142358011Y-77345795D01*
X142358009Y-77345803D01*
X142351500Y-77406350D01*
X142351500Y-78803649D01*
X142358009Y-78864196D01*
X142358011Y-78864204D01*
X142409110Y-79001202D01*
X142409112Y-79001207D01*
X142496738Y-79118261D01*
X142613791Y-79205886D01*
X142613792Y-79205886D01*
X142613796Y-79205889D01*
X142665535Y-79225186D01*
X142683547Y-79238670D01*
X142704012Y-79248017D01*
X142711410Y-79259529D01*
X142722368Y-79267732D01*
X142730231Y-79288815D01*
X142742396Y-79307743D01*
X142745598Y-79330013D01*
X142747179Y-79334252D01*
X142747500Y-79343241D01*
X142747500Y-79588500D01*
X142727498Y-79656621D01*
X142673842Y-79703114D01*
X142621500Y-79714500D01*
X134237406Y-79714500D01*
X134114630Y-79738922D01*
X134114625Y-79738924D01*
X133998977Y-79786827D01*
X133894896Y-79856372D01*
X133894889Y-79856377D01*
X133806377Y-79944889D01*
X133806372Y-79944896D01*
X133736827Y-80048977D01*
X133688924Y-80164625D01*
X133688922Y-80164630D01*
X133664500Y-80287406D01*
X133664500Y-88854500D01*
X133644498Y-88922621D01*
X133590842Y-88969114D01*
X133538500Y-88980500D01*
X133397364Y-88980500D01*
X133353489Y-88989228D01*
X133282775Y-88982900D01*
X133226708Y-88939345D01*
X133203089Y-88872393D01*
X133212500Y-88817430D01*
X133238430Y-88754831D01*
X133269500Y-88598630D01*
X133269500Y-88439370D01*
X133238430Y-88283169D01*
X133177483Y-88136032D01*
X133089003Y-88003611D01*
X133089001Y-88003609D01*
X133088996Y-88003603D01*
X132976396Y-87891003D01*
X132976390Y-87890998D01*
X132976389Y-87890997D01*
X132843968Y-87802517D01*
X132696831Y-87741570D01*
X132620002Y-87726288D01*
X132562918Y-87714933D01*
X132500009Y-87682025D01*
X132464877Y-87620330D01*
X132461500Y-87591354D01*
X132461500Y-86521389D01*
X132481502Y-86453268D01*
X132482735Y-86451387D01*
X132542483Y-86361968D01*
X132603430Y-86214831D01*
X132634500Y-86058630D01*
X132634500Y-85899370D01*
X132603430Y-85743169D01*
X132542483Y-85596032D01*
X132454003Y-85463611D01*
X132341389Y-85350997D01*
X132341385Y-85350994D01*
X132341384Y-85350993D01*
X132278498Y-85308974D01*
X132232970Y-85254497D01*
X132222500Y-85204209D01*
X132222500Y-84010367D01*
X132222499Y-84010350D01*
X132215990Y-83949803D01*
X132215988Y-83949795D01*
X132184222Y-83864630D01*
X132164889Y-83812796D01*
X132164888Y-83812794D01*
X132164887Y-83812792D01*
X132077261Y-83695738D01*
X131960207Y-83608112D01*
X131960202Y-83608110D01*
X131823204Y-83557011D01*
X131823196Y-83557009D01*
X131762649Y-83550500D01*
X131762638Y-83550500D01*
X131478187Y-83550500D01*
X131410066Y-83530498D01*
X131363573Y-83476842D01*
X131353469Y-83406568D01*
X131382963Y-83341988D01*
X131439251Y-83304667D01*
X131508513Y-83282162D01*
X131508519Y-83282159D01*
X131670928Y-83199408D01*
X131684984Y-83189195D01*
X131684984Y-83189193D01*
X131104791Y-82609000D01*
X131116661Y-82609000D01*
X131218394Y-82581741D01*
X131309606Y-82529080D01*
X131384080Y-82454606D01*
X131436741Y-82363394D01*
X131464000Y-82261661D01*
X131464000Y-82249791D01*
X132044193Y-82829984D01*
X132044195Y-82829984D01*
X132054408Y-82815928D01*
X132137159Y-82653519D01*
X132137162Y-82653513D01*
X132193484Y-82480171D01*
X132222000Y-82300133D01*
X132222000Y-82117866D01*
X132193484Y-81937828D01*
X132137162Y-81764486D01*
X132137159Y-81764480D01*
X132054412Y-81602078D01*
X132044194Y-81588014D01*
X131464000Y-82168208D01*
X131464000Y-82156339D01*
X131436741Y-82054606D01*
X131384080Y-81963394D01*
X131309606Y-81888920D01*
X131218394Y-81836259D01*
X131116661Y-81809000D01*
X131104790Y-81809000D01*
X131684985Y-81228803D01*
X131670923Y-81218588D01*
X131508519Y-81135840D01*
X131508513Y-81135837D01*
X131335169Y-81079515D01*
X131335173Y-81079515D01*
X131155134Y-81051000D01*
X130972866Y-81051000D01*
X130792828Y-81079515D01*
X130619486Y-81135837D01*
X130619480Y-81135840D01*
X130457072Y-81218591D01*
X130443014Y-81228803D01*
X130443013Y-81228804D01*
X131023209Y-81809000D01*
X131011339Y-81809000D01*
X130909606Y-81836259D01*
X130818394Y-81888920D01*
X130743920Y-81963394D01*
X130691259Y-82054606D01*
X130664000Y-82156339D01*
X130664000Y-82168209D01*
X130083804Y-81588013D01*
X130083803Y-81588014D01*
X130073591Y-81602072D01*
X129990840Y-81764480D01*
X129990837Y-81764486D01*
X129934515Y-81937828D01*
X129906000Y-82117866D01*
X129906000Y-82300133D01*
X129934515Y-82480171D01*
X129990837Y-82653513D01*
X129990840Y-82653519D01*
X130073588Y-82815923D01*
X130083803Y-82829984D01*
X130664000Y-82249788D01*
X130664000Y-82261661D01*
X130691259Y-82363394D01*
X130743920Y-82454606D01*
X130818394Y-82529080D01*
X130909606Y-82581741D01*
X131011339Y-82609000D01*
X131023210Y-82609000D01*
X130443014Y-83189194D01*
X130457078Y-83199412D01*
X130619480Y-83282159D01*
X130619486Y-83282162D01*
X130688749Y-83304667D01*
X130747355Y-83344741D01*
X130774992Y-83410137D01*
X130762885Y-83480094D01*
X130714879Y-83532400D01*
X130649813Y-83550500D01*
X130365350Y-83550500D01*
X130304803Y-83557009D01*
X130304795Y-83557011D01*
X130167797Y-83608110D01*
X130167792Y-83608112D01*
X130050738Y-83695738D01*
X129963112Y-83812792D01*
X129963110Y-83812797D01*
X129912011Y-83949795D01*
X129912009Y-83949803D01*
X129905500Y-84010350D01*
X129905500Y-85407649D01*
X129912009Y-85468196D01*
X129912011Y-85468204D01*
X129963110Y-85605202D01*
X129963112Y-85605207D01*
X130050738Y-85722261D01*
X130167792Y-85809887D01*
X130167794Y-85809888D01*
X130167796Y-85809889D01*
X130226875Y-85831924D01*
X130304795Y-85860988D01*
X130304803Y-85860990D01*
X130365350Y-85867499D01*
X130365355Y-85867499D01*
X130365362Y-85867500D01*
X130891500Y-85867500D01*
X130959621Y-85887502D01*
X131006114Y-85941158D01*
X131017500Y-85993500D01*
X131017500Y-86058632D01*
X131032051Y-86131782D01*
X131048570Y-86214831D01*
X131109517Y-86361968D01*
X131169265Y-86451387D01*
X131190480Y-86519140D01*
X131190500Y-86521389D01*
X131190500Y-97601576D01*
X131170498Y-97669697D01*
X131153595Y-97690672D01*
X130208039Y-98636227D01*
X130145727Y-98670252D01*
X130074911Y-98665187D01*
X130018076Y-98622640D01*
X130017008Y-98621192D01*
X129951577Y-98531134D01*
X129798868Y-98378425D01*
X129798865Y-98378423D01*
X129798864Y-98378422D01*
X129798863Y-98378421D01*
X129631652Y-98256935D01*
X129588299Y-98200714D01*
X129582224Y-98129978D01*
X129615355Y-98067186D01*
X129631653Y-98053064D01*
X129653759Y-98037003D01*
X129798863Y-97931579D01*
X129951579Y-97778863D01*
X130078525Y-97604137D01*
X130176575Y-97411704D01*
X130243315Y-97206301D01*
X130277100Y-96992987D01*
X130277100Y-96777013D01*
X130243315Y-96563699D01*
X130176575Y-96358296D01*
X130078525Y-96165863D01*
X129951579Y-95991137D01*
X129951576Y-95991134D01*
X129951574Y-95991131D01*
X129798868Y-95838425D01*
X129798865Y-95838423D01*
X129798864Y-95838422D01*
X129798863Y-95838421D01*
X129631652Y-95716935D01*
X129588299Y-95660714D01*
X129582224Y-95589978D01*
X129615355Y-95527186D01*
X129631653Y-95513064D01*
X129798863Y-95391579D01*
X129951579Y-95238863D01*
X130078525Y-95064137D01*
X130176575Y-94871704D01*
X130243315Y-94666301D01*
X130277100Y-94452987D01*
X130277100Y-94237013D01*
X130243315Y-94023699D01*
X130176575Y-93818296D01*
X130078525Y-93625863D01*
X129951579Y-93451137D01*
X129951576Y-93451134D01*
X129951574Y-93451131D01*
X129798865Y-93298422D01*
X129631228Y-93176626D01*
X129587874Y-93120403D01*
X129581799Y-93049667D01*
X129614931Y-92986875D01*
X129631228Y-92972754D01*
X129798539Y-92851195D01*
X129798542Y-92851193D01*
X129951193Y-92698542D01*
X129951195Y-92698539D01*
X130078094Y-92523878D01*
X130176109Y-92331513D01*
X130176112Y-92331507D01*
X130242824Y-92126190D01*
X130253467Y-92059000D01*
X129335703Y-92059000D01*
X129370925Y-91997993D01*
X129405000Y-91870826D01*
X129405000Y-91739174D01*
X129370925Y-91612007D01*
X129335703Y-91551000D01*
X130253466Y-91551000D01*
X130242824Y-91483809D01*
X130176112Y-91278492D01*
X130176109Y-91278486D01*
X130078094Y-91086121D01*
X129951195Y-90911460D01*
X129951193Y-90911457D01*
X129798542Y-90758806D01*
X129798539Y-90758804D01*
X129623878Y-90631905D01*
X129431513Y-90533890D01*
X129431507Y-90533887D01*
X129226190Y-90467175D01*
X129226175Y-90467172D01*
X129159001Y-90456531D01*
X129159000Y-90456532D01*
X129159000Y-91374297D01*
X129097993Y-91339075D01*
X128970826Y-91305000D01*
X128839174Y-91305000D01*
X128712007Y-91339075D01*
X128651000Y-91374297D01*
X128651000Y-90456532D01*
X128650998Y-90456531D01*
X128583824Y-90467172D01*
X128583809Y-90467175D01*
X128378492Y-90533887D01*
X128378486Y-90533890D01*
X128186121Y-90631905D01*
X128011460Y-90758804D01*
X128011457Y-90758806D01*
X127858803Y-90911460D01*
X127737245Y-91078771D01*
X127681022Y-91122125D01*
X127610286Y-91128200D01*
X127547495Y-91095068D01*
X127533373Y-91078771D01*
X127411577Y-90911134D01*
X127258868Y-90758425D01*
X127258865Y-90758423D01*
X127258863Y-90758421D01*
X127121067Y-90658306D01*
X127084140Y-90631477D01*
X127084139Y-90631476D01*
X127084137Y-90631475D01*
X126891704Y-90533425D01*
X126891703Y-90533424D01*
X126891702Y-90533424D01*
X126686303Y-90466685D01*
X126563534Y-90447241D01*
X126472987Y-90432900D01*
X126257013Y-90432900D01*
X126171687Y-90446414D01*
X126043696Y-90466685D01*
X125838297Y-90533424D01*
X125645859Y-90631477D01*
X125549561Y-90701442D01*
X125482693Y-90725301D01*
X125413541Y-90709220D01*
X125364061Y-90658306D01*
X125349500Y-90599506D01*
X125349500Y-87791389D01*
X125369502Y-87723268D01*
X125370735Y-87721387D01*
X125371299Y-87720543D01*
X125430483Y-87631968D01*
X125491430Y-87484831D01*
X125522500Y-87328630D01*
X125522500Y-87169370D01*
X125491430Y-87013169D01*
X125430483Y-86866032D01*
X125342003Y-86733611D01*
X125342001Y-86733609D01*
X125341996Y-86733603D01*
X125229396Y-86621003D01*
X125229390Y-86620998D01*
X125229389Y-86620997D01*
X125096968Y-86532517D01*
X124949831Y-86471570D01*
X124857820Y-86453268D01*
X124793632Y-86440500D01*
X124793630Y-86440500D01*
X124634370Y-86440500D01*
X124634367Y-86440500D01*
X124517219Y-86463802D01*
X124478169Y-86471570D01*
X124357897Y-86521389D01*
X124331032Y-86532517D01*
X124198609Y-86620998D01*
X124198603Y-86621003D01*
X124086003Y-86733603D01*
X124085998Y-86733609D01*
X123997517Y-86866032D01*
X123936571Y-87013167D01*
X123936570Y-87013170D01*
X123905500Y-87169367D01*
X123905500Y-87328632D01*
X123915054Y-87376664D01*
X123936570Y-87484831D01*
X123997517Y-87631968D01*
X124056701Y-87720543D01*
X124057265Y-87721387D01*
X124078480Y-87789140D01*
X124078500Y-87791389D01*
X124078500Y-95171409D01*
X124078500Y-95296591D01*
X124102922Y-95419369D01*
X124150827Y-95535022D01*
X124220375Y-95639108D01*
X124220377Y-95639110D01*
X125001093Y-96419826D01*
X125035119Y-96482138D01*
X125031833Y-96547851D01*
X125026686Y-96563692D01*
X125026686Y-96563693D01*
X124992900Y-96777015D01*
X124992900Y-96992984D01*
X125026685Y-97206303D01*
X125078053Y-97364394D01*
X125093425Y-97411704D01*
X125191475Y-97604137D01*
X125318421Y-97778863D01*
X125318423Y-97778865D01*
X125318425Y-97778868D01*
X125471134Y-97931577D01*
X125638346Y-98053064D01*
X125681700Y-98109287D01*
X125687775Y-98180023D01*
X125654643Y-98242814D01*
X125638346Y-98256936D01*
X125471134Y-98378422D01*
X125318425Y-98531131D01*
X125318423Y-98531134D01*
X125191477Y-98705859D01*
X125093424Y-98898297D01*
X125026685Y-99103696D01*
X125024036Y-99120423D01*
X124996931Y-99291565D01*
X124992900Y-99317015D01*
X124992900Y-99532984D01*
X125026685Y-99746303D01*
X125093424Y-99951702D01*
X125093425Y-99951704D01*
X125191475Y-100144137D01*
X125318421Y-100318863D01*
X125318423Y-100318865D01*
X125318425Y-100318868D01*
X125471134Y-100471577D01*
X125638346Y-100593064D01*
X125681700Y-100649287D01*
X125687775Y-100720023D01*
X125654643Y-100782814D01*
X125638346Y-100796936D01*
X125471134Y-100918422D01*
X125318425Y-101071131D01*
X125318423Y-101071134D01*
X125191477Y-101245859D01*
X125093424Y-101438297D01*
X125026685Y-101643696D01*
X124992900Y-101857015D01*
X124992900Y-102072984D01*
X125026685Y-102286303D01*
X125093424Y-102491702D01*
X125093425Y-102491704D01*
X125191475Y-102684137D01*
X125318421Y-102858863D01*
X125318423Y-102858865D01*
X125318425Y-102858868D01*
X125471131Y-103011574D01*
X125471134Y-103011576D01*
X125471137Y-103011579D01*
X125645863Y-103138525D01*
X125838296Y-103236575D01*
X126043699Y-103303315D01*
X126257013Y-103337100D01*
X126257015Y-103337100D01*
X126472985Y-103337100D01*
X126472987Y-103337100D01*
X126686301Y-103303315D01*
X126891704Y-103236575D01*
X127084137Y-103138525D01*
X127258863Y-103011579D01*
X127344606Y-102925835D01*
X127406916Y-102891812D01*
X127477732Y-102896876D01*
X127534568Y-102939422D01*
X127551755Y-102970898D01*
X127590511Y-103074804D01*
X127590512Y-103074807D01*
X127678138Y-103191861D01*
X127795192Y-103279487D01*
X127795194Y-103279488D01*
X127795196Y-103279489D01*
X127854275Y-103301524D01*
X127932195Y-103330588D01*
X127932203Y-103330590D01*
X127992750Y-103337099D01*
X127992755Y-103337099D01*
X127992762Y-103337100D01*
X127992768Y-103337100D01*
X129817232Y-103337100D01*
X129817238Y-103337100D01*
X129817245Y-103337099D01*
X129817249Y-103337099D01*
X129877796Y-103330590D01*
X129877799Y-103330589D01*
X129877801Y-103330589D01*
X130014804Y-103279489D01*
X130055489Y-103249033D01*
X130131861Y-103191861D01*
X130219487Y-103074807D01*
X130219487Y-103074806D01*
X130219489Y-103074804D01*
X130263560Y-102956645D01*
X130270588Y-102937804D01*
X130270590Y-102937796D01*
X130277099Y-102877249D01*
X130277100Y-102877232D01*
X130277100Y-101052767D01*
X130277099Y-101052750D01*
X130270590Y-100992203D01*
X130270588Y-100992195D01*
X130235458Y-100898011D01*
X130219489Y-100855196D01*
X130219488Y-100855194D01*
X130219487Y-100855192D01*
X130131861Y-100738138D01*
X130014807Y-100650512D01*
X130014804Y-100650511D01*
X129910898Y-100611755D01*
X129854063Y-100569208D01*
X129829253Y-100502687D01*
X129844345Y-100433313D01*
X129865834Y-100404607D01*
X129951579Y-100318863D01*
X130078525Y-100144137D01*
X130086086Y-100129296D01*
X130134835Y-100077682D01*
X130198353Y-100060500D01*
X130380590Y-100060500D01*
X130380591Y-100060500D01*
X130503369Y-100036078D01*
X130619022Y-99988173D01*
X130723108Y-99918625D01*
X131610405Y-99031328D01*
X131672717Y-98997302D01*
X131743532Y-99002367D01*
X131800368Y-99044914D01*
X131825179Y-99111434D01*
X131825500Y-99120423D01*
X131825500Y-101438609D01*
X131805498Y-101506730D01*
X131804266Y-101508610D01*
X131744516Y-101598033D01*
X131706410Y-101690028D01*
X131683570Y-101745169D01*
X131680754Y-101759328D01*
X131652500Y-101901367D01*
X131652500Y-101901370D01*
X131652500Y-102060630D01*
X131683570Y-102216831D01*
X131744517Y-102363968D01*
X131829867Y-102491704D01*
X131832998Y-102496390D01*
X131833003Y-102496396D01*
X131945603Y-102608996D01*
X131945609Y-102609001D01*
X131945611Y-102609003D01*
X132078032Y-102697483D01*
X132225169Y-102758430D01*
X132381370Y-102789500D01*
X132381371Y-102789500D01*
X132540629Y-102789500D01*
X132540630Y-102789500D01*
X132696831Y-102758430D01*
X132843968Y-102697483D01*
X132976389Y-102609003D01*
X133089003Y-102496389D01*
X133177483Y-102363968D01*
X133238430Y-102216831D01*
X133269500Y-102060630D01*
X133269500Y-101901370D01*
X133238430Y-101745169D01*
X133177483Y-101598032D01*
X133130499Y-101527715D01*
X133117734Y-101508610D01*
X133096520Y-101440857D01*
X133096500Y-101438609D01*
X133096500Y-101005523D01*
X133116502Y-100937402D01*
X133170158Y-100890909D01*
X133240432Y-100880805D01*
X133305012Y-100910299D01*
X133338907Y-100957303D01*
X133395517Y-101093968D01*
X133483508Y-101225657D01*
X133483998Y-101226390D01*
X133484003Y-101226396D01*
X133596606Y-101338999D01*
X133596611Y-101339003D01*
X133608499Y-101346946D01*
X133654028Y-101401421D01*
X133664500Y-101451713D01*
X133664500Y-120757609D01*
X133644498Y-120825730D01*
X133643266Y-120827610D01*
X133583516Y-120917033D01*
X133542323Y-121016482D01*
X133522570Y-121064169D01*
X133519932Y-121077430D01*
X133491500Y-121220367D01*
X133491500Y-121220370D01*
X133491500Y-121379630D01*
X133522570Y-121535831D01*
X133583517Y-121682968D01*
X133671997Y-121815389D01*
X133671998Y-121815390D01*
X133672003Y-121815396D01*
X133784603Y-121927996D01*
X133784609Y-121928001D01*
X133784611Y-121928003D01*
X133917032Y-122016483D01*
X134064169Y-122077430D01*
X134220370Y-122108500D01*
X134220371Y-122108500D01*
X134379629Y-122108500D01*
X134379630Y-122108500D01*
X134535831Y-122077430D01*
X134682968Y-122016483D01*
X134815389Y-121928003D01*
X134928003Y-121815389D01*
X135016483Y-121682968D01*
X135077430Y-121535831D01*
X135108500Y-121379630D01*
X135108500Y-121220370D01*
X135077430Y-121064169D01*
X135016483Y-120917032D01*
X134956734Y-120827610D01*
X134935520Y-120759857D01*
X134935500Y-120757609D01*
X134935500Y-104566500D01*
X134955502Y-104498379D01*
X135009158Y-104451886D01*
X135061500Y-104440500D01*
X135080629Y-104440500D01*
X135080630Y-104440500D01*
X135236831Y-104409430D01*
X135383968Y-104348483D01*
X135516389Y-104260003D01*
X135629003Y-104147389D01*
X135717483Y-104014968D01*
X135778430Y-103867831D01*
X135809500Y-103711630D01*
X135809500Y-103552370D01*
X135778430Y-103396169D01*
X135717483Y-103249032D01*
X135657734Y-103159610D01*
X135636520Y-103091857D01*
X135636500Y-103089609D01*
X135636500Y-92871389D01*
X135656502Y-92803268D01*
X135657735Y-92801387D01*
X135717483Y-92711968D01*
X135778430Y-92564831D01*
X135809500Y-92408630D01*
X135809500Y-92249370D01*
X135778430Y-92093169D01*
X135717483Y-91946032D01*
X135629003Y-91813611D01*
X135629001Y-91813609D01*
X135628996Y-91813603D01*
X135516396Y-91701003D01*
X135516390Y-91700998D01*
X135508162Y-91695500D01*
X135383968Y-91612517D01*
X135236831Y-91551570D01*
X135158730Y-91536035D01*
X135080632Y-91520500D01*
X135080630Y-91520500D01*
X135061500Y-91520500D01*
X134993379Y-91500498D01*
X134946886Y-91446842D01*
X134935500Y-91394500D01*
X134935500Y-81111500D01*
X134955502Y-81043379D01*
X135009158Y-80996886D01*
X135061500Y-80985500D01*
X142621500Y-80985500D01*
X142689621Y-81005502D01*
X142736114Y-81059158D01*
X142747500Y-81111500D01*
X142747500Y-83015061D01*
X142737909Y-83063279D01*
X142732572Y-83076162D01*
X142732570Y-83076168D01*
X142701500Y-83232367D01*
X142701500Y-83391632D01*
X142729500Y-83532400D01*
X142732570Y-83547831D01*
X142737909Y-83560720D01*
X142747500Y-83608936D01*
X142747500Y-97112061D01*
X142737909Y-97160279D01*
X142732572Y-97173162D01*
X142732570Y-97173168D01*
X142701500Y-97329367D01*
X142701500Y-97488632D01*
X142716139Y-97562224D01*
X142732570Y-97644831D01*
X142793517Y-97791968D01*
X142866384Y-97901022D01*
X142881998Y-97924390D01*
X142882003Y-97924396D01*
X142953719Y-97996112D01*
X142987745Y-98058424D01*
X142982680Y-98129239D01*
X142969391Y-98155205D01*
X142946830Y-98188971D01*
X142946827Y-98188977D01*
X142898924Y-98304625D01*
X142898922Y-98304630D01*
X142874500Y-98427406D01*
X142874500Y-100765500D01*
X142854498Y-100833621D01*
X142800842Y-100880114D01*
X142748500Y-100891500D01*
X141291350Y-100891500D01*
X141230803Y-100898009D01*
X141230795Y-100898011D01*
X141093797Y-100949110D01*
X141093792Y-100949112D01*
X140976738Y-101036738D01*
X140889112Y-101153792D01*
X140889110Y-101153797D01*
X140838011Y-101290795D01*
X140838009Y-101290803D01*
X140831500Y-101351350D01*
X140831500Y-103248649D01*
X140838009Y-103309196D01*
X140838011Y-103309204D01*
X140889110Y-103446202D01*
X140889112Y-103446207D01*
X140976738Y-103563261D01*
X141093792Y-103650887D01*
X141093794Y-103650888D01*
X141093796Y-103650889D01*
X141152875Y-103672924D01*
X141230795Y-103701988D01*
X141230803Y-103701990D01*
X141291350Y-103708499D01*
X141291355Y-103708499D01*
X141291362Y-103708500D01*
X142748500Y-103708500D01*
X142816621Y-103728502D01*
X142863114Y-103782158D01*
X142874500Y-103834500D01*
X142874500Y-126251753D01*
X142854498Y-126319874D01*
X142800842Y-126366367D01*
X142730568Y-126376471D01*
X142709564Y-126371586D01*
X142569827Y-126326183D01*
X142569831Y-126326183D01*
X142501711Y-126315394D01*
X142350851Y-126291500D01*
X142129149Y-126291500D01*
X141910176Y-126326182D01*
X141910170Y-126326183D01*
X141699328Y-126394690D01*
X141699322Y-126394693D01*
X141501781Y-126495345D01*
X141322421Y-126625658D01*
X141165658Y-126782421D01*
X141035345Y-126961781D01*
X140934693Y-127159322D01*
X140934690Y-127159328D01*
X140866183Y-127370170D01*
X140866182Y-127370175D01*
X140866182Y-127370176D01*
X140831500Y-127589149D01*
X140831500Y-127810851D01*
X140856501Y-127968700D01*
X140866183Y-128029829D01*
X140934690Y-128240671D01*
X140934692Y-128240676D01*
X141019009Y-128406157D01*
X141035345Y-128438218D01*
X141165658Y-128617578D01*
X141322421Y-128774341D01*
X141439183Y-128859174D01*
X141501785Y-128904657D01*
X141699324Y-129005308D01*
X141910176Y-129073818D01*
X142129149Y-129108500D01*
X142129152Y-129108500D01*
X142350848Y-129108500D01*
X142350851Y-129108500D01*
X142569824Y-129073818D01*
X142709566Y-129028412D01*
X142780531Y-129026385D01*
X142841329Y-129063047D01*
X142872654Y-129126759D01*
X142874500Y-129148246D01*
X142874500Y-134722593D01*
X142888406Y-134792500D01*
X142898922Y-134845369D01*
X142946827Y-134961022D01*
X143016375Y-135065108D01*
X143104892Y-135153625D01*
X143208978Y-135223173D01*
X143324631Y-135271078D01*
X143447409Y-135295500D01*
X143447410Y-135295500D01*
X162222590Y-135295500D01*
X162222591Y-135295500D01*
X162345369Y-135271078D01*
X162461022Y-135223173D01*
X162565108Y-135153625D01*
X162566879Y-135151853D01*
X162568033Y-135151223D01*
X162569887Y-135149702D01*
X162570175Y-135150053D01*
X162629185Y-135117826D01*
X162700001Y-135122885D01*
X162756840Y-135165427D01*
X162781656Y-135231945D01*
X162771085Y-135292193D01*
X162630350Y-135608289D01*
X162630349Y-135608290D01*
X162520534Y-135946265D01*
X162446647Y-136293878D01*
X162409500Y-136647307D01*
X162409500Y-141768500D01*
X162389498Y-141836621D01*
X162335842Y-141883114D01*
X162283500Y-141894500D01*
X109901500Y-141894500D01*
X109833379Y-141874498D01*
X109786886Y-141820842D01*
X109775500Y-141768500D01*
X109775500Y-131898709D01*
X117599500Y-131898709D01*
X117599500Y-132141290D01*
X117631160Y-132381782D01*
X117693944Y-132616095D01*
X117693945Y-132616097D01*
X117693946Y-132616100D01*
X117786776Y-132840212D01*
X117786777Y-132840213D01*
X117786782Y-132840224D01*
X117908061Y-133050285D01*
X117908063Y-133050288D01*
X117908064Y-133050289D01*
X118055735Y-133242738D01*
X118055739Y-133242742D01*
X118055744Y-133242748D01*
X118227251Y-133414255D01*
X118227256Y-133414259D01*
X118227262Y-133414265D01*
X118419711Y-133561936D01*
X118419714Y-133561938D01*
X118629775Y-133683217D01*
X118629779Y-133683218D01*
X118629788Y-133683224D01*
X118853900Y-133776054D01*
X119088211Y-133838838D01*
X119088215Y-133838838D01*
X119088217Y-133838839D01*
X119150202Y-133846999D01*
X119328712Y-133870500D01*
X119328719Y-133870500D01*
X119571281Y-133870500D01*
X119571288Y-133870500D01*
X119788637Y-133841885D01*
X119811782Y-133838839D01*
X119811782Y-133838838D01*
X119811789Y-133838838D01*
X120046100Y-133776054D01*
X120270212Y-133683224D01*
X120480289Y-133561936D01*
X120672738Y-133414265D01*
X120844265Y-133242738D01*
X120991936Y-133050289D01*
X121113224Y-132840212D01*
X121206054Y-132616100D01*
X121268838Y-132381789D01*
X121300500Y-132141288D01*
X121300500Y-131898712D01*
X121268838Y-131658211D01*
X121206054Y-131423900D01*
X121113224Y-131199788D01*
X121113218Y-131199779D01*
X121113217Y-131199775D01*
X120991938Y-130989714D01*
X120991936Y-130989711D01*
X120844265Y-130797262D01*
X120844259Y-130797256D01*
X120844255Y-130797251D01*
X120672748Y-130625744D01*
X120672742Y-130625739D01*
X120672738Y-130625735D01*
X120480289Y-130478064D01*
X120480288Y-130478063D01*
X120480285Y-130478061D01*
X120270224Y-130356782D01*
X120270216Y-130356778D01*
X120270212Y-130356776D01*
X120046100Y-130263946D01*
X120046097Y-130263945D01*
X120046095Y-130263944D01*
X119811782Y-130201160D01*
X119571290Y-130169500D01*
X119571288Y-130169500D01*
X119328712Y-130169500D01*
X119328709Y-130169500D01*
X119088217Y-130201160D01*
X118853904Y-130263944D01*
X118853900Y-130263946D01*
X118629786Y-130356777D01*
X118629775Y-130356782D01*
X118419714Y-130478061D01*
X118227262Y-130625735D01*
X118227251Y-130625744D01*
X118055744Y-130797251D01*
X118055735Y-130797262D01*
X117908061Y-130989714D01*
X117786782Y-131199775D01*
X117786777Y-131199786D01*
X117786776Y-131199788D01*
X117707639Y-131390842D01*
X117693946Y-131423900D01*
X117693944Y-131423904D01*
X117631160Y-131658217D01*
X117599500Y-131898709D01*
X109775500Y-131898709D01*
X109775500Y-125963329D01*
X114406500Y-125963329D01*
X114406500Y-125963340D01*
X114406500Y-125963341D01*
X114406500Y-127901659D01*
X114408360Y-127936696D01*
X114409311Y-127954592D01*
X114450183Y-128165925D01*
X114454031Y-128185817D01*
X114537182Y-128406152D01*
X114537184Y-128406157D01*
X114656373Y-128609266D01*
X114808180Y-128789319D01*
X114988233Y-128941126D01*
X115191342Y-129060315D01*
X115191344Y-129060316D01*
X115191348Y-129060318D01*
X115411686Y-129143470D01*
X115642908Y-129188189D01*
X115695829Y-129191000D01*
X117634170Y-129190999D01*
X117687092Y-129188189D01*
X117918314Y-129143470D01*
X118138652Y-129060318D01*
X118341768Y-128941125D01*
X118521819Y-128789319D01*
X118673625Y-128609268D01*
X118792818Y-128406152D01*
X118875970Y-128185814D01*
X118920689Y-127954592D01*
X118923500Y-127901671D01*
X118923499Y-125963330D01*
X118920689Y-125910408D01*
X118875970Y-125679186D01*
X118792818Y-125458848D01*
X118792816Y-125458844D01*
X118792815Y-125458842D01*
X118673626Y-125255733D01*
X118521819Y-125075680D01*
X118341766Y-124923873D01*
X118138657Y-124804684D01*
X118138652Y-124804682D01*
X118033226Y-124764896D01*
X117953701Y-124734884D01*
X117897031Y-124692119D01*
X117872477Y-124625503D01*
X117887836Y-124556188D01*
X117938232Y-124506180D01*
X117998190Y-124491000D01*
X121463632Y-124491000D01*
X121463638Y-124491000D01*
X121463645Y-124490999D01*
X121463649Y-124490999D01*
X121524196Y-124484490D01*
X121524199Y-124484489D01*
X121524201Y-124484489D01*
X121534891Y-124480502D01*
X121588517Y-124460500D01*
X121661204Y-124433389D01*
X121672805Y-124424705D01*
X121778261Y-124345761D01*
X121865887Y-124228707D01*
X121865887Y-124228706D01*
X121865889Y-124228704D01*
X121916989Y-124091701D01*
X121919771Y-124065831D01*
X121923499Y-124031149D01*
X121923500Y-124031132D01*
X121923500Y-120433867D01*
X121923499Y-120433850D01*
X121916990Y-120373303D01*
X121916988Y-120373295D01*
X121876697Y-120265273D01*
X121865889Y-120236296D01*
X121865888Y-120236294D01*
X121865887Y-120236292D01*
X121778261Y-120119238D01*
X121661207Y-120031612D01*
X121661202Y-120031610D01*
X121524204Y-119980511D01*
X121524196Y-119980509D01*
X121463649Y-119974000D01*
X121463638Y-119974000D01*
X117866362Y-119974000D01*
X117866350Y-119974000D01*
X117805803Y-119980509D01*
X117805795Y-119980511D01*
X117668797Y-120031610D01*
X117668792Y-120031612D01*
X117551738Y-120119238D01*
X117464112Y-120236292D01*
X117464110Y-120236297D01*
X117413011Y-120373295D01*
X117413009Y-120373303D01*
X117406500Y-120433850D01*
X117406500Y-124031149D01*
X117413009Y-124091696D01*
X117413011Y-124091704D01*
X117464110Y-124228702D01*
X117464112Y-124228707D01*
X117551738Y-124345761D01*
X117668793Y-124433387D01*
X117668796Y-124433389D01*
X117668798Y-124433389D01*
X117676162Y-124437411D01*
X117726365Y-124487612D01*
X117741458Y-124556986D01*
X117716649Y-124623507D01*
X117659814Y-124666055D01*
X117615779Y-124674000D01*
X115695840Y-124674000D01*
X115656329Y-124676098D01*
X115642908Y-124676811D01*
X115642907Y-124676811D01*
X115563757Y-124692119D01*
X115411686Y-124721530D01*
X115411684Y-124721530D01*
X115411682Y-124721531D01*
X115191347Y-124804682D01*
X115191342Y-124804684D01*
X114988233Y-124923873D01*
X114808180Y-125075680D01*
X114656373Y-125255733D01*
X114537184Y-125458842D01*
X114537182Y-125458847D01*
X114454031Y-125679181D01*
X114454030Y-125679185D01*
X114454030Y-125679186D01*
X114409311Y-125910408D01*
X114406500Y-125963329D01*
X109775500Y-125963329D01*
X109775500Y-121167893D01*
X111657000Y-121167893D01*
X111657000Y-121978500D01*
X113165000Y-121978500D01*
X113165000Y-122486500D01*
X111657000Y-122486500D01*
X111657000Y-123297106D01*
X111667467Y-123430094D01*
X111722794Y-123649667D01*
X111722797Y-123649676D01*
X111816441Y-123855840D01*
X111816444Y-123855846D01*
X111945394Y-124041973D01*
X111945408Y-124041990D01*
X112105509Y-124202091D01*
X112105526Y-124202105D01*
X112291653Y-124331055D01*
X112291659Y-124331058D01*
X112497823Y-124424702D01*
X112497832Y-124424705D01*
X112717405Y-124480032D01*
X112850393Y-124490500D01*
X113411000Y-124490500D01*
X113411000Y-123663202D01*
X113472007Y-123698425D01*
X113599174Y-123732500D01*
X113730826Y-123732500D01*
X113857993Y-123698425D01*
X113919000Y-123663202D01*
X113919000Y-124490500D01*
X114479607Y-124490500D01*
X114612594Y-124480032D01*
X114832167Y-124424705D01*
X114832176Y-124424702D01*
X115038340Y-124331058D01*
X115038346Y-124331055D01*
X115224473Y-124202105D01*
X115224490Y-124202091D01*
X115384591Y-124041990D01*
X115384605Y-124041973D01*
X115513555Y-123855846D01*
X115513558Y-123855840D01*
X115607202Y-123649676D01*
X115607205Y-123649667D01*
X115662532Y-123430094D01*
X115673000Y-123297106D01*
X115673000Y-122486500D01*
X114165000Y-122486500D01*
X114165000Y-121978500D01*
X115673000Y-121978500D01*
X115673000Y-121167893D01*
X115662532Y-121034905D01*
X115607205Y-120815332D01*
X115607202Y-120815323D01*
X115513558Y-120609159D01*
X115513555Y-120609153D01*
X115384605Y-120423026D01*
X115384591Y-120423009D01*
X115224490Y-120262908D01*
X115224473Y-120262894D01*
X115038346Y-120133944D01*
X115038340Y-120133941D01*
X114832176Y-120040297D01*
X114832167Y-120040294D01*
X114612594Y-119984967D01*
X114479607Y-119974500D01*
X113919000Y-119974500D01*
X113919000Y-120801797D01*
X113857993Y-120766575D01*
X113730826Y-120732500D01*
X113599174Y-120732500D01*
X113472007Y-120766575D01*
X113411000Y-120801797D01*
X113411000Y-119974500D01*
X112850393Y-119974500D01*
X112717405Y-119984967D01*
X112497832Y-120040294D01*
X112497823Y-120040297D01*
X112291659Y-120133941D01*
X112291653Y-120133944D01*
X112105526Y-120262894D01*
X112105509Y-120262908D01*
X111945408Y-120423009D01*
X111945394Y-120423026D01*
X111816444Y-120609153D01*
X111816441Y-120609159D01*
X111722797Y-120815323D01*
X111722794Y-120815332D01*
X111667467Y-121034905D01*
X111657000Y-121167893D01*
X109775500Y-121167893D01*
X109775500Y-112830500D01*
X109795502Y-112762379D01*
X109849158Y-112715886D01*
X109901500Y-112704500D01*
X111995618Y-112704500D01*
X112023367Y-112693006D01*
X112044606Y-112671767D01*
X112056100Y-112644018D01*
X112056100Y-106700400D01*
X112076102Y-106632279D01*
X112129758Y-106585786D01*
X112182100Y-106574400D01*
X116847018Y-106574400D01*
X116874767Y-106562906D01*
X116896006Y-106541667D01*
X116907500Y-106513918D01*
X116907500Y-87256082D01*
X116896006Y-87228333D01*
X116896003Y-87228329D01*
X116874770Y-87207096D01*
X116874766Y-87207093D01*
X116847018Y-87195600D01*
X112182100Y-87195600D01*
X112113979Y-87175598D01*
X112067486Y-87121942D01*
X112056100Y-87069600D01*
X112056100Y-85648709D01*
X117599500Y-85648709D01*
X117599500Y-85891290D01*
X117631160Y-86131782D01*
X117693944Y-86366095D01*
X117693945Y-86366097D01*
X117693946Y-86366100D01*
X117786776Y-86590212D01*
X117786777Y-86590213D01*
X117786782Y-86590224D01*
X117908061Y-86800285D01*
X117908063Y-86800288D01*
X117908064Y-86800289D01*
X118055735Y-86992738D01*
X118055739Y-86992742D01*
X118055744Y-86992748D01*
X118227251Y-87164255D01*
X118227256Y-87164259D01*
X118227262Y-87164265D01*
X118419711Y-87311936D01*
X118419714Y-87311938D01*
X118629775Y-87433217D01*
X118629779Y-87433218D01*
X118629788Y-87433224D01*
X118853900Y-87526054D01*
X119088211Y-87588838D01*
X119088215Y-87588838D01*
X119088217Y-87588839D01*
X119150202Y-87596999D01*
X119328712Y-87620500D01*
X119328719Y-87620500D01*
X119571281Y-87620500D01*
X119571288Y-87620500D01*
X119792678Y-87591354D01*
X119811782Y-87588839D01*
X119811782Y-87588838D01*
X119811789Y-87588838D01*
X120046100Y-87526054D01*
X120270212Y-87433224D01*
X120480289Y-87311936D01*
X120672738Y-87164265D01*
X120844265Y-86992738D01*
X120991936Y-86800289D01*
X121113224Y-86590212D01*
X121206054Y-86366100D01*
X121268838Y-86131789D01*
X121300500Y-85891288D01*
X121300500Y-85648712D01*
X121268838Y-85408211D01*
X121206054Y-85173900D01*
X121113224Y-84949788D01*
X121113217Y-84949776D01*
X121113217Y-84949775D01*
X120991938Y-84739714D01*
X120991936Y-84739712D01*
X120991936Y-84739711D01*
X120844265Y-84547262D01*
X120844259Y-84547256D01*
X120844255Y-84547251D01*
X120672748Y-84375744D01*
X120672742Y-84375739D01*
X120672738Y-84375735D01*
X120480289Y-84228064D01*
X120480288Y-84228063D01*
X120480285Y-84228061D01*
X120270224Y-84106782D01*
X120270216Y-84106778D01*
X120270212Y-84106776D01*
X120046100Y-84013946D01*
X120046097Y-84013945D01*
X120046095Y-84013944D01*
X119811782Y-83951160D01*
X119571290Y-83919500D01*
X119571288Y-83919500D01*
X119328712Y-83919500D01*
X119328709Y-83919500D01*
X119088217Y-83951160D01*
X118853904Y-84013944D01*
X118853900Y-84013946D01*
X118629786Y-84106777D01*
X118629775Y-84106782D01*
X118419714Y-84228061D01*
X118227262Y-84375735D01*
X118227251Y-84375744D01*
X118055744Y-84547251D01*
X118055735Y-84547262D01*
X117908061Y-84739714D01*
X117786782Y-84949775D01*
X117786777Y-84949786D01*
X117786776Y-84949788D01*
X117780312Y-84965394D01*
X117693946Y-85173900D01*
X117693944Y-85173904D01*
X117631160Y-85408217D01*
X117599500Y-85648709D01*
X112056100Y-85648709D01*
X112056100Y-81125981D01*
X112044606Y-81098233D01*
X112044603Y-81098229D01*
X112023370Y-81076996D01*
X112023366Y-81076993D01*
X111995618Y-81065500D01*
X109901500Y-81065500D01*
X109833379Y-81045498D01*
X109786886Y-80991842D01*
X109775500Y-80939500D01*
X109775500Y-80200350D01*
X126349500Y-80200350D01*
X126349500Y-81597649D01*
X126356009Y-81658196D01*
X126356011Y-81658204D01*
X126407110Y-81795202D01*
X126407112Y-81795207D01*
X126494738Y-81912261D01*
X126611792Y-81999887D01*
X126611794Y-81999888D01*
X126611796Y-81999889D01*
X126644693Y-82012159D01*
X126748795Y-82050988D01*
X126748803Y-82050990D01*
X126809350Y-82057499D01*
X126809355Y-82057499D01*
X126809362Y-82057500D01*
X126809368Y-82057500D01*
X127092195Y-82057500D01*
X127160316Y-82077502D01*
X127206809Y-82131158D01*
X127216913Y-82201432D01*
X127187419Y-82266012D01*
X127131131Y-82303333D01*
X127063293Y-82325374D01*
X126900810Y-82408164D01*
X126753285Y-82515348D01*
X126753282Y-82515350D01*
X126624350Y-82644282D01*
X126624348Y-82644285D01*
X126517164Y-82791810D01*
X126434374Y-82954293D01*
X126378027Y-83127711D01*
X126378026Y-83127716D01*
X126378026Y-83127717D01*
X126349500Y-83307824D01*
X126349500Y-83490176D01*
X126368179Y-83608110D01*
X126378027Y-83670288D01*
X126434374Y-83843706D01*
X126434375Y-83843709D01*
X126434376Y-83843710D01*
X126488433Y-83949803D01*
X126517164Y-84006189D01*
X126522800Y-84013946D01*
X126624346Y-84153712D01*
X126624348Y-84153714D01*
X126624350Y-84153717D01*
X126753282Y-84282649D01*
X126753285Y-84282651D01*
X126753288Y-84282654D01*
X126900814Y-84389838D01*
X127063290Y-84472624D01*
X127236717Y-84528974D01*
X127416824Y-84557500D01*
X127416827Y-84557500D01*
X127599173Y-84557500D01*
X127599176Y-84557500D01*
X127779283Y-84528974D01*
X127952710Y-84472624D01*
X128115186Y-84389838D01*
X128262712Y-84282654D01*
X128391654Y-84153712D01*
X128498838Y-84006186D01*
X128581624Y-83843710D01*
X128637974Y-83670283D01*
X128666500Y-83490176D01*
X128666500Y-83307824D01*
X128637974Y-83127717D01*
X128589165Y-82977500D01*
X128581625Y-82954293D01*
X128581624Y-82954292D01*
X128581624Y-82954290D01*
X128498838Y-82791814D01*
X128391654Y-82644288D01*
X128391651Y-82644285D01*
X128391649Y-82644282D01*
X128262717Y-82515350D01*
X128262714Y-82515348D01*
X128262712Y-82515346D01*
X128115186Y-82408162D01*
X127952710Y-82325376D01*
X127952709Y-82325375D01*
X127952706Y-82325374D01*
X127884869Y-82303333D01*
X127826263Y-82263259D01*
X127798626Y-82197863D01*
X127810733Y-82127906D01*
X127858739Y-82075600D01*
X127923805Y-82057500D01*
X128206632Y-82057500D01*
X128206638Y-82057500D01*
X128206645Y-82057499D01*
X128206649Y-82057499D01*
X128267196Y-82050990D01*
X128267199Y-82050989D01*
X128267201Y-82050989D01*
X128404204Y-81999889D01*
X128521261Y-81912261D01*
X128578156Y-81836259D01*
X128608887Y-81795207D01*
X128608887Y-81795206D01*
X128608889Y-81795204D01*
X128659989Y-81658201D01*
X128663386Y-81626609D01*
X128666499Y-81597649D01*
X128666500Y-81597632D01*
X128666500Y-80200367D01*
X128666499Y-80200350D01*
X128659990Y-80139803D01*
X128659988Y-80139795D01*
X128608889Y-80002797D01*
X128608887Y-80002792D01*
X128521261Y-79885738D01*
X128404207Y-79798112D01*
X128404202Y-79798110D01*
X128267204Y-79747011D01*
X128267196Y-79747009D01*
X128206649Y-79740500D01*
X128206638Y-79740500D01*
X126809362Y-79740500D01*
X126809350Y-79740500D01*
X126748803Y-79747009D01*
X126748795Y-79747011D01*
X126611797Y-79798110D01*
X126611792Y-79798112D01*
X126494738Y-79885738D01*
X126407112Y-80002792D01*
X126407110Y-80002797D01*
X126356011Y-80139795D01*
X126356009Y-80139803D01*
X126349500Y-80200350D01*
X109775500Y-80200350D01*
X109775500Y-76031500D01*
X109795502Y-75963379D01*
X109849158Y-75916886D01*
X109901500Y-75905500D01*
X162283500Y-75905500D01*
X162351621Y-75925502D01*
G37*
%TD.AperFunction*%
%TA.AperFunction,Conductor*%
G36*
X209566621Y-75925502D02*
G01*
X209613114Y-75979158D01*
X209624500Y-76031500D01*
X209624500Y-141768500D01*
X209604498Y-141836621D01*
X209550842Y-141883114D01*
X209498500Y-141894500D01*
X169316500Y-141894500D01*
X169248379Y-141874498D01*
X169201886Y-141820842D01*
X169190500Y-141768500D01*
X169190500Y-136647313D01*
X169190500Y-136647311D01*
X169153353Y-136293881D01*
X169079466Y-135946270D01*
X169079465Y-135946265D01*
X168969650Y-135608290D01*
X168969649Y-135608289D01*
X168969648Y-135608286D01*
X168825103Y-135283633D01*
X168729375Y-135117826D01*
X168647422Y-134975878D01*
X168647418Y-134975873D01*
X168647415Y-134975867D01*
X168438529Y-134688361D01*
X168200736Y-134424264D01*
X167936639Y-134186471D01*
X167649133Y-133977585D01*
X167649128Y-133977582D01*
X167649121Y-133977577D01*
X167498503Y-133890619D01*
X167449510Y-133839237D01*
X167436073Y-133769523D01*
X167462460Y-133703612D01*
X167520292Y-133662430D01*
X167561503Y-133655500D01*
X173538500Y-133655500D01*
X173606621Y-133675502D01*
X173653114Y-133729158D01*
X173664500Y-133781500D01*
X173664500Y-135987609D01*
X173644498Y-136055730D01*
X173643266Y-136057610D01*
X173583516Y-136147033D01*
X173522571Y-136294167D01*
X173522570Y-136294170D01*
X173491500Y-136450367D01*
X173491500Y-136609632D01*
X173507035Y-136687730D01*
X173522570Y-136765831D01*
X173583517Y-136912968D01*
X173671997Y-137045389D01*
X173671998Y-137045390D01*
X173672003Y-137045396D01*
X173784603Y-137157996D01*
X173784609Y-137158001D01*
X173784611Y-137158003D01*
X173917032Y-137246483D01*
X174064169Y-137307430D01*
X174220370Y-137338500D01*
X174220371Y-137338500D01*
X174379629Y-137338500D01*
X174379630Y-137338500D01*
X174535831Y-137307430D01*
X174682968Y-137246483D01*
X174815389Y-137158003D01*
X174928003Y-137045389D01*
X175016483Y-136912968D01*
X175077430Y-136765831D01*
X175108500Y-136609630D01*
X175108500Y-136450370D01*
X175077430Y-136294169D01*
X175039442Y-136202461D01*
X175031853Y-136131872D01*
X175063632Y-136068385D01*
X175124689Y-136032157D01*
X175180428Y-136030664D01*
X175320370Y-136058500D01*
X175320371Y-136058500D01*
X175479629Y-136058500D01*
X175479630Y-136058500D01*
X175635831Y-136027430D01*
X175782968Y-135966483D01*
X175915389Y-135878003D01*
X176028003Y-135765389D01*
X176116483Y-135632968D01*
X176177430Y-135485831D01*
X176208500Y-135329630D01*
X176208500Y-135170370D01*
X176177430Y-135014169D01*
X176148470Y-134944256D01*
X176140882Y-134873667D01*
X176172661Y-134810180D01*
X176233719Y-134773953D01*
X176289457Y-134772460D01*
X176420370Y-134798500D01*
X176420371Y-134798500D01*
X176579629Y-134798500D01*
X176579630Y-134798500D01*
X176735831Y-134767430D01*
X176882968Y-134706483D01*
X177015389Y-134618003D01*
X177128003Y-134505389D01*
X177216483Y-134372968D01*
X177277430Y-134225831D01*
X177308500Y-134069630D01*
X177308500Y-133910370D01*
X177277430Y-133754169D01*
X177216483Y-133607032D01*
X177156734Y-133517610D01*
X177135520Y-133449857D01*
X177135500Y-133447609D01*
X177135500Y-132037410D01*
X177135499Y-132037406D01*
X177111078Y-131914631D01*
X177104483Y-131898709D01*
X187599500Y-131898709D01*
X187599500Y-132141290D01*
X187631160Y-132381782D01*
X187693944Y-132616095D01*
X187693945Y-132616097D01*
X187693946Y-132616100D01*
X187786776Y-132840212D01*
X187786777Y-132840213D01*
X187786782Y-132840224D01*
X187908061Y-133050285D01*
X187908063Y-133050288D01*
X187908064Y-133050289D01*
X188055735Y-133242738D01*
X188055739Y-133242742D01*
X188055744Y-133242748D01*
X188227251Y-133414255D01*
X188227256Y-133414259D01*
X188227262Y-133414265D01*
X188419711Y-133561936D01*
X188419714Y-133561938D01*
X188629775Y-133683217D01*
X188629779Y-133683218D01*
X188629788Y-133683224D01*
X188853900Y-133776054D01*
X189088211Y-133838838D01*
X189088215Y-133838838D01*
X189088217Y-133838839D01*
X189150202Y-133846999D01*
X189328712Y-133870500D01*
X189328719Y-133870500D01*
X189571281Y-133870500D01*
X189571288Y-133870500D01*
X189788637Y-133841885D01*
X189811782Y-133838839D01*
X189811782Y-133838838D01*
X189811789Y-133838838D01*
X190046100Y-133776054D01*
X190270212Y-133683224D01*
X190480289Y-133561936D01*
X190672738Y-133414265D01*
X190844265Y-133242738D01*
X190991936Y-133050289D01*
X191113224Y-132840212D01*
X191206054Y-132616100D01*
X191268838Y-132381789D01*
X191300500Y-132141288D01*
X191300500Y-131898712D01*
X191268838Y-131658211D01*
X191206054Y-131423900D01*
X191113224Y-131199788D01*
X191113218Y-131199779D01*
X191113217Y-131199775D01*
X190991938Y-130989714D01*
X190991936Y-130989711D01*
X190844265Y-130797262D01*
X190844259Y-130797256D01*
X190844255Y-130797251D01*
X190672748Y-130625744D01*
X190672742Y-130625739D01*
X190672738Y-130625735D01*
X190480289Y-130478064D01*
X190480288Y-130478063D01*
X190480285Y-130478061D01*
X190270224Y-130356782D01*
X190270216Y-130356778D01*
X190270212Y-130356776D01*
X190046100Y-130263946D01*
X190046097Y-130263945D01*
X190046095Y-130263944D01*
X189811782Y-130201160D01*
X189571290Y-130169500D01*
X189571288Y-130169500D01*
X189328712Y-130169500D01*
X189328709Y-130169500D01*
X189088217Y-130201160D01*
X188853904Y-130263944D01*
X188853900Y-130263946D01*
X188629786Y-130356777D01*
X188629775Y-130356782D01*
X188419714Y-130478061D01*
X188227262Y-130625735D01*
X188227251Y-130625744D01*
X188055744Y-130797251D01*
X188055735Y-130797262D01*
X187908061Y-130989714D01*
X187786782Y-131199775D01*
X187786777Y-131199786D01*
X187786776Y-131199788D01*
X187707639Y-131390842D01*
X187693946Y-131423900D01*
X187693944Y-131423904D01*
X187631160Y-131658217D01*
X187599500Y-131898709D01*
X177104483Y-131898709D01*
X177063173Y-131798978D01*
X176993625Y-131694892D01*
X176905108Y-131606375D01*
X176801022Y-131536827D01*
X176685369Y-131488922D01*
X176562593Y-131464500D01*
X176562591Y-131464500D01*
X174922619Y-131464500D01*
X174854498Y-131444498D01*
X174808005Y-131390842D01*
X174799040Y-131363082D01*
X174783850Y-131286718D01*
X174767430Y-131204169D01*
X174706483Y-131057032D01*
X174646734Y-130967610D01*
X174625520Y-130899857D01*
X174625500Y-130897609D01*
X174625500Y-129148246D01*
X174645502Y-129080125D01*
X174699158Y-129033632D01*
X174769432Y-129023528D01*
X174790425Y-129028410D01*
X174930176Y-129073818D01*
X175149149Y-129108500D01*
X175149152Y-129108500D01*
X175370848Y-129108500D01*
X175370851Y-129108500D01*
X175589824Y-129073818D01*
X175800676Y-129005308D01*
X175998215Y-128904657D01*
X176177576Y-128774343D01*
X176334343Y-128617576D01*
X176428065Y-128488579D01*
X176484286Y-128445226D01*
X176555022Y-128439151D01*
X176617814Y-128472282D01*
X176631932Y-128488576D01*
X176725657Y-128617576D01*
X176725659Y-128617578D01*
X176725661Y-128617581D01*
X176882421Y-128774341D01*
X176999183Y-128859174D01*
X177061785Y-128904657D01*
X177259324Y-129005308D01*
X177470176Y-129073818D01*
X177689149Y-129108500D01*
X177689152Y-129108500D01*
X177910848Y-129108500D01*
X177910851Y-129108500D01*
X178129824Y-129073818D01*
X178340676Y-129005308D01*
X178538215Y-128904657D01*
X178717576Y-128774343D01*
X178874343Y-128617576D01*
X179004657Y-128438215D01*
X179105308Y-128240676D01*
X179173818Y-128029824D01*
X179208500Y-127810851D01*
X179208500Y-127589149D01*
X179173818Y-127370176D01*
X179105308Y-127159324D01*
X179004657Y-126961785D01*
X178874343Y-126782424D01*
X178874341Y-126782421D01*
X178717578Y-126625658D01*
X178538218Y-126495345D01*
X178538217Y-126495344D01*
X178538215Y-126495343D01*
X178340676Y-126394692D01*
X178340673Y-126394691D01*
X178340671Y-126394690D01*
X178129829Y-126326183D01*
X178129825Y-126326182D01*
X178129824Y-126326182D01*
X177910851Y-126291500D01*
X177689149Y-126291500D01*
X177470176Y-126326182D01*
X177470170Y-126326183D01*
X177259328Y-126394690D01*
X177259322Y-126394693D01*
X177061781Y-126495345D01*
X176882421Y-126625658D01*
X176725658Y-126782421D01*
X176631936Y-126911419D01*
X176575713Y-126954773D01*
X176504977Y-126960848D01*
X176442185Y-126927716D01*
X176428064Y-126911419D01*
X176334341Y-126782421D01*
X176177578Y-126625658D01*
X175998218Y-126495345D01*
X175998217Y-126495344D01*
X175998215Y-126495343D01*
X175800676Y-126394692D01*
X175800673Y-126394691D01*
X175800671Y-126394690D01*
X175589829Y-126326183D01*
X175589825Y-126326182D01*
X175589824Y-126326182D01*
X175370851Y-126291500D01*
X175149149Y-126291500D01*
X174930176Y-126326182D01*
X174930170Y-126326183D01*
X174790436Y-126371586D01*
X174719468Y-126373614D01*
X174658671Y-126336951D01*
X174627345Y-126273239D01*
X174625500Y-126251753D01*
X174625500Y-115482389D01*
X174645502Y-115414268D01*
X174646735Y-115412387D01*
X174706483Y-115322968D01*
X174767430Y-115175831D01*
X174798500Y-115019630D01*
X174798500Y-114860370D01*
X174767430Y-114704169D01*
X174706483Y-114557032D01*
X174646734Y-114467610D01*
X174625520Y-114399857D01*
X174625500Y-114397609D01*
X174625500Y-113318640D01*
X174645502Y-113250519D01*
X174699158Y-113204026D01*
X174726919Y-113195061D01*
X174865831Y-113167430D01*
X175012968Y-113106483D01*
X175145389Y-113018003D01*
X175258003Y-112905389D01*
X175346483Y-112772968D01*
X175407430Y-112625831D01*
X175438500Y-112469630D01*
X175438500Y-112310370D01*
X175407430Y-112154169D01*
X175346483Y-112007032D01*
X175286734Y-111917610D01*
X175265520Y-111849857D01*
X175265500Y-111847609D01*
X175265500Y-103832799D01*
X175285502Y-103764678D01*
X175339158Y-103718185D01*
X175371781Y-103708352D01*
X175589824Y-103673818D01*
X175800676Y-103605308D01*
X175998215Y-103504657D01*
X176177576Y-103374343D01*
X176334343Y-103217576D01*
X176428065Y-103088579D01*
X176484286Y-103045226D01*
X176555022Y-103039151D01*
X176617814Y-103072282D01*
X176631932Y-103088576D01*
X176725657Y-103217576D01*
X176725659Y-103217578D01*
X176725661Y-103217581D01*
X176882421Y-103374341D01*
X176882424Y-103374343D01*
X177061785Y-103504657D01*
X177259324Y-103605308D01*
X177470176Y-103673818D01*
X177689149Y-103708500D01*
X177689152Y-103708500D01*
X177910848Y-103708500D01*
X177910851Y-103708500D01*
X178129824Y-103673818D01*
X178340676Y-103605308D01*
X178538215Y-103504657D01*
X178717576Y-103374343D01*
X178874343Y-103217576D01*
X179004657Y-103038215D01*
X179105308Y-102840676D01*
X179173818Y-102629824D01*
X179208500Y-102410851D01*
X179208500Y-102189149D01*
X179173818Y-101970176D01*
X179105308Y-101759324D01*
X179004657Y-101561785D01*
X178888145Y-101401421D01*
X178874341Y-101382421D01*
X178717578Y-101225658D01*
X178538218Y-101095345D01*
X178538217Y-101095344D01*
X178538215Y-101095343D01*
X178340676Y-100994692D01*
X178340673Y-100994691D01*
X178340671Y-100994690D01*
X178129829Y-100926183D01*
X178129825Y-100926182D01*
X178129824Y-100926182D01*
X177910851Y-100891500D01*
X177689149Y-100891500D01*
X177470176Y-100926182D01*
X177470170Y-100926183D01*
X177259328Y-100994690D01*
X177259322Y-100994693D01*
X177061781Y-101095345D01*
X176882421Y-101225658D01*
X176725658Y-101382421D01*
X176631936Y-101511419D01*
X176575713Y-101554773D01*
X176504977Y-101560848D01*
X176442185Y-101527716D01*
X176428064Y-101511419D01*
X176334341Y-101382421D01*
X176177578Y-101225658D01*
X175998218Y-101095345D01*
X175998217Y-101095344D01*
X175998215Y-101095343D01*
X175800676Y-100994692D01*
X175800673Y-100994691D01*
X175800671Y-100994690D01*
X175589829Y-100926183D01*
X175589825Y-100926182D01*
X175589824Y-100926182D01*
X175370851Y-100891500D01*
X175149149Y-100891500D01*
X174930176Y-100926182D01*
X174930170Y-100926183D01*
X174719328Y-100994690D01*
X174719322Y-100994693D01*
X174521781Y-101095345D01*
X174342421Y-101225658D01*
X174185658Y-101382421D01*
X174091936Y-101511419D01*
X174035713Y-101554773D01*
X173964977Y-101560848D01*
X173902185Y-101527716D01*
X173888064Y-101511419D01*
X173794341Y-101382421D01*
X173637578Y-101225658D01*
X173458215Y-101095343D01*
X173424296Y-101078060D01*
X173372681Y-101029312D01*
X173355500Y-100965794D01*
X173355500Y-95631500D01*
X173375502Y-95563379D01*
X173429158Y-95516886D01*
X173481500Y-95505500D01*
X189960731Y-95505500D01*
X190028852Y-95525502D01*
X190075345Y-95579158D01*
X190085449Y-95649432D01*
X190078715Y-95675724D01*
X179731993Y-123279618D01*
X179714970Y-123309154D01*
X179715435Y-123309465D01*
X179623519Y-123447027D01*
X179623517Y-123447031D01*
X179562571Y-123594167D01*
X179562570Y-123594170D01*
X179531500Y-123750367D01*
X179531500Y-123909632D01*
X179538458Y-123944611D01*
X179562570Y-124065831D01*
X179623517Y-124212968D01*
X179711997Y-124345389D01*
X179711998Y-124345390D01*
X179712003Y-124345396D01*
X179824603Y-124457996D01*
X179824609Y-124458001D01*
X179824611Y-124458003D01*
X179957032Y-124546483D01*
X180104169Y-124607430D01*
X180260370Y-124638500D01*
X180260371Y-124638500D01*
X180419629Y-124638500D01*
X180419630Y-124638500D01*
X180575831Y-124607430D01*
X180722968Y-124546483D01*
X180855389Y-124458003D01*
X180968003Y-124345389D01*
X181056483Y-124212968D01*
X181117430Y-124065831D01*
X181148500Y-123909630D01*
X181148500Y-123868324D01*
X181156516Y-123824100D01*
X181209566Y-123682570D01*
X183534316Y-117480397D01*
X187186660Y-107736350D01*
X191395000Y-107736350D01*
X191395000Y-109433649D01*
X191401509Y-109494196D01*
X191401511Y-109494204D01*
X191452610Y-109631202D01*
X191452612Y-109631207D01*
X191540238Y-109748261D01*
X191657292Y-109835887D01*
X191657294Y-109835888D01*
X191657296Y-109835889D01*
X191708534Y-109855000D01*
X191794295Y-109886988D01*
X191794298Y-109886988D01*
X191794299Y-109886989D01*
X191794304Y-109886990D01*
X191806228Y-109888272D01*
X191871821Y-109915440D01*
X191912313Y-109973757D01*
X191914849Y-110044708D01*
X191878622Y-110105767D01*
X191866826Y-110115484D01*
X191851067Y-110126933D01*
X191705436Y-110272564D01*
X191705434Y-110272567D01*
X191584373Y-110439193D01*
X191490867Y-110622708D01*
X191490864Y-110622714D01*
X191427221Y-110818587D01*
X191427220Y-110818590D01*
X191427220Y-110818592D01*
X191395000Y-111022019D01*
X191395000Y-111227981D01*
X191416042Y-111360831D01*
X191427221Y-111431412D01*
X191452095Y-111507967D01*
X191490866Y-111627290D01*
X191584371Y-111810803D01*
X191705432Y-111977430D01*
X191705434Y-111977432D01*
X191705436Y-111977435D01*
X191851064Y-112123063D01*
X191851067Y-112123065D01*
X191851070Y-112123068D01*
X192017697Y-112244129D01*
X192093462Y-112282733D01*
X192145077Y-112331482D01*
X192162143Y-112400397D01*
X192139242Y-112467598D01*
X192093463Y-112507266D01*
X192024533Y-112542387D01*
X192017693Y-112545873D01*
X191851067Y-112666934D01*
X191851064Y-112666936D01*
X191705436Y-112812564D01*
X191705434Y-112812567D01*
X191584373Y-112979193D01*
X191490867Y-113162708D01*
X191490864Y-113162714D01*
X191427221Y-113358587D01*
X191427220Y-113358590D01*
X191427220Y-113358592D01*
X191395000Y-113562019D01*
X191395000Y-113767981D01*
X191420540Y-113929233D01*
X191427221Y-113971412D01*
X191482304Y-114140941D01*
X191490866Y-114167290D01*
X191584371Y-114350803D01*
X191705432Y-114517430D01*
X191705434Y-114517432D01*
X191705436Y-114517435D01*
X191851064Y-114663063D01*
X191851067Y-114663065D01*
X191851070Y-114663068D01*
X192017697Y-114784129D01*
X192093462Y-114822733D01*
X192145077Y-114871482D01*
X192162143Y-114940397D01*
X192139242Y-115007598D01*
X192093463Y-115047266D01*
X192024533Y-115082387D01*
X192017693Y-115085873D01*
X191851067Y-115206934D01*
X191851064Y-115206936D01*
X191705436Y-115352564D01*
X191705434Y-115352567D01*
X191584373Y-115519193D01*
X191490867Y-115702708D01*
X191490864Y-115702714D01*
X191427221Y-115898587D01*
X191427220Y-115898590D01*
X191427220Y-115898592D01*
X191395000Y-116102019D01*
X191395000Y-116307981D01*
X191427220Y-116511408D01*
X191490866Y-116707290D01*
X191584371Y-116890803D01*
X191705432Y-117057430D01*
X191705434Y-117057432D01*
X191705436Y-117057435D01*
X191851064Y-117203063D01*
X191851067Y-117203065D01*
X191851070Y-117203068D01*
X192017697Y-117324129D01*
X192093462Y-117362733D01*
X192145077Y-117411482D01*
X192162143Y-117480397D01*
X192139242Y-117547598D01*
X192093463Y-117587266D01*
X192024533Y-117622387D01*
X192017693Y-117625873D01*
X191851067Y-117746934D01*
X191851064Y-117746936D01*
X191705436Y-117892564D01*
X191705434Y-117892567D01*
X191584373Y-118059193D01*
X191490867Y-118242708D01*
X191490864Y-118242714D01*
X191427221Y-118438587D01*
X191427220Y-118438590D01*
X191427220Y-118438592D01*
X191395000Y-118642019D01*
X191395000Y-118847981D01*
X191424778Y-119035987D01*
X191427221Y-119051412D01*
X191465893Y-119170433D01*
X191490866Y-119247290D01*
X191584371Y-119430803D01*
X191705432Y-119597430D01*
X191705434Y-119597432D01*
X191705436Y-119597435D01*
X191851064Y-119743063D01*
X191851067Y-119743065D01*
X191851070Y-119743068D01*
X192017697Y-119864129D01*
X192093462Y-119902733D01*
X192145077Y-119951482D01*
X192162143Y-120020397D01*
X192139242Y-120087598D01*
X192093463Y-120127266D01*
X192024533Y-120162387D01*
X192017693Y-120165873D01*
X191851067Y-120286934D01*
X191851064Y-120286936D01*
X191705436Y-120432564D01*
X191705434Y-120432567D01*
X191584373Y-120599193D01*
X191490867Y-120782708D01*
X191490864Y-120782714D01*
X191427221Y-120978587D01*
X191427220Y-120978590D01*
X191427220Y-120978592D01*
X191395000Y-121182019D01*
X191395000Y-121387981D01*
X191420243Y-121547356D01*
X191427221Y-121591412D01*
X191483353Y-121764170D01*
X191490866Y-121787290D01*
X191576575Y-121955502D01*
X191584373Y-121970806D01*
X191605803Y-122000302D01*
X191705432Y-122137430D01*
X191705434Y-122137432D01*
X191705436Y-122137435D01*
X191851064Y-122283063D01*
X191851067Y-122283065D01*
X191851070Y-122283068D01*
X192017697Y-122404129D01*
X192093462Y-122442733D01*
X192145077Y-122491482D01*
X192162143Y-122560397D01*
X192139242Y-122627598D01*
X192093463Y-122667266D01*
X192024533Y-122702387D01*
X192017693Y-122705873D01*
X191851067Y-122826934D01*
X191851064Y-122826936D01*
X191705436Y-122972564D01*
X191705434Y-122972567D01*
X191584373Y-123139193D01*
X191490867Y-123322708D01*
X191490864Y-123322714D01*
X191427221Y-123518587D01*
X191427220Y-123518590D01*
X191427220Y-123518592D01*
X191395000Y-123722019D01*
X191395000Y-123927981D01*
X191427220Y-124131408D01*
X191427221Y-124131412D01*
X191458832Y-124228702D01*
X191490866Y-124327290D01*
X191584371Y-124510803D01*
X191584373Y-124510806D01*
X191595294Y-124525837D01*
X191705432Y-124677430D01*
X191705434Y-124677432D01*
X191705436Y-124677435D01*
X191851064Y-124823063D01*
X191851067Y-124823065D01*
X191851070Y-124823068D01*
X192017697Y-124944129D01*
X192093462Y-124982733D01*
X192145077Y-125031482D01*
X192162143Y-125100397D01*
X192139242Y-125167598D01*
X192093463Y-125207266D01*
X192034267Y-125237428D01*
X192017693Y-125245873D01*
X191851067Y-125366934D01*
X191851064Y-125366936D01*
X191705436Y-125512564D01*
X191705434Y-125512567D01*
X191584373Y-125679193D01*
X191490867Y-125862708D01*
X191490864Y-125862714D01*
X191427221Y-126058587D01*
X191427220Y-126058590D01*
X191427220Y-126058592D01*
X191395000Y-126262019D01*
X191395000Y-126467981D01*
X191419974Y-126625657D01*
X191427221Y-126671412D01*
X191468585Y-126798718D01*
X191490866Y-126867290D01*
X191584371Y-127050803D01*
X191705432Y-127217430D01*
X191705434Y-127217432D01*
X191705436Y-127217435D01*
X191851064Y-127363063D01*
X191851067Y-127363065D01*
X191851070Y-127363068D01*
X192017697Y-127484129D01*
X192201210Y-127577634D01*
X192397092Y-127641280D01*
X192600519Y-127673500D01*
X192600522Y-127673500D01*
X193606478Y-127673500D01*
X193606481Y-127673500D01*
X193809908Y-127641280D01*
X194005790Y-127577634D01*
X194189303Y-127484129D01*
X194355930Y-127363068D01*
X194501568Y-127217430D01*
X194622629Y-127050803D01*
X194716134Y-126867290D01*
X194779780Y-126671408D01*
X194812000Y-126467981D01*
X194812000Y-126262019D01*
X194779780Y-126058592D01*
X194716134Y-125862710D01*
X194622629Y-125679197D01*
X194501568Y-125512570D01*
X194501565Y-125512567D01*
X194501563Y-125512564D01*
X194355935Y-125366936D01*
X194355932Y-125366934D01*
X194355930Y-125366932D01*
X194193891Y-125249204D01*
X194189306Y-125245873D01*
X194189305Y-125245872D01*
X194189303Y-125245871D01*
X194113534Y-125207265D01*
X194061922Y-125158519D01*
X194044856Y-125089604D01*
X194067757Y-125022402D01*
X194113534Y-124982735D01*
X194189303Y-124944129D01*
X194355930Y-124823068D01*
X194501568Y-124677430D01*
X194622629Y-124510803D01*
X194716134Y-124327290D01*
X194779780Y-124131408D01*
X194812000Y-123927981D01*
X194812000Y-123722019D01*
X194779780Y-123518592D01*
X194716134Y-123322710D01*
X194622629Y-123139197D01*
X194501568Y-122972570D01*
X194501565Y-122972567D01*
X194501563Y-122972564D01*
X194355935Y-122826936D01*
X194355932Y-122826934D01*
X194355930Y-122826932D01*
X194189303Y-122705871D01*
X194113534Y-122667265D01*
X194061922Y-122618519D01*
X194044856Y-122549604D01*
X194067757Y-122482402D01*
X194113534Y-122442735D01*
X194189303Y-122404129D01*
X194355930Y-122283068D01*
X194501568Y-122137430D01*
X194622629Y-121970803D01*
X194716134Y-121787290D01*
X194779780Y-121591408D01*
X194812000Y-121387981D01*
X194812000Y-121182019D01*
X194779780Y-120978592D01*
X194716134Y-120782710D01*
X194622629Y-120599197D01*
X194501568Y-120432570D01*
X194501565Y-120432567D01*
X194501563Y-120432564D01*
X194355935Y-120286936D01*
X194355932Y-120286934D01*
X194355930Y-120286932D01*
X194189303Y-120165871D01*
X194113534Y-120127265D01*
X194061922Y-120078519D01*
X194044856Y-120009604D01*
X194067757Y-119942402D01*
X194113534Y-119902735D01*
X194189303Y-119864129D01*
X194355930Y-119743068D01*
X194501568Y-119597430D01*
X194622629Y-119430803D01*
X194716134Y-119247290D01*
X194779780Y-119051408D01*
X194812000Y-118847981D01*
X194812000Y-118642019D01*
X194779780Y-118438592D01*
X194716134Y-118242710D01*
X194622629Y-118059197D01*
X194501568Y-117892570D01*
X194501565Y-117892567D01*
X194501563Y-117892564D01*
X194355935Y-117746936D01*
X194355932Y-117746934D01*
X194355930Y-117746932D01*
X194189303Y-117625871D01*
X194113534Y-117587265D01*
X194061922Y-117538519D01*
X194044856Y-117469604D01*
X194067757Y-117402402D01*
X194113534Y-117362735D01*
X194189303Y-117324129D01*
X194355930Y-117203068D01*
X194501568Y-117057430D01*
X194622629Y-116890803D01*
X194716134Y-116707290D01*
X194779780Y-116511408D01*
X194812000Y-116307981D01*
X194812000Y-116102019D01*
X194779780Y-115898592D01*
X194716134Y-115702710D01*
X194622629Y-115519197D01*
X194501568Y-115352570D01*
X194501565Y-115352567D01*
X194501563Y-115352564D01*
X194355935Y-115206936D01*
X194355932Y-115206934D01*
X194355930Y-115206932D01*
X194189303Y-115085871D01*
X194113534Y-115047265D01*
X194061922Y-114998519D01*
X194044856Y-114929604D01*
X194067757Y-114862402D01*
X194113534Y-114822735D01*
X194189303Y-114784129D01*
X194355930Y-114663068D01*
X194501568Y-114517430D01*
X194622629Y-114350803D01*
X194716134Y-114167290D01*
X194779780Y-113971408D01*
X194812000Y-113767981D01*
X194812000Y-113562019D01*
X194779780Y-113358592D01*
X194716134Y-113162710D01*
X194622629Y-112979197D01*
X194501568Y-112812570D01*
X194501565Y-112812567D01*
X194501563Y-112812564D01*
X194355935Y-112666936D01*
X194355932Y-112666934D01*
X194355930Y-112666932D01*
X194215624Y-112564994D01*
X194189306Y-112545873D01*
X194189305Y-112545872D01*
X194189303Y-112545871D01*
X194113534Y-112507265D01*
X194061922Y-112458519D01*
X194044856Y-112389604D01*
X194067757Y-112322402D01*
X194113534Y-112282735D01*
X194189303Y-112244129D01*
X194355930Y-112123068D01*
X194501568Y-111977430D01*
X194622629Y-111810803D01*
X194716134Y-111627290D01*
X194779780Y-111431408D01*
X194812000Y-111227981D01*
X194812000Y-111022019D01*
X194779780Y-110818592D01*
X194716134Y-110622710D01*
X194622629Y-110439197D01*
X194501568Y-110272570D01*
X194501565Y-110272567D01*
X194501563Y-110272564D01*
X194355936Y-110126937D01*
X194355932Y-110126934D01*
X194355930Y-110126932D01*
X194340173Y-110115484D01*
X194296822Y-110059263D01*
X194290747Y-109988527D01*
X194323879Y-109925735D01*
X194385699Y-109890824D01*
X194400771Y-109888272D01*
X194412696Y-109886990D01*
X194412699Y-109886989D01*
X194412701Y-109886989D01*
X194422458Y-109883350D01*
X194431545Y-109879960D01*
X194549704Y-109835889D01*
X194556945Y-109830469D01*
X194666761Y-109748261D01*
X194754387Y-109631207D01*
X194754387Y-109631206D01*
X194754389Y-109631204D01*
X194805489Y-109494201D01*
X194806897Y-109481112D01*
X194811999Y-109433649D01*
X194812000Y-109433632D01*
X194812000Y-107736367D01*
X194811999Y-107736350D01*
X194805490Y-107675803D01*
X194805488Y-107675795D01*
X194772343Y-107586932D01*
X194754389Y-107538796D01*
X194754388Y-107538794D01*
X194754387Y-107538792D01*
X194666761Y-107421738D01*
X194549707Y-107334112D01*
X194549702Y-107334110D01*
X194412704Y-107283011D01*
X194412696Y-107283009D01*
X194352149Y-107276500D01*
X194352138Y-107276500D01*
X191854862Y-107276500D01*
X191854850Y-107276500D01*
X191794303Y-107283009D01*
X191794295Y-107283011D01*
X191657297Y-107334110D01*
X191657292Y-107334112D01*
X191540238Y-107421738D01*
X191452612Y-107538792D01*
X191452610Y-107538797D01*
X191401511Y-107675795D01*
X191401509Y-107675803D01*
X191395000Y-107736350D01*
X187186660Y-107736350D01*
X187204497Y-107688764D01*
X191544878Y-96109112D01*
X191740477Y-95587275D01*
X191783116Y-95530510D01*
X191849676Y-95505807D01*
X191858461Y-95505500D01*
X195412590Y-95505500D01*
X195412591Y-95505500D01*
X195535369Y-95481078D01*
X195651022Y-95433173D01*
X195755108Y-95363625D01*
X195843625Y-95275108D01*
X195867843Y-95238863D01*
X195899491Y-95191499D01*
X195953967Y-95145971D01*
X196004256Y-95135500D01*
X199962000Y-95135500D01*
X200030121Y-95155502D01*
X200076614Y-95209158D01*
X200088000Y-95261500D01*
X200088000Y-107194136D01*
X200067998Y-107262257D01*
X200014342Y-107308750D01*
X200000937Y-107313969D01*
X199821210Y-107372366D01*
X199821208Y-107372367D01*
X199637693Y-107465873D01*
X199471067Y-107586934D01*
X199471064Y-107586936D01*
X199325436Y-107732564D01*
X199325434Y-107732567D01*
X199204373Y-107899193D01*
X199110867Y-108082708D01*
X199110864Y-108082714D01*
X199047221Y-108278587D01*
X199047220Y-108278590D01*
X199047220Y-108278592D01*
X199015000Y-108482019D01*
X199015000Y-108687981D01*
X199047220Y-108891408D01*
X199110866Y-109087290D01*
X199204371Y-109270803D01*
X199325432Y-109437430D01*
X199325434Y-109437432D01*
X199325436Y-109437435D01*
X199471064Y-109583063D01*
X199471067Y-109583065D01*
X199471070Y-109583068D01*
X199637697Y-109704129D01*
X199713462Y-109742733D01*
X199765077Y-109791482D01*
X199782143Y-109860397D01*
X199759242Y-109927598D01*
X199713463Y-109967266D01*
X199660340Y-109994334D01*
X199637693Y-110005873D01*
X199471067Y-110126934D01*
X199471064Y-110126936D01*
X199325436Y-110272564D01*
X199325434Y-110272567D01*
X199204373Y-110439193D01*
X199110867Y-110622708D01*
X199110864Y-110622714D01*
X199047221Y-110818587D01*
X199047220Y-110818590D01*
X199047220Y-110818592D01*
X199015000Y-111022019D01*
X199015000Y-111227981D01*
X199036042Y-111360831D01*
X199047221Y-111431412D01*
X199072095Y-111507967D01*
X199110866Y-111627290D01*
X199204371Y-111810803D01*
X199325432Y-111977430D01*
X199325434Y-111977432D01*
X199325436Y-111977435D01*
X199471064Y-112123063D01*
X199471067Y-112123065D01*
X199471070Y-112123068D01*
X199637697Y-112244129D01*
X199713462Y-112282733D01*
X199765077Y-112331482D01*
X199782143Y-112400397D01*
X199759242Y-112467598D01*
X199713463Y-112507266D01*
X199644533Y-112542387D01*
X199637693Y-112545873D01*
X199471067Y-112666934D01*
X199471064Y-112666936D01*
X199325436Y-112812564D01*
X199325434Y-112812567D01*
X199204373Y-112979193D01*
X199110867Y-113162708D01*
X199110864Y-113162714D01*
X199047221Y-113358587D01*
X199047220Y-113358590D01*
X199047220Y-113358592D01*
X199015000Y-113562019D01*
X199015000Y-113767981D01*
X199040540Y-113929233D01*
X199047221Y-113971412D01*
X199102304Y-114140941D01*
X199110866Y-114167290D01*
X199204371Y-114350803D01*
X199325432Y-114517430D01*
X199325434Y-114517432D01*
X199325436Y-114517435D01*
X199471064Y-114663063D01*
X199471067Y-114663065D01*
X199471070Y-114663068D01*
X199637697Y-114784129D01*
X199713462Y-114822733D01*
X199765077Y-114871482D01*
X199782143Y-114940397D01*
X199759242Y-115007598D01*
X199713463Y-115047266D01*
X199644533Y-115082387D01*
X199637693Y-115085873D01*
X199471067Y-115206934D01*
X199471064Y-115206936D01*
X199325436Y-115352564D01*
X199325434Y-115352567D01*
X199204373Y-115519193D01*
X199110867Y-115702708D01*
X199110864Y-115702714D01*
X199047221Y-115898587D01*
X199047220Y-115898590D01*
X199047220Y-115898592D01*
X199015000Y-116102019D01*
X199015000Y-116307981D01*
X199047220Y-116511408D01*
X199110866Y-116707290D01*
X199204371Y-116890803D01*
X199325432Y-117057430D01*
X199325434Y-117057432D01*
X199325436Y-117057435D01*
X199471064Y-117203063D01*
X199471067Y-117203065D01*
X199471070Y-117203068D01*
X199637697Y-117324129D01*
X199713462Y-117362733D01*
X199765077Y-117411482D01*
X199782143Y-117480397D01*
X199759242Y-117547598D01*
X199713463Y-117587266D01*
X199644533Y-117622387D01*
X199637693Y-117625873D01*
X199471067Y-117746934D01*
X199471064Y-117746936D01*
X199325436Y-117892564D01*
X199325434Y-117892567D01*
X199204373Y-118059193D01*
X199110867Y-118242708D01*
X199110864Y-118242714D01*
X199047221Y-118438587D01*
X199047220Y-118438590D01*
X199047220Y-118438592D01*
X199015000Y-118642019D01*
X199015000Y-118847981D01*
X199044778Y-119035987D01*
X199047221Y-119051412D01*
X199085893Y-119170433D01*
X199110866Y-119247290D01*
X199204371Y-119430803D01*
X199325432Y-119597430D01*
X199325434Y-119597432D01*
X199325436Y-119597435D01*
X199471064Y-119743063D01*
X199471067Y-119743065D01*
X199471070Y-119743068D01*
X199637697Y-119864129D01*
X199713462Y-119902733D01*
X199765077Y-119951482D01*
X199782143Y-120020397D01*
X199759242Y-120087598D01*
X199713463Y-120127266D01*
X199644533Y-120162387D01*
X199637693Y-120165873D01*
X199471067Y-120286934D01*
X199471064Y-120286936D01*
X199325436Y-120432564D01*
X199325434Y-120432567D01*
X199204373Y-120599193D01*
X199110867Y-120782708D01*
X199110864Y-120782714D01*
X199047221Y-120978587D01*
X199047220Y-120978590D01*
X199047220Y-120978592D01*
X199015000Y-121182019D01*
X199015000Y-121387981D01*
X199040243Y-121547356D01*
X199047221Y-121591412D01*
X199103353Y-121764170D01*
X199110866Y-121787290D01*
X199196575Y-121955502D01*
X199204373Y-121970806D01*
X199225803Y-122000302D01*
X199325432Y-122137430D01*
X199325434Y-122137432D01*
X199325436Y-122137435D01*
X199471064Y-122283063D01*
X199471067Y-122283065D01*
X199471070Y-122283068D01*
X199637697Y-122404129D01*
X199713462Y-122442733D01*
X199765077Y-122491482D01*
X199782143Y-122560397D01*
X199759242Y-122627598D01*
X199713463Y-122667266D01*
X199644533Y-122702387D01*
X199637693Y-122705873D01*
X199471067Y-122826934D01*
X199471064Y-122826936D01*
X199325436Y-122972564D01*
X199325434Y-122972567D01*
X199204373Y-123139193D01*
X199110867Y-123322708D01*
X199110864Y-123322714D01*
X199047221Y-123518587D01*
X199047220Y-123518590D01*
X199047220Y-123518592D01*
X199015000Y-123722019D01*
X199015000Y-123927981D01*
X199047220Y-124131408D01*
X199047221Y-124131412D01*
X199078832Y-124228702D01*
X199110866Y-124327290D01*
X199204371Y-124510803D01*
X199204373Y-124510806D01*
X199215294Y-124525837D01*
X199325432Y-124677430D01*
X199325434Y-124677432D01*
X199325436Y-124677435D01*
X199471064Y-124823063D01*
X199471067Y-124823065D01*
X199471070Y-124823068D01*
X199637697Y-124944129D01*
X199713462Y-124982733D01*
X199765077Y-125031482D01*
X199782143Y-125100397D01*
X199759242Y-125167598D01*
X199713463Y-125207266D01*
X199654267Y-125237428D01*
X199637693Y-125245873D01*
X199471067Y-125366934D01*
X199471064Y-125366936D01*
X199325436Y-125512564D01*
X199325434Y-125512567D01*
X199204373Y-125679193D01*
X199110867Y-125862708D01*
X199110864Y-125862714D01*
X199047221Y-126058587D01*
X199047220Y-126058590D01*
X199047220Y-126058592D01*
X199015000Y-126262019D01*
X199015000Y-126467981D01*
X199039974Y-126625657D01*
X199047221Y-126671412D01*
X199088585Y-126798718D01*
X199110866Y-126867290D01*
X199204371Y-127050803D01*
X199325432Y-127217430D01*
X199325434Y-127217432D01*
X199325436Y-127217435D01*
X199471064Y-127363063D01*
X199471067Y-127363065D01*
X199471070Y-127363068D01*
X199637697Y-127484129D01*
X199821210Y-127577634D01*
X199937436Y-127615398D01*
X199996042Y-127655472D01*
X200023679Y-127720868D01*
X200024500Y-127735231D01*
X200024500Y-129602593D01*
X200045440Y-129707865D01*
X200048922Y-129725369D01*
X200096827Y-129841022D01*
X200166375Y-129945108D01*
X201370375Y-131149108D01*
X201458892Y-131237625D01*
X201562978Y-131307173D01*
X201678631Y-131355078D01*
X201801409Y-131379500D01*
X204105500Y-131379500D01*
X204173621Y-131399502D01*
X204220114Y-131453158D01*
X204231500Y-131505500D01*
X204231500Y-131792649D01*
X204238009Y-131853196D01*
X204238011Y-131853204D01*
X204289110Y-131990202D01*
X204289112Y-131990207D01*
X204376738Y-132107261D01*
X204501010Y-132200290D01*
X204499840Y-132201852D01*
X204541975Y-132243987D01*
X204557066Y-132313361D01*
X204533323Y-132378433D01*
X204449817Y-132493369D01*
X204342019Y-132704935D01*
X204342016Y-132704941D01*
X204268645Y-132930753D01*
X204268644Y-132930758D01*
X204268644Y-132930759D01*
X204231500Y-133165278D01*
X204231500Y-133402722D01*
X204263860Y-133607033D01*
X204268645Y-133637246D01*
X204334147Y-133838839D01*
X204342018Y-133863063D01*
X204449815Y-134074627D01*
X204589380Y-134266722D01*
X204589382Y-134266724D01*
X204589384Y-134266727D01*
X204757272Y-134434615D01*
X204757275Y-134434617D01*
X204757278Y-134434620D01*
X204949373Y-134574185D01*
X205160937Y-134681982D01*
X205386759Y-134755356D01*
X205621278Y-134792500D01*
X205621281Y-134792500D01*
X205858719Y-134792500D01*
X205858722Y-134792500D01*
X206093241Y-134755356D01*
X206319063Y-134681982D01*
X206530627Y-134574185D01*
X206722722Y-134434620D01*
X206890620Y-134266722D01*
X207030185Y-134074627D01*
X207137982Y-133863063D01*
X207211356Y-133637241D01*
X207248500Y-133402722D01*
X207248500Y-133165278D01*
X207211356Y-132930759D01*
X207137982Y-132704937D01*
X207030185Y-132493373D01*
X206946675Y-132378432D01*
X206922818Y-132311565D01*
X206938898Y-132242414D01*
X206980111Y-132201787D01*
X206978990Y-132200290D01*
X207103261Y-132107261D01*
X207190887Y-131990207D01*
X207190887Y-131990206D01*
X207190889Y-131990204D01*
X207241989Y-131853201D01*
X207245228Y-131823078D01*
X207248499Y-131792649D01*
X207248500Y-131792632D01*
X207248500Y-129695367D01*
X207248499Y-129695350D01*
X207241990Y-129634803D01*
X207241988Y-129634795D01*
X207212924Y-129556875D01*
X207190889Y-129497796D01*
X207190888Y-129497794D01*
X207190887Y-129497792D01*
X207103261Y-129380738D01*
X206986207Y-129293112D01*
X206986202Y-129293110D01*
X206849204Y-129242011D01*
X206849196Y-129242009D01*
X206788649Y-129235500D01*
X206788638Y-129235500D01*
X204691362Y-129235500D01*
X204691350Y-129235500D01*
X204630803Y-129242009D01*
X204630795Y-129242011D01*
X204493797Y-129293110D01*
X204493792Y-129293112D01*
X204376738Y-129380738D01*
X204289112Y-129497792D01*
X204289110Y-129497797D01*
X204238011Y-129634795D01*
X204238009Y-129634803D01*
X204231500Y-129695350D01*
X204231500Y-129982500D01*
X204211498Y-130050621D01*
X204157842Y-130097114D01*
X204105500Y-130108500D01*
X202179423Y-130108500D01*
X202111302Y-130088498D01*
X202090328Y-130071595D01*
X201332405Y-129313672D01*
X201298379Y-129251360D01*
X201295500Y-129224577D01*
X201295500Y-127770182D01*
X201315502Y-127702061D01*
X201369158Y-127655568D01*
X201401784Y-127645734D01*
X201429908Y-127641280D01*
X201625790Y-127577634D01*
X201809303Y-127484129D01*
X201975930Y-127363068D01*
X202121568Y-127217430D01*
X202242629Y-127050803D01*
X202336134Y-126867290D01*
X202399780Y-126671408D01*
X202432000Y-126467981D01*
X202432000Y-126262019D01*
X202399780Y-126058592D01*
X202336134Y-125862710D01*
X202242629Y-125679197D01*
X202121568Y-125512570D01*
X202121565Y-125512567D01*
X202121563Y-125512564D01*
X201975935Y-125366936D01*
X201975932Y-125366934D01*
X201975930Y-125366932D01*
X201813891Y-125249204D01*
X201809306Y-125245873D01*
X201809305Y-125245872D01*
X201809303Y-125245871D01*
X201733534Y-125207265D01*
X201681922Y-125158519D01*
X201664856Y-125089604D01*
X201687757Y-125022402D01*
X201733534Y-124982735D01*
X201809303Y-124944129D01*
X201975930Y-124823068D01*
X202121568Y-124677430D01*
X202225661Y-124534158D01*
X202241441Y-124512439D01*
X202297663Y-124469085D01*
X202343377Y-124460500D01*
X204105500Y-124460500D01*
X204173621Y-124480502D01*
X204220114Y-124534158D01*
X204231500Y-124586500D01*
X204231500Y-125188649D01*
X204238009Y-125249196D01*
X204238011Y-125249204D01*
X204289110Y-125386202D01*
X204289112Y-125386207D01*
X204376738Y-125503261D01*
X204501010Y-125596290D01*
X204499840Y-125597852D01*
X204541975Y-125639987D01*
X204557066Y-125709361D01*
X204533323Y-125774433D01*
X204449817Y-125889369D01*
X204342019Y-126100935D01*
X204342016Y-126100941D01*
X204268645Y-126326753D01*
X204268644Y-126326758D01*
X204268644Y-126326759D01*
X204231500Y-126561278D01*
X204231500Y-126798722D01*
X204268644Y-127033241D01*
X204268645Y-127033246D01*
X204328491Y-127217432D01*
X204342018Y-127259063D01*
X204398630Y-127370170D01*
X204449817Y-127470630D01*
X204459625Y-127484129D01*
X204589380Y-127662722D01*
X204589382Y-127662724D01*
X204589384Y-127662727D01*
X204757272Y-127830615D01*
X204757275Y-127830617D01*
X204757278Y-127830620D01*
X204949373Y-127970185D01*
X205160937Y-128077982D01*
X205386759Y-128151356D01*
X205621278Y-128188500D01*
X205621281Y-128188500D01*
X205858719Y-128188500D01*
X205858722Y-128188500D01*
X206093241Y-128151356D01*
X206319063Y-128077982D01*
X206530627Y-127970185D01*
X206722722Y-127830620D01*
X206890620Y-127662722D01*
X207030185Y-127470627D01*
X207137982Y-127259063D01*
X207211356Y-127033241D01*
X207248500Y-126798722D01*
X207248500Y-126561278D01*
X207211356Y-126326759D01*
X207137982Y-126100937D01*
X207030185Y-125889373D01*
X206946675Y-125774432D01*
X206922818Y-125707565D01*
X206938898Y-125638414D01*
X206980111Y-125597787D01*
X206978990Y-125596290D01*
X207103261Y-125503261D01*
X207190887Y-125386207D01*
X207190887Y-125386206D01*
X207190889Y-125386204D01*
X207241989Y-125249201D01*
X207243255Y-125237430D01*
X207248499Y-125188649D01*
X207248500Y-125188632D01*
X207248500Y-123091367D01*
X207248499Y-123091350D01*
X207241990Y-123030803D01*
X207241988Y-123030795D01*
X207190889Y-122893797D01*
X207190887Y-122893792D01*
X207103261Y-122776738D01*
X206986207Y-122689112D01*
X206986202Y-122689110D01*
X206849204Y-122638011D01*
X206849196Y-122638009D01*
X206788649Y-122631500D01*
X206788638Y-122631500D01*
X204691362Y-122631500D01*
X204691350Y-122631500D01*
X204630803Y-122638009D01*
X204630795Y-122638011D01*
X204493797Y-122689110D01*
X204493792Y-122689112D01*
X204376738Y-122776738D01*
X204289112Y-122893792D01*
X204289110Y-122893797D01*
X204238011Y-123030795D01*
X204238009Y-123030803D01*
X204233047Y-123076968D01*
X204205878Y-123142560D01*
X204147561Y-123183052D01*
X204107769Y-123189500D01*
X202343377Y-123189500D01*
X202275256Y-123169498D01*
X202241441Y-123137561D01*
X202189952Y-123066693D01*
X202121568Y-122972570D01*
X202121565Y-122972567D01*
X202121563Y-122972564D01*
X201975935Y-122826936D01*
X201975932Y-122826934D01*
X201975930Y-122826932D01*
X201809303Y-122705871D01*
X201733534Y-122667265D01*
X201681922Y-122618519D01*
X201664856Y-122549604D01*
X201687757Y-122482402D01*
X201733534Y-122442735D01*
X201809303Y-122404129D01*
X201975930Y-122283068D01*
X202121568Y-122137430D01*
X202242629Y-121970803D01*
X202336134Y-121787290D01*
X202336135Y-121787285D01*
X202337143Y-121785308D01*
X202360309Y-121753422D01*
X203693625Y-120420108D01*
X203763173Y-120316022D01*
X203811078Y-120200369D01*
X203835500Y-120077591D01*
X203835500Y-119952409D01*
X203835500Y-118425423D01*
X203844283Y-118395507D01*
X203850912Y-118365038D01*
X203854726Y-118359942D01*
X203855502Y-118357302D01*
X203872405Y-118336328D01*
X204000328Y-118208405D01*
X204062640Y-118174379D01*
X204089423Y-118171500D01*
X204105500Y-118171500D01*
X204132265Y-118179358D01*
X204133455Y-118179444D01*
X204134035Y-118179878D01*
X204173621Y-118191502D01*
X204220114Y-118245158D01*
X204231500Y-118297500D01*
X204231500Y-118584649D01*
X204238009Y-118645196D01*
X204238011Y-118645204D01*
X204289110Y-118782202D01*
X204289112Y-118782207D01*
X204376738Y-118899261D01*
X204501010Y-118992290D01*
X204499840Y-118993852D01*
X204541975Y-119035987D01*
X204557066Y-119105361D01*
X204533323Y-119170433D01*
X204449817Y-119285369D01*
X204342019Y-119496935D01*
X204342016Y-119496941D01*
X204268645Y-119722753D01*
X204268644Y-119722758D01*
X204268644Y-119722759D01*
X204231500Y-119957278D01*
X204231500Y-120194722D01*
X204267657Y-120423009D01*
X204268645Y-120429246D01*
X204342016Y-120655058D01*
X204342018Y-120655063D01*
X204449815Y-120866627D01*
X204589380Y-121058722D01*
X204589382Y-121058724D01*
X204589384Y-121058727D01*
X204757272Y-121226615D01*
X204757275Y-121226617D01*
X204757278Y-121226620D01*
X204949373Y-121366185D01*
X205160937Y-121473982D01*
X205386759Y-121547356D01*
X205621278Y-121584500D01*
X205621281Y-121584500D01*
X205858719Y-121584500D01*
X205858722Y-121584500D01*
X206093241Y-121547356D01*
X206319063Y-121473982D01*
X206530627Y-121366185D01*
X206722722Y-121226620D01*
X206890620Y-121058722D01*
X207030185Y-120866627D01*
X207137982Y-120655063D01*
X207211356Y-120429241D01*
X207248500Y-120194722D01*
X207248500Y-119957278D01*
X207211356Y-119722759D01*
X207137982Y-119496937D01*
X207030185Y-119285373D01*
X206946675Y-119170432D01*
X206922818Y-119103565D01*
X206938898Y-119034414D01*
X206980111Y-118993787D01*
X206978990Y-118992290D01*
X207103261Y-118899261D01*
X207190887Y-118782207D01*
X207190887Y-118782206D01*
X207190889Y-118782204D01*
X207241989Y-118645201D01*
X207242332Y-118642019D01*
X207248499Y-118584649D01*
X207248500Y-118584632D01*
X207248500Y-116487367D01*
X207248499Y-116487350D01*
X207241990Y-116426803D01*
X207241988Y-116426795D01*
X207212924Y-116348875D01*
X207190889Y-116289796D01*
X207190888Y-116289794D01*
X207190887Y-116289792D01*
X207103261Y-116172738D01*
X206986207Y-116085112D01*
X206986202Y-116085110D01*
X206849204Y-116034011D01*
X206849196Y-116034009D01*
X206788649Y-116027500D01*
X206788638Y-116027500D01*
X204691362Y-116027500D01*
X204691350Y-116027500D01*
X204630802Y-116034010D01*
X204625474Y-116035269D01*
X204554579Y-116031467D01*
X204496994Y-115989940D01*
X204471001Y-115923873D01*
X204470500Y-115912645D01*
X204470500Y-114640033D01*
X204490502Y-114571912D01*
X204544158Y-114525419D01*
X204614432Y-114515315D01*
X204679012Y-114544809D01*
X204685595Y-114550938D01*
X204757272Y-114622615D01*
X204757275Y-114622617D01*
X204757278Y-114622620D01*
X204949373Y-114762185D01*
X205160937Y-114869982D01*
X205386759Y-114943356D01*
X205621278Y-114980500D01*
X205621281Y-114980500D01*
X205858719Y-114980500D01*
X205858722Y-114980500D01*
X206093241Y-114943356D01*
X206319063Y-114869982D01*
X206530627Y-114762185D01*
X206722722Y-114622620D01*
X206890620Y-114454722D01*
X207030185Y-114262627D01*
X207137982Y-114051063D01*
X207211356Y-113825241D01*
X207248500Y-113590722D01*
X207248500Y-113353278D01*
X207211356Y-113118759D01*
X207137982Y-112892937D01*
X207030185Y-112681373D01*
X206946675Y-112566432D01*
X206922818Y-112499565D01*
X206938898Y-112430414D01*
X206980111Y-112389787D01*
X206978990Y-112388290D01*
X207103261Y-112295261D01*
X207190887Y-112178207D01*
X207190887Y-112178206D01*
X207190889Y-112178204D01*
X207241989Y-112041201D01*
X207245663Y-112007033D01*
X207248499Y-111980649D01*
X207248500Y-111980632D01*
X207248500Y-109883367D01*
X207248499Y-109883350D01*
X207241990Y-109822803D01*
X207241988Y-109822795D01*
X207212126Y-109742733D01*
X207190889Y-109685796D01*
X207190888Y-109685794D01*
X207190887Y-109685792D01*
X207103261Y-109568738D01*
X206986207Y-109481112D01*
X206986202Y-109481110D01*
X206849204Y-109430011D01*
X206849196Y-109430009D01*
X206788649Y-109423500D01*
X206788638Y-109423500D01*
X204691362Y-109423500D01*
X204691350Y-109423500D01*
X204630802Y-109430010D01*
X204625474Y-109431269D01*
X204554579Y-109427467D01*
X204496994Y-109385940D01*
X204471001Y-109319873D01*
X204470500Y-109308645D01*
X204470500Y-108036033D01*
X204490502Y-107967912D01*
X204544158Y-107921419D01*
X204614432Y-107911315D01*
X204679012Y-107940809D01*
X204685595Y-107946938D01*
X204757272Y-108018615D01*
X204757275Y-108018617D01*
X204757278Y-108018620D01*
X204949373Y-108158185D01*
X205160937Y-108265982D01*
X205386759Y-108339356D01*
X205621278Y-108376500D01*
X205621281Y-108376500D01*
X205858719Y-108376500D01*
X205858722Y-108376500D01*
X206093241Y-108339356D01*
X206319063Y-108265982D01*
X206530627Y-108158185D01*
X206722722Y-108018620D01*
X206890620Y-107850722D01*
X207030185Y-107658627D01*
X207137982Y-107447063D01*
X207211356Y-107221241D01*
X207248500Y-106986722D01*
X207248500Y-106749278D01*
X207211356Y-106514759D01*
X207137982Y-106288937D01*
X207030185Y-106077373D01*
X206946675Y-105962432D01*
X206922818Y-105895565D01*
X206938898Y-105826414D01*
X206980111Y-105785787D01*
X206978990Y-105784290D01*
X207103261Y-105691261D01*
X207190887Y-105574207D01*
X207190887Y-105574206D01*
X207190889Y-105574204D01*
X207241989Y-105437201D01*
X207248500Y-105376638D01*
X207248500Y-103279362D01*
X207248499Y-103279350D01*
X207241990Y-103218803D01*
X207241988Y-103218795D01*
X207197665Y-103099963D01*
X207190889Y-103081796D01*
X207190888Y-103081794D01*
X207190887Y-103081792D01*
X207103261Y-102964738D01*
X206986207Y-102877112D01*
X206986202Y-102877110D01*
X206849204Y-102826011D01*
X206849196Y-102826009D01*
X206788649Y-102819500D01*
X206788638Y-102819500D01*
X204691362Y-102819500D01*
X204691350Y-102819500D01*
X204630802Y-102826010D01*
X204625474Y-102827269D01*
X204554579Y-102823467D01*
X204496994Y-102781940D01*
X204471001Y-102715873D01*
X204470500Y-102704645D01*
X204470500Y-101432033D01*
X204490502Y-101363912D01*
X204544158Y-101317419D01*
X204614432Y-101307315D01*
X204679012Y-101336809D01*
X204685595Y-101342938D01*
X204757272Y-101414615D01*
X204757275Y-101414617D01*
X204757278Y-101414620D01*
X204949373Y-101554185D01*
X205160937Y-101661982D01*
X205386759Y-101735356D01*
X205621278Y-101772500D01*
X205621281Y-101772500D01*
X205858719Y-101772500D01*
X205858722Y-101772500D01*
X206093241Y-101735356D01*
X206319063Y-101661982D01*
X206530627Y-101554185D01*
X206722722Y-101414620D01*
X206890620Y-101246722D01*
X207030185Y-101054627D01*
X207137982Y-100843063D01*
X207211356Y-100617241D01*
X207248500Y-100382722D01*
X207248500Y-100145278D01*
X207211356Y-99910759D01*
X207137982Y-99684937D01*
X207030185Y-99473373D01*
X206946675Y-99358432D01*
X206922818Y-99291565D01*
X206938898Y-99222414D01*
X206980111Y-99181787D01*
X206978990Y-99180290D01*
X207103261Y-99087261D01*
X207190887Y-98970207D01*
X207190887Y-98970206D01*
X207190889Y-98970204D01*
X207241989Y-98833201D01*
X207243814Y-98816233D01*
X207248499Y-98772649D01*
X207248500Y-98772632D01*
X207248500Y-96675367D01*
X207248499Y-96675350D01*
X207241990Y-96614803D01*
X207241988Y-96614795D01*
X207203410Y-96511367D01*
X207190889Y-96477796D01*
X207190888Y-96477794D01*
X207190887Y-96477792D01*
X207103261Y-96360738D01*
X206986207Y-96273112D01*
X206986202Y-96273110D01*
X206849204Y-96222011D01*
X206849196Y-96222009D01*
X206788649Y-96215500D01*
X206788638Y-96215500D01*
X204691362Y-96215500D01*
X204691350Y-96215500D01*
X204630803Y-96222009D01*
X204630795Y-96222011D01*
X204493797Y-96273110D01*
X204493792Y-96273112D01*
X204376738Y-96360738D01*
X204289112Y-96477792D01*
X204289110Y-96477797D01*
X204238011Y-96614795D01*
X204238009Y-96614803D01*
X204231500Y-96675350D01*
X204231500Y-98281577D01*
X204222716Y-98311492D01*
X204216088Y-98341962D01*
X204212273Y-98347057D01*
X204211498Y-98349698D01*
X204194595Y-98370672D01*
X204050595Y-98514672D01*
X203988283Y-98548698D01*
X203917468Y-98543633D01*
X203860632Y-98501086D01*
X203835821Y-98434566D01*
X203835500Y-98425577D01*
X203835500Y-93975423D01*
X203855502Y-93907302D01*
X203872405Y-93886328D01*
X204022255Y-93736478D01*
X204084567Y-93702452D01*
X204155382Y-93707517D01*
X204212218Y-93750064D01*
X204235798Y-93805860D01*
X204262654Y-93975423D01*
X204268645Y-94013246D01*
X204342016Y-94239058D01*
X204342018Y-94239063D01*
X204342019Y-94239064D01*
X204449817Y-94450630D01*
X204476265Y-94487032D01*
X204589380Y-94642722D01*
X204589382Y-94642724D01*
X204589384Y-94642727D01*
X204757272Y-94810615D01*
X204757275Y-94810617D01*
X204757278Y-94810620D01*
X204949373Y-94950185D01*
X205160937Y-95057982D01*
X205386759Y-95131356D01*
X205621278Y-95168500D01*
X205621281Y-95168500D01*
X205858719Y-95168500D01*
X205858722Y-95168500D01*
X206093241Y-95131356D01*
X206319063Y-95057982D01*
X206530627Y-94950185D01*
X206722722Y-94810620D01*
X206890620Y-94642722D01*
X207030185Y-94450627D01*
X207137982Y-94239063D01*
X207211356Y-94013241D01*
X207248500Y-93778722D01*
X207248500Y-93541278D01*
X207211356Y-93306759D01*
X207137982Y-93080937D01*
X207030185Y-92869373D01*
X206946675Y-92754432D01*
X206922818Y-92687565D01*
X206938898Y-92618414D01*
X206980111Y-92577787D01*
X206978990Y-92576290D01*
X207103261Y-92483261D01*
X207190887Y-92366207D01*
X207190887Y-92366206D01*
X207190889Y-92366204D01*
X207241989Y-92229201D01*
X207244581Y-92205099D01*
X207248499Y-92168649D01*
X207248500Y-92168632D01*
X207248500Y-90071367D01*
X207248499Y-90071350D01*
X207241990Y-90010803D01*
X207241988Y-90010795D01*
X207190889Y-89873797D01*
X207190887Y-89873792D01*
X207103261Y-89756738D01*
X206986207Y-89669112D01*
X206986202Y-89669110D01*
X206849204Y-89618011D01*
X206849196Y-89618009D01*
X206788649Y-89611500D01*
X206788638Y-89611500D01*
X204691362Y-89611500D01*
X204691350Y-89611500D01*
X204630803Y-89618009D01*
X204630795Y-89618011D01*
X204493797Y-89669110D01*
X204493792Y-89669112D01*
X204376738Y-89756738D01*
X204289112Y-89873792D01*
X204289110Y-89873797D01*
X204238011Y-90010795D01*
X204238009Y-90010803D01*
X204231500Y-90071350D01*
X204231500Y-91677577D01*
X204211498Y-91745698D01*
X204194595Y-91766672D01*
X203325595Y-92635672D01*
X203263283Y-92669698D01*
X203192468Y-92664633D01*
X203135632Y-92622086D01*
X203110821Y-92555566D01*
X203110500Y-92546577D01*
X203110500Y-88096422D01*
X203130502Y-88028301D01*
X203147395Y-88007337D01*
X204022257Y-87132474D01*
X204084566Y-87098452D01*
X204155381Y-87103516D01*
X204212217Y-87146063D01*
X204235798Y-87201861D01*
X204268645Y-87409246D01*
X204337286Y-87620500D01*
X204342018Y-87635063D01*
X204449815Y-87846627D01*
X204449817Y-87846630D01*
X204456395Y-87855684D01*
X204589380Y-88038722D01*
X204589382Y-88038724D01*
X204589384Y-88038727D01*
X204757272Y-88206615D01*
X204757275Y-88206617D01*
X204757278Y-88206620D01*
X204949373Y-88346185D01*
X205160937Y-88453982D01*
X205386759Y-88527356D01*
X205621278Y-88564500D01*
X205621281Y-88564500D01*
X205858719Y-88564500D01*
X205858722Y-88564500D01*
X206093241Y-88527356D01*
X206319063Y-88453982D01*
X206530627Y-88346185D01*
X206722722Y-88206620D01*
X206890620Y-88038722D01*
X207030185Y-87846627D01*
X207137982Y-87635063D01*
X207211356Y-87409241D01*
X207248500Y-87174722D01*
X207248500Y-86937278D01*
X207211356Y-86702759D01*
X207137982Y-86476937D01*
X207030185Y-86265373D01*
X206946675Y-86150432D01*
X206922818Y-86083565D01*
X206938898Y-86014414D01*
X206980111Y-85973787D01*
X206978990Y-85972290D01*
X207103261Y-85879261D01*
X207190887Y-85762207D01*
X207190887Y-85762206D01*
X207190889Y-85762204D01*
X207241989Y-85625201D01*
X207245018Y-85597032D01*
X207248499Y-85564649D01*
X207248500Y-85564632D01*
X207248500Y-83467367D01*
X207248499Y-83467350D01*
X207241990Y-83406803D01*
X207241988Y-83406795D01*
X207190889Y-83269797D01*
X207190887Y-83269792D01*
X207103261Y-83152738D01*
X206986207Y-83065112D01*
X206986202Y-83065110D01*
X206849204Y-83014011D01*
X206849196Y-83014009D01*
X206788649Y-83007500D01*
X206788638Y-83007500D01*
X204897889Y-83007500D01*
X204873308Y-83005079D01*
X204729635Y-82976500D01*
X204729630Y-82976500D01*
X204570370Y-82976500D01*
X204570367Y-82976500D01*
X204453219Y-82999802D01*
X204414169Y-83007570D01*
X204275257Y-83065110D01*
X204267032Y-83068517D01*
X204134609Y-83156998D01*
X204134603Y-83157003D01*
X204022003Y-83269603D01*
X204021998Y-83269609D01*
X203996464Y-83307824D01*
X203933517Y-83402032D01*
X203872570Y-83549169D01*
X203869901Y-83562587D01*
X203841500Y-83705367D01*
X203841500Y-83705370D01*
X203841500Y-83864630D01*
X203872570Y-84020831D01*
X203933517Y-84167968D01*
X204010144Y-84282649D01*
X204021998Y-84300390D01*
X204022003Y-84300396D01*
X204134606Y-84412999D01*
X204134614Y-84413005D01*
X204175500Y-84440324D01*
X204221029Y-84494800D01*
X204231500Y-84545090D01*
X204231500Y-85073577D01*
X204211498Y-85141698D01*
X204194595Y-85162672D01*
X203325595Y-86031672D01*
X203263283Y-86065698D01*
X203192468Y-86060633D01*
X203135632Y-86018086D01*
X203110821Y-85951566D01*
X203110500Y-85942577D01*
X203110500Y-78388500D01*
X203130502Y-78320379D01*
X203184158Y-78273886D01*
X203236500Y-78262500D01*
X204261758Y-78262500D01*
X204329879Y-78282502D01*
X204376372Y-78336158D01*
X204379813Y-78344466D01*
X204399111Y-78396205D01*
X204486738Y-78513261D01*
X204603792Y-78600887D01*
X204603794Y-78600888D01*
X204603796Y-78600889D01*
X204662875Y-78622924D01*
X204740795Y-78651988D01*
X204740803Y-78651990D01*
X204801350Y-78658499D01*
X204801355Y-78658499D01*
X204801362Y-78658500D01*
X204801368Y-78658500D01*
X205085813Y-78658500D01*
X205153934Y-78678502D01*
X205200427Y-78732158D01*
X205210531Y-78802432D01*
X205181037Y-78867012D01*
X205124749Y-78904333D01*
X205055486Y-78926837D01*
X205055480Y-78926840D01*
X204893072Y-79009591D01*
X204879014Y-79019803D01*
X204879013Y-79019804D01*
X205459209Y-79600000D01*
X205447339Y-79600000D01*
X205345606Y-79627259D01*
X205254394Y-79679920D01*
X205179920Y-79754394D01*
X205127259Y-79845606D01*
X205100000Y-79947339D01*
X205100000Y-79959209D01*
X204519804Y-79379013D01*
X204519803Y-79379014D01*
X204509591Y-79393072D01*
X204426840Y-79555480D01*
X204426837Y-79555486D01*
X204370515Y-79728828D01*
X204342000Y-79908866D01*
X204342000Y-80091133D01*
X204370515Y-80271171D01*
X204426837Y-80444513D01*
X204426840Y-80444519D01*
X204509588Y-80606923D01*
X204519803Y-80620984D01*
X205100000Y-80040788D01*
X205100000Y-80052661D01*
X205127259Y-80154394D01*
X205179920Y-80245606D01*
X205254394Y-80320080D01*
X205345606Y-80372741D01*
X205447339Y-80400000D01*
X205459210Y-80400000D01*
X204879014Y-80980194D01*
X204893078Y-80990412D01*
X205055480Y-81073159D01*
X205055486Y-81073162D01*
X205228830Y-81129484D01*
X205228826Y-81129484D01*
X205408866Y-81158000D01*
X205591134Y-81158000D01*
X205771171Y-81129484D01*
X205944513Y-81073162D01*
X205944519Y-81073159D01*
X206106928Y-80990408D01*
X206120984Y-80980195D01*
X206120984Y-80980193D01*
X205540791Y-80400000D01*
X205552661Y-80400000D01*
X205654394Y-80372741D01*
X205745606Y-80320080D01*
X205820080Y-80245606D01*
X205872741Y-80154394D01*
X205900000Y-80052661D01*
X205900000Y-80040791D01*
X206480193Y-80620984D01*
X206480195Y-80620984D01*
X206490408Y-80606928D01*
X206573159Y-80444519D01*
X206573162Y-80444513D01*
X206629484Y-80271171D01*
X206658000Y-80091133D01*
X206658000Y-79908866D01*
X206629484Y-79728828D01*
X206573162Y-79555486D01*
X206573159Y-79555480D01*
X206490412Y-79393078D01*
X206480194Y-79379014D01*
X205900000Y-79959208D01*
X205900000Y-79947339D01*
X205872741Y-79845606D01*
X205820080Y-79754394D01*
X205745606Y-79679920D01*
X205654394Y-79627259D01*
X205552661Y-79600000D01*
X205540790Y-79600000D01*
X206120985Y-79019803D01*
X206106923Y-79009588D01*
X205944519Y-78926840D01*
X205944513Y-78926837D01*
X205875251Y-78904333D01*
X205816645Y-78864259D01*
X205789008Y-78798863D01*
X205801115Y-78728906D01*
X205849121Y-78676600D01*
X205914187Y-78658500D01*
X206198632Y-78658500D01*
X206198638Y-78658500D01*
X206198645Y-78658499D01*
X206198649Y-78658499D01*
X206259196Y-78651990D01*
X206259199Y-78651989D01*
X206259201Y-78651989D01*
X206396204Y-78600889D01*
X206513261Y-78513261D01*
X206600889Y-78396204D01*
X206651989Y-78259201D01*
X206658500Y-78198638D01*
X206658500Y-76801362D01*
X206658431Y-76800721D01*
X206651990Y-76740803D01*
X206651988Y-76740795D01*
X206604310Y-76612968D01*
X206600889Y-76603796D01*
X206600888Y-76603794D01*
X206600887Y-76603792D01*
X206513261Y-76486738D01*
X206396207Y-76399112D01*
X206396202Y-76399110D01*
X206259204Y-76348011D01*
X206259196Y-76348009D01*
X206198649Y-76341500D01*
X206198638Y-76341500D01*
X204801362Y-76341500D01*
X204801350Y-76341500D01*
X204740803Y-76348009D01*
X204740795Y-76348011D01*
X204603797Y-76399110D01*
X204603792Y-76399112D01*
X204486738Y-76486738D01*
X204399111Y-76603794D01*
X204379813Y-76655534D01*
X204337266Y-76712369D01*
X204270746Y-76737179D01*
X204261758Y-76737500D01*
X203363500Y-76737500D01*
X203295379Y-76717498D01*
X203248886Y-76663842D01*
X203237500Y-76611500D01*
X203237500Y-76031500D01*
X203257502Y-75963379D01*
X203311158Y-75916886D01*
X203363500Y-75905500D01*
X209498500Y-75905500D01*
X209566621Y-75925502D01*
G37*
%TD.AperFunction*%
%TA.AperFunction,Conductor*%
G36*
X145939174Y-128499963D02*
G01*
X145947754Y-128488155D01*
X146003976Y-128444801D01*
X146074713Y-128438726D01*
X146137504Y-128471858D01*
X146151625Y-128488153D01*
X146245657Y-128617576D01*
X146245659Y-128617578D01*
X146245662Y-128617582D01*
X146402421Y-128774341D01*
X146519183Y-128859174D01*
X146581785Y-128904657D01*
X146779324Y-129005308D01*
X146990176Y-129073818D01*
X147209149Y-129108500D01*
X147209152Y-129108500D01*
X147430848Y-129108500D01*
X147430851Y-129108500D01*
X147649824Y-129073818D01*
X147860676Y-129005308D01*
X148058215Y-128904657D01*
X148237576Y-128774343D01*
X148394343Y-128617576D01*
X148488065Y-128488579D01*
X148544286Y-128445226D01*
X148615022Y-128439151D01*
X148677814Y-128472282D01*
X148691932Y-128488576D01*
X148785657Y-128617576D01*
X148785659Y-128617578D01*
X148785661Y-128617581D01*
X148942421Y-128774341D01*
X149059183Y-128859174D01*
X149121785Y-128904657D01*
X149319324Y-129005308D01*
X149530176Y-129073818D01*
X149749149Y-129108500D01*
X149749152Y-129108500D01*
X149970848Y-129108500D01*
X149970851Y-129108500D01*
X150189824Y-129073818D01*
X150400676Y-129005308D01*
X150598215Y-128904657D01*
X150777576Y-128774343D01*
X150934343Y-128617576D01*
X151028065Y-128488579D01*
X151084286Y-128445226D01*
X151155022Y-128439151D01*
X151217814Y-128472282D01*
X151231932Y-128488576D01*
X151325657Y-128617576D01*
X151325659Y-128617578D01*
X151325661Y-128617581D01*
X151482421Y-128774341D01*
X151599183Y-128859174D01*
X151661785Y-128904657D01*
X151859324Y-129005308D01*
X152070176Y-129073818D01*
X152289149Y-129108500D01*
X152289152Y-129108500D01*
X152510848Y-129108500D01*
X152510851Y-129108500D01*
X152729824Y-129073818D01*
X152869566Y-129028412D01*
X152940531Y-129026385D01*
X153001329Y-129063047D01*
X153032654Y-129126759D01*
X153034500Y-129148246D01*
X153034500Y-132062593D01*
X153058922Y-132185369D01*
X153058924Y-132185374D01*
X153065749Y-132201852D01*
X153106827Y-132301022D01*
X153176375Y-132405108D01*
X153264892Y-132493625D01*
X153368978Y-132563173D01*
X153484631Y-132611078D01*
X153607409Y-132635500D01*
X153732591Y-132635500D01*
X157617791Y-132635500D01*
X157685912Y-132655502D01*
X157732405Y-132709158D01*
X157734200Y-132713282D01*
X157786776Y-132840213D01*
X157786782Y-132840224D01*
X157908061Y-133050285D01*
X157908063Y-133050288D01*
X157908064Y-133050289D01*
X158055735Y-133242738D01*
X158055739Y-133242742D01*
X158055744Y-133242748D01*
X158227251Y-133414255D01*
X158227256Y-133414259D01*
X158227262Y-133414265D01*
X158419711Y-133561936D01*
X158419714Y-133561938D01*
X158629775Y-133683217D01*
X158629779Y-133683218D01*
X158629788Y-133683224D01*
X158853900Y-133776054D01*
X158853906Y-133776055D01*
X158853907Y-133776056D01*
X158856658Y-133776793D01*
X158857387Y-133777237D01*
X158857813Y-133777382D01*
X158857780Y-133777477D01*
X158917281Y-133813744D01*
X158948303Y-133877605D01*
X158939875Y-133948099D01*
X158894673Y-134002846D01*
X158827047Y-134024464D01*
X158824048Y-134024500D01*
X144271500Y-134024500D01*
X144203379Y-134004498D01*
X144156886Y-133950842D01*
X144145500Y-133898500D01*
X144145500Y-131005423D01*
X144154283Y-130975507D01*
X144160912Y-130945038D01*
X144164726Y-130939941D01*
X144165502Y-130937302D01*
X144182400Y-130916331D01*
X144265839Y-130832892D01*
X144328149Y-130798869D01*
X144330293Y-130798422D01*
X144435831Y-130777430D01*
X144435834Y-130777428D01*
X144435837Y-130777428D01*
X144582963Y-130716485D01*
X144582962Y-130716485D01*
X144582968Y-130716483D01*
X144715389Y-130628003D01*
X144828003Y-130515389D01*
X144916483Y-130382968D01*
X144977430Y-130235831D01*
X145008500Y-130079630D01*
X145008500Y-129920370D01*
X144977430Y-129764169D01*
X144916483Y-129617032D01*
X144828003Y-129484611D01*
X144828001Y-129484609D01*
X144827996Y-129484603D01*
X144715396Y-129372003D01*
X144715390Y-129371998D01*
X144665653Y-129338765D01*
X144620125Y-129284288D01*
X144611277Y-129213845D01*
X144641919Y-129149801D01*
X144702320Y-129112490D01*
X144735655Y-129108000D01*
X144890809Y-129108000D01*
X145109710Y-129073329D01*
X145320483Y-129004844D01*
X145320485Y-129004843D01*
X145517954Y-128904228D01*
X145517956Y-128904227D01*
X145579963Y-128859175D01*
X145579964Y-128859174D01*
X144904947Y-128184157D01*
X144972993Y-128165925D01*
X145087007Y-128100099D01*
X145180099Y-128007007D01*
X145245925Y-127892993D01*
X145264158Y-127824947D01*
X145939174Y-128499963D01*
G37*
%TD.AperFunction*%
%TA.AperFunction,Conductor*%
G36*
X145939174Y-103099963D02*
G01*
X145947754Y-103088155D01*
X146003976Y-103044801D01*
X146074713Y-103038726D01*
X146137504Y-103071858D01*
X146151625Y-103088153D01*
X146245657Y-103217576D01*
X146245659Y-103217578D01*
X146245662Y-103217582D01*
X146402421Y-103374341D01*
X146402424Y-103374343D01*
X146581193Y-103504227D01*
X146581784Y-103504656D01*
X146581788Y-103504659D01*
X146603757Y-103515852D01*
X146615700Y-103521937D01*
X146667317Y-103570684D01*
X146684500Y-103634205D01*
X146684500Y-119757609D01*
X146664498Y-119825730D01*
X146663266Y-119827610D01*
X146603516Y-119917033D01*
X146567594Y-120003756D01*
X146542570Y-120064169D01*
X146540940Y-120072366D01*
X146511500Y-120220367D01*
X146511500Y-120379632D01*
X146520132Y-120423026D01*
X146542570Y-120535831D01*
X146603517Y-120682968D01*
X146671432Y-120784611D01*
X146691998Y-120815390D01*
X146692003Y-120815396D01*
X146804603Y-120927996D01*
X146804609Y-120928001D01*
X146804611Y-120928003D01*
X146937032Y-121016483D01*
X147084169Y-121077430D01*
X147240370Y-121108500D01*
X147240371Y-121108500D01*
X147399629Y-121108500D01*
X147399630Y-121108500D01*
X147555831Y-121077430D01*
X147702968Y-121016483D01*
X147758499Y-120979378D01*
X147826251Y-120958164D01*
X147894718Y-120976947D01*
X147942161Y-121029764D01*
X147954500Y-121084144D01*
X147954500Y-123252593D01*
X147968448Y-123322714D01*
X147978922Y-123375369D01*
X148026827Y-123491022D01*
X148096375Y-123595108D01*
X148096377Y-123595110D01*
X149027104Y-124525837D01*
X149061130Y-124588149D01*
X149061588Y-124590350D01*
X149064986Y-124607430D01*
X149082570Y-124695831D01*
X149143517Y-124842968D01*
X149197577Y-124923875D01*
X149231998Y-124975390D01*
X149232003Y-124975396D01*
X149344603Y-125087996D01*
X149344609Y-125088001D01*
X149344611Y-125088003D01*
X149477032Y-125176483D01*
X149624169Y-125237430D01*
X149780370Y-125268500D01*
X149780371Y-125268500D01*
X149939629Y-125268500D01*
X149939630Y-125268500D01*
X150095831Y-125237430D01*
X150242968Y-125176483D01*
X150375389Y-125088003D01*
X150488003Y-124975389D01*
X150576483Y-124842968D01*
X150637430Y-124695831D01*
X150668500Y-124539630D01*
X150668500Y-124380370D01*
X150637430Y-124224169D01*
X150576483Y-124077032D01*
X150488003Y-123944611D01*
X150488001Y-123944609D01*
X150487996Y-123944603D01*
X150375396Y-123832003D01*
X150375390Y-123831998D01*
X150363570Y-123824100D01*
X150242968Y-123743517D01*
X150095831Y-123682570D01*
X150051098Y-123673672D01*
X149990350Y-123661588D01*
X149927440Y-123628680D01*
X149925837Y-123627104D01*
X149262405Y-122963672D01*
X149228379Y-122901360D01*
X149225500Y-122874577D01*
X149225500Y-103748246D01*
X149245502Y-103680125D01*
X149299158Y-103633632D01*
X149369432Y-103623528D01*
X149390425Y-103628410D01*
X149530176Y-103673818D01*
X149749149Y-103708500D01*
X149749152Y-103708500D01*
X149970848Y-103708500D01*
X149970851Y-103708500D01*
X150189824Y-103673818D01*
X150329566Y-103628412D01*
X150400531Y-103626385D01*
X150461329Y-103663047D01*
X150492654Y-103726759D01*
X150494500Y-103748246D01*
X150494500Y-121457609D01*
X150474498Y-121525730D01*
X150473266Y-121527610D01*
X150413516Y-121617033D01*
X150386205Y-121682967D01*
X150352570Y-121764169D01*
X150344802Y-121803219D01*
X150321500Y-121920367D01*
X150321500Y-122079632D01*
X150327755Y-122111077D01*
X150352570Y-122235831D01*
X150413517Y-122382968D01*
X150495500Y-122505665D01*
X150501998Y-122515390D01*
X150502003Y-122515396D01*
X150614603Y-122627996D01*
X150614609Y-122628001D01*
X150614611Y-122628003D01*
X150747032Y-122716483D01*
X150894169Y-122777430D01*
X151050370Y-122808500D01*
X151050371Y-122808500D01*
X151209629Y-122808500D01*
X151209630Y-122808500D01*
X151365831Y-122777430D01*
X151512968Y-122716483D01*
X151568499Y-122679378D01*
X151636251Y-122658164D01*
X151704718Y-122676947D01*
X151752161Y-122729764D01*
X151764500Y-122784144D01*
X151764500Y-126365794D01*
X151744498Y-126433915D01*
X151695704Y-126478060D01*
X151661784Y-126495343D01*
X151482421Y-126625658D01*
X151325658Y-126782421D01*
X151231936Y-126911419D01*
X151175713Y-126954773D01*
X151104977Y-126960848D01*
X151042185Y-126927716D01*
X151028064Y-126911419D01*
X150934341Y-126782421D01*
X150777578Y-126625658D01*
X150598218Y-126495345D01*
X150598217Y-126495344D01*
X150598215Y-126495343D01*
X150400676Y-126394692D01*
X150400673Y-126394691D01*
X150400671Y-126394690D01*
X150189829Y-126326183D01*
X150189825Y-126326182D01*
X150189824Y-126326182D01*
X149970851Y-126291500D01*
X149749149Y-126291500D01*
X149530176Y-126326182D01*
X149530170Y-126326183D01*
X149319328Y-126394690D01*
X149319322Y-126394693D01*
X149121781Y-126495345D01*
X148942421Y-126625658D01*
X148785658Y-126782421D01*
X148691936Y-126911419D01*
X148635713Y-126954773D01*
X148564977Y-126960848D01*
X148502185Y-126927716D01*
X148488064Y-126911419D01*
X148394341Y-126782421D01*
X148237578Y-126625658D01*
X148058218Y-126495345D01*
X148058217Y-126495344D01*
X148058215Y-126495343D01*
X147860676Y-126394692D01*
X147860673Y-126394691D01*
X147860671Y-126394690D01*
X147649829Y-126326183D01*
X147649825Y-126326182D01*
X147649824Y-126326182D01*
X147430851Y-126291500D01*
X147209149Y-126291500D01*
X146990176Y-126326182D01*
X146990170Y-126326183D01*
X146779328Y-126394690D01*
X146779322Y-126394693D01*
X146581781Y-126495345D01*
X146402421Y-126625658D01*
X146245658Y-126782421D01*
X146151627Y-126911844D01*
X146095404Y-126955198D01*
X146024668Y-126961273D01*
X145961876Y-126928141D01*
X145947756Y-126911845D01*
X145939175Y-126900035D01*
X145939173Y-126900035D01*
X145264157Y-127575051D01*
X145245925Y-127507007D01*
X145180099Y-127392993D01*
X145087007Y-127299901D01*
X144972993Y-127234075D01*
X144904946Y-127215841D01*
X145579963Y-126540824D01*
X145517952Y-126495770D01*
X145320485Y-126395156D01*
X145320483Y-126395155D01*
X145109710Y-126326670D01*
X144890809Y-126292000D01*
X144669191Y-126292000D01*
X144450287Y-126326670D01*
X144310436Y-126372111D01*
X144239468Y-126374139D01*
X144178671Y-126337476D01*
X144147345Y-126273764D01*
X144145500Y-126252278D01*
X144145500Y-103747721D01*
X144165502Y-103679600D01*
X144219158Y-103633107D01*
X144289432Y-103623003D01*
X144310437Y-103627888D01*
X144450289Y-103673329D01*
X144669191Y-103708000D01*
X144890809Y-103708000D01*
X145109710Y-103673329D01*
X145320483Y-103604844D01*
X145320485Y-103604843D01*
X145517954Y-103504228D01*
X145517956Y-103504227D01*
X145579963Y-103459175D01*
X145579964Y-103459174D01*
X144904947Y-102784157D01*
X144972993Y-102765925D01*
X145087007Y-102700099D01*
X145180099Y-102607007D01*
X145245925Y-102492993D01*
X145264158Y-102424947D01*
X145939174Y-103099963D01*
G37*
%TD.AperFunction*%
%TA.AperFunction,Conductor*%
G36*
X146856621Y-91715502D02*
G01*
X146903114Y-91769158D01*
X146914500Y-91821500D01*
X146914500Y-98234577D01*
X146894498Y-98302698D01*
X146877595Y-98323672D01*
X146826377Y-98374889D01*
X146826372Y-98374896D01*
X146756827Y-98478977D01*
X146708924Y-98594625D01*
X146708922Y-98594630D01*
X146684500Y-98717406D01*
X146684500Y-100965794D01*
X146664498Y-101033915D01*
X146615704Y-101078060D01*
X146581784Y-101095343D01*
X146402421Y-101225658D01*
X146245658Y-101382421D01*
X146151627Y-101511844D01*
X146095404Y-101555198D01*
X146024668Y-101561273D01*
X145961876Y-101528141D01*
X145947756Y-101511845D01*
X145939175Y-101500035D01*
X145939173Y-101500035D01*
X145264157Y-102175051D01*
X145245925Y-102107007D01*
X145180099Y-101992993D01*
X145087007Y-101899901D01*
X144972993Y-101834075D01*
X144904946Y-101815841D01*
X145579963Y-101140824D01*
X145517952Y-101095770D01*
X145320485Y-100995156D01*
X145320483Y-100995155D01*
X145109710Y-100926670D01*
X144890809Y-100892000D01*
X144669191Y-100892000D01*
X144450287Y-100926670D01*
X144310436Y-100972111D01*
X144239468Y-100974139D01*
X144178671Y-100937476D01*
X144147345Y-100873764D01*
X144145500Y-100852278D01*
X144145500Y-98805423D01*
X144165502Y-98737302D01*
X144182405Y-98716328D01*
X144536745Y-98361988D01*
X144893625Y-98005108D01*
X144963173Y-97901022D01*
X145011078Y-97785369D01*
X145035500Y-97662591D01*
X145035500Y-97537409D01*
X145035500Y-91821500D01*
X145055502Y-91753379D01*
X145109158Y-91706886D01*
X145161500Y-91695500D01*
X146788500Y-91695500D01*
X146856621Y-91715502D01*
G37*
%TD.AperFunction*%
%TA.AperFunction,Conductor*%
G36*
X163136621Y-95525502D02*
G01*
X163183114Y-95579158D01*
X163194500Y-95631500D01*
X163194500Y-100851753D01*
X163174498Y-100919874D01*
X163120842Y-100966367D01*
X163050568Y-100976471D01*
X163029564Y-100971586D01*
X162889827Y-100926183D01*
X162889830Y-100926183D01*
X162840822Y-100918421D01*
X162670850Y-100891500D01*
X162449148Y-100891500D01*
X162230175Y-100926182D01*
X162230169Y-100926183D01*
X162019327Y-100994690D01*
X162019321Y-100994693D01*
X161821780Y-101095345D01*
X161642420Y-101225658D01*
X161485661Y-101382417D01*
X161391935Y-101511419D01*
X161335712Y-101554772D01*
X161264976Y-101560847D01*
X161202184Y-101527715D01*
X161188063Y-101511418D01*
X161094341Y-101382421D01*
X160937578Y-101225658D01*
X160758218Y-101095345D01*
X160758217Y-101095344D01*
X160758215Y-101095343D01*
X160560676Y-100994692D01*
X160560673Y-100994691D01*
X160560671Y-100994690D01*
X160349829Y-100926183D01*
X160349825Y-100926182D01*
X160349824Y-100926182D01*
X160130851Y-100891500D01*
X159909149Y-100891500D01*
X159690176Y-100926182D01*
X159690170Y-100926183D01*
X159479328Y-100994690D01*
X159479322Y-100994693D01*
X159281781Y-101095345D01*
X159102421Y-101225658D01*
X158945658Y-101382421D01*
X158851936Y-101511419D01*
X158795713Y-101554773D01*
X158724977Y-101560848D01*
X158662185Y-101527716D01*
X158648064Y-101511419D01*
X158554341Y-101382421D01*
X158397578Y-101225658D01*
X158218218Y-101095345D01*
X158218217Y-101095344D01*
X158218215Y-101095343D01*
X158020676Y-100994692D01*
X158020673Y-100994691D01*
X158020671Y-100994690D01*
X157809829Y-100926183D01*
X157809825Y-100926182D01*
X157809824Y-100926182D01*
X157590851Y-100891500D01*
X157369149Y-100891500D01*
X157150176Y-100926182D01*
X157150170Y-100926183D01*
X157010436Y-100971586D01*
X156939468Y-100973614D01*
X156878671Y-100936951D01*
X156847345Y-100873239D01*
X156845500Y-100851753D01*
X156845500Y-98494500D01*
X156865502Y-98426379D01*
X156919158Y-98379886D01*
X156971500Y-98368500D01*
X157918632Y-98368500D01*
X157918638Y-98368500D01*
X157918645Y-98368499D01*
X157918649Y-98368499D01*
X157979196Y-98361990D01*
X157979199Y-98361989D01*
X157979201Y-98361989D01*
X158116204Y-98310889D01*
X158233261Y-98223261D01*
X158258015Y-98190194D01*
X158320887Y-98106207D01*
X158320887Y-98106206D01*
X158320889Y-98106204D01*
X158371989Y-97969201D01*
X158378500Y-97908638D01*
X158378500Y-97624186D01*
X158398502Y-97556065D01*
X158452158Y-97509572D01*
X158522432Y-97499468D01*
X158587012Y-97528962D01*
X158624333Y-97585250D01*
X158646837Y-97654513D01*
X158646840Y-97654519D01*
X158729588Y-97816923D01*
X158739803Y-97830984D01*
X159320000Y-97250788D01*
X159320000Y-97262661D01*
X159347259Y-97364394D01*
X159399920Y-97455606D01*
X159474394Y-97530080D01*
X159565606Y-97582741D01*
X159667339Y-97610000D01*
X159679210Y-97610000D01*
X159099014Y-98190194D01*
X159113078Y-98200412D01*
X159275480Y-98283159D01*
X159275486Y-98283162D01*
X159448830Y-98339484D01*
X159448826Y-98339484D01*
X159628866Y-98368000D01*
X159811134Y-98368000D01*
X159991171Y-98339484D01*
X160164513Y-98283162D01*
X160164519Y-98283159D01*
X160326928Y-98200408D01*
X160340984Y-98190195D01*
X160340984Y-98190193D01*
X159760791Y-97610000D01*
X159772661Y-97610000D01*
X159874394Y-97582741D01*
X159965606Y-97530080D01*
X160040080Y-97455606D01*
X160092741Y-97364394D01*
X160120000Y-97262661D01*
X160120000Y-97250791D01*
X160700193Y-97830984D01*
X160700195Y-97830984D01*
X160710408Y-97816928D01*
X160793159Y-97654519D01*
X160793162Y-97654513D01*
X160849484Y-97481171D01*
X160878000Y-97301133D01*
X160878000Y-97118866D01*
X160849484Y-96938828D01*
X160793162Y-96765486D01*
X160793159Y-96765480D01*
X160710412Y-96603078D01*
X160700194Y-96589014D01*
X160120000Y-97169208D01*
X160120000Y-97157339D01*
X160092741Y-97055606D01*
X160040080Y-96964394D01*
X159965606Y-96889920D01*
X159874394Y-96837259D01*
X159772661Y-96810000D01*
X159760790Y-96810000D01*
X160340985Y-96229803D01*
X160326923Y-96219588D01*
X160164519Y-96136840D01*
X160164513Y-96136837D01*
X159991169Y-96080515D01*
X159991173Y-96080515D01*
X159811134Y-96052000D01*
X159628866Y-96052000D01*
X159448828Y-96080515D01*
X159275486Y-96136837D01*
X159275480Y-96136840D01*
X159113072Y-96219591D01*
X159099014Y-96229803D01*
X159099013Y-96229804D01*
X159679209Y-96810000D01*
X159667339Y-96810000D01*
X159565606Y-96837259D01*
X159474394Y-96889920D01*
X159399920Y-96964394D01*
X159347259Y-97055606D01*
X159320000Y-97157339D01*
X159320000Y-97169209D01*
X158739804Y-96589013D01*
X158739803Y-96589014D01*
X158729591Y-96603072D01*
X158646840Y-96765480D01*
X158646837Y-96765486D01*
X158624333Y-96834749D01*
X158584259Y-96893355D01*
X158518863Y-96920992D01*
X158448906Y-96908885D01*
X158396600Y-96860879D01*
X158378500Y-96795813D01*
X158378500Y-96511367D01*
X158378499Y-96511350D01*
X158371990Y-96450803D01*
X158371988Y-96450795D01*
X158323903Y-96321877D01*
X158323896Y-96321859D01*
X158320889Y-96313796D01*
X158320887Y-96313793D01*
X158320887Y-96313792D01*
X158233261Y-96196738D01*
X158116207Y-96109112D01*
X158116202Y-96109110D01*
X157979204Y-96058011D01*
X157979196Y-96058009D01*
X157918649Y-96051500D01*
X157918638Y-96051500D01*
X157858500Y-96051500D01*
X157790379Y-96031498D01*
X157743886Y-95977842D01*
X157732500Y-95925500D01*
X157732500Y-95631500D01*
X157752502Y-95563379D01*
X157806158Y-95516886D01*
X157858500Y-95505500D01*
X163068500Y-95505500D01*
X163136621Y-95525502D01*
G37*
%TD.AperFunction*%
%TA.AperFunction,Conductor*%
G36*
X148620561Y-80995261D02*
G01*
X148653916Y-81004540D01*
X148654538Y-81005238D01*
X148655437Y-81005502D01*
X148678129Y-81031690D01*
X148701170Y-81057526D01*
X148701532Y-81058699D01*
X148701930Y-81059158D01*
X148711765Y-81091789D01*
X148730515Y-81210171D01*
X148786837Y-81383513D01*
X148786840Y-81383519D01*
X148869588Y-81545923D01*
X148879803Y-81559984D01*
X149417386Y-81022404D01*
X149461747Y-80998181D01*
X149487259Y-81093394D01*
X149539920Y-81184606D01*
X149614394Y-81259080D01*
X149705606Y-81311741D01*
X149807339Y-81339000D01*
X149819210Y-81339000D01*
X149239014Y-81919194D01*
X149253078Y-81929412D01*
X149415480Y-82012159D01*
X149415486Y-82012162D01*
X149484749Y-82034667D01*
X149543355Y-82074741D01*
X149570992Y-82140137D01*
X149558885Y-82210094D01*
X149510879Y-82262400D01*
X149445813Y-82280500D01*
X149161350Y-82280500D01*
X149100803Y-82287009D01*
X149100795Y-82287011D01*
X148963797Y-82338110D01*
X148963792Y-82338112D01*
X148846738Y-82425738D01*
X148759112Y-82542792D01*
X148759110Y-82542797D01*
X148708011Y-82679795D01*
X148708009Y-82679803D01*
X148701500Y-82740350D01*
X148701500Y-84137649D01*
X148708009Y-84198196D01*
X148708011Y-84198204D01*
X148759110Y-84335202D01*
X148759112Y-84335207D01*
X148846738Y-84452261D01*
X148963792Y-84539887D01*
X148963794Y-84539888D01*
X148963796Y-84539889D01*
X149022875Y-84561924D01*
X149100795Y-84590988D01*
X149100803Y-84590990D01*
X149161350Y-84597499D01*
X149161355Y-84597499D01*
X149161362Y-84597500D01*
X149161368Y-84597500D01*
X150558632Y-84597500D01*
X150558638Y-84597500D01*
X150558645Y-84597499D01*
X150558649Y-84597499D01*
X150619196Y-84590990D01*
X150619199Y-84590989D01*
X150619201Y-84590989D01*
X150756204Y-84539889D01*
X150756576Y-84539611D01*
X150873261Y-84452261D01*
X150960887Y-84335207D01*
X150960887Y-84335206D01*
X150960889Y-84335204D01*
X151011989Y-84198201D01*
X151015240Y-84167968D01*
X151018499Y-84137649D01*
X151018500Y-84137632D01*
X151018500Y-82740367D01*
X151018499Y-82740350D01*
X151011990Y-82679803D01*
X151011988Y-82679795D01*
X150966186Y-82556998D01*
X150960889Y-82542796D01*
X150960888Y-82542794D01*
X150960887Y-82542792D01*
X150873261Y-82425738D01*
X150756207Y-82338112D01*
X150756202Y-82338110D01*
X150619204Y-82287011D01*
X150619196Y-82287009D01*
X150558649Y-82280500D01*
X150558638Y-82280500D01*
X150274187Y-82280500D01*
X150206066Y-82260498D01*
X150159573Y-82206842D01*
X150149469Y-82136568D01*
X150178963Y-82071988D01*
X150235251Y-82034667D01*
X150304513Y-82012162D01*
X150304519Y-82012159D01*
X150466928Y-81929408D01*
X150480984Y-81919195D01*
X150480984Y-81919193D01*
X149900791Y-81339000D01*
X149912661Y-81339000D01*
X150014394Y-81311741D01*
X150105606Y-81259080D01*
X150180080Y-81184606D01*
X150232741Y-81093394D01*
X150258140Y-80998601D01*
X150281641Y-81005502D01*
X150302616Y-81022405D01*
X150840194Y-81559984D01*
X150840195Y-81559984D01*
X150850408Y-81545928D01*
X150933159Y-81383519D01*
X150933162Y-81383513D01*
X150989484Y-81210171D01*
X151008235Y-81091789D01*
X151038648Y-81027636D01*
X151098916Y-80990109D01*
X151132684Y-80985500D01*
X162283500Y-80985500D01*
X162351621Y-81005502D01*
X162398114Y-81059158D01*
X162409500Y-81111500D01*
X162409500Y-81152692D01*
X162446647Y-81506121D01*
X162520534Y-81853734D01*
X162630349Y-82191709D01*
X162630350Y-82191710D01*
X162774897Y-82516367D01*
X162952577Y-82824121D01*
X162954378Y-82826893D01*
X162954232Y-82826987D01*
X162954234Y-82826990D01*
X162954185Y-82827017D01*
X162953219Y-82827645D01*
X162975214Y-82889339D01*
X162959116Y-82958486D01*
X162908190Y-83007954D01*
X162849418Y-83022500D01*
X161974896Y-83022500D01*
X161827585Y-83051803D01*
X161827584Y-83051804D01*
X161746295Y-83085475D01*
X161698266Y-83105370D01*
X161688819Y-83109283D01*
X161563939Y-83192725D01*
X161563932Y-83192730D01*
X161457730Y-83298932D01*
X161457725Y-83298939D01*
X161374283Y-83423819D01*
X161316804Y-83562584D01*
X161316803Y-83562585D01*
X161287500Y-83709896D01*
X161287500Y-84781403D01*
X161267498Y-84849524D01*
X161213842Y-84896017D01*
X161143568Y-84906121D01*
X161078988Y-84876627D01*
X161052381Y-84844404D01*
X161016007Y-84781403D01*
X160991936Y-84739711D01*
X160844265Y-84547262D01*
X160844259Y-84547256D01*
X160844255Y-84547251D01*
X160672748Y-84375744D01*
X160672742Y-84375739D01*
X160672738Y-84375735D01*
X160480289Y-84228064D01*
X160480288Y-84228063D01*
X160480285Y-84228061D01*
X160270224Y-84106782D01*
X160270216Y-84106778D01*
X160270212Y-84106776D01*
X160046100Y-84013946D01*
X160046097Y-84013945D01*
X160046095Y-84013944D01*
X159811782Y-83951160D01*
X159571290Y-83919500D01*
X159571288Y-83919500D01*
X159328712Y-83919500D01*
X159328709Y-83919500D01*
X159088217Y-83951160D01*
X158853904Y-84013944D01*
X158853900Y-84013946D01*
X158629786Y-84106777D01*
X158629775Y-84106782D01*
X158419714Y-84228061D01*
X158227262Y-84375735D01*
X158227251Y-84375744D01*
X158055744Y-84547251D01*
X158055735Y-84547262D01*
X157908061Y-84739714D01*
X157786782Y-84949775D01*
X157786777Y-84949786D01*
X157786776Y-84949788D01*
X157780312Y-84965394D01*
X157693946Y-85173900D01*
X157693941Y-85173915D01*
X157673256Y-85251112D01*
X157636305Y-85311734D01*
X157572444Y-85342756D01*
X157551550Y-85344500D01*
X156463500Y-85344500D01*
X156395379Y-85324498D01*
X156348886Y-85270842D01*
X156337500Y-85218500D01*
X156337500Y-83481936D01*
X156347090Y-83433720D01*
X156352430Y-83420831D01*
X156383500Y-83264630D01*
X156383500Y-83105370D01*
X156352430Y-82949169D01*
X156291483Y-82802032D01*
X156203003Y-82669611D01*
X156203001Y-82669609D01*
X156202996Y-82669603D01*
X156090396Y-82557003D01*
X156090390Y-82556998D01*
X156082862Y-82551968D01*
X155957968Y-82468517D01*
X155810831Y-82407570D01*
X155732730Y-82392035D01*
X155654632Y-82376500D01*
X155654630Y-82376500D01*
X155495370Y-82376500D01*
X155495367Y-82376500D01*
X155378219Y-82399802D01*
X155339169Y-82407570D01*
X155339167Y-82407571D01*
X155192032Y-82468517D01*
X155059609Y-82556998D01*
X155059603Y-82557003D01*
X154947003Y-82669603D01*
X154946998Y-82669609D01*
X154937119Y-82684394D01*
X154858517Y-82802032D01*
X154797570Y-82949169D01*
X154793634Y-82968958D01*
X154766500Y-83105367D01*
X154766500Y-83264632D01*
X154795442Y-83410137D01*
X154797570Y-83420831D01*
X154802909Y-83433720D01*
X154812500Y-83481936D01*
X154812500Y-85218500D01*
X154792498Y-85286621D01*
X154738842Y-85333114D01*
X154686500Y-85344500D01*
X154313291Y-85344500D01*
X154245170Y-85324498D01*
X154198677Y-85270842D01*
X154193458Y-85257435D01*
X154153571Y-85134673D01*
X154067319Y-84965394D01*
X153955648Y-84811692D01*
X153955645Y-84811689D01*
X153955643Y-84811686D01*
X153821313Y-84677356D01*
X153821310Y-84677354D01*
X153821308Y-84677352D01*
X153702441Y-84590990D01*
X153667609Y-84565683D01*
X153667608Y-84565682D01*
X153667606Y-84565681D01*
X153498327Y-84479429D01*
X153498324Y-84479428D01*
X153498322Y-84479427D01*
X153317644Y-84420722D01*
X153317642Y-84420721D01*
X153317640Y-84420721D01*
X153129993Y-84391000D01*
X152940007Y-84391000D01*
X152752360Y-84420721D01*
X152752358Y-84420721D01*
X152752355Y-84420722D01*
X152571677Y-84479427D01*
X152571671Y-84479430D01*
X152402390Y-84565683D01*
X152248689Y-84677354D01*
X152248686Y-84677356D01*
X152114356Y-84811686D01*
X152114354Y-84811689D01*
X152002683Y-84965390D01*
X151916430Y-85134671D01*
X151916426Y-85134680D01*
X151894368Y-85202570D01*
X151877497Y-85254497D01*
X151876542Y-85257435D01*
X151836469Y-85316041D01*
X151771073Y-85343679D01*
X151756709Y-85344500D01*
X149542391Y-85344500D01*
X149474270Y-85324498D01*
X149472390Y-85323266D01*
X149395002Y-85271558D01*
X149382968Y-85263517D01*
X149235831Y-85202570D01*
X149157730Y-85187035D01*
X149079632Y-85171500D01*
X149079630Y-85171500D01*
X148920370Y-85171500D01*
X148920367Y-85171500D01*
X148803219Y-85194802D01*
X148764169Y-85202570D01*
X148725711Y-85218500D01*
X148617032Y-85263517D01*
X148484609Y-85351998D01*
X148484603Y-85352003D01*
X148372003Y-85464603D01*
X148371998Y-85464609D01*
X148283517Y-85597032D01*
X148222571Y-85744167D01*
X148222570Y-85744170D01*
X148191500Y-85900367D01*
X148191500Y-86059632D01*
X148197376Y-86089170D01*
X148222570Y-86215831D01*
X148283517Y-86362968D01*
X148371997Y-86495389D01*
X148371998Y-86495390D01*
X148372003Y-86495396D01*
X148402512Y-86525905D01*
X148436538Y-86588217D01*
X148431473Y-86659032D01*
X148414304Y-86690484D01*
X148408895Y-86697712D01*
X148371997Y-86734611D01*
X148294426Y-86850704D01*
X148292418Y-86853389D01*
X148269450Y-86870591D01*
X148243072Y-86892881D01*
X147300043Y-87315618D01*
X147296721Y-87317050D01*
X147248980Y-87336825D01*
X147248970Y-87336830D01*
X147241314Y-87341945D01*
X147232930Y-87345704D01*
X147189401Y-87376632D01*
X147187883Y-87377647D01*
X147187881Y-87377647D01*
X147144894Y-87406372D01*
X147144891Y-87406375D01*
X147138384Y-87412882D01*
X147130884Y-87418212D01*
X147094210Y-87457053D01*
X147092893Y-87458371D01*
X147092894Y-87458371D01*
X147056373Y-87494892D01*
X147052448Y-87499676D01*
X147052428Y-87499660D01*
X147048714Y-87504321D01*
X147048734Y-87504336D01*
X147044947Y-87509231D01*
X147017480Y-87553007D01*
X147016510Y-87554551D01*
X146986827Y-87598978D01*
X146983309Y-87607469D01*
X146978416Y-87615269D01*
X146978415Y-87615273D01*
X146960025Y-87663545D01*
X146958690Y-87666904D01*
X146938922Y-87714630D01*
X146937126Y-87720551D01*
X146937102Y-87720543D01*
X146935449Y-87726288D01*
X146935474Y-87726295D01*
X146933850Y-87732259D01*
X146925230Y-87783197D01*
X146925229Y-87783196D01*
X146924921Y-87785016D01*
X146914500Y-87837409D01*
X146914500Y-87846605D01*
X146912964Y-87855683D01*
X146914448Y-87907316D01*
X146914500Y-87910934D01*
X146914500Y-90298500D01*
X146894498Y-90366621D01*
X146840842Y-90413114D01*
X146788500Y-90424500D01*
X144537405Y-90424500D01*
X144423082Y-90447241D01*
X144352367Y-90440913D01*
X144296300Y-90397359D01*
X144272681Y-90330406D01*
X144272500Y-90323662D01*
X144272500Y-83608936D01*
X144282090Y-83560720D01*
X144287430Y-83547831D01*
X144318500Y-83391630D01*
X144318500Y-83232370D01*
X144295575Y-83117117D01*
X144301903Y-83046405D01*
X144345457Y-82990337D01*
X144394572Y-82968958D01*
X144507831Y-82946430D01*
X144654968Y-82885483D01*
X144787389Y-82797003D01*
X144900003Y-82684389D01*
X144920630Y-82653519D01*
X144950376Y-82609000D01*
X144988483Y-82551968D01*
X145049430Y-82404831D01*
X145080500Y-82248630D01*
X145080500Y-82089370D01*
X145049430Y-81933169D01*
X144988483Y-81786032D01*
X144928734Y-81696610D01*
X144907520Y-81628857D01*
X144907500Y-81626609D01*
X144907500Y-81111500D01*
X144927502Y-81043379D01*
X144981158Y-80996886D01*
X145033500Y-80985500D01*
X148587316Y-80985500D01*
X148620561Y-80995261D01*
G37*
%TD.AperFunction*%
%TD*%
M02*
